G75*
%MOIN*%
%OFA0B0*%
%FSLAX25Y25*%
%IPPOS*%
%LPD*%
%AMOC8*
5,1,8,0,0,1.08239X$1,22.5*
%
%ADD10C,0.10950*%
%ADD11R,0.04921X0.01575*%
%ADD12R,0.10000X0.20000*%
%ADD13C,0.07050*%
%ADD14R,0.05118X0.05906*%
%ADD15C,0.03200*%
%ADD16C,0.01600*%
%ADD17R,0.03962X0.03962*%
%ADD18C,0.02400*%
D10*
X0137600Y0038600D03*
X0137600Y0066600D03*
X0207600Y0066600D03*
X0207600Y0038600D03*
X0277600Y0038600D03*
X0277600Y0066600D03*
X0277600Y0208600D03*
X0277600Y0236600D03*
X0207600Y0236600D03*
X0207600Y0208600D03*
X0137600Y0208600D03*
X0137600Y0236600D03*
D11*
X0193328Y0151675D03*
X0193328Y0149116D03*
X0193328Y0146557D03*
X0193328Y0143998D03*
X0193328Y0141439D03*
X0193328Y0138880D03*
X0193328Y0136320D03*
X0193328Y0133761D03*
X0193328Y0131202D03*
X0193328Y0128643D03*
X0193328Y0126084D03*
X0193328Y0123525D03*
X0221872Y0123525D03*
X0221872Y0126084D03*
X0221872Y0128643D03*
X0221872Y0131202D03*
X0221872Y0133761D03*
X0221872Y0136320D03*
X0221872Y0138880D03*
X0221872Y0141439D03*
X0221872Y0143998D03*
X0221872Y0146557D03*
X0221872Y0149116D03*
X0221872Y0151675D03*
D12*
X0322600Y0257600D03*
X0382600Y0257600D03*
X0087600Y0257600D03*
X0027600Y0257600D03*
D13*
X0029475Y0197400D02*
X0036525Y0197400D01*
X0036525Y0177800D02*
X0029475Y0177800D01*
X0078675Y0177800D02*
X0085725Y0177800D01*
X0085725Y0197400D02*
X0078675Y0197400D01*
X0078675Y0097400D02*
X0085725Y0097400D01*
X0085725Y0077800D02*
X0078675Y0077800D01*
X0036525Y0077800D02*
X0029475Y0077800D01*
X0029475Y0097400D02*
X0036525Y0097400D01*
X0329475Y0102400D02*
X0336525Y0102400D01*
X0336525Y0082800D02*
X0329475Y0082800D01*
X0378675Y0082800D02*
X0385725Y0082800D01*
X0385725Y0102400D02*
X0378675Y0102400D01*
X0378675Y0177800D02*
X0385725Y0177800D01*
X0385725Y0197400D02*
X0378675Y0197400D01*
X0336525Y0197400D02*
X0329475Y0197400D01*
X0329475Y0177800D02*
X0336525Y0177800D01*
D14*
X0321340Y0187600D03*
X0313860Y0187600D03*
X0313860Y0092600D03*
X0321340Y0092600D03*
X0101340Y0087600D03*
X0093860Y0087600D03*
X0093860Y0187600D03*
X0101340Y0187600D03*
D15*
X0096719Y0068372D02*
X0129377Y0068372D01*
X0129325Y0068246D02*
X0129325Y0064954D01*
X0130585Y0061913D01*
X0132913Y0059585D01*
X0135954Y0058325D01*
X0139246Y0058325D01*
X0142287Y0059585D01*
X0144615Y0061913D01*
X0145875Y0064954D01*
X0145875Y0068246D01*
X0144615Y0071287D01*
X0142287Y0073615D01*
X0139246Y0074875D01*
X0135954Y0074875D01*
X0132913Y0073615D01*
X0130585Y0071287D01*
X0129325Y0068246D01*
X0129325Y0065173D02*
X0099918Y0065173D01*
X0103116Y0061975D02*
X0130559Y0061975D01*
X0134865Y0058776D02*
X0106315Y0058776D01*
X0109513Y0055578D02*
X0148355Y0055578D01*
X0151554Y0058776D02*
X0140335Y0058776D01*
X0144641Y0061975D02*
X0154752Y0061975D01*
X0157951Y0065173D02*
X0145875Y0065173D01*
X0145823Y0068372D02*
X0161149Y0068372D01*
X0164348Y0071570D02*
X0144332Y0071570D01*
X0139503Y0074769D02*
X0167546Y0074769D01*
X0170745Y0077967D02*
X0092050Y0077967D01*
X0092050Y0079058D02*
X0091087Y0081383D01*
X0090537Y0081933D01*
X0090744Y0081847D01*
X0096976Y0081847D01*
X0097861Y0082214D01*
X0098023Y0082147D01*
X0098525Y0082047D01*
X0101340Y0082047D01*
X0101340Y0087600D01*
X0101340Y0093153D01*
X0098525Y0093153D01*
X0098023Y0093053D01*
X0097861Y0092986D01*
X0097460Y0093152D01*
X0097460Y0112056D01*
X0096912Y0113379D01*
X0092381Y0117910D01*
X0092381Y0120138D01*
X0091955Y0121167D01*
X0091167Y0121955D01*
X0090138Y0122381D01*
X0085062Y0122381D01*
X0084033Y0121955D01*
X0083245Y0121167D01*
X0082819Y0120138D01*
X0082819Y0115062D01*
X0083245Y0114033D01*
X0084033Y0113245D01*
X0085062Y0112819D01*
X0087290Y0112819D01*
X0090260Y0109849D01*
X0090260Y0101810D01*
X0089308Y0102762D01*
X0086983Y0103725D01*
X0077417Y0103725D01*
X0075092Y0102762D01*
X0073313Y0100983D01*
X0072350Y0098658D01*
X0072350Y0096142D01*
X0073313Y0093817D01*
X0075092Y0092038D01*
X0077417Y0091075D01*
X0082302Y0091075D01*
X0088501Y0084877D01*
X0088501Y0084090D01*
X0088798Y0083373D01*
X0086983Y0084125D01*
X0077417Y0084125D01*
X0075092Y0083162D01*
X0073330Y0081400D01*
X0051200Y0081400D01*
X0051200Y0098760D01*
X0052417Y0097543D01*
X0055780Y0096150D01*
X0059420Y0096150D01*
X0062783Y0097543D01*
X0065357Y0100117D01*
X0066750Y0103480D01*
X0066750Y0107120D01*
X0065357Y0110483D01*
X0062783Y0113057D01*
X0059420Y0114450D01*
X0055780Y0114450D01*
X0052417Y0113057D01*
X0051200Y0111840D01*
X0051200Y0163360D01*
X0052417Y0162143D01*
X0055780Y0160750D01*
X0059420Y0160750D01*
X0062783Y0162143D01*
X0065357Y0164717D01*
X0066750Y0168080D01*
X0066750Y0171720D01*
X0065723Y0174200D01*
X0073330Y0174200D01*
X0075092Y0172438D01*
X0077417Y0171475D01*
X0086983Y0171475D01*
X0089308Y0172438D01*
X0091087Y0174217D01*
X0092050Y0176542D01*
X0092050Y0179058D01*
X0091087Y0181383D01*
X0090537Y0181933D01*
X0090744Y0181847D01*
X0096976Y0181847D01*
X0097861Y0182214D01*
X0098023Y0182147D01*
X0098525Y0182047D01*
X0101340Y0182047D01*
X0101340Y0187600D01*
X0101340Y0193153D01*
X0098525Y0193153D01*
X0098023Y0193053D01*
X0097861Y0192986D01*
X0096976Y0193353D01*
X0091338Y0193353D01*
X0090981Y0193711D01*
X0091087Y0193817D01*
X0091163Y0194000D01*
X0106109Y0194000D01*
X0159163Y0140946D01*
X0160486Y0140398D01*
X0188068Y0140398D01*
X0188068Y0137535D01*
X0188140Y0137361D01*
X0173045Y0137361D01*
X0171722Y0136813D01*
X0167290Y0132381D01*
X0165062Y0132381D01*
X0164033Y0131955D01*
X0163245Y0131167D01*
X0162819Y0130138D01*
X0162819Y0125062D01*
X0163245Y0124033D01*
X0164033Y0123245D01*
X0165062Y0122819D01*
X0170138Y0122819D01*
X0171167Y0123245D01*
X0171955Y0124033D01*
X0172381Y0125062D01*
X0172381Y0127290D01*
X0172819Y0127728D01*
X0172819Y0125062D01*
X0173245Y0124033D01*
X0174033Y0123245D01*
X0175062Y0122819D01*
X0180138Y0122819D01*
X0181167Y0123245D01*
X0181955Y0124033D01*
X0182381Y0125062D01*
X0182381Y0127290D01*
X0182694Y0127602D01*
X0188068Y0127602D01*
X0188068Y0122181D01*
X0188494Y0121152D01*
X0188928Y0120717D01*
X0188928Y0096151D01*
X0139533Y0046756D01*
X0139246Y0046875D01*
X0135954Y0046875D01*
X0132913Y0045615D01*
X0130585Y0043287D01*
X0130134Y0042200D01*
X0122891Y0042200D01*
X0090981Y0074111D01*
X0091087Y0074217D01*
X0092050Y0076542D01*
X0092050Y0079058D01*
X0091177Y0081166D02*
X0173943Y0081166D01*
X0177142Y0084364D02*
X0106494Y0084364D01*
X0106499Y0084391D02*
X0106499Y0087600D01*
X0106499Y0090809D01*
X0106399Y0091311D01*
X0106203Y0091784D01*
X0105919Y0092210D01*
X0105557Y0092572D01*
X0105131Y0092857D01*
X0104658Y0093053D01*
X0104155Y0093153D01*
X0101340Y0093153D01*
X0101340Y0087600D01*
X0101340Y0087600D01*
X0101340Y0087600D01*
X0101340Y0082047D01*
X0104155Y0082047D01*
X0104658Y0082147D01*
X0105131Y0082343D01*
X0105557Y0082628D01*
X0105919Y0082990D01*
X0106203Y0083416D01*
X0106399Y0083889D01*
X0106499Y0084391D01*
X0106499Y0087563D02*
X0180340Y0087563D01*
X0183539Y0090761D02*
X0106499Y0090761D01*
X0106499Y0087600D02*
X0101340Y0087600D01*
X0101340Y0087600D01*
X0106499Y0087600D01*
X0101340Y0087563D02*
X0101340Y0087563D01*
X0101340Y0090761D02*
X0101340Y0090761D01*
X0097460Y0093960D02*
X0186737Y0093960D01*
X0188928Y0097158D02*
X0097460Y0097158D01*
X0097460Y0100357D02*
X0188928Y0100357D01*
X0188928Y0103555D02*
X0097460Y0103555D01*
X0097460Y0106754D02*
X0188928Y0106754D01*
X0188928Y0109952D02*
X0097460Y0109952D01*
X0090260Y0106754D02*
X0066750Y0106754D01*
X0066750Y0103555D02*
X0077007Y0103555D01*
X0073054Y0100357D02*
X0065456Y0100357D01*
X0061854Y0097158D02*
X0072350Y0097158D01*
X0073254Y0093960D02*
X0051200Y0093960D01*
X0051200Y0097158D02*
X0053346Y0097158D01*
X0051200Y0090761D02*
X0082616Y0090761D01*
X0085815Y0087563D02*
X0051200Y0087563D01*
X0051200Y0084364D02*
X0088501Y0084364D01*
X0092000Y0087600D02*
X0082200Y0097400D01*
X0087393Y0103555D02*
X0090260Y0103555D01*
X0090156Y0109952D02*
X0065577Y0109952D01*
X0062556Y0113151D02*
X0084260Y0113151D01*
X0082819Y0116349D02*
X0051200Y0116349D01*
X0051200Y0113151D02*
X0052644Y0113151D01*
X0051200Y0119548D02*
X0082819Y0119548D01*
X0092381Y0119548D02*
X0188928Y0119548D01*
X0188928Y0116349D02*
X0093942Y0116349D01*
X0097006Y0113151D02*
X0188928Y0113151D01*
X0197728Y0113151D02*
X0348877Y0113151D01*
X0348450Y0112120D02*
X0349843Y0115483D01*
X0352417Y0118057D01*
X0355780Y0119450D01*
X0359420Y0119450D01*
X0362783Y0118057D01*
X0365357Y0115483D01*
X0366750Y0112120D01*
X0366750Y0108480D01*
X0365357Y0105117D01*
X0362783Y0102543D01*
X0359420Y0101150D01*
X0355780Y0101150D01*
X0352417Y0102543D01*
X0349843Y0105117D01*
X0348450Y0108480D01*
X0348450Y0112120D01*
X0348450Y0109952D02*
X0197728Y0109952D01*
X0197728Y0106754D02*
X0324884Y0106754D01*
X0324113Y0105983D02*
X0323150Y0103658D01*
X0323150Y0101142D01*
X0324113Y0098817D01*
X0324663Y0098267D01*
X0324456Y0098353D01*
X0318224Y0098353D01*
X0317339Y0097986D01*
X0317177Y0098053D01*
X0316675Y0098153D01*
X0313860Y0098153D01*
X0313860Y0092600D01*
X0313860Y0092600D01*
X0313860Y0087047D01*
X0316675Y0087047D01*
X0317177Y0087147D01*
X0317339Y0087214D01*
X0318224Y0086847D01*
X0324456Y0086847D01*
X0324663Y0086933D01*
X0324113Y0086383D01*
X0323150Y0084058D01*
X0323150Y0081542D01*
X0324113Y0079217D01*
X0325892Y0077438D01*
X0328217Y0076475D01*
X0337783Y0076475D01*
X0340108Y0077438D01*
X0341870Y0079200D01*
X0349477Y0079200D01*
X0348450Y0076720D01*
X0348450Y0073080D01*
X0349843Y0069717D01*
X0352417Y0067143D01*
X0355780Y0065750D01*
X0359420Y0065750D01*
X0362783Y0067143D01*
X0365357Y0069717D01*
X0366750Y0073080D01*
X0366750Y0076720D01*
X0365723Y0079200D01*
X0373330Y0079200D01*
X0375092Y0077438D01*
X0377417Y0076475D01*
X0386384Y0076475D01*
X0361109Y0051200D01*
X0156423Y0051200D01*
X0195821Y0090598D01*
X0197058Y0091836D01*
X0197728Y0093453D01*
X0197728Y0120717D01*
X0198163Y0121152D01*
X0198589Y0122181D01*
X0198589Y0125066D01*
X0199071Y0125066D01*
X0200394Y0125614D01*
X0201407Y0126626D01*
X0202878Y0128097D01*
X0203426Y0129420D01*
X0203426Y0138295D01*
X0202878Y0139618D01*
X0202148Y0140348D01*
X0203152Y0141352D01*
X0203700Y0142675D01*
X0203700Y0148316D01*
X0203152Y0149639D01*
X0202139Y0150652D01*
X0200623Y0152168D01*
X0199300Y0152716D01*
X0198589Y0152716D01*
X0198589Y0153019D01*
X0198163Y0154048D01*
X0197375Y0154836D01*
X0196346Y0155262D01*
X0194075Y0155262D01*
X0194044Y0155275D01*
X0192612Y0155275D01*
X0192582Y0155262D01*
X0190311Y0155262D01*
X0189282Y0154836D01*
X0188494Y0154048D01*
X0188068Y0153019D01*
X0188068Y0150157D01*
X0174564Y0150157D01*
X0167381Y0154087D01*
X0167381Y0155138D01*
X0166955Y0156167D01*
X0166167Y0156955D01*
X0165138Y0157381D01*
X0160062Y0157381D01*
X0159033Y0156955D01*
X0158245Y0156167D01*
X0157819Y0155138D01*
X0157819Y0152472D01*
X0137091Y0173200D01*
X0194124Y0173200D01*
X0216611Y0150713D01*
X0216611Y0147771D01*
X0216811Y0147289D01*
X0216811Y0146557D01*
X0217223Y0146557D01*
X0217223Y0146557D01*
X0216811Y0146557D01*
X0216811Y0145513D01*
X0216858Y0145277D01*
X0216811Y0145041D01*
X0216811Y0143998D01*
X0217223Y0143998D01*
X0217223Y0143998D01*
X0216811Y0143998D01*
X0216811Y0143266D01*
X0216611Y0142783D01*
X0216611Y0132417D01*
X0216811Y0131934D01*
X0216811Y0131202D01*
X0216811Y0130159D01*
X0216858Y0129923D01*
X0216811Y0129687D01*
X0216811Y0128643D01*
X0216811Y0127911D01*
X0216611Y0127429D01*
X0216611Y0122181D01*
X0217037Y0121152D01*
X0217825Y0120364D01*
X0218854Y0119938D01*
X0221125Y0119938D01*
X0221156Y0119925D01*
X0222020Y0119925D01*
X0223075Y0118870D01*
X0224693Y0118200D01*
X0253475Y0118200D01*
X0255092Y0118870D01*
X0300092Y0163870D01*
X0300092Y0163870D01*
X0301330Y0165108D01*
X0302000Y0166725D01*
X0302000Y0215777D01*
X0319423Y0233200D01*
X0363475Y0233200D01*
X0365092Y0233870D01*
X0376321Y0245099D01*
X0377043Y0244800D01*
X0388157Y0244800D01*
X0389186Y0245226D01*
X0389974Y0246014D01*
X0390400Y0247043D01*
X0390400Y0261961D01*
X0395701Y0261961D01*
X0395701Y0169521D01*
X0395652Y0169639D01*
X0394639Y0170652D01*
X0391081Y0174211D01*
X0391087Y0174217D01*
X0392050Y0176542D01*
X0392050Y0179058D01*
X0391087Y0181383D01*
X0389308Y0183162D01*
X0386983Y0184125D01*
X0377417Y0184125D01*
X0375092Y0183162D01*
X0373330Y0181400D01*
X0341870Y0181400D01*
X0340108Y0183162D01*
X0338085Y0184000D01*
X0373116Y0184000D01*
X0374439Y0184548D01*
X0375452Y0185561D01*
X0380966Y0191075D01*
X0386983Y0191075D01*
X0389308Y0192038D01*
X0391087Y0193817D01*
X0392050Y0196142D01*
X0392050Y0198658D01*
X0391087Y0200983D01*
X0389308Y0202762D01*
X0386983Y0203725D01*
X0377417Y0203725D01*
X0375092Y0202762D01*
X0373313Y0200983D01*
X0372350Y0198658D01*
X0372350Y0196142D01*
X0373313Y0193817D01*
X0373419Y0193711D01*
X0370909Y0191200D01*
X0338085Y0191200D01*
X0340108Y0192038D01*
X0341887Y0193817D01*
X0342850Y0196142D01*
X0342850Y0198658D01*
X0341887Y0200983D01*
X0340108Y0202762D01*
X0337783Y0203725D01*
X0328217Y0203725D01*
X0325892Y0202762D01*
X0324113Y0200983D01*
X0323150Y0198658D01*
X0323150Y0196142D01*
X0324113Y0193817D01*
X0324663Y0193267D01*
X0324456Y0193353D01*
X0318224Y0193353D01*
X0317339Y0192986D01*
X0317177Y0193053D01*
X0316675Y0193153D01*
X0313860Y0193153D01*
X0313860Y0187600D01*
X0313860Y0187600D01*
X0313860Y0182047D01*
X0316675Y0182047D01*
X0317177Y0182147D01*
X0317339Y0182214D01*
X0318224Y0181847D01*
X0324456Y0181847D01*
X0324663Y0181933D01*
X0324113Y0181383D01*
X0323150Y0179058D01*
X0323150Y0176542D01*
X0324113Y0174217D01*
X0325892Y0172438D01*
X0328217Y0171475D01*
X0337783Y0171475D01*
X0340108Y0172438D01*
X0341870Y0174200D01*
X0349477Y0174200D01*
X0348450Y0171720D01*
X0348450Y0168080D01*
X0349843Y0164717D01*
X0352417Y0162143D01*
X0355780Y0160750D01*
X0359420Y0160750D01*
X0362783Y0162143D01*
X0365357Y0164717D01*
X0366750Y0168080D01*
X0366750Y0171720D01*
X0365723Y0174200D01*
X0373330Y0174200D01*
X0375092Y0172438D01*
X0377417Y0171475D01*
X0383434Y0171475D01*
X0389000Y0165909D01*
X0389000Y0107890D01*
X0386983Y0108725D01*
X0377417Y0108725D01*
X0375092Y0107762D01*
X0373313Y0105983D01*
X0372350Y0103658D01*
X0372350Y0101142D01*
X0373313Y0098817D01*
X0373419Y0098711D01*
X0370909Y0096200D01*
X0338085Y0096200D01*
X0340108Y0097038D01*
X0341887Y0098817D01*
X0342850Y0101142D01*
X0342850Y0103658D01*
X0341887Y0105983D01*
X0340108Y0107762D01*
X0337783Y0108725D01*
X0328217Y0108725D01*
X0325892Y0107762D01*
X0324113Y0105983D01*
X0323150Y0103555D02*
X0197728Y0103555D01*
X0197728Y0100357D02*
X0323475Y0100357D01*
X0313860Y0098153D02*
X0311045Y0098153D01*
X0310542Y0098053D01*
X0310069Y0097857D01*
X0309643Y0097572D01*
X0309281Y0097210D01*
X0308997Y0096784D01*
X0308801Y0096311D01*
X0308701Y0095809D01*
X0308701Y0092600D01*
X0313860Y0092600D01*
X0313860Y0092600D01*
X0313860Y0087047D01*
X0311045Y0087047D01*
X0310542Y0087147D01*
X0310069Y0087343D01*
X0309643Y0087628D01*
X0309281Y0087990D01*
X0308997Y0088416D01*
X0308801Y0088889D01*
X0308701Y0089391D01*
X0308701Y0092600D01*
X0313860Y0092600D01*
X0313860Y0098153D01*
X0313860Y0097158D02*
X0313860Y0097158D01*
X0313860Y0093960D02*
X0313860Y0093960D01*
X0313860Y0092600D02*
X0313860Y0092600D01*
X0313860Y0090761D02*
X0313860Y0090761D01*
X0313860Y0087563D02*
X0313860Y0087563D01*
X0309741Y0087563D02*
X0192785Y0087563D01*
X0189587Y0084364D02*
X0323277Y0084364D01*
X0323306Y0081166D02*
X0186388Y0081166D01*
X0183190Y0077967D02*
X0325363Y0077967D01*
X0340637Y0077967D02*
X0348967Y0077967D01*
X0348450Y0074769D02*
X0279503Y0074769D01*
X0279246Y0074875D02*
X0275954Y0074875D01*
X0272913Y0073615D01*
X0270585Y0071287D01*
X0269325Y0068246D01*
X0269325Y0064954D01*
X0270585Y0061913D01*
X0272913Y0059585D01*
X0275954Y0058325D01*
X0279246Y0058325D01*
X0282287Y0059585D01*
X0284615Y0061913D01*
X0285875Y0064954D01*
X0285875Y0068246D01*
X0284615Y0071287D01*
X0282287Y0073615D01*
X0279246Y0074875D01*
X0275697Y0074769D02*
X0209503Y0074769D01*
X0209246Y0074875D02*
X0205954Y0074875D01*
X0202913Y0073615D01*
X0200585Y0071287D01*
X0199325Y0068246D01*
X0199325Y0064954D01*
X0200585Y0061913D01*
X0202913Y0059585D01*
X0205954Y0058325D01*
X0209246Y0058325D01*
X0212287Y0059585D01*
X0214615Y0061913D01*
X0215875Y0064954D01*
X0215875Y0068246D01*
X0214615Y0071287D01*
X0212287Y0073615D01*
X0209246Y0074875D01*
X0205697Y0074769D02*
X0179991Y0074769D01*
X0176793Y0071570D02*
X0200868Y0071570D01*
X0199377Y0068372D02*
X0173594Y0068372D01*
X0170396Y0065173D02*
X0199325Y0065173D01*
X0200559Y0061975D02*
X0167197Y0061975D01*
X0163999Y0058776D02*
X0204865Y0058776D01*
X0210335Y0058776D02*
X0274865Y0058776D01*
X0280335Y0058776D02*
X0368685Y0058776D01*
X0365487Y0055578D02*
X0160800Y0055578D01*
X0157602Y0052379D02*
X0362288Y0052379D01*
X0371884Y0061975D02*
X0284641Y0061975D01*
X0285875Y0065173D02*
X0375082Y0065173D01*
X0378281Y0068372D02*
X0364012Y0068372D01*
X0366125Y0071570D02*
X0381479Y0071570D01*
X0384678Y0074769D02*
X0366750Y0074769D01*
X0366233Y0077967D02*
X0374563Y0077967D01*
X0351188Y0068372D02*
X0285823Y0068372D01*
X0284332Y0071570D02*
X0349075Y0071570D01*
X0340228Y0097158D02*
X0371867Y0097158D01*
X0372675Y0100357D02*
X0342525Y0100357D01*
X0342850Y0103555D02*
X0351405Y0103555D01*
X0349165Y0106754D02*
X0341116Y0106754D01*
X0350709Y0116349D02*
X0197728Y0116349D01*
X0197728Y0119548D02*
X0222397Y0119548D01*
X0225568Y0122600D02*
X0252600Y0122600D01*
X0297600Y0167600D01*
X0297600Y0217600D01*
X0317600Y0237600D01*
X0362600Y0237600D01*
X0382600Y0257600D01*
X0390400Y0257084D02*
X0395701Y0257084D01*
X0395701Y0260282D02*
X0390400Y0260282D01*
X0390400Y0253885D02*
X0395701Y0253885D01*
X0395701Y0250687D02*
X0390400Y0250687D01*
X0390400Y0247488D02*
X0395701Y0247488D01*
X0395701Y0244290D02*
X0375512Y0244290D01*
X0372314Y0241091D02*
X0395701Y0241091D01*
X0395701Y0237893D02*
X0369115Y0237893D01*
X0365917Y0234694D02*
X0395701Y0234694D01*
X0395701Y0231496D02*
X0317718Y0231496D01*
X0314520Y0228297D02*
X0395701Y0228297D01*
X0395701Y0225099D02*
X0311321Y0225099D01*
X0308123Y0221900D02*
X0395701Y0221900D01*
X0395701Y0218702D02*
X0304924Y0218702D01*
X0302000Y0215503D02*
X0395701Y0215503D01*
X0395701Y0212305D02*
X0363535Y0212305D01*
X0362783Y0213057D02*
X0359420Y0214450D01*
X0355780Y0214450D01*
X0352417Y0213057D01*
X0349843Y0210483D01*
X0348450Y0207120D01*
X0348450Y0203480D01*
X0349843Y0200117D01*
X0352417Y0197543D01*
X0355780Y0196150D01*
X0359420Y0196150D01*
X0362783Y0197543D01*
X0365357Y0200117D01*
X0366750Y0203480D01*
X0366750Y0207120D01*
X0365357Y0210483D01*
X0362783Y0213057D01*
X0365927Y0209106D02*
X0395701Y0209106D01*
X0395701Y0205908D02*
X0366750Y0205908D01*
X0366431Y0202709D02*
X0375039Y0202709D01*
X0372703Y0199511D02*
X0364751Y0199511D01*
X0359812Y0196312D02*
X0372350Y0196312D01*
X0372823Y0193114D02*
X0341184Y0193114D01*
X0342850Y0196312D02*
X0355388Y0196312D01*
X0350449Y0199511D02*
X0342497Y0199511D01*
X0340161Y0202709D02*
X0348769Y0202709D01*
X0348450Y0205908D02*
X0302000Y0205908D01*
X0302000Y0209106D02*
X0349273Y0209106D01*
X0351665Y0212305D02*
X0302000Y0212305D01*
X0293200Y0212305D02*
X0285022Y0212305D01*
X0284615Y0213287D02*
X0282287Y0215615D01*
X0279246Y0216875D01*
X0275954Y0216875D01*
X0272913Y0215615D01*
X0270585Y0213287D01*
X0269325Y0210246D01*
X0269325Y0206954D01*
X0270585Y0203913D01*
X0272913Y0201585D01*
X0275954Y0200325D01*
X0279246Y0200325D01*
X0282287Y0201585D01*
X0284615Y0203913D01*
X0285875Y0206954D01*
X0285875Y0210246D01*
X0284615Y0213287D01*
X0282399Y0215503D02*
X0293200Y0215503D01*
X0293200Y0218475D02*
X0293200Y0169423D01*
X0250777Y0127000D01*
X0227390Y0127000D01*
X0227132Y0127258D01*
X0227132Y0127429D01*
X0226932Y0127911D01*
X0226932Y0128643D01*
X0226520Y0128643D01*
X0226932Y0128643D01*
X0226932Y0129687D01*
X0226885Y0129923D01*
X0226932Y0130159D01*
X0226932Y0130998D01*
X0232004Y0130998D01*
X0233622Y0131668D01*
X0241884Y0139931D01*
X0243122Y0141169D01*
X0243792Y0142786D01*
X0243792Y0223010D01*
X0273982Y0253200D01*
X0314800Y0253200D01*
X0314800Y0247043D01*
X0315226Y0246014D01*
X0316014Y0245226D01*
X0317043Y0244800D01*
X0328157Y0244800D01*
X0329186Y0245226D01*
X0329974Y0246014D01*
X0330400Y0247043D01*
X0330400Y0261961D01*
X0374800Y0261961D01*
X0374800Y0256023D01*
X0360777Y0242000D01*
X0316725Y0242000D01*
X0315108Y0241330D01*
X0313870Y0240092D01*
X0293870Y0220092D01*
X0293200Y0218475D01*
X0293294Y0218702D02*
X0243792Y0218702D01*
X0243792Y0221900D02*
X0295678Y0221900D01*
X0298876Y0225099D02*
X0245881Y0225099D01*
X0249080Y0228297D02*
X0302075Y0228297D01*
X0305273Y0231496D02*
X0283862Y0231496D01*
X0283684Y0231264D02*
X0284329Y0232104D01*
X0284858Y0233021D01*
X0285263Y0233999D01*
X0285537Y0235021D01*
X0285675Y0236071D01*
X0285675Y0236375D01*
X0277825Y0236375D01*
X0277825Y0236825D01*
X0277375Y0236825D01*
X0277375Y0244675D01*
X0277071Y0244675D01*
X0276021Y0244537D01*
X0274999Y0244263D01*
X0274021Y0243858D01*
X0273104Y0243329D01*
X0272264Y0242684D01*
X0271516Y0241936D01*
X0270871Y0241096D01*
X0270342Y0240179D01*
X0269937Y0239201D01*
X0269663Y0238179D01*
X0269525Y0237129D01*
X0269525Y0236825D01*
X0277375Y0236825D01*
X0277375Y0236375D01*
X0269525Y0236375D01*
X0269525Y0236071D01*
X0269663Y0235021D01*
X0269937Y0233999D01*
X0270342Y0233021D01*
X0270871Y0232104D01*
X0271516Y0231264D01*
X0272264Y0230516D01*
X0273104Y0229871D01*
X0274021Y0229342D01*
X0274999Y0228937D01*
X0276021Y0228663D01*
X0277071Y0228525D01*
X0277375Y0228525D01*
X0277375Y0236375D01*
X0277825Y0236375D01*
X0277825Y0228525D01*
X0278129Y0228525D01*
X0279179Y0228663D01*
X0280201Y0228937D01*
X0281179Y0229342D01*
X0282096Y0229871D01*
X0282936Y0230516D01*
X0283684Y0231264D01*
X0285449Y0234694D02*
X0308472Y0234694D01*
X0311670Y0237893D02*
X0285574Y0237893D01*
X0285537Y0238179D02*
X0285263Y0239201D01*
X0284858Y0240179D01*
X0284329Y0241096D01*
X0283684Y0241936D01*
X0282936Y0242684D01*
X0282096Y0243329D01*
X0281179Y0243858D01*
X0280201Y0244263D01*
X0279179Y0244537D01*
X0278129Y0244675D01*
X0277825Y0244675D01*
X0277825Y0236825D01*
X0285675Y0236825D01*
X0285675Y0237129D01*
X0285537Y0238179D01*
X0284331Y0241091D02*
X0314869Y0241091D01*
X0314800Y0247488D02*
X0268271Y0247488D01*
X0265072Y0244290D02*
X0275099Y0244290D01*
X0277375Y0244290D02*
X0277825Y0244290D01*
X0280101Y0244290D02*
X0363067Y0244290D01*
X0366266Y0247488D02*
X0330400Y0247488D01*
X0330400Y0250687D02*
X0369464Y0250687D01*
X0372663Y0253885D02*
X0330400Y0253885D01*
X0330400Y0257084D02*
X0374800Y0257084D01*
X0374800Y0260282D02*
X0330400Y0260282D01*
X0322600Y0257600D02*
X0272160Y0257600D01*
X0239392Y0224832D01*
X0239392Y0143661D01*
X0231129Y0135398D01*
X0223895Y0135398D01*
X0223597Y0135101D01*
X0222455Y0140116D02*
X0227234Y0140116D01*
X0233079Y0145962D01*
X0233079Y0162121D01*
X0197600Y0197600D01*
X0167600Y0197600D01*
X0142600Y0222600D01*
X0122600Y0222600D01*
X0087600Y0257600D01*
X0087600Y0227600D02*
X0052600Y0227600D01*
X0027600Y0252600D01*
X0027600Y0257600D01*
X0087600Y0227600D02*
X0137600Y0177600D01*
X0195946Y0177600D01*
X0221872Y0151675D01*
X0215791Y0151533D02*
X0201258Y0151533D01*
X0197479Y0154732D02*
X0212592Y0154732D01*
X0209394Y0157930D02*
X0152361Y0157930D01*
X0149163Y0161129D02*
X0206195Y0161129D01*
X0202997Y0164327D02*
X0145964Y0164327D01*
X0142766Y0167526D02*
X0199798Y0167526D01*
X0196600Y0170724D02*
X0139567Y0170724D01*
X0132583Y0167526D02*
X0066520Y0167526D01*
X0064967Y0164327D02*
X0135782Y0164327D01*
X0138980Y0161129D02*
X0060334Y0161129D01*
X0054866Y0161129D02*
X0051200Y0161129D01*
X0051200Y0157930D02*
X0142179Y0157930D01*
X0145377Y0154732D02*
X0051200Y0154732D01*
X0051200Y0151533D02*
X0148576Y0151533D01*
X0155560Y0154732D02*
X0157819Y0154732D01*
X0167381Y0154732D02*
X0189177Y0154732D01*
X0188068Y0151533D02*
X0172049Y0151533D01*
X0158171Y0141937D02*
X0051200Y0141937D01*
X0051200Y0138739D02*
X0188068Y0138739D01*
X0203242Y0138739D02*
X0216611Y0138739D01*
X0216611Y0141937D02*
X0203395Y0141937D01*
X0203700Y0145136D02*
X0216830Y0145136D01*
X0216611Y0148334D02*
X0203692Y0148334D01*
X0203426Y0135540D02*
X0216611Y0135540D01*
X0216642Y0132342D02*
X0203426Y0132342D01*
X0203311Y0129143D02*
X0216811Y0129143D01*
X0216811Y0128643D02*
X0217223Y0128643D01*
X0216811Y0128643D01*
X0217223Y0128643D02*
X0217223Y0128643D01*
X0217223Y0131202D02*
X0216811Y0131202D01*
X0217223Y0131202D01*
X0217223Y0131202D01*
X0216611Y0125945D02*
X0200726Y0125945D01*
X0198589Y0122746D02*
X0216611Y0122746D01*
X0223404Y0124764D02*
X0225568Y0122600D01*
X0226520Y0128643D02*
X0226520Y0128643D01*
X0226932Y0129143D02*
X0252921Y0129143D01*
X0256119Y0132342D02*
X0234295Y0132342D01*
X0237494Y0135540D02*
X0259318Y0135540D01*
X0262516Y0138739D02*
X0240692Y0138739D01*
X0243440Y0141937D02*
X0265715Y0141937D01*
X0268913Y0145136D02*
X0243792Y0145136D01*
X0243792Y0148334D02*
X0272112Y0148334D01*
X0275310Y0151533D02*
X0243792Y0151533D01*
X0243792Y0154732D02*
X0278509Y0154732D01*
X0281708Y0157930D02*
X0243792Y0157930D01*
X0243792Y0161129D02*
X0284906Y0161129D01*
X0288105Y0164327D02*
X0243792Y0164327D01*
X0243792Y0167526D02*
X0291303Y0167526D01*
X0293200Y0170724D02*
X0243792Y0170724D01*
X0243792Y0173923D02*
X0293200Y0173923D01*
X0293200Y0177121D02*
X0243792Y0177121D01*
X0243792Y0180320D02*
X0293200Y0180320D01*
X0293200Y0183518D02*
X0243792Y0183518D01*
X0243792Y0186717D02*
X0293200Y0186717D01*
X0293200Y0189915D02*
X0243792Y0189915D01*
X0243792Y0193114D02*
X0293200Y0193114D01*
X0293200Y0196312D02*
X0243792Y0196312D01*
X0243792Y0199511D02*
X0293200Y0199511D01*
X0293200Y0202709D02*
X0283412Y0202709D01*
X0285442Y0205908D02*
X0293200Y0205908D01*
X0293200Y0209106D02*
X0285875Y0209106D01*
X0272801Y0215503D02*
X0243792Y0215503D01*
X0243792Y0212305D02*
X0270178Y0212305D01*
X0269325Y0209106D02*
X0243792Y0209106D01*
X0243792Y0205908D02*
X0269758Y0205908D01*
X0271788Y0202709D02*
X0243792Y0202709D01*
X0247600Y0206600D02*
X0247600Y0132600D01*
X0247508Y0132508D02*
X0245008Y0130008D01*
X0222787Y0130008D01*
X0222634Y0129855D01*
X0193328Y0123525D02*
X0193328Y0094328D01*
X0137600Y0038600D01*
X0133798Y0045982D02*
X0119109Y0045982D01*
X0122308Y0042784D02*
X0130376Y0042784D01*
X0141958Y0049181D02*
X0115911Y0049181D01*
X0112712Y0052379D02*
X0145157Y0052379D01*
X0130868Y0071570D02*
X0093521Y0071570D01*
X0091316Y0074769D02*
X0135697Y0074769D01*
X0101340Y0084364D02*
X0101340Y0084364D01*
X0093860Y0087600D02*
X0092000Y0087600D01*
X0051200Y0122746D02*
X0188068Y0122746D01*
X0188068Y0125945D02*
X0182381Y0125945D01*
X0172819Y0125945D02*
X0172381Y0125945D01*
X0162819Y0125945D02*
X0051200Y0125945D01*
X0051200Y0129143D02*
X0162819Y0129143D01*
X0164967Y0132342D02*
X0051200Y0132342D01*
X0051200Y0135540D02*
X0170449Y0135540D01*
X0154973Y0145136D02*
X0051200Y0145136D01*
X0051200Y0148334D02*
X0151774Y0148334D01*
X0129385Y0170724D02*
X0066750Y0170724D01*
X0065838Y0173923D02*
X0073608Y0173923D01*
X0090792Y0173923D02*
X0126186Y0173923D01*
X0122988Y0177121D02*
X0092050Y0177121D01*
X0091527Y0180320D02*
X0119789Y0180320D01*
X0116591Y0183518D02*
X0106246Y0183518D01*
X0106203Y0183416D02*
X0106399Y0183889D01*
X0106499Y0184391D01*
X0106499Y0187600D01*
X0106499Y0190809D01*
X0106399Y0191311D01*
X0106203Y0191784D01*
X0105919Y0192210D01*
X0105557Y0192572D01*
X0105131Y0192857D01*
X0104658Y0193053D01*
X0104155Y0193153D01*
X0101340Y0193153D01*
X0101340Y0187600D01*
X0101340Y0187600D01*
X0101340Y0187600D01*
X0101340Y0182047D01*
X0104155Y0182047D01*
X0104658Y0182147D01*
X0105131Y0182343D01*
X0105557Y0182628D01*
X0105919Y0182990D01*
X0106203Y0183416D01*
X0106499Y0186717D02*
X0113392Y0186717D01*
X0110194Y0189915D02*
X0106499Y0189915D01*
X0106499Y0187600D02*
X0101340Y0187600D01*
X0101340Y0187600D01*
X0106499Y0187600D01*
X0101340Y0186717D02*
X0101340Y0186717D01*
X0101340Y0183518D02*
X0101340Y0183518D01*
X0093860Y0187600D02*
X0092000Y0187600D01*
X0097553Y0193114D02*
X0098329Y0193114D01*
X0101340Y0193114D02*
X0101340Y0193114D01*
X0104352Y0193114D02*
X0106995Y0193114D01*
X0101340Y0189915D02*
X0101340Y0189915D01*
X0137600Y0236600D02*
X0207600Y0236600D01*
X0247600Y0206600D02*
X0277600Y0236600D01*
X0277375Y0237893D02*
X0277825Y0237893D01*
X0277825Y0241091D02*
X0277375Y0241091D01*
X0270869Y0241091D02*
X0261874Y0241091D01*
X0258675Y0237893D02*
X0269626Y0237893D01*
X0269751Y0234694D02*
X0255477Y0234694D01*
X0252278Y0231496D02*
X0271338Y0231496D01*
X0277375Y0231496D02*
X0277825Y0231496D01*
X0277825Y0234694D02*
X0277375Y0234694D01*
X0271469Y0250687D02*
X0314800Y0250687D01*
X0325839Y0202709D02*
X0302000Y0202709D01*
X0302000Y0199511D02*
X0323503Y0199511D01*
X0323150Y0196312D02*
X0302000Y0196312D01*
X0302000Y0193114D02*
X0310848Y0193114D01*
X0311045Y0193153D02*
X0310542Y0193053D01*
X0310069Y0192857D01*
X0309643Y0192572D01*
X0309281Y0192210D01*
X0308997Y0191784D01*
X0308801Y0191311D01*
X0308701Y0190809D01*
X0308701Y0187600D01*
X0313860Y0187600D01*
X0313860Y0187600D01*
X0313860Y0182047D01*
X0311045Y0182047D01*
X0310542Y0182147D01*
X0310069Y0182343D01*
X0309643Y0182628D01*
X0309281Y0182990D01*
X0308997Y0183416D01*
X0308801Y0183889D01*
X0308701Y0184391D01*
X0308701Y0187600D01*
X0313860Y0187600D01*
X0313860Y0193153D01*
X0311045Y0193153D01*
X0313860Y0193114D02*
X0313860Y0193114D01*
X0316871Y0193114D02*
X0317647Y0193114D01*
X0313860Y0189915D02*
X0313860Y0189915D01*
X0313860Y0187600D02*
X0313860Y0187600D01*
X0313860Y0186717D02*
X0313860Y0186717D01*
X0313860Y0183518D02*
X0313860Y0183518D01*
X0308954Y0183518D02*
X0302000Y0183518D01*
X0302000Y0180320D02*
X0323673Y0180320D01*
X0323150Y0177121D02*
X0302000Y0177121D01*
X0302000Y0173923D02*
X0324408Y0173923D01*
X0339248Y0183518D02*
X0375952Y0183518D01*
X0376608Y0186717D02*
X0395701Y0186717D01*
X0395701Y0183518D02*
X0388448Y0183518D01*
X0391527Y0180320D02*
X0395701Y0180320D01*
X0395701Y0177121D02*
X0392050Y0177121D01*
X0391369Y0173923D02*
X0395701Y0173923D01*
X0395701Y0170724D02*
X0394567Y0170724D01*
X0387383Y0167526D02*
X0366520Y0167526D01*
X0364967Y0164327D02*
X0389000Y0164327D01*
X0389000Y0161129D02*
X0360334Y0161129D01*
X0354866Y0161129D02*
X0297351Y0161129D01*
X0300550Y0164327D02*
X0350233Y0164327D01*
X0348680Y0167526D02*
X0302000Y0167526D01*
X0302000Y0170724D02*
X0348450Y0170724D01*
X0349362Y0173923D02*
X0341592Y0173923D01*
X0365838Y0173923D02*
X0373608Y0173923D01*
X0366750Y0170724D02*
X0384185Y0170724D01*
X0389000Y0157930D02*
X0294153Y0157930D01*
X0290954Y0154732D02*
X0389000Y0154732D01*
X0389000Y0151533D02*
X0287756Y0151533D01*
X0284557Y0148334D02*
X0389000Y0148334D01*
X0389000Y0145136D02*
X0281359Y0145136D01*
X0278160Y0141937D02*
X0389000Y0141937D01*
X0389000Y0138739D02*
X0274961Y0138739D01*
X0271763Y0135540D02*
X0389000Y0135540D01*
X0389000Y0132342D02*
X0268564Y0132342D01*
X0265366Y0129143D02*
X0389000Y0129143D01*
X0389000Y0125945D02*
X0262167Y0125945D01*
X0258969Y0122746D02*
X0389000Y0122746D01*
X0389000Y0119548D02*
X0255770Y0119548D01*
X0309247Y0097158D02*
X0197728Y0097158D01*
X0197728Y0093960D02*
X0308701Y0093960D01*
X0308701Y0090761D02*
X0195984Y0090761D01*
X0214332Y0071570D02*
X0270868Y0071570D01*
X0269377Y0068372D02*
X0215823Y0068372D01*
X0215875Y0065173D02*
X0269325Y0065173D01*
X0270559Y0061975D02*
X0214641Y0061975D01*
X0207600Y0038600D02*
X0277600Y0038600D01*
X0363795Y0103555D02*
X0372350Y0103555D01*
X0374084Y0106754D02*
X0366035Y0106754D01*
X0366750Y0109952D02*
X0389000Y0109952D01*
X0389000Y0113151D02*
X0366323Y0113151D01*
X0364491Y0116349D02*
X0389000Y0116349D01*
X0308701Y0186717D02*
X0302000Y0186717D01*
X0302000Y0189915D02*
X0308701Y0189915D01*
X0379806Y0189915D02*
X0395701Y0189915D01*
X0395701Y0193114D02*
X0390384Y0193114D01*
X0392050Y0196312D02*
X0395701Y0196312D01*
X0395701Y0199511D02*
X0391697Y0199511D01*
X0389361Y0202709D02*
X0395701Y0202709D01*
D16*
X0382200Y0197400D02*
X0372400Y0187600D01*
X0321340Y0187600D01*
X0313860Y0187600D02*
X0313860Y0206537D01*
X0308571Y0212600D01*
X0313860Y0187600D02*
X0313860Y0092600D01*
X0321340Y0092600D02*
X0372400Y0092600D01*
X0382200Y0102400D01*
X0392600Y0087600D02*
X0392600Y0167400D01*
X0382200Y0177800D01*
X0333000Y0177800D01*
X0382400Y0177800D01*
X0392600Y0167600D01*
X0392600Y0077600D01*
X0362600Y0047600D01*
X0146600Y0047600D01*
X0137600Y0038600D01*
X0121400Y0038600D01*
X0082200Y0077800D01*
X0047800Y0077800D01*
X0047600Y0077600D01*
X0047600Y0177800D01*
X0033000Y0177800D01*
X0047600Y0177800D02*
X0082200Y0177800D01*
X0057800Y0177800D01*
X0057600Y0177600D01*
X0082200Y0197400D02*
X0092000Y0187600D01*
X0101340Y0187600D02*
X0101340Y0183860D01*
X0149470Y0135730D01*
X0150061Y0136320D01*
X0193328Y0136320D01*
X0166320Y0136320D01*
X0157600Y0127600D01*
X0167600Y0127600D02*
X0173761Y0133761D01*
X0193328Y0133761D01*
X0193328Y0131202D02*
X0181202Y0131202D01*
X0177600Y0127600D01*
X0193328Y0128643D02*
X0193328Y0126084D01*
X0193328Y0123525D01*
X0193328Y0128643D02*
X0193351Y0128666D01*
X0198355Y0128666D01*
X0199826Y0130136D01*
X0199826Y0137579D01*
X0198525Y0138880D01*
X0193328Y0138880D01*
X0193328Y0141439D01*
X0193363Y0141473D01*
X0198182Y0141473D01*
X0200100Y0143391D01*
X0200100Y0147600D01*
X0198584Y0149116D01*
X0193328Y0149116D01*
X0193328Y0151675D01*
X0193328Y0146557D02*
X0173643Y0146557D01*
X0162600Y0152600D01*
X0161202Y0143998D02*
X0107600Y0197600D01*
X0082400Y0197600D01*
X0082200Y0197400D01*
X0161202Y0143998D02*
X0193328Y0143998D01*
X0216424Y0142262D02*
X0216424Y0133023D01*
X0218224Y0131223D01*
X0221851Y0131223D01*
X0221872Y0131202D01*
X0222634Y0130440D01*
X0222634Y0129855D01*
X0221872Y0128643D02*
X0221872Y0131202D01*
X0221872Y0128643D02*
X0216557Y0128643D01*
X0212600Y0122600D01*
X0212600Y0082600D01*
X0207600Y0077600D01*
X0202600Y0077600D01*
X0197600Y0072600D01*
X0221872Y0123525D02*
X0221872Y0126084D01*
X0223192Y0124764D01*
X0223404Y0124764D01*
X0221872Y0133761D02*
X0221872Y0136320D01*
X0223091Y0135101D01*
X0223597Y0135101D01*
X0221872Y0138880D02*
X0221872Y0141439D01*
X0221872Y0140699D01*
X0222455Y0140116D01*
X0221872Y0143998D02*
X0218159Y0143998D01*
X0216424Y0142262D01*
X0221872Y0143998D02*
X0221872Y0146557D01*
X0221872Y0149116D02*
X0221872Y0151675D01*
X0149470Y0135730D02*
X0101340Y0087600D01*
X0093860Y0087600D02*
X0093860Y0111340D01*
X0087600Y0117600D01*
X0047800Y0077800D02*
X0033000Y0077800D01*
X0333000Y0082800D02*
X0382200Y0082800D01*
X0387800Y0082800D01*
X0392600Y0087600D01*
D17*
X0308571Y0212600D03*
X0322600Y0257600D03*
X0382600Y0257600D03*
X0177600Y0127600D03*
X0167600Y0127600D03*
X0157600Y0127600D03*
X0162600Y0152600D03*
X0087600Y0117600D03*
X0197600Y0072600D03*
X0087600Y0257600D03*
X0027600Y0257600D03*
D18*
X0246202Y0131202D02*
X0247508Y0132508D01*
X0247600Y0132600D01*
M02*
