G75*
%MOIN*%
%OFA0B0*%
%FSLAX25Y25*%
%IPPOS*%
%LPD*%
%AMOC8*
5,1,8,0,0,1.08239X$1,22.5*
%
%ADD10C,0.00000*%
%ADD11C,0.10950*%
%ADD12R,0.20000X0.30000*%
%ADD13C,0.07050*%
%ADD14R,0.03962X0.03962*%
%ADD15C,0.01600*%
%ADD16C,0.03200*%
D10*
X0017600Y0007600D02*
X0391301Y0007600D01*
X0391543Y0007603D01*
X0391784Y0007612D01*
X0392025Y0007626D01*
X0392266Y0007647D01*
X0392506Y0007673D01*
X0392746Y0007705D01*
X0392985Y0007743D01*
X0393222Y0007786D01*
X0393459Y0007836D01*
X0393694Y0007891D01*
X0393928Y0007951D01*
X0394160Y0008018D01*
X0394391Y0008089D01*
X0394620Y0008167D01*
X0394847Y0008250D01*
X0395072Y0008338D01*
X0395295Y0008432D01*
X0395515Y0008531D01*
X0395733Y0008636D01*
X0395948Y0008745D01*
X0396161Y0008860D01*
X0396371Y0008980D01*
X0396577Y0009105D01*
X0396781Y0009235D01*
X0396982Y0009370D01*
X0397179Y0009510D01*
X0397373Y0009654D01*
X0397563Y0009803D01*
X0397749Y0009957D01*
X0397932Y0010115D01*
X0398111Y0010277D01*
X0398286Y0010444D01*
X0398457Y0010615D01*
X0398624Y0010790D01*
X0398786Y0010969D01*
X0398944Y0011152D01*
X0399098Y0011338D01*
X0399247Y0011528D01*
X0399391Y0011722D01*
X0399531Y0011919D01*
X0399666Y0012120D01*
X0399796Y0012324D01*
X0399921Y0012530D01*
X0400041Y0012740D01*
X0400156Y0012953D01*
X0400265Y0013168D01*
X0400370Y0013386D01*
X0400469Y0013606D01*
X0400563Y0013829D01*
X0400651Y0014054D01*
X0400734Y0014281D01*
X0400812Y0014510D01*
X0400883Y0014741D01*
X0400950Y0014973D01*
X0401010Y0015207D01*
X0401065Y0015442D01*
X0401115Y0015679D01*
X0401158Y0015916D01*
X0401196Y0016155D01*
X0401228Y0016395D01*
X0401254Y0016635D01*
X0401275Y0016876D01*
X0401289Y0017117D01*
X0401298Y0017358D01*
X0401301Y0017600D01*
X0401301Y0257561D01*
X0401298Y0257803D01*
X0401289Y0258044D01*
X0401275Y0258285D01*
X0401254Y0258526D01*
X0401228Y0258766D01*
X0401196Y0259006D01*
X0401158Y0259245D01*
X0401115Y0259482D01*
X0401065Y0259719D01*
X0401010Y0259954D01*
X0400950Y0260188D01*
X0400883Y0260420D01*
X0400812Y0260651D01*
X0400734Y0260880D01*
X0400651Y0261107D01*
X0400563Y0261332D01*
X0400469Y0261555D01*
X0400370Y0261775D01*
X0400265Y0261993D01*
X0400156Y0262208D01*
X0400041Y0262421D01*
X0399921Y0262631D01*
X0399796Y0262837D01*
X0399666Y0263041D01*
X0399531Y0263242D01*
X0399391Y0263439D01*
X0399247Y0263633D01*
X0399098Y0263823D01*
X0398944Y0264009D01*
X0398786Y0264192D01*
X0398624Y0264371D01*
X0398457Y0264546D01*
X0398286Y0264717D01*
X0398111Y0264884D01*
X0397932Y0265046D01*
X0397749Y0265204D01*
X0397563Y0265358D01*
X0397373Y0265507D01*
X0397179Y0265651D01*
X0396982Y0265791D01*
X0396781Y0265926D01*
X0396577Y0266056D01*
X0396371Y0266181D01*
X0396161Y0266301D01*
X0395948Y0266416D01*
X0395733Y0266525D01*
X0395515Y0266630D01*
X0395295Y0266729D01*
X0395072Y0266823D01*
X0394847Y0266911D01*
X0394620Y0266994D01*
X0394391Y0267072D01*
X0394160Y0267143D01*
X0393928Y0267210D01*
X0393694Y0267270D01*
X0393459Y0267325D01*
X0393222Y0267375D01*
X0392985Y0267418D01*
X0392746Y0267456D01*
X0392506Y0267488D01*
X0392266Y0267514D01*
X0392025Y0267535D01*
X0391784Y0267549D01*
X0391543Y0267558D01*
X0391301Y0267561D01*
X0017600Y0267561D01*
X0017358Y0267558D01*
X0017117Y0267549D01*
X0016876Y0267535D01*
X0016635Y0267514D01*
X0016395Y0267488D01*
X0016155Y0267456D01*
X0015916Y0267418D01*
X0015679Y0267375D01*
X0015442Y0267325D01*
X0015207Y0267270D01*
X0014973Y0267210D01*
X0014741Y0267143D01*
X0014510Y0267072D01*
X0014281Y0266994D01*
X0014054Y0266911D01*
X0013829Y0266823D01*
X0013606Y0266729D01*
X0013386Y0266630D01*
X0013168Y0266525D01*
X0012953Y0266416D01*
X0012740Y0266301D01*
X0012530Y0266181D01*
X0012324Y0266056D01*
X0012120Y0265926D01*
X0011919Y0265791D01*
X0011722Y0265651D01*
X0011528Y0265507D01*
X0011338Y0265358D01*
X0011152Y0265204D01*
X0010969Y0265046D01*
X0010790Y0264884D01*
X0010615Y0264717D01*
X0010444Y0264546D01*
X0010277Y0264371D01*
X0010115Y0264192D01*
X0009957Y0264009D01*
X0009803Y0263823D01*
X0009654Y0263633D01*
X0009510Y0263439D01*
X0009370Y0263242D01*
X0009235Y0263041D01*
X0009105Y0262837D01*
X0008980Y0262631D01*
X0008860Y0262421D01*
X0008745Y0262208D01*
X0008636Y0261993D01*
X0008531Y0261775D01*
X0008432Y0261555D01*
X0008338Y0261332D01*
X0008250Y0261107D01*
X0008167Y0260880D01*
X0008089Y0260651D01*
X0008018Y0260420D01*
X0007951Y0260188D01*
X0007891Y0259954D01*
X0007836Y0259719D01*
X0007786Y0259482D01*
X0007743Y0259245D01*
X0007705Y0259006D01*
X0007673Y0258766D01*
X0007647Y0258526D01*
X0007626Y0258285D01*
X0007612Y0258044D01*
X0007603Y0257803D01*
X0007600Y0257561D01*
X0007600Y0017600D01*
X0007603Y0017358D01*
X0007612Y0017117D01*
X0007626Y0016876D01*
X0007647Y0016635D01*
X0007673Y0016395D01*
X0007705Y0016155D01*
X0007743Y0015916D01*
X0007786Y0015679D01*
X0007836Y0015442D01*
X0007891Y0015207D01*
X0007951Y0014973D01*
X0008018Y0014741D01*
X0008089Y0014510D01*
X0008167Y0014281D01*
X0008250Y0014054D01*
X0008338Y0013829D01*
X0008432Y0013606D01*
X0008531Y0013386D01*
X0008636Y0013168D01*
X0008745Y0012953D01*
X0008860Y0012740D01*
X0008980Y0012530D01*
X0009105Y0012324D01*
X0009235Y0012120D01*
X0009370Y0011919D01*
X0009510Y0011722D01*
X0009654Y0011528D01*
X0009803Y0011338D01*
X0009957Y0011152D01*
X0010115Y0010969D01*
X0010277Y0010790D01*
X0010444Y0010615D01*
X0010615Y0010444D01*
X0010790Y0010277D01*
X0010969Y0010115D01*
X0011152Y0009957D01*
X0011338Y0009803D01*
X0011528Y0009654D01*
X0011722Y0009510D01*
X0011919Y0009370D01*
X0012120Y0009235D01*
X0012324Y0009105D01*
X0012530Y0008980D01*
X0012740Y0008860D01*
X0012953Y0008745D01*
X0013168Y0008636D01*
X0013386Y0008531D01*
X0013606Y0008432D01*
X0013829Y0008338D01*
X0014054Y0008250D01*
X0014281Y0008167D01*
X0014510Y0008089D01*
X0014741Y0008018D01*
X0014973Y0007951D01*
X0015207Y0007891D01*
X0015442Y0007836D01*
X0015679Y0007786D01*
X0015916Y0007743D01*
X0016155Y0007705D01*
X0016395Y0007673D01*
X0016635Y0007647D01*
X0016876Y0007626D01*
X0017117Y0007612D01*
X0017358Y0007603D01*
X0017600Y0007600D01*
X0054050Y0069900D02*
X0054052Y0070019D01*
X0054058Y0070137D01*
X0054068Y0070255D01*
X0054082Y0070373D01*
X0054099Y0070490D01*
X0054121Y0070607D01*
X0054147Y0070723D01*
X0054176Y0070838D01*
X0054209Y0070952D01*
X0054246Y0071064D01*
X0054287Y0071176D01*
X0054332Y0071286D01*
X0054380Y0071394D01*
X0054432Y0071501D01*
X0054487Y0071606D01*
X0054546Y0071709D01*
X0054608Y0071810D01*
X0054673Y0071909D01*
X0054742Y0072006D01*
X0054814Y0072100D01*
X0054889Y0072192D01*
X0054967Y0072281D01*
X0055048Y0072368D01*
X0055132Y0072452D01*
X0055219Y0072533D01*
X0055308Y0072611D01*
X0055400Y0072686D01*
X0055494Y0072758D01*
X0055591Y0072827D01*
X0055690Y0072892D01*
X0055791Y0072954D01*
X0055894Y0073013D01*
X0055999Y0073068D01*
X0056106Y0073120D01*
X0056214Y0073168D01*
X0056324Y0073213D01*
X0056436Y0073254D01*
X0056548Y0073291D01*
X0056662Y0073324D01*
X0056777Y0073353D01*
X0056893Y0073379D01*
X0057010Y0073401D01*
X0057127Y0073418D01*
X0057245Y0073432D01*
X0057363Y0073442D01*
X0057481Y0073448D01*
X0057600Y0073450D01*
X0057719Y0073448D01*
X0057837Y0073442D01*
X0057955Y0073432D01*
X0058073Y0073418D01*
X0058190Y0073401D01*
X0058307Y0073379D01*
X0058423Y0073353D01*
X0058538Y0073324D01*
X0058652Y0073291D01*
X0058764Y0073254D01*
X0058876Y0073213D01*
X0058986Y0073168D01*
X0059094Y0073120D01*
X0059201Y0073068D01*
X0059306Y0073013D01*
X0059409Y0072954D01*
X0059510Y0072892D01*
X0059609Y0072827D01*
X0059706Y0072758D01*
X0059800Y0072686D01*
X0059892Y0072611D01*
X0059981Y0072533D01*
X0060068Y0072452D01*
X0060152Y0072368D01*
X0060233Y0072281D01*
X0060311Y0072192D01*
X0060386Y0072100D01*
X0060458Y0072006D01*
X0060527Y0071909D01*
X0060592Y0071810D01*
X0060654Y0071709D01*
X0060713Y0071606D01*
X0060768Y0071501D01*
X0060820Y0071394D01*
X0060868Y0071286D01*
X0060913Y0071176D01*
X0060954Y0071064D01*
X0060991Y0070952D01*
X0061024Y0070838D01*
X0061053Y0070723D01*
X0061079Y0070607D01*
X0061101Y0070490D01*
X0061118Y0070373D01*
X0061132Y0070255D01*
X0061142Y0070137D01*
X0061148Y0070019D01*
X0061150Y0069900D01*
X0061148Y0069781D01*
X0061142Y0069663D01*
X0061132Y0069545D01*
X0061118Y0069427D01*
X0061101Y0069310D01*
X0061079Y0069193D01*
X0061053Y0069077D01*
X0061024Y0068962D01*
X0060991Y0068848D01*
X0060954Y0068736D01*
X0060913Y0068624D01*
X0060868Y0068514D01*
X0060820Y0068406D01*
X0060768Y0068299D01*
X0060713Y0068194D01*
X0060654Y0068091D01*
X0060592Y0067990D01*
X0060527Y0067891D01*
X0060458Y0067794D01*
X0060386Y0067700D01*
X0060311Y0067608D01*
X0060233Y0067519D01*
X0060152Y0067432D01*
X0060068Y0067348D01*
X0059981Y0067267D01*
X0059892Y0067189D01*
X0059800Y0067114D01*
X0059706Y0067042D01*
X0059609Y0066973D01*
X0059510Y0066908D01*
X0059409Y0066846D01*
X0059306Y0066787D01*
X0059201Y0066732D01*
X0059094Y0066680D01*
X0058986Y0066632D01*
X0058876Y0066587D01*
X0058764Y0066546D01*
X0058652Y0066509D01*
X0058538Y0066476D01*
X0058423Y0066447D01*
X0058307Y0066421D01*
X0058190Y0066399D01*
X0058073Y0066382D01*
X0057955Y0066368D01*
X0057837Y0066358D01*
X0057719Y0066352D01*
X0057600Y0066350D01*
X0057481Y0066352D01*
X0057363Y0066358D01*
X0057245Y0066368D01*
X0057127Y0066382D01*
X0057010Y0066399D01*
X0056893Y0066421D01*
X0056777Y0066447D01*
X0056662Y0066476D01*
X0056548Y0066509D01*
X0056436Y0066546D01*
X0056324Y0066587D01*
X0056214Y0066632D01*
X0056106Y0066680D01*
X0055999Y0066732D01*
X0055894Y0066787D01*
X0055791Y0066846D01*
X0055690Y0066908D01*
X0055591Y0066973D01*
X0055494Y0067042D01*
X0055400Y0067114D01*
X0055308Y0067189D01*
X0055219Y0067267D01*
X0055132Y0067348D01*
X0055048Y0067432D01*
X0054967Y0067519D01*
X0054889Y0067608D01*
X0054814Y0067700D01*
X0054742Y0067794D01*
X0054673Y0067891D01*
X0054608Y0067990D01*
X0054546Y0068091D01*
X0054487Y0068194D01*
X0054432Y0068299D01*
X0054380Y0068406D01*
X0054332Y0068514D01*
X0054287Y0068624D01*
X0054246Y0068736D01*
X0054209Y0068848D01*
X0054176Y0068962D01*
X0054147Y0069077D01*
X0054121Y0069193D01*
X0054099Y0069310D01*
X0054082Y0069427D01*
X0054068Y0069545D01*
X0054058Y0069663D01*
X0054052Y0069781D01*
X0054050Y0069900D01*
X0054050Y0105300D02*
X0054052Y0105419D01*
X0054058Y0105537D01*
X0054068Y0105655D01*
X0054082Y0105773D01*
X0054099Y0105890D01*
X0054121Y0106007D01*
X0054147Y0106123D01*
X0054176Y0106238D01*
X0054209Y0106352D01*
X0054246Y0106464D01*
X0054287Y0106576D01*
X0054332Y0106686D01*
X0054380Y0106794D01*
X0054432Y0106901D01*
X0054487Y0107006D01*
X0054546Y0107109D01*
X0054608Y0107210D01*
X0054673Y0107309D01*
X0054742Y0107406D01*
X0054814Y0107500D01*
X0054889Y0107592D01*
X0054967Y0107681D01*
X0055048Y0107768D01*
X0055132Y0107852D01*
X0055219Y0107933D01*
X0055308Y0108011D01*
X0055400Y0108086D01*
X0055494Y0108158D01*
X0055591Y0108227D01*
X0055690Y0108292D01*
X0055791Y0108354D01*
X0055894Y0108413D01*
X0055999Y0108468D01*
X0056106Y0108520D01*
X0056214Y0108568D01*
X0056324Y0108613D01*
X0056436Y0108654D01*
X0056548Y0108691D01*
X0056662Y0108724D01*
X0056777Y0108753D01*
X0056893Y0108779D01*
X0057010Y0108801D01*
X0057127Y0108818D01*
X0057245Y0108832D01*
X0057363Y0108842D01*
X0057481Y0108848D01*
X0057600Y0108850D01*
X0057719Y0108848D01*
X0057837Y0108842D01*
X0057955Y0108832D01*
X0058073Y0108818D01*
X0058190Y0108801D01*
X0058307Y0108779D01*
X0058423Y0108753D01*
X0058538Y0108724D01*
X0058652Y0108691D01*
X0058764Y0108654D01*
X0058876Y0108613D01*
X0058986Y0108568D01*
X0059094Y0108520D01*
X0059201Y0108468D01*
X0059306Y0108413D01*
X0059409Y0108354D01*
X0059510Y0108292D01*
X0059609Y0108227D01*
X0059706Y0108158D01*
X0059800Y0108086D01*
X0059892Y0108011D01*
X0059981Y0107933D01*
X0060068Y0107852D01*
X0060152Y0107768D01*
X0060233Y0107681D01*
X0060311Y0107592D01*
X0060386Y0107500D01*
X0060458Y0107406D01*
X0060527Y0107309D01*
X0060592Y0107210D01*
X0060654Y0107109D01*
X0060713Y0107006D01*
X0060768Y0106901D01*
X0060820Y0106794D01*
X0060868Y0106686D01*
X0060913Y0106576D01*
X0060954Y0106464D01*
X0060991Y0106352D01*
X0061024Y0106238D01*
X0061053Y0106123D01*
X0061079Y0106007D01*
X0061101Y0105890D01*
X0061118Y0105773D01*
X0061132Y0105655D01*
X0061142Y0105537D01*
X0061148Y0105419D01*
X0061150Y0105300D01*
X0061148Y0105181D01*
X0061142Y0105063D01*
X0061132Y0104945D01*
X0061118Y0104827D01*
X0061101Y0104710D01*
X0061079Y0104593D01*
X0061053Y0104477D01*
X0061024Y0104362D01*
X0060991Y0104248D01*
X0060954Y0104136D01*
X0060913Y0104024D01*
X0060868Y0103914D01*
X0060820Y0103806D01*
X0060768Y0103699D01*
X0060713Y0103594D01*
X0060654Y0103491D01*
X0060592Y0103390D01*
X0060527Y0103291D01*
X0060458Y0103194D01*
X0060386Y0103100D01*
X0060311Y0103008D01*
X0060233Y0102919D01*
X0060152Y0102832D01*
X0060068Y0102748D01*
X0059981Y0102667D01*
X0059892Y0102589D01*
X0059800Y0102514D01*
X0059706Y0102442D01*
X0059609Y0102373D01*
X0059510Y0102308D01*
X0059409Y0102246D01*
X0059306Y0102187D01*
X0059201Y0102132D01*
X0059094Y0102080D01*
X0058986Y0102032D01*
X0058876Y0101987D01*
X0058764Y0101946D01*
X0058652Y0101909D01*
X0058538Y0101876D01*
X0058423Y0101847D01*
X0058307Y0101821D01*
X0058190Y0101799D01*
X0058073Y0101782D01*
X0057955Y0101768D01*
X0057837Y0101758D01*
X0057719Y0101752D01*
X0057600Y0101750D01*
X0057481Y0101752D01*
X0057363Y0101758D01*
X0057245Y0101768D01*
X0057127Y0101782D01*
X0057010Y0101799D01*
X0056893Y0101821D01*
X0056777Y0101847D01*
X0056662Y0101876D01*
X0056548Y0101909D01*
X0056436Y0101946D01*
X0056324Y0101987D01*
X0056214Y0102032D01*
X0056106Y0102080D01*
X0055999Y0102132D01*
X0055894Y0102187D01*
X0055791Y0102246D01*
X0055690Y0102308D01*
X0055591Y0102373D01*
X0055494Y0102442D01*
X0055400Y0102514D01*
X0055308Y0102589D01*
X0055219Y0102667D01*
X0055132Y0102748D01*
X0055048Y0102832D01*
X0054967Y0102919D01*
X0054889Y0103008D01*
X0054814Y0103100D01*
X0054742Y0103194D01*
X0054673Y0103291D01*
X0054608Y0103390D01*
X0054546Y0103491D01*
X0054487Y0103594D01*
X0054432Y0103699D01*
X0054380Y0103806D01*
X0054332Y0103914D01*
X0054287Y0104024D01*
X0054246Y0104136D01*
X0054209Y0104248D01*
X0054176Y0104362D01*
X0054147Y0104477D01*
X0054121Y0104593D01*
X0054099Y0104710D01*
X0054082Y0104827D01*
X0054068Y0104945D01*
X0054058Y0105063D01*
X0054052Y0105181D01*
X0054050Y0105300D01*
X0054050Y0169900D02*
X0054052Y0170019D01*
X0054058Y0170137D01*
X0054068Y0170255D01*
X0054082Y0170373D01*
X0054099Y0170490D01*
X0054121Y0170607D01*
X0054147Y0170723D01*
X0054176Y0170838D01*
X0054209Y0170952D01*
X0054246Y0171064D01*
X0054287Y0171176D01*
X0054332Y0171286D01*
X0054380Y0171394D01*
X0054432Y0171501D01*
X0054487Y0171606D01*
X0054546Y0171709D01*
X0054608Y0171810D01*
X0054673Y0171909D01*
X0054742Y0172006D01*
X0054814Y0172100D01*
X0054889Y0172192D01*
X0054967Y0172281D01*
X0055048Y0172368D01*
X0055132Y0172452D01*
X0055219Y0172533D01*
X0055308Y0172611D01*
X0055400Y0172686D01*
X0055494Y0172758D01*
X0055591Y0172827D01*
X0055690Y0172892D01*
X0055791Y0172954D01*
X0055894Y0173013D01*
X0055999Y0173068D01*
X0056106Y0173120D01*
X0056214Y0173168D01*
X0056324Y0173213D01*
X0056436Y0173254D01*
X0056548Y0173291D01*
X0056662Y0173324D01*
X0056777Y0173353D01*
X0056893Y0173379D01*
X0057010Y0173401D01*
X0057127Y0173418D01*
X0057245Y0173432D01*
X0057363Y0173442D01*
X0057481Y0173448D01*
X0057600Y0173450D01*
X0057719Y0173448D01*
X0057837Y0173442D01*
X0057955Y0173432D01*
X0058073Y0173418D01*
X0058190Y0173401D01*
X0058307Y0173379D01*
X0058423Y0173353D01*
X0058538Y0173324D01*
X0058652Y0173291D01*
X0058764Y0173254D01*
X0058876Y0173213D01*
X0058986Y0173168D01*
X0059094Y0173120D01*
X0059201Y0173068D01*
X0059306Y0173013D01*
X0059409Y0172954D01*
X0059510Y0172892D01*
X0059609Y0172827D01*
X0059706Y0172758D01*
X0059800Y0172686D01*
X0059892Y0172611D01*
X0059981Y0172533D01*
X0060068Y0172452D01*
X0060152Y0172368D01*
X0060233Y0172281D01*
X0060311Y0172192D01*
X0060386Y0172100D01*
X0060458Y0172006D01*
X0060527Y0171909D01*
X0060592Y0171810D01*
X0060654Y0171709D01*
X0060713Y0171606D01*
X0060768Y0171501D01*
X0060820Y0171394D01*
X0060868Y0171286D01*
X0060913Y0171176D01*
X0060954Y0171064D01*
X0060991Y0170952D01*
X0061024Y0170838D01*
X0061053Y0170723D01*
X0061079Y0170607D01*
X0061101Y0170490D01*
X0061118Y0170373D01*
X0061132Y0170255D01*
X0061142Y0170137D01*
X0061148Y0170019D01*
X0061150Y0169900D01*
X0061148Y0169781D01*
X0061142Y0169663D01*
X0061132Y0169545D01*
X0061118Y0169427D01*
X0061101Y0169310D01*
X0061079Y0169193D01*
X0061053Y0169077D01*
X0061024Y0168962D01*
X0060991Y0168848D01*
X0060954Y0168736D01*
X0060913Y0168624D01*
X0060868Y0168514D01*
X0060820Y0168406D01*
X0060768Y0168299D01*
X0060713Y0168194D01*
X0060654Y0168091D01*
X0060592Y0167990D01*
X0060527Y0167891D01*
X0060458Y0167794D01*
X0060386Y0167700D01*
X0060311Y0167608D01*
X0060233Y0167519D01*
X0060152Y0167432D01*
X0060068Y0167348D01*
X0059981Y0167267D01*
X0059892Y0167189D01*
X0059800Y0167114D01*
X0059706Y0167042D01*
X0059609Y0166973D01*
X0059510Y0166908D01*
X0059409Y0166846D01*
X0059306Y0166787D01*
X0059201Y0166732D01*
X0059094Y0166680D01*
X0058986Y0166632D01*
X0058876Y0166587D01*
X0058764Y0166546D01*
X0058652Y0166509D01*
X0058538Y0166476D01*
X0058423Y0166447D01*
X0058307Y0166421D01*
X0058190Y0166399D01*
X0058073Y0166382D01*
X0057955Y0166368D01*
X0057837Y0166358D01*
X0057719Y0166352D01*
X0057600Y0166350D01*
X0057481Y0166352D01*
X0057363Y0166358D01*
X0057245Y0166368D01*
X0057127Y0166382D01*
X0057010Y0166399D01*
X0056893Y0166421D01*
X0056777Y0166447D01*
X0056662Y0166476D01*
X0056548Y0166509D01*
X0056436Y0166546D01*
X0056324Y0166587D01*
X0056214Y0166632D01*
X0056106Y0166680D01*
X0055999Y0166732D01*
X0055894Y0166787D01*
X0055791Y0166846D01*
X0055690Y0166908D01*
X0055591Y0166973D01*
X0055494Y0167042D01*
X0055400Y0167114D01*
X0055308Y0167189D01*
X0055219Y0167267D01*
X0055132Y0167348D01*
X0055048Y0167432D01*
X0054967Y0167519D01*
X0054889Y0167608D01*
X0054814Y0167700D01*
X0054742Y0167794D01*
X0054673Y0167891D01*
X0054608Y0167990D01*
X0054546Y0168091D01*
X0054487Y0168194D01*
X0054432Y0168299D01*
X0054380Y0168406D01*
X0054332Y0168514D01*
X0054287Y0168624D01*
X0054246Y0168736D01*
X0054209Y0168848D01*
X0054176Y0168962D01*
X0054147Y0169077D01*
X0054121Y0169193D01*
X0054099Y0169310D01*
X0054082Y0169427D01*
X0054068Y0169545D01*
X0054058Y0169663D01*
X0054052Y0169781D01*
X0054050Y0169900D01*
X0054050Y0205300D02*
X0054052Y0205419D01*
X0054058Y0205537D01*
X0054068Y0205655D01*
X0054082Y0205773D01*
X0054099Y0205890D01*
X0054121Y0206007D01*
X0054147Y0206123D01*
X0054176Y0206238D01*
X0054209Y0206352D01*
X0054246Y0206464D01*
X0054287Y0206576D01*
X0054332Y0206686D01*
X0054380Y0206794D01*
X0054432Y0206901D01*
X0054487Y0207006D01*
X0054546Y0207109D01*
X0054608Y0207210D01*
X0054673Y0207309D01*
X0054742Y0207406D01*
X0054814Y0207500D01*
X0054889Y0207592D01*
X0054967Y0207681D01*
X0055048Y0207768D01*
X0055132Y0207852D01*
X0055219Y0207933D01*
X0055308Y0208011D01*
X0055400Y0208086D01*
X0055494Y0208158D01*
X0055591Y0208227D01*
X0055690Y0208292D01*
X0055791Y0208354D01*
X0055894Y0208413D01*
X0055999Y0208468D01*
X0056106Y0208520D01*
X0056214Y0208568D01*
X0056324Y0208613D01*
X0056436Y0208654D01*
X0056548Y0208691D01*
X0056662Y0208724D01*
X0056777Y0208753D01*
X0056893Y0208779D01*
X0057010Y0208801D01*
X0057127Y0208818D01*
X0057245Y0208832D01*
X0057363Y0208842D01*
X0057481Y0208848D01*
X0057600Y0208850D01*
X0057719Y0208848D01*
X0057837Y0208842D01*
X0057955Y0208832D01*
X0058073Y0208818D01*
X0058190Y0208801D01*
X0058307Y0208779D01*
X0058423Y0208753D01*
X0058538Y0208724D01*
X0058652Y0208691D01*
X0058764Y0208654D01*
X0058876Y0208613D01*
X0058986Y0208568D01*
X0059094Y0208520D01*
X0059201Y0208468D01*
X0059306Y0208413D01*
X0059409Y0208354D01*
X0059510Y0208292D01*
X0059609Y0208227D01*
X0059706Y0208158D01*
X0059800Y0208086D01*
X0059892Y0208011D01*
X0059981Y0207933D01*
X0060068Y0207852D01*
X0060152Y0207768D01*
X0060233Y0207681D01*
X0060311Y0207592D01*
X0060386Y0207500D01*
X0060458Y0207406D01*
X0060527Y0207309D01*
X0060592Y0207210D01*
X0060654Y0207109D01*
X0060713Y0207006D01*
X0060768Y0206901D01*
X0060820Y0206794D01*
X0060868Y0206686D01*
X0060913Y0206576D01*
X0060954Y0206464D01*
X0060991Y0206352D01*
X0061024Y0206238D01*
X0061053Y0206123D01*
X0061079Y0206007D01*
X0061101Y0205890D01*
X0061118Y0205773D01*
X0061132Y0205655D01*
X0061142Y0205537D01*
X0061148Y0205419D01*
X0061150Y0205300D01*
X0061148Y0205181D01*
X0061142Y0205063D01*
X0061132Y0204945D01*
X0061118Y0204827D01*
X0061101Y0204710D01*
X0061079Y0204593D01*
X0061053Y0204477D01*
X0061024Y0204362D01*
X0060991Y0204248D01*
X0060954Y0204136D01*
X0060913Y0204024D01*
X0060868Y0203914D01*
X0060820Y0203806D01*
X0060768Y0203699D01*
X0060713Y0203594D01*
X0060654Y0203491D01*
X0060592Y0203390D01*
X0060527Y0203291D01*
X0060458Y0203194D01*
X0060386Y0203100D01*
X0060311Y0203008D01*
X0060233Y0202919D01*
X0060152Y0202832D01*
X0060068Y0202748D01*
X0059981Y0202667D01*
X0059892Y0202589D01*
X0059800Y0202514D01*
X0059706Y0202442D01*
X0059609Y0202373D01*
X0059510Y0202308D01*
X0059409Y0202246D01*
X0059306Y0202187D01*
X0059201Y0202132D01*
X0059094Y0202080D01*
X0058986Y0202032D01*
X0058876Y0201987D01*
X0058764Y0201946D01*
X0058652Y0201909D01*
X0058538Y0201876D01*
X0058423Y0201847D01*
X0058307Y0201821D01*
X0058190Y0201799D01*
X0058073Y0201782D01*
X0057955Y0201768D01*
X0057837Y0201758D01*
X0057719Y0201752D01*
X0057600Y0201750D01*
X0057481Y0201752D01*
X0057363Y0201758D01*
X0057245Y0201768D01*
X0057127Y0201782D01*
X0057010Y0201799D01*
X0056893Y0201821D01*
X0056777Y0201847D01*
X0056662Y0201876D01*
X0056548Y0201909D01*
X0056436Y0201946D01*
X0056324Y0201987D01*
X0056214Y0202032D01*
X0056106Y0202080D01*
X0055999Y0202132D01*
X0055894Y0202187D01*
X0055791Y0202246D01*
X0055690Y0202308D01*
X0055591Y0202373D01*
X0055494Y0202442D01*
X0055400Y0202514D01*
X0055308Y0202589D01*
X0055219Y0202667D01*
X0055132Y0202748D01*
X0055048Y0202832D01*
X0054967Y0202919D01*
X0054889Y0203008D01*
X0054814Y0203100D01*
X0054742Y0203194D01*
X0054673Y0203291D01*
X0054608Y0203390D01*
X0054546Y0203491D01*
X0054487Y0203594D01*
X0054432Y0203699D01*
X0054380Y0203806D01*
X0054332Y0203914D01*
X0054287Y0204024D01*
X0054246Y0204136D01*
X0054209Y0204248D01*
X0054176Y0204362D01*
X0054147Y0204477D01*
X0054121Y0204593D01*
X0054099Y0204710D01*
X0054082Y0204827D01*
X0054068Y0204945D01*
X0054058Y0205063D01*
X0054052Y0205181D01*
X0054050Y0205300D01*
X0349050Y0205300D02*
X0349052Y0205419D01*
X0349058Y0205537D01*
X0349068Y0205655D01*
X0349082Y0205773D01*
X0349099Y0205890D01*
X0349121Y0206007D01*
X0349147Y0206123D01*
X0349176Y0206238D01*
X0349209Y0206352D01*
X0349246Y0206464D01*
X0349287Y0206576D01*
X0349332Y0206686D01*
X0349380Y0206794D01*
X0349432Y0206901D01*
X0349487Y0207006D01*
X0349546Y0207109D01*
X0349608Y0207210D01*
X0349673Y0207309D01*
X0349742Y0207406D01*
X0349814Y0207500D01*
X0349889Y0207592D01*
X0349967Y0207681D01*
X0350048Y0207768D01*
X0350132Y0207852D01*
X0350219Y0207933D01*
X0350308Y0208011D01*
X0350400Y0208086D01*
X0350494Y0208158D01*
X0350591Y0208227D01*
X0350690Y0208292D01*
X0350791Y0208354D01*
X0350894Y0208413D01*
X0350999Y0208468D01*
X0351106Y0208520D01*
X0351214Y0208568D01*
X0351324Y0208613D01*
X0351436Y0208654D01*
X0351548Y0208691D01*
X0351662Y0208724D01*
X0351777Y0208753D01*
X0351893Y0208779D01*
X0352010Y0208801D01*
X0352127Y0208818D01*
X0352245Y0208832D01*
X0352363Y0208842D01*
X0352481Y0208848D01*
X0352600Y0208850D01*
X0352719Y0208848D01*
X0352837Y0208842D01*
X0352955Y0208832D01*
X0353073Y0208818D01*
X0353190Y0208801D01*
X0353307Y0208779D01*
X0353423Y0208753D01*
X0353538Y0208724D01*
X0353652Y0208691D01*
X0353764Y0208654D01*
X0353876Y0208613D01*
X0353986Y0208568D01*
X0354094Y0208520D01*
X0354201Y0208468D01*
X0354306Y0208413D01*
X0354409Y0208354D01*
X0354510Y0208292D01*
X0354609Y0208227D01*
X0354706Y0208158D01*
X0354800Y0208086D01*
X0354892Y0208011D01*
X0354981Y0207933D01*
X0355068Y0207852D01*
X0355152Y0207768D01*
X0355233Y0207681D01*
X0355311Y0207592D01*
X0355386Y0207500D01*
X0355458Y0207406D01*
X0355527Y0207309D01*
X0355592Y0207210D01*
X0355654Y0207109D01*
X0355713Y0207006D01*
X0355768Y0206901D01*
X0355820Y0206794D01*
X0355868Y0206686D01*
X0355913Y0206576D01*
X0355954Y0206464D01*
X0355991Y0206352D01*
X0356024Y0206238D01*
X0356053Y0206123D01*
X0356079Y0206007D01*
X0356101Y0205890D01*
X0356118Y0205773D01*
X0356132Y0205655D01*
X0356142Y0205537D01*
X0356148Y0205419D01*
X0356150Y0205300D01*
X0356148Y0205181D01*
X0356142Y0205063D01*
X0356132Y0204945D01*
X0356118Y0204827D01*
X0356101Y0204710D01*
X0356079Y0204593D01*
X0356053Y0204477D01*
X0356024Y0204362D01*
X0355991Y0204248D01*
X0355954Y0204136D01*
X0355913Y0204024D01*
X0355868Y0203914D01*
X0355820Y0203806D01*
X0355768Y0203699D01*
X0355713Y0203594D01*
X0355654Y0203491D01*
X0355592Y0203390D01*
X0355527Y0203291D01*
X0355458Y0203194D01*
X0355386Y0203100D01*
X0355311Y0203008D01*
X0355233Y0202919D01*
X0355152Y0202832D01*
X0355068Y0202748D01*
X0354981Y0202667D01*
X0354892Y0202589D01*
X0354800Y0202514D01*
X0354706Y0202442D01*
X0354609Y0202373D01*
X0354510Y0202308D01*
X0354409Y0202246D01*
X0354306Y0202187D01*
X0354201Y0202132D01*
X0354094Y0202080D01*
X0353986Y0202032D01*
X0353876Y0201987D01*
X0353764Y0201946D01*
X0353652Y0201909D01*
X0353538Y0201876D01*
X0353423Y0201847D01*
X0353307Y0201821D01*
X0353190Y0201799D01*
X0353073Y0201782D01*
X0352955Y0201768D01*
X0352837Y0201758D01*
X0352719Y0201752D01*
X0352600Y0201750D01*
X0352481Y0201752D01*
X0352363Y0201758D01*
X0352245Y0201768D01*
X0352127Y0201782D01*
X0352010Y0201799D01*
X0351893Y0201821D01*
X0351777Y0201847D01*
X0351662Y0201876D01*
X0351548Y0201909D01*
X0351436Y0201946D01*
X0351324Y0201987D01*
X0351214Y0202032D01*
X0351106Y0202080D01*
X0350999Y0202132D01*
X0350894Y0202187D01*
X0350791Y0202246D01*
X0350690Y0202308D01*
X0350591Y0202373D01*
X0350494Y0202442D01*
X0350400Y0202514D01*
X0350308Y0202589D01*
X0350219Y0202667D01*
X0350132Y0202748D01*
X0350048Y0202832D01*
X0349967Y0202919D01*
X0349889Y0203008D01*
X0349814Y0203100D01*
X0349742Y0203194D01*
X0349673Y0203291D01*
X0349608Y0203390D01*
X0349546Y0203491D01*
X0349487Y0203594D01*
X0349432Y0203699D01*
X0349380Y0203806D01*
X0349332Y0203914D01*
X0349287Y0204024D01*
X0349246Y0204136D01*
X0349209Y0204248D01*
X0349176Y0204362D01*
X0349147Y0204477D01*
X0349121Y0204593D01*
X0349099Y0204710D01*
X0349082Y0204827D01*
X0349068Y0204945D01*
X0349058Y0205063D01*
X0349052Y0205181D01*
X0349050Y0205300D01*
X0349050Y0169900D02*
X0349052Y0170019D01*
X0349058Y0170137D01*
X0349068Y0170255D01*
X0349082Y0170373D01*
X0349099Y0170490D01*
X0349121Y0170607D01*
X0349147Y0170723D01*
X0349176Y0170838D01*
X0349209Y0170952D01*
X0349246Y0171064D01*
X0349287Y0171176D01*
X0349332Y0171286D01*
X0349380Y0171394D01*
X0349432Y0171501D01*
X0349487Y0171606D01*
X0349546Y0171709D01*
X0349608Y0171810D01*
X0349673Y0171909D01*
X0349742Y0172006D01*
X0349814Y0172100D01*
X0349889Y0172192D01*
X0349967Y0172281D01*
X0350048Y0172368D01*
X0350132Y0172452D01*
X0350219Y0172533D01*
X0350308Y0172611D01*
X0350400Y0172686D01*
X0350494Y0172758D01*
X0350591Y0172827D01*
X0350690Y0172892D01*
X0350791Y0172954D01*
X0350894Y0173013D01*
X0350999Y0173068D01*
X0351106Y0173120D01*
X0351214Y0173168D01*
X0351324Y0173213D01*
X0351436Y0173254D01*
X0351548Y0173291D01*
X0351662Y0173324D01*
X0351777Y0173353D01*
X0351893Y0173379D01*
X0352010Y0173401D01*
X0352127Y0173418D01*
X0352245Y0173432D01*
X0352363Y0173442D01*
X0352481Y0173448D01*
X0352600Y0173450D01*
X0352719Y0173448D01*
X0352837Y0173442D01*
X0352955Y0173432D01*
X0353073Y0173418D01*
X0353190Y0173401D01*
X0353307Y0173379D01*
X0353423Y0173353D01*
X0353538Y0173324D01*
X0353652Y0173291D01*
X0353764Y0173254D01*
X0353876Y0173213D01*
X0353986Y0173168D01*
X0354094Y0173120D01*
X0354201Y0173068D01*
X0354306Y0173013D01*
X0354409Y0172954D01*
X0354510Y0172892D01*
X0354609Y0172827D01*
X0354706Y0172758D01*
X0354800Y0172686D01*
X0354892Y0172611D01*
X0354981Y0172533D01*
X0355068Y0172452D01*
X0355152Y0172368D01*
X0355233Y0172281D01*
X0355311Y0172192D01*
X0355386Y0172100D01*
X0355458Y0172006D01*
X0355527Y0171909D01*
X0355592Y0171810D01*
X0355654Y0171709D01*
X0355713Y0171606D01*
X0355768Y0171501D01*
X0355820Y0171394D01*
X0355868Y0171286D01*
X0355913Y0171176D01*
X0355954Y0171064D01*
X0355991Y0170952D01*
X0356024Y0170838D01*
X0356053Y0170723D01*
X0356079Y0170607D01*
X0356101Y0170490D01*
X0356118Y0170373D01*
X0356132Y0170255D01*
X0356142Y0170137D01*
X0356148Y0170019D01*
X0356150Y0169900D01*
X0356148Y0169781D01*
X0356142Y0169663D01*
X0356132Y0169545D01*
X0356118Y0169427D01*
X0356101Y0169310D01*
X0356079Y0169193D01*
X0356053Y0169077D01*
X0356024Y0168962D01*
X0355991Y0168848D01*
X0355954Y0168736D01*
X0355913Y0168624D01*
X0355868Y0168514D01*
X0355820Y0168406D01*
X0355768Y0168299D01*
X0355713Y0168194D01*
X0355654Y0168091D01*
X0355592Y0167990D01*
X0355527Y0167891D01*
X0355458Y0167794D01*
X0355386Y0167700D01*
X0355311Y0167608D01*
X0355233Y0167519D01*
X0355152Y0167432D01*
X0355068Y0167348D01*
X0354981Y0167267D01*
X0354892Y0167189D01*
X0354800Y0167114D01*
X0354706Y0167042D01*
X0354609Y0166973D01*
X0354510Y0166908D01*
X0354409Y0166846D01*
X0354306Y0166787D01*
X0354201Y0166732D01*
X0354094Y0166680D01*
X0353986Y0166632D01*
X0353876Y0166587D01*
X0353764Y0166546D01*
X0353652Y0166509D01*
X0353538Y0166476D01*
X0353423Y0166447D01*
X0353307Y0166421D01*
X0353190Y0166399D01*
X0353073Y0166382D01*
X0352955Y0166368D01*
X0352837Y0166358D01*
X0352719Y0166352D01*
X0352600Y0166350D01*
X0352481Y0166352D01*
X0352363Y0166358D01*
X0352245Y0166368D01*
X0352127Y0166382D01*
X0352010Y0166399D01*
X0351893Y0166421D01*
X0351777Y0166447D01*
X0351662Y0166476D01*
X0351548Y0166509D01*
X0351436Y0166546D01*
X0351324Y0166587D01*
X0351214Y0166632D01*
X0351106Y0166680D01*
X0350999Y0166732D01*
X0350894Y0166787D01*
X0350791Y0166846D01*
X0350690Y0166908D01*
X0350591Y0166973D01*
X0350494Y0167042D01*
X0350400Y0167114D01*
X0350308Y0167189D01*
X0350219Y0167267D01*
X0350132Y0167348D01*
X0350048Y0167432D01*
X0349967Y0167519D01*
X0349889Y0167608D01*
X0349814Y0167700D01*
X0349742Y0167794D01*
X0349673Y0167891D01*
X0349608Y0167990D01*
X0349546Y0168091D01*
X0349487Y0168194D01*
X0349432Y0168299D01*
X0349380Y0168406D01*
X0349332Y0168514D01*
X0349287Y0168624D01*
X0349246Y0168736D01*
X0349209Y0168848D01*
X0349176Y0168962D01*
X0349147Y0169077D01*
X0349121Y0169193D01*
X0349099Y0169310D01*
X0349082Y0169427D01*
X0349068Y0169545D01*
X0349058Y0169663D01*
X0349052Y0169781D01*
X0349050Y0169900D01*
X0349050Y0110300D02*
X0349052Y0110419D01*
X0349058Y0110537D01*
X0349068Y0110655D01*
X0349082Y0110773D01*
X0349099Y0110890D01*
X0349121Y0111007D01*
X0349147Y0111123D01*
X0349176Y0111238D01*
X0349209Y0111352D01*
X0349246Y0111464D01*
X0349287Y0111576D01*
X0349332Y0111686D01*
X0349380Y0111794D01*
X0349432Y0111901D01*
X0349487Y0112006D01*
X0349546Y0112109D01*
X0349608Y0112210D01*
X0349673Y0112309D01*
X0349742Y0112406D01*
X0349814Y0112500D01*
X0349889Y0112592D01*
X0349967Y0112681D01*
X0350048Y0112768D01*
X0350132Y0112852D01*
X0350219Y0112933D01*
X0350308Y0113011D01*
X0350400Y0113086D01*
X0350494Y0113158D01*
X0350591Y0113227D01*
X0350690Y0113292D01*
X0350791Y0113354D01*
X0350894Y0113413D01*
X0350999Y0113468D01*
X0351106Y0113520D01*
X0351214Y0113568D01*
X0351324Y0113613D01*
X0351436Y0113654D01*
X0351548Y0113691D01*
X0351662Y0113724D01*
X0351777Y0113753D01*
X0351893Y0113779D01*
X0352010Y0113801D01*
X0352127Y0113818D01*
X0352245Y0113832D01*
X0352363Y0113842D01*
X0352481Y0113848D01*
X0352600Y0113850D01*
X0352719Y0113848D01*
X0352837Y0113842D01*
X0352955Y0113832D01*
X0353073Y0113818D01*
X0353190Y0113801D01*
X0353307Y0113779D01*
X0353423Y0113753D01*
X0353538Y0113724D01*
X0353652Y0113691D01*
X0353764Y0113654D01*
X0353876Y0113613D01*
X0353986Y0113568D01*
X0354094Y0113520D01*
X0354201Y0113468D01*
X0354306Y0113413D01*
X0354409Y0113354D01*
X0354510Y0113292D01*
X0354609Y0113227D01*
X0354706Y0113158D01*
X0354800Y0113086D01*
X0354892Y0113011D01*
X0354981Y0112933D01*
X0355068Y0112852D01*
X0355152Y0112768D01*
X0355233Y0112681D01*
X0355311Y0112592D01*
X0355386Y0112500D01*
X0355458Y0112406D01*
X0355527Y0112309D01*
X0355592Y0112210D01*
X0355654Y0112109D01*
X0355713Y0112006D01*
X0355768Y0111901D01*
X0355820Y0111794D01*
X0355868Y0111686D01*
X0355913Y0111576D01*
X0355954Y0111464D01*
X0355991Y0111352D01*
X0356024Y0111238D01*
X0356053Y0111123D01*
X0356079Y0111007D01*
X0356101Y0110890D01*
X0356118Y0110773D01*
X0356132Y0110655D01*
X0356142Y0110537D01*
X0356148Y0110419D01*
X0356150Y0110300D01*
X0356148Y0110181D01*
X0356142Y0110063D01*
X0356132Y0109945D01*
X0356118Y0109827D01*
X0356101Y0109710D01*
X0356079Y0109593D01*
X0356053Y0109477D01*
X0356024Y0109362D01*
X0355991Y0109248D01*
X0355954Y0109136D01*
X0355913Y0109024D01*
X0355868Y0108914D01*
X0355820Y0108806D01*
X0355768Y0108699D01*
X0355713Y0108594D01*
X0355654Y0108491D01*
X0355592Y0108390D01*
X0355527Y0108291D01*
X0355458Y0108194D01*
X0355386Y0108100D01*
X0355311Y0108008D01*
X0355233Y0107919D01*
X0355152Y0107832D01*
X0355068Y0107748D01*
X0354981Y0107667D01*
X0354892Y0107589D01*
X0354800Y0107514D01*
X0354706Y0107442D01*
X0354609Y0107373D01*
X0354510Y0107308D01*
X0354409Y0107246D01*
X0354306Y0107187D01*
X0354201Y0107132D01*
X0354094Y0107080D01*
X0353986Y0107032D01*
X0353876Y0106987D01*
X0353764Y0106946D01*
X0353652Y0106909D01*
X0353538Y0106876D01*
X0353423Y0106847D01*
X0353307Y0106821D01*
X0353190Y0106799D01*
X0353073Y0106782D01*
X0352955Y0106768D01*
X0352837Y0106758D01*
X0352719Y0106752D01*
X0352600Y0106750D01*
X0352481Y0106752D01*
X0352363Y0106758D01*
X0352245Y0106768D01*
X0352127Y0106782D01*
X0352010Y0106799D01*
X0351893Y0106821D01*
X0351777Y0106847D01*
X0351662Y0106876D01*
X0351548Y0106909D01*
X0351436Y0106946D01*
X0351324Y0106987D01*
X0351214Y0107032D01*
X0351106Y0107080D01*
X0350999Y0107132D01*
X0350894Y0107187D01*
X0350791Y0107246D01*
X0350690Y0107308D01*
X0350591Y0107373D01*
X0350494Y0107442D01*
X0350400Y0107514D01*
X0350308Y0107589D01*
X0350219Y0107667D01*
X0350132Y0107748D01*
X0350048Y0107832D01*
X0349967Y0107919D01*
X0349889Y0108008D01*
X0349814Y0108100D01*
X0349742Y0108194D01*
X0349673Y0108291D01*
X0349608Y0108390D01*
X0349546Y0108491D01*
X0349487Y0108594D01*
X0349432Y0108699D01*
X0349380Y0108806D01*
X0349332Y0108914D01*
X0349287Y0109024D01*
X0349246Y0109136D01*
X0349209Y0109248D01*
X0349176Y0109362D01*
X0349147Y0109477D01*
X0349121Y0109593D01*
X0349099Y0109710D01*
X0349082Y0109827D01*
X0349068Y0109945D01*
X0349058Y0110063D01*
X0349052Y0110181D01*
X0349050Y0110300D01*
X0349050Y0074900D02*
X0349052Y0075019D01*
X0349058Y0075137D01*
X0349068Y0075255D01*
X0349082Y0075373D01*
X0349099Y0075490D01*
X0349121Y0075607D01*
X0349147Y0075723D01*
X0349176Y0075838D01*
X0349209Y0075952D01*
X0349246Y0076064D01*
X0349287Y0076176D01*
X0349332Y0076286D01*
X0349380Y0076394D01*
X0349432Y0076501D01*
X0349487Y0076606D01*
X0349546Y0076709D01*
X0349608Y0076810D01*
X0349673Y0076909D01*
X0349742Y0077006D01*
X0349814Y0077100D01*
X0349889Y0077192D01*
X0349967Y0077281D01*
X0350048Y0077368D01*
X0350132Y0077452D01*
X0350219Y0077533D01*
X0350308Y0077611D01*
X0350400Y0077686D01*
X0350494Y0077758D01*
X0350591Y0077827D01*
X0350690Y0077892D01*
X0350791Y0077954D01*
X0350894Y0078013D01*
X0350999Y0078068D01*
X0351106Y0078120D01*
X0351214Y0078168D01*
X0351324Y0078213D01*
X0351436Y0078254D01*
X0351548Y0078291D01*
X0351662Y0078324D01*
X0351777Y0078353D01*
X0351893Y0078379D01*
X0352010Y0078401D01*
X0352127Y0078418D01*
X0352245Y0078432D01*
X0352363Y0078442D01*
X0352481Y0078448D01*
X0352600Y0078450D01*
X0352719Y0078448D01*
X0352837Y0078442D01*
X0352955Y0078432D01*
X0353073Y0078418D01*
X0353190Y0078401D01*
X0353307Y0078379D01*
X0353423Y0078353D01*
X0353538Y0078324D01*
X0353652Y0078291D01*
X0353764Y0078254D01*
X0353876Y0078213D01*
X0353986Y0078168D01*
X0354094Y0078120D01*
X0354201Y0078068D01*
X0354306Y0078013D01*
X0354409Y0077954D01*
X0354510Y0077892D01*
X0354609Y0077827D01*
X0354706Y0077758D01*
X0354800Y0077686D01*
X0354892Y0077611D01*
X0354981Y0077533D01*
X0355068Y0077452D01*
X0355152Y0077368D01*
X0355233Y0077281D01*
X0355311Y0077192D01*
X0355386Y0077100D01*
X0355458Y0077006D01*
X0355527Y0076909D01*
X0355592Y0076810D01*
X0355654Y0076709D01*
X0355713Y0076606D01*
X0355768Y0076501D01*
X0355820Y0076394D01*
X0355868Y0076286D01*
X0355913Y0076176D01*
X0355954Y0076064D01*
X0355991Y0075952D01*
X0356024Y0075838D01*
X0356053Y0075723D01*
X0356079Y0075607D01*
X0356101Y0075490D01*
X0356118Y0075373D01*
X0356132Y0075255D01*
X0356142Y0075137D01*
X0356148Y0075019D01*
X0356150Y0074900D01*
X0356148Y0074781D01*
X0356142Y0074663D01*
X0356132Y0074545D01*
X0356118Y0074427D01*
X0356101Y0074310D01*
X0356079Y0074193D01*
X0356053Y0074077D01*
X0356024Y0073962D01*
X0355991Y0073848D01*
X0355954Y0073736D01*
X0355913Y0073624D01*
X0355868Y0073514D01*
X0355820Y0073406D01*
X0355768Y0073299D01*
X0355713Y0073194D01*
X0355654Y0073091D01*
X0355592Y0072990D01*
X0355527Y0072891D01*
X0355458Y0072794D01*
X0355386Y0072700D01*
X0355311Y0072608D01*
X0355233Y0072519D01*
X0355152Y0072432D01*
X0355068Y0072348D01*
X0354981Y0072267D01*
X0354892Y0072189D01*
X0354800Y0072114D01*
X0354706Y0072042D01*
X0354609Y0071973D01*
X0354510Y0071908D01*
X0354409Y0071846D01*
X0354306Y0071787D01*
X0354201Y0071732D01*
X0354094Y0071680D01*
X0353986Y0071632D01*
X0353876Y0071587D01*
X0353764Y0071546D01*
X0353652Y0071509D01*
X0353538Y0071476D01*
X0353423Y0071447D01*
X0353307Y0071421D01*
X0353190Y0071399D01*
X0353073Y0071382D01*
X0352955Y0071368D01*
X0352837Y0071358D01*
X0352719Y0071352D01*
X0352600Y0071350D01*
X0352481Y0071352D01*
X0352363Y0071358D01*
X0352245Y0071368D01*
X0352127Y0071382D01*
X0352010Y0071399D01*
X0351893Y0071421D01*
X0351777Y0071447D01*
X0351662Y0071476D01*
X0351548Y0071509D01*
X0351436Y0071546D01*
X0351324Y0071587D01*
X0351214Y0071632D01*
X0351106Y0071680D01*
X0350999Y0071732D01*
X0350894Y0071787D01*
X0350791Y0071846D01*
X0350690Y0071908D01*
X0350591Y0071973D01*
X0350494Y0072042D01*
X0350400Y0072114D01*
X0350308Y0072189D01*
X0350219Y0072267D01*
X0350132Y0072348D01*
X0350048Y0072432D01*
X0349967Y0072519D01*
X0349889Y0072608D01*
X0349814Y0072700D01*
X0349742Y0072794D01*
X0349673Y0072891D01*
X0349608Y0072990D01*
X0349546Y0073091D01*
X0349487Y0073194D01*
X0349432Y0073299D01*
X0349380Y0073406D01*
X0349332Y0073514D01*
X0349287Y0073624D01*
X0349246Y0073736D01*
X0349209Y0073848D01*
X0349176Y0073962D01*
X0349147Y0074077D01*
X0349121Y0074193D01*
X0349099Y0074310D01*
X0349082Y0074427D01*
X0349068Y0074545D01*
X0349058Y0074663D01*
X0349052Y0074781D01*
X0349050Y0074900D01*
D11*
X0277600Y0066600D03*
X0277600Y0038600D03*
X0207600Y0038600D03*
X0207600Y0066600D03*
X0137600Y0066600D03*
X0137600Y0038600D03*
X0137600Y0208600D03*
X0137600Y0236600D03*
X0207600Y0236600D03*
X0207600Y0208600D03*
X0277600Y0208600D03*
X0277600Y0236600D03*
D12*
X0327600Y0252600D03*
X0377600Y0252600D03*
X0087600Y0252600D03*
X0032600Y0252600D03*
D13*
X0029475Y0197400D02*
X0036525Y0197400D01*
X0036525Y0177800D02*
X0029475Y0177800D01*
X0078675Y0177800D02*
X0085725Y0177800D01*
X0085725Y0197400D02*
X0078675Y0197400D01*
X0078675Y0097400D02*
X0085725Y0097400D01*
X0085725Y0077800D02*
X0078675Y0077800D01*
X0036525Y0077800D02*
X0029475Y0077800D01*
X0029475Y0097400D02*
X0036525Y0097400D01*
X0324475Y0102400D02*
X0331525Y0102400D01*
X0331525Y0082800D02*
X0324475Y0082800D01*
X0373675Y0082800D02*
X0380725Y0082800D01*
X0380725Y0102400D02*
X0373675Y0102400D01*
X0373675Y0177800D02*
X0380725Y0177800D01*
X0380725Y0197400D02*
X0373675Y0197400D01*
X0331525Y0197400D02*
X0324475Y0197400D01*
X0324475Y0177800D02*
X0331525Y0177800D01*
D14*
X0308571Y0212600D03*
X0327600Y0252600D03*
X0377600Y0252600D03*
X0177600Y0127600D03*
X0167600Y0127600D03*
X0157600Y0127600D03*
X0162600Y0152600D03*
X0087600Y0117600D03*
X0197600Y0072600D03*
X0087600Y0252600D03*
X0032600Y0252600D03*
D15*
X0092600Y0152600D02*
X0162600Y0152600D01*
X0157600Y0127600D02*
X0157600Y0082600D01*
X0167600Y0072600D01*
X0197600Y0072600D01*
X0172600Y0082600D02*
X0312600Y0082600D01*
X0322600Y0072600D01*
X0387600Y0072600D01*
X0392600Y0077600D01*
X0392600Y0187000D01*
X0377200Y0197400D01*
X0308571Y0212600D02*
X0301600Y0212600D01*
X0277600Y0236600D01*
X0177600Y0127600D02*
X0177600Y0097600D01*
X0182600Y0092600D01*
X0372400Y0092600D01*
X0377200Y0102400D01*
X0172600Y0082600D02*
X0167600Y0087600D01*
X0167600Y0127600D01*
X0092600Y0152600D02*
X0087600Y0147600D01*
X0087600Y0117600D01*
D16*
X0092381Y0116349D02*
X0164000Y0116349D01*
X0164000Y0113151D02*
X0090940Y0113151D01*
X0091167Y0113245D02*
X0091955Y0114033D01*
X0092381Y0115062D01*
X0092381Y0120138D01*
X0091955Y0121167D01*
X0091200Y0121922D01*
X0091200Y0146109D01*
X0094091Y0149000D01*
X0158278Y0149000D01*
X0159033Y0148245D01*
X0160062Y0147819D01*
X0165138Y0147819D01*
X0166167Y0148245D01*
X0166955Y0149033D01*
X0167381Y0150062D01*
X0167381Y0155138D01*
X0166955Y0156167D01*
X0166167Y0156955D01*
X0165138Y0157381D01*
X0160062Y0157381D01*
X0159033Y0156955D01*
X0158278Y0156200D01*
X0091884Y0156200D01*
X0090561Y0155652D01*
X0089548Y0154639D01*
X0084548Y0149639D01*
X0084000Y0148316D01*
X0084000Y0121922D01*
X0083245Y0121167D01*
X0082819Y0120138D01*
X0082819Y0115062D01*
X0083245Y0114033D01*
X0084033Y0113245D01*
X0085062Y0112819D01*
X0090138Y0112819D01*
X0091167Y0113245D01*
X0092381Y0119548D02*
X0164000Y0119548D01*
X0164000Y0122746D02*
X0091200Y0122746D01*
X0091200Y0125945D02*
X0162819Y0125945D01*
X0162819Y0125062D02*
X0163245Y0124033D01*
X0164000Y0123278D01*
X0164000Y0086884D01*
X0164548Y0085561D01*
X0169548Y0080561D01*
X0170561Y0079548D01*
X0171884Y0079000D01*
X0311109Y0079000D01*
X0319548Y0070561D01*
X0320561Y0069548D01*
X0321884Y0069000D01*
X0345560Y0069000D01*
X0347417Y0067143D01*
X0350780Y0065750D01*
X0354420Y0065750D01*
X0357783Y0067143D01*
X0359640Y0069000D01*
X0388316Y0069000D01*
X0389639Y0069548D01*
X0394639Y0074548D01*
X0395652Y0075561D01*
X0395701Y0075679D01*
X0395701Y0017600D01*
X0395663Y0017026D01*
X0395366Y0015916D01*
X0394792Y0014921D01*
X0393979Y0014109D01*
X0392985Y0013535D01*
X0391875Y0013238D01*
X0391301Y0013200D01*
X0017600Y0013200D01*
X0017026Y0013238D01*
X0015916Y0013535D01*
X0014921Y0014109D01*
X0014109Y0014921D01*
X0013535Y0015916D01*
X0013238Y0017026D01*
X0013200Y0017600D01*
X0013200Y0257561D01*
X0013238Y0258135D01*
X0013535Y0259244D01*
X0014109Y0260239D01*
X0014921Y0261051D01*
X0015916Y0261626D01*
X0017026Y0261923D01*
X0017600Y0261961D01*
X0019800Y0261961D01*
X0019800Y0237043D01*
X0020226Y0236014D01*
X0021014Y0235226D01*
X0022043Y0234800D01*
X0043157Y0234800D01*
X0044186Y0235226D01*
X0044974Y0236014D01*
X0045400Y0237043D01*
X0045400Y0261961D01*
X0074800Y0261961D01*
X0074800Y0237043D01*
X0075226Y0236014D01*
X0076014Y0235226D01*
X0077043Y0234800D01*
X0098157Y0234800D01*
X0099186Y0235226D01*
X0099974Y0236014D01*
X0100400Y0237043D01*
X0100400Y0261961D01*
X0314800Y0261961D01*
X0314800Y0237043D01*
X0315226Y0236014D01*
X0316014Y0235226D01*
X0317043Y0234800D01*
X0338157Y0234800D01*
X0339186Y0235226D01*
X0339974Y0236014D01*
X0340400Y0237043D01*
X0340400Y0261961D01*
X0364800Y0261961D01*
X0364800Y0237043D01*
X0365226Y0236014D01*
X0366014Y0235226D01*
X0367043Y0234800D01*
X0388157Y0234800D01*
X0389186Y0235226D01*
X0389974Y0236014D01*
X0390400Y0237043D01*
X0390400Y0261961D01*
X0391301Y0261961D01*
X0391875Y0261923D01*
X0392985Y0261626D01*
X0393979Y0261051D01*
X0394792Y0260239D01*
X0395366Y0259244D01*
X0395663Y0258135D01*
X0395701Y0257561D01*
X0395701Y0188921D01*
X0395652Y0189039D01*
X0395403Y0189289D01*
X0395208Y0189583D01*
X0394901Y0189790D01*
X0394639Y0190052D01*
X0394314Y0190187D01*
X0386710Y0195322D01*
X0387050Y0196142D01*
X0387050Y0198658D01*
X0386087Y0200983D01*
X0384308Y0202762D01*
X0381983Y0203725D01*
X0372417Y0203725D01*
X0370092Y0202762D01*
X0368313Y0200983D01*
X0367350Y0198658D01*
X0367350Y0196142D01*
X0368313Y0193817D01*
X0370092Y0192038D01*
X0372417Y0191075D01*
X0380133Y0191075D01*
X0389000Y0185087D01*
X0389000Y0079091D01*
X0386109Y0076200D01*
X0361750Y0076200D01*
X0361750Y0076720D01*
X0360357Y0080083D01*
X0357783Y0082657D01*
X0354420Y0084050D01*
X0350780Y0084050D01*
X0347417Y0082657D01*
X0344843Y0080083D01*
X0343450Y0076720D01*
X0343450Y0076200D01*
X0324091Y0076200D01*
X0323816Y0076475D01*
X0332783Y0076475D01*
X0335108Y0077438D01*
X0336887Y0079217D01*
X0337850Y0081542D01*
X0337850Y0084058D01*
X0336887Y0086383D01*
X0335108Y0088162D01*
X0333085Y0089000D01*
X0372115Y0089000D01*
X0370092Y0088162D01*
X0368313Y0086383D01*
X0367350Y0084058D01*
X0367350Y0081542D01*
X0368313Y0079217D01*
X0370092Y0077438D01*
X0372417Y0076475D01*
X0381983Y0076475D01*
X0384308Y0077438D01*
X0386087Y0079217D01*
X0387050Y0081542D01*
X0387050Y0084058D01*
X0386087Y0086383D01*
X0384308Y0088162D01*
X0381983Y0089125D01*
X0373418Y0089125D01*
X0373673Y0089231D01*
X0374244Y0089426D01*
X0374331Y0089503D01*
X0374439Y0089548D01*
X0374866Y0089975D01*
X0375318Y0090373D01*
X0375369Y0090478D01*
X0375452Y0090561D01*
X0375683Y0091118D01*
X0378111Y0096075D01*
X0381983Y0096075D01*
X0384308Y0097038D01*
X0386087Y0098817D01*
X0387050Y0101142D01*
X0387050Y0103658D01*
X0386087Y0105983D01*
X0384308Y0107762D01*
X0381983Y0108725D01*
X0372417Y0108725D01*
X0370092Y0107762D01*
X0368313Y0105983D01*
X0367350Y0103658D01*
X0367350Y0101142D01*
X0368313Y0098817D01*
X0370092Y0097038D01*
X0370485Y0096875D01*
X0370155Y0096200D01*
X0333085Y0096200D01*
X0335108Y0097038D01*
X0336887Y0098817D01*
X0337850Y0101142D01*
X0337850Y0103658D01*
X0336887Y0105983D01*
X0335108Y0107762D01*
X0332783Y0108725D01*
X0323217Y0108725D01*
X0320892Y0107762D01*
X0319113Y0105983D01*
X0318150Y0103658D01*
X0318150Y0101142D01*
X0319113Y0098817D01*
X0320892Y0097038D01*
X0322915Y0096200D01*
X0184091Y0096200D01*
X0181200Y0099091D01*
X0181200Y0123278D01*
X0181955Y0124033D01*
X0182381Y0125062D01*
X0182381Y0130138D01*
X0181955Y0131167D01*
X0181167Y0131955D01*
X0180138Y0132381D01*
X0175062Y0132381D01*
X0174033Y0131955D01*
X0173245Y0131167D01*
X0172819Y0130138D01*
X0172819Y0125062D01*
X0173245Y0124033D01*
X0174000Y0123278D01*
X0174000Y0096884D01*
X0174548Y0095561D01*
X0179548Y0090561D01*
X0180561Y0089548D01*
X0181884Y0089000D01*
X0322915Y0089000D01*
X0320892Y0088162D01*
X0319113Y0086383D01*
X0318150Y0084058D01*
X0318150Y0082141D01*
X0314639Y0085652D01*
X0313316Y0086200D01*
X0174091Y0086200D01*
X0171200Y0089091D01*
X0171200Y0123278D01*
X0171955Y0124033D01*
X0172381Y0125062D01*
X0172381Y0130138D01*
X0171955Y0131167D01*
X0171167Y0131955D01*
X0170138Y0132381D01*
X0165062Y0132381D01*
X0164033Y0131955D01*
X0163245Y0131167D01*
X0162819Y0130138D01*
X0162819Y0125062D01*
X0162819Y0129143D02*
X0091200Y0129143D01*
X0091200Y0132342D02*
X0164967Y0132342D01*
X0170233Y0132342D02*
X0174967Y0132342D01*
X0180233Y0132342D02*
X0389000Y0132342D01*
X0389000Y0135540D02*
X0091200Y0135540D01*
X0091200Y0138739D02*
X0389000Y0138739D01*
X0389000Y0141937D02*
X0091200Y0141937D01*
X0091200Y0145136D02*
X0389000Y0145136D01*
X0389000Y0148334D02*
X0166256Y0148334D01*
X0167381Y0151533D02*
X0389000Y0151533D01*
X0389000Y0154732D02*
X0167381Y0154732D01*
X0158943Y0148334D02*
X0093426Y0148334D01*
X0086442Y0151533D02*
X0013200Y0151533D01*
X0013200Y0154732D02*
X0089640Y0154732D01*
X0089548Y0154639D02*
X0089548Y0154639D01*
X0084008Y0148334D02*
X0013200Y0148334D01*
X0013200Y0145136D02*
X0084000Y0145136D01*
X0084000Y0141937D02*
X0013200Y0141937D01*
X0013200Y0138739D02*
X0084000Y0138739D01*
X0084000Y0135540D02*
X0013200Y0135540D01*
X0013200Y0132342D02*
X0084000Y0132342D01*
X0084000Y0129143D02*
X0013200Y0129143D01*
X0013200Y0125945D02*
X0084000Y0125945D01*
X0084000Y0122746D02*
X0013200Y0122746D01*
X0013200Y0119548D02*
X0082819Y0119548D01*
X0082819Y0116349D02*
X0013200Y0116349D01*
X0013200Y0113151D02*
X0052644Y0113151D01*
X0052417Y0113057D02*
X0049843Y0110483D01*
X0048450Y0107120D01*
X0048450Y0103480D01*
X0049843Y0100117D01*
X0052417Y0097543D01*
X0055780Y0096150D01*
X0059420Y0096150D01*
X0062783Y0097543D01*
X0065357Y0100117D01*
X0066750Y0103480D01*
X0066750Y0107120D01*
X0065357Y0110483D01*
X0062783Y0113057D01*
X0059420Y0114450D01*
X0055780Y0114450D01*
X0052417Y0113057D01*
X0049623Y0109952D02*
X0013200Y0109952D01*
X0013200Y0106754D02*
X0048450Y0106754D01*
X0048450Y0103555D02*
X0038193Y0103555D01*
X0037783Y0103725D02*
X0040108Y0102762D01*
X0041887Y0100983D01*
X0042850Y0098658D01*
X0042850Y0096142D01*
X0041887Y0093817D01*
X0040108Y0092038D01*
X0037783Y0091075D01*
X0028217Y0091075D01*
X0025892Y0092038D01*
X0024113Y0093817D01*
X0023150Y0096142D01*
X0023150Y0098658D01*
X0024113Y0100983D01*
X0025892Y0102762D01*
X0028217Y0103725D01*
X0037783Y0103725D01*
X0042146Y0100357D02*
X0049744Y0100357D01*
X0053346Y0097158D02*
X0042850Y0097158D01*
X0041946Y0093960D02*
X0073254Y0093960D01*
X0073313Y0093817D02*
X0075092Y0092038D01*
X0077417Y0091075D01*
X0086983Y0091075D01*
X0089308Y0092038D01*
X0091087Y0093817D01*
X0092050Y0096142D01*
X0092050Y0098658D01*
X0091087Y0100983D01*
X0089308Y0102762D01*
X0086983Y0103725D01*
X0077417Y0103725D01*
X0075092Y0102762D01*
X0073313Y0100983D01*
X0072350Y0098658D01*
X0072350Y0096142D01*
X0073313Y0093817D01*
X0072350Y0097158D02*
X0061854Y0097158D01*
X0065456Y0100357D02*
X0073054Y0100357D01*
X0077007Y0103555D02*
X0066750Y0103555D01*
X0066750Y0106754D02*
X0164000Y0106754D01*
X0164000Y0109952D02*
X0065577Y0109952D01*
X0062556Y0113151D02*
X0084260Y0113151D01*
X0087393Y0103555D02*
X0164000Y0103555D01*
X0164000Y0100357D02*
X0091346Y0100357D01*
X0092050Y0097158D02*
X0164000Y0097158D01*
X0164000Y0093960D02*
X0091146Y0093960D01*
X0086983Y0084125D02*
X0077417Y0084125D01*
X0075092Y0083162D01*
X0073313Y0081383D01*
X0072350Y0079058D01*
X0072350Y0076542D01*
X0073313Y0074217D01*
X0075092Y0072438D01*
X0077417Y0071475D01*
X0086983Y0071475D01*
X0089308Y0072438D01*
X0091087Y0074217D01*
X0092050Y0076542D01*
X0092050Y0079058D01*
X0091087Y0081383D01*
X0089308Y0083162D01*
X0086983Y0084125D01*
X0091177Y0081166D02*
X0168943Y0081166D01*
X0165745Y0084364D02*
X0013200Y0084364D01*
X0013200Y0081166D02*
X0024023Y0081166D01*
X0024113Y0081383D02*
X0023150Y0079058D01*
X0023150Y0076542D01*
X0024113Y0074217D01*
X0025892Y0072438D01*
X0028217Y0071475D01*
X0037783Y0071475D01*
X0040108Y0072438D01*
X0041887Y0074217D01*
X0042850Y0076542D01*
X0042850Y0079058D01*
X0041887Y0081383D01*
X0040108Y0083162D01*
X0037783Y0084125D01*
X0028217Y0084125D01*
X0025892Y0083162D01*
X0024113Y0081383D01*
X0023150Y0077967D02*
X0013200Y0077967D01*
X0013200Y0074769D02*
X0023884Y0074769D01*
X0027987Y0071570D02*
X0013200Y0071570D01*
X0013200Y0068372D02*
X0048450Y0068372D01*
X0048450Y0068080D02*
X0049843Y0064717D01*
X0052417Y0062143D01*
X0055780Y0060750D01*
X0059420Y0060750D01*
X0062783Y0062143D01*
X0065357Y0064717D01*
X0066750Y0068080D01*
X0066750Y0071720D01*
X0065357Y0075083D01*
X0062783Y0077657D01*
X0059420Y0079050D01*
X0055780Y0079050D01*
X0052417Y0077657D01*
X0049843Y0075083D01*
X0048450Y0071720D01*
X0048450Y0068080D01*
X0049654Y0065173D02*
X0013200Y0065173D01*
X0013200Y0061975D02*
X0052823Y0061975D01*
X0062377Y0061975D02*
X0115300Y0061975D01*
X0115300Y0065173D02*
X0065546Y0065173D01*
X0066750Y0068372D02*
X0115300Y0068372D01*
X0115300Y0067944D02*
X0115300Y0030444D01*
X0115802Y0029231D01*
X0116731Y0028302D01*
X0117944Y0027800D01*
X0157256Y0027800D01*
X0158469Y0028302D01*
X0159398Y0029231D01*
X0159900Y0030444D01*
X0159900Y0069256D01*
X0159398Y0070469D01*
X0158469Y0071398D01*
X0157256Y0071900D01*
X0144003Y0071900D01*
X0142287Y0073615D01*
X0139246Y0074875D01*
X0135954Y0074875D01*
X0132913Y0073615D01*
X0131197Y0071900D01*
X0117944Y0071900D01*
X0116731Y0071398D01*
X0115802Y0070469D01*
X0115300Y0069256D01*
X0115300Y0067944D01*
X0117147Y0071570D02*
X0087213Y0071570D01*
X0091316Y0074769D02*
X0135697Y0074769D01*
X0139503Y0074769D02*
X0205697Y0074769D01*
X0205954Y0074875D02*
X0202913Y0073615D01*
X0201197Y0071900D01*
X0187944Y0071900D01*
X0186731Y0071398D01*
X0185802Y0070469D01*
X0185300Y0069256D01*
X0185300Y0067944D01*
X0185300Y0030444D01*
X0185802Y0029231D01*
X0186731Y0028302D01*
X0187944Y0027800D01*
X0227256Y0027800D01*
X0228469Y0028302D01*
X0229398Y0029231D01*
X0229900Y0030444D01*
X0229900Y0069256D01*
X0229398Y0070469D01*
X0228469Y0071398D01*
X0227256Y0071900D01*
X0214003Y0071900D01*
X0212287Y0073615D01*
X0209246Y0074875D01*
X0205954Y0074875D01*
X0209503Y0074769D02*
X0275697Y0074769D01*
X0275954Y0074875D02*
X0272913Y0073615D01*
X0271197Y0071900D01*
X0257944Y0071900D01*
X0256731Y0071398D01*
X0255802Y0070469D01*
X0255300Y0069256D01*
X0255300Y0067944D01*
X0255300Y0030444D01*
X0255802Y0029231D01*
X0256731Y0028302D01*
X0257944Y0027800D01*
X0297256Y0027800D01*
X0298469Y0028302D01*
X0299398Y0029231D01*
X0299900Y0030444D01*
X0299900Y0069256D01*
X0299398Y0070469D01*
X0298469Y0071398D01*
X0297256Y0071900D01*
X0284003Y0071900D01*
X0282287Y0073615D01*
X0279246Y0074875D01*
X0275954Y0074875D01*
X0279503Y0074769D02*
X0315340Y0074769D01*
X0312142Y0077967D02*
X0092050Y0077967D01*
X0077187Y0071570D02*
X0066750Y0071570D01*
X0065487Y0074769D02*
X0073084Y0074769D01*
X0072350Y0077967D02*
X0062034Y0077967D01*
X0073223Y0081166D02*
X0041977Y0081166D01*
X0042850Y0077967D02*
X0053166Y0077967D01*
X0049713Y0074769D02*
X0042116Y0074769D01*
X0038013Y0071570D02*
X0048450Y0071570D01*
X0024054Y0093960D02*
X0013200Y0093960D01*
X0013200Y0097158D02*
X0023150Y0097158D01*
X0023854Y0100357D02*
X0013200Y0100357D01*
X0013200Y0103555D02*
X0027807Y0103555D01*
X0013200Y0090761D02*
X0164000Y0090761D01*
X0164000Y0087563D02*
X0013200Y0087563D01*
X0013200Y0058776D02*
X0115300Y0058776D01*
X0115300Y0055578D02*
X0013200Y0055578D01*
X0013200Y0052379D02*
X0115300Y0052379D01*
X0115300Y0049181D02*
X0013200Y0049181D01*
X0013200Y0045982D02*
X0115300Y0045982D01*
X0115300Y0042784D02*
X0013200Y0042784D01*
X0013200Y0039585D02*
X0115300Y0039585D01*
X0115300Y0036387D02*
X0013200Y0036387D01*
X0013200Y0033188D02*
X0115300Y0033188D01*
X0115488Y0029990D02*
X0013200Y0029990D01*
X0013200Y0026791D02*
X0395701Y0026791D01*
X0395701Y0023593D02*
X0013200Y0023593D01*
X0013200Y0020394D02*
X0395701Y0020394D01*
X0395674Y0017196D02*
X0013227Y0017196D01*
X0015116Y0013997D02*
X0393785Y0013997D01*
X0395701Y0029990D02*
X0299712Y0029990D01*
X0299900Y0033188D02*
X0395701Y0033188D01*
X0395701Y0036387D02*
X0299900Y0036387D01*
X0299900Y0039585D02*
X0395701Y0039585D01*
X0395701Y0042784D02*
X0299900Y0042784D01*
X0299900Y0045982D02*
X0395701Y0045982D01*
X0395701Y0049181D02*
X0299900Y0049181D01*
X0299900Y0052379D02*
X0395701Y0052379D01*
X0395701Y0055578D02*
X0299900Y0055578D01*
X0299900Y0058776D02*
X0395701Y0058776D01*
X0395701Y0061975D02*
X0299900Y0061975D01*
X0299900Y0065173D02*
X0395701Y0065173D01*
X0395701Y0068372D02*
X0359012Y0068372D01*
X0346188Y0068372D02*
X0299900Y0068372D01*
X0298053Y0071570D02*
X0318539Y0071570D01*
X0318277Y0084364D02*
X0315927Y0084364D01*
X0320293Y0087563D02*
X0172728Y0087563D01*
X0171200Y0090761D02*
X0179348Y0090761D01*
X0176149Y0093960D02*
X0171200Y0093960D01*
X0171200Y0097158D02*
X0174000Y0097158D01*
X0174000Y0100357D02*
X0171200Y0100357D01*
X0171200Y0103555D02*
X0174000Y0103555D01*
X0174000Y0106754D02*
X0171200Y0106754D01*
X0171200Y0109952D02*
X0174000Y0109952D01*
X0174000Y0113151D02*
X0171200Y0113151D01*
X0171200Y0116349D02*
X0174000Y0116349D01*
X0174000Y0119548D02*
X0171200Y0119548D01*
X0171200Y0122746D02*
X0174000Y0122746D01*
X0172819Y0125945D02*
X0172381Y0125945D01*
X0172381Y0129143D02*
X0172819Y0129143D01*
X0182381Y0129143D02*
X0389000Y0129143D01*
X0389000Y0125945D02*
X0182381Y0125945D01*
X0181200Y0122746D02*
X0389000Y0122746D01*
X0389000Y0119548D02*
X0181200Y0119548D01*
X0181200Y0116349D02*
X0345709Y0116349D01*
X0344843Y0115483D02*
X0347417Y0118057D01*
X0350780Y0119450D01*
X0354420Y0119450D01*
X0357783Y0118057D01*
X0360357Y0115483D01*
X0361750Y0112120D01*
X0361750Y0108480D01*
X0360357Y0105117D01*
X0357783Y0102543D01*
X0354420Y0101150D01*
X0350780Y0101150D01*
X0347417Y0102543D01*
X0344843Y0105117D01*
X0343450Y0108480D01*
X0343450Y0112120D01*
X0344843Y0115483D01*
X0343877Y0113151D02*
X0181200Y0113151D01*
X0181200Y0109952D02*
X0343450Y0109952D01*
X0344165Y0106754D02*
X0336116Y0106754D01*
X0337850Y0103555D02*
X0346405Y0103555D01*
X0337525Y0100357D02*
X0367675Y0100357D01*
X0367350Y0103555D02*
X0358795Y0103555D01*
X0361035Y0106754D02*
X0369084Y0106754D01*
X0361750Y0109952D02*
X0389000Y0109952D01*
X0389000Y0106754D02*
X0385316Y0106754D01*
X0387050Y0103555D02*
X0389000Y0103555D01*
X0389000Y0100357D02*
X0386725Y0100357D01*
X0389000Y0097158D02*
X0384428Y0097158D01*
X0389000Y0093960D02*
X0377075Y0093960D01*
X0369972Y0097158D02*
X0335228Y0097158D01*
X0320772Y0097158D02*
X0183133Y0097158D01*
X0181200Y0100357D02*
X0318475Y0100357D01*
X0318150Y0103555D02*
X0181200Y0103555D01*
X0181200Y0106754D02*
X0319884Y0106754D01*
X0335707Y0087563D02*
X0369493Y0087563D01*
X0367477Y0084364D02*
X0337723Y0084364D01*
X0337694Y0081166D02*
X0345926Y0081166D01*
X0343967Y0077967D02*
X0335637Y0077967D01*
X0359274Y0081166D02*
X0367506Y0081166D01*
X0369563Y0077967D02*
X0361233Y0077967D01*
X0375535Y0090761D02*
X0389000Y0090761D01*
X0389000Y0087563D02*
X0384907Y0087563D01*
X0386923Y0084364D02*
X0389000Y0084364D01*
X0389000Y0081166D02*
X0386894Y0081166D01*
X0387876Y0077967D02*
X0384837Y0077967D01*
X0391661Y0071570D02*
X0395701Y0071570D01*
X0395701Y0074769D02*
X0394860Y0074769D01*
X0389000Y0113151D02*
X0361323Y0113151D01*
X0359491Y0116349D02*
X0389000Y0116349D01*
X0389000Y0157930D02*
X0013200Y0157930D01*
X0013200Y0161129D02*
X0054866Y0161129D01*
X0055780Y0160750D02*
X0059420Y0160750D01*
X0062783Y0162143D01*
X0065357Y0164717D01*
X0066750Y0168080D01*
X0066750Y0171720D01*
X0065357Y0175083D01*
X0062783Y0177657D01*
X0059420Y0179050D01*
X0055780Y0179050D01*
X0052417Y0177657D01*
X0049843Y0175083D01*
X0048450Y0171720D01*
X0048450Y0168080D01*
X0049843Y0164717D01*
X0052417Y0162143D01*
X0055780Y0160750D01*
X0060334Y0161129D02*
X0349866Y0161129D01*
X0350780Y0160750D02*
X0354420Y0160750D01*
X0357783Y0162143D01*
X0360357Y0164717D01*
X0361750Y0168080D01*
X0361750Y0171720D01*
X0360357Y0175083D01*
X0357783Y0177657D01*
X0354420Y0179050D01*
X0350780Y0179050D01*
X0347417Y0177657D01*
X0344843Y0175083D01*
X0343450Y0171720D01*
X0343450Y0168080D01*
X0344843Y0164717D01*
X0347417Y0162143D01*
X0350780Y0160750D01*
X0355334Y0161129D02*
X0389000Y0161129D01*
X0389000Y0164327D02*
X0359967Y0164327D01*
X0361520Y0167526D02*
X0389000Y0167526D01*
X0389000Y0170724D02*
X0361750Y0170724D01*
X0360838Y0173923D02*
X0368608Y0173923D01*
X0368313Y0174217D02*
X0370092Y0172438D01*
X0372417Y0171475D01*
X0381983Y0171475D01*
X0384308Y0172438D01*
X0386087Y0174217D01*
X0387050Y0176542D01*
X0387050Y0179058D01*
X0386087Y0181383D01*
X0384308Y0183162D01*
X0381983Y0184125D01*
X0372417Y0184125D01*
X0370092Y0183162D01*
X0368313Y0181383D01*
X0367350Y0179058D01*
X0367350Y0176542D01*
X0368313Y0174217D01*
X0367350Y0177121D02*
X0358319Y0177121D01*
X0367873Y0180320D02*
X0337327Y0180320D01*
X0336887Y0181383D02*
X0335108Y0183162D01*
X0332783Y0184125D01*
X0323217Y0184125D01*
X0320892Y0183162D01*
X0319113Y0181383D01*
X0318150Y0179058D01*
X0318150Y0176542D01*
X0319113Y0174217D01*
X0320892Y0172438D01*
X0323217Y0171475D01*
X0332783Y0171475D01*
X0335108Y0172438D01*
X0336887Y0174217D01*
X0337850Y0176542D01*
X0337850Y0179058D01*
X0336887Y0181383D01*
X0334248Y0183518D02*
X0370952Y0183518D01*
X0383448Y0183518D02*
X0389000Y0183518D01*
X0389000Y0180320D02*
X0386527Y0180320D01*
X0387050Y0177121D02*
X0389000Y0177121D01*
X0389000Y0173923D02*
X0385792Y0173923D01*
X0386587Y0186717D02*
X0013200Y0186717D01*
X0013200Y0183518D02*
X0026752Y0183518D01*
X0025892Y0183162D02*
X0024113Y0181383D01*
X0023150Y0179058D01*
X0023150Y0176542D01*
X0024113Y0174217D01*
X0025892Y0172438D01*
X0028217Y0171475D01*
X0037783Y0171475D01*
X0040108Y0172438D01*
X0041887Y0174217D01*
X0042850Y0176542D01*
X0042850Y0179058D01*
X0041887Y0181383D01*
X0040108Y0183162D01*
X0037783Y0184125D01*
X0028217Y0184125D01*
X0025892Y0183162D01*
X0023673Y0180320D02*
X0013200Y0180320D01*
X0013200Y0177121D02*
X0023150Y0177121D01*
X0024408Y0173923D02*
X0013200Y0173923D01*
X0013200Y0170724D02*
X0048450Y0170724D01*
X0049362Y0173923D02*
X0041592Y0173923D01*
X0042850Y0177121D02*
X0051881Y0177121D01*
X0042327Y0180320D02*
X0072873Y0180320D01*
X0073313Y0181383D02*
X0072350Y0179058D01*
X0072350Y0176542D01*
X0073313Y0174217D01*
X0075092Y0172438D01*
X0077417Y0171475D01*
X0086983Y0171475D01*
X0089308Y0172438D01*
X0091087Y0174217D01*
X0092050Y0176542D01*
X0092050Y0179058D01*
X0091087Y0181383D01*
X0089308Y0183162D01*
X0086983Y0184125D01*
X0077417Y0184125D01*
X0075092Y0183162D01*
X0073313Y0181383D01*
X0075952Y0183518D02*
X0039248Y0183518D01*
X0037783Y0191075D02*
X0028217Y0191075D01*
X0025892Y0192038D01*
X0024113Y0193817D01*
X0023150Y0196142D01*
X0023150Y0198658D01*
X0024113Y0200983D01*
X0025892Y0202762D01*
X0028217Y0203725D01*
X0037783Y0203725D01*
X0040108Y0202762D01*
X0041887Y0200983D01*
X0042850Y0198658D01*
X0042850Y0196142D01*
X0041887Y0193817D01*
X0040108Y0192038D01*
X0037783Y0191075D01*
X0041184Y0193114D02*
X0074016Y0193114D01*
X0073313Y0193817D02*
X0072350Y0196142D01*
X0072350Y0198658D01*
X0073313Y0200983D01*
X0075092Y0202762D01*
X0077417Y0203725D01*
X0086983Y0203725D01*
X0089308Y0202762D01*
X0091087Y0200983D01*
X0092050Y0198658D01*
X0092050Y0196142D01*
X0091087Y0193817D01*
X0089308Y0192038D01*
X0086983Y0191075D01*
X0077417Y0191075D01*
X0075092Y0192038D01*
X0073313Y0193817D01*
X0072350Y0196312D02*
X0059812Y0196312D01*
X0059420Y0196150D02*
X0062783Y0197543D01*
X0065357Y0200117D01*
X0066750Y0203480D01*
X0066750Y0207120D01*
X0065357Y0210483D01*
X0062783Y0213057D01*
X0059420Y0214450D01*
X0055780Y0214450D01*
X0052417Y0213057D01*
X0049843Y0210483D01*
X0048450Y0207120D01*
X0048450Y0203480D01*
X0049843Y0200117D01*
X0052417Y0197543D01*
X0055780Y0196150D01*
X0059420Y0196150D01*
X0055388Y0196312D02*
X0042850Y0196312D01*
X0042497Y0199511D02*
X0050449Y0199511D01*
X0048769Y0202709D02*
X0040161Y0202709D01*
X0048450Y0205908D02*
X0013200Y0205908D01*
X0013200Y0209106D02*
X0049273Y0209106D01*
X0051665Y0212305D02*
X0013200Y0212305D01*
X0013200Y0215503D02*
X0115300Y0215503D01*
X0115300Y0212305D02*
X0063535Y0212305D01*
X0065927Y0209106D02*
X0115300Y0209106D01*
X0115300Y0205944D02*
X0115802Y0204731D01*
X0116731Y0203802D01*
X0117944Y0203300D01*
X0131197Y0203300D01*
X0132913Y0201585D01*
X0135954Y0200325D01*
X0139246Y0200325D01*
X0142287Y0201585D01*
X0144003Y0203300D01*
X0157256Y0203300D01*
X0158469Y0203802D01*
X0159398Y0204731D01*
X0159900Y0205944D01*
X0159900Y0207256D01*
X0159900Y0244756D01*
X0159398Y0245969D01*
X0158469Y0246898D01*
X0157256Y0247400D01*
X0117944Y0247400D01*
X0116731Y0246898D01*
X0115802Y0245969D01*
X0115300Y0244756D01*
X0115300Y0205944D01*
X0115315Y0205908D02*
X0066750Y0205908D01*
X0066431Y0202709D02*
X0075039Y0202709D01*
X0072703Y0199511D02*
X0064751Y0199511D01*
X0089361Y0202709D02*
X0131788Y0202709D01*
X0143412Y0202709D02*
X0201788Y0202709D01*
X0201197Y0203300D02*
X0202913Y0201585D01*
X0205954Y0200325D01*
X0209246Y0200325D01*
X0212287Y0201585D01*
X0214003Y0203300D01*
X0227256Y0203300D01*
X0228469Y0203802D01*
X0229398Y0204731D01*
X0229900Y0205944D01*
X0229900Y0207256D01*
X0229900Y0244756D01*
X0229398Y0245969D01*
X0228469Y0246898D01*
X0227256Y0247400D01*
X0187944Y0247400D01*
X0186731Y0246898D01*
X0185802Y0245969D01*
X0185300Y0244756D01*
X0185300Y0205944D01*
X0185802Y0204731D01*
X0186731Y0203802D01*
X0187944Y0203300D01*
X0201197Y0203300D01*
X0213412Y0202709D02*
X0271788Y0202709D01*
X0271197Y0203300D02*
X0272913Y0201585D01*
X0275954Y0200325D01*
X0279246Y0200325D01*
X0282287Y0201585D01*
X0284003Y0203300D01*
X0297256Y0203300D01*
X0298469Y0203802D01*
X0299398Y0204731D01*
X0299900Y0205944D01*
X0299900Y0207256D01*
X0299900Y0244756D01*
X0299398Y0245969D01*
X0298469Y0246898D01*
X0297256Y0247400D01*
X0257944Y0247400D01*
X0256731Y0246898D01*
X0255802Y0245969D01*
X0255300Y0244756D01*
X0255300Y0205944D01*
X0255802Y0204731D01*
X0256731Y0203802D01*
X0257944Y0203300D01*
X0271197Y0203300D01*
X0269325Y0209900D02*
X0261900Y0209900D01*
X0261900Y0240800D01*
X0270701Y0240800D01*
X0270342Y0240179D01*
X0269937Y0239201D01*
X0269663Y0238179D01*
X0269525Y0237129D01*
X0269525Y0236825D01*
X0277375Y0236825D01*
X0277375Y0236375D01*
X0269525Y0236375D01*
X0269525Y0236071D01*
X0269663Y0235021D01*
X0269937Y0233999D01*
X0270342Y0233021D01*
X0270871Y0232104D01*
X0271516Y0231264D01*
X0272264Y0230516D01*
X0273104Y0229871D01*
X0274021Y0229342D01*
X0274999Y0228937D01*
X0276021Y0228663D01*
X0277071Y0228525D01*
X0277375Y0228525D01*
X0277375Y0236375D01*
X0277825Y0236375D01*
X0277825Y0236825D01*
X0285675Y0236825D01*
X0285675Y0237129D01*
X0285537Y0238179D01*
X0285263Y0239201D01*
X0284858Y0240179D01*
X0284499Y0240800D01*
X0293300Y0240800D01*
X0293300Y0209900D01*
X0285875Y0209900D01*
X0285875Y0210246D01*
X0284615Y0213287D01*
X0282287Y0215615D01*
X0279246Y0216875D01*
X0275954Y0216875D01*
X0272913Y0215615D01*
X0270585Y0213287D01*
X0269325Y0210246D01*
X0269325Y0209900D01*
X0270178Y0212305D02*
X0261900Y0212305D01*
X0261900Y0215503D02*
X0272801Y0215503D01*
X0282399Y0215503D02*
X0293300Y0215503D01*
X0293300Y0212305D02*
X0285022Y0212305D01*
X0293300Y0218702D02*
X0261900Y0218702D01*
X0261900Y0221900D02*
X0293300Y0221900D01*
X0293300Y0225099D02*
X0261900Y0225099D01*
X0261900Y0228297D02*
X0293300Y0228297D01*
X0293300Y0231496D02*
X0283862Y0231496D01*
X0283684Y0231264D02*
X0284329Y0232104D01*
X0284858Y0233021D01*
X0285263Y0233999D01*
X0285537Y0235021D01*
X0285675Y0236071D01*
X0285675Y0236375D01*
X0277825Y0236375D01*
X0277825Y0228525D01*
X0278129Y0228525D01*
X0279179Y0228663D01*
X0280201Y0228937D01*
X0281179Y0229342D01*
X0282096Y0229871D01*
X0282936Y0230516D01*
X0283684Y0231264D01*
X0285449Y0234694D02*
X0293300Y0234694D01*
X0293300Y0237893D02*
X0285574Y0237893D01*
X0277825Y0234694D02*
X0277375Y0234694D01*
X0277375Y0231496D02*
X0277825Y0231496D01*
X0271338Y0231496D02*
X0261900Y0231496D01*
X0261900Y0234694D02*
X0269751Y0234694D01*
X0269626Y0237893D02*
X0261900Y0237893D01*
X0255300Y0237893D02*
X0229900Y0237893D01*
X0229900Y0241091D02*
X0255300Y0241091D01*
X0255300Y0244290D02*
X0229900Y0244290D01*
X0229900Y0234694D02*
X0255300Y0234694D01*
X0255300Y0231496D02*
X0229900Y0231496D01*
X0229900Y0228297D02*
X0255300Y0228297D01*
X0255300Y0225099D02*
X0229900Y0225099D01*
X0229900Y0221900D02*
X0255300Y0221900D01*
X0255300Y0218702D02*
X0229900Y0218702D01*
X0229900Y0215503D02*
X0255300Y0215503D01*
X0255300Y0212305D02*
X0229900Y0212305D01*
X0229900Y0209106D02*
X0255300Y0209106D01*
X0255315Y0205908D02*
X0229885Y0205908D01*
X0185315Y0205908D02*
X0159885Y0205908D01*
X0159900Y0209106D02*
X0185300Y0209106D01*
X0185300Y0212305D02*
X0159900Y0212305D01*
X0159900Y0215503D02*
X0185300Y0215503D01*
X0185300Y0218702D02*
X0159900Y0218702D01*
X0159900Y0221900D02*
X0185300Y0221900D01*
X0185300Y0225099D02*
X0159900Y0225099D01*
X0159900Y0228297D02*
X0185300Y0228297D01*
X0185300Y0231496D02*
X0159900Y0231496D01*
X0159900Y0234694D02*
X0185300Y0234694D01*
X0185300Y0237893D02*
X0159900Y0237893D01*
X0159900Y0241091D02*
X0185300Y0241091D01*
X0185300Y0244290D02*
X0159900Y0244290D01*
X0115300Y0244290D02*
X0100400Y0244290D01*
X0100400Y0247488D02*
X0314800Y0247488D01*
X0314800Y0244290D02*
X0299900Y0244290D01*
X0299900Y0241091D02*
X0314800Y0241091D01*
X0314800Y0237893D02*
X0299900Y0237893D01*
X0299900Y0234694D02*
X0395701Y0234694D01*
X0395701Y0231496D02*
X0299900Y0231496D01*
X0299900Y0228297D02*
X0395701Y0228297D01*
X0395701Y0225099D02*
X0299900Y0225099D01*
X0299900Y0221900D02*
X0395701Y0221900D01*
X0395701Y0218702D02*
X0299900Y0218702D01*
X0299900Y0215503D02*
X0395701Y0215503D01*
X0395701Y0212305D02*
X0358535Y0212305D01*
X0357783Y0213057D02*
X0354420Y0214450D01*
X0350780Y0214450D01*
X0347417Y0213057D01*
X0344843Y0210483D01*
X0343450Y0207120D01*
X0343450Y0203480D01*
X0344843Y0200117D01*
X0347417Y0197543D01*
X0350780Y0196150D01*
X0354420Y0196150D01*
X0357783Y0197543D01*
X0360357Y0200117D01*
X0361750Y0203480D01*
X0361750Y0207120D01*
X0360357Y0210483D01*
X0357783Y0213057D01*
X0360927Y0209106D02*
X0395701Y0209106D01*
X0395701Y0205908D02*
X0361750Y0205908D01*
X0361431Y0202709D02*
X0370039Y0202709D01*
X0367703Y0199511D02*
X0359751Y0199511D01*
X0354812Y0196312D02*
X0367350Y0196312D01*
X0369016Y0193114D02*
X0336184Y0193114D01*
X0336887Y0193817D02*
X0335108Y0192038D01*
X0332783Y0191075D01*
X0323217Y0191075D01*
X0320892Y0192038D01*
X0319113Y0193817D01*
X0318150Y0196142D01*
X0318150Y0198658D01*
X0319113Y0200983D01*
X0320892Y0202762D01*
X0323217Y0203725D01*
X0332783Y0203725D01*
X0335108Y0202762D01*
X0336887Y0200983D01*
X0337850Y0198658D01*
X0337850Y0196142D01*
X0336887Y0193817D01*
X0337850Y0196312D02*
X0350388Y0196312D01*
X0345449Y0199511D02*
X0337497Y0199511D01*
X0335161Y0202709D02*
X0343769Y0202709D01*
X0343450Y0205908D02*
X0299885Y0205908D01*
X0299900Y0209106D02*
X0344273Y0209106D01*
X0346665Y0212305D02*
X0299900Y0212305D01*
X0283412Y0202709D02*
X0320839Y0202709D01*
X0318503Y0199511D02*
X0091697Y0199511D01*
X0092050Y0196312D02*
X0318150Y0196312D01*
X0319816Y0193114D02*
X0090384Y0193114D01*
X0088448Y0183518D02*
X0321752Y0183518D01*
X0318673Y0180320D02*
X0091527Y0180320D01*
X0092050Y0177121D02*
X0318150Y0177121D01*
X0319408Y0173923D02*
X0090792Y0173923D01*
X0073608Y0173923D02*
X0065838Y0173923D01*
X0066750Y0170724D02*
X0343450Y0170724D01*
X0344362Y0173923D02*
X0336592Y0173923D01*
X0337850Y0177121D02*
X0346881Y0177121D01*
X0343680Y0167526D02*
X0066520Y0167526D01*
X0064967Y0164327D02*
X0345233Y0164327D01*
X0381851Y0189915D02*
X0013200Y0189915D01*
X0013200Y0193114D02*
X0024816Y0193114D01*
X0023150Y0196312D02*
X0013200Y0196312D01*
X0013200Y0199511D02*
X0023503Y0199511D01*
X0025839Y0202709D02*
X0013200Y0202709D01*
X0013200Y0218702D02*
X0115300Y0218702D01*
X0115300Y0221900D02*
X0013200Y0221900D01*
X0013200Y0225099D02*
X0115300Y0225099D01*
X0115300Y0228297D02*
X0013200Y0228297D01*
X0013200Y0231496D02*
X0115300Y0231496D01*
X0115300Y0234694D02*
X0013200Y0234694D01*
X0013200Y0237893D02*
X0019800Y0237893D01*
X0019800Y0241091D02*
X0013200Y0241091D01*
X0013200Y0244290D02*
X0019800Y0244290D01*
X0019800Y0247488D02*
X0013200Y0247488D01*
X0013200Y0250687D02*
X0019800Y0250687D01*
X0019800Y0253885D02*
X0013200Y0253885D01*
X0013200Y0257084D02*
X0019800Y0257084D01*
X0019800Y0260282D02*
X0014152Y0260282D01*
X0013535Y0259244D02*
X0013535Y0259244D01*
X0045400Y0260282D02*
X0074800Y0260282D01*
X0074800Y0257084D02*
X0045400Y0257084D01*
X0045400Y0253885D02*
X0074800Y0253885D01*
X0074800Y0250687D02*
X0045400Y0250687D01*
X0045400Y0247488D02*
X0074800Y0247488D01*
X0074800Y0244290D02*
X0045400Y0244290D01*
X0045400Y0241091D02*
X0074800Y0241091D01*
X0074800Y0237893D02*
X0045400Y0237893D01*
X0100400Y0237893D02*
X0115300Y0237893D01*
X0115300Y0241091D02*
X0100400Y0241091D01*
X0100400Y0250687D02*
X0314800Y0250687D01*
X0314800Y0253885D02*
X0100400Y0253885D01*
X0100400Y0257084D02*
X0314800Y0257084D01*
X0314800Y0260282D02*
X0100400Y0260282D01*
X0072350Y0177121D02*
X0063319Y0177121D01*
X0048680Y0167526D02*
X0013200Y0167526D01*
X0013200Y0164327D02*
X0050233Y0164327D01*
X0158053Y0071570D02*
X0187147Y0071570D01*
X0185300Y0068372D02*
X0159900Y0068372D01*
X0159900Y0065173D02*
X0185300Y0065173D01*
X0185300Y0061975D02*
X0159900Y0061975D01*
X0159900Y0058776D02*
X0185300Y0058776D01*
X0185300Y0055578D02*
X0159900Y0055578D01*
X0159900Y0052379D02*
X0185300Y0052379D01*
X0185300Y0049181D02*
X0159900Y0049181D01*
X0159900Y0045982D02*
X0185300Y0045982D01*
X0185300Y0042784D02*
X0159900Y0042784D01*
X0159900Y0039585D02*
X0185300Y0039585D01*
X0185300Y0036387D02*
X0159900Y0036387D01*
X0159900Y0033188D02*
X0185300Y0033188D01*
X0185488Y0029990D02*
X0159712Y0029990D01*
X0228053Y0071570D02*
X0257147Y0071570D01*
X0255300Y0068372D02*
X0229900Y0068372D01*
X0229900Y0065173D02*
X0255300Y0065173D01*
X0255300Y0061975D02*
X0229900Y0061975D01*
X0229900Y0058776D02*
X0255300Y0058776D01*
X0255300Y0055578D02*
X0229900Y0055578D01*
X0229900Y0052379D02*
X0255300Y0052379D01*
X0255300Y0049181D02*
X0229900Y0049181D01*
X0229900Y0045982D02*
X0255300Y0045982D01*
X0255300Y0042784D02*
X0229900Y0042784D01*
X0229900Y0039585D02*
X0255300Y0039585D01*
X0255300Y0036387D02*
X0229900Y0036387D01*
X0229900Y0033188D02*
X0255300Y0033188D01*
X0255488Y0029990D02*
X0229712Y0029990D01*
X0394776Y0189915D02*
X0395701Y0189915D01*
X0395701Y0193114D02*
X0389980Y0193114D01*
X0387050Y0196312D02*
X0395701Y0196312D01*
X0395701Y0199511D02*
X0386697Y0199511D01*
X0384361Y0202709D02*
X0395701Y0202709D01*
X0395701Y0237893D02*
X0390400Y0237893D01*
X0390400Y0241091D02*
X0395701Y0241091D01*
X0395701Y0244290D02*
X0390400Y0244290D01*
X0390400Y0247488D02*
X0395701Y0247488D01*
X0395701Y0250687D02*
X0390400Y0250687D01*
X0390400Y0253885D02*
X0395701Y0253885D01*
X0395701Y0257084D02*
X0390400Y0257084D01*
X0390400Y0260282D02*
X0394748Y0260282D01*
X0364800Y0260282D02*
X0340400Y0260282D01*
X0340400Y0257084D02*
X0364800Y0257084D01*
X0364800Y0253885D02*
X0340400Y0253885D01*
X0340400Y0250687D02*
X0364800Y0250687D01*
X0364800Y0247488D02*
X0340400Y0247488D01*
X0340400Y0244290D02*
X0364800Y0244290D01*
X0364800Y0241091D02*
X0340400Y0241091D01*
X0340400Y0237893D02*
X0364800Y0237893D01*
M02*
