%
M48
M72
T01C0.02362
T02C0.04700
T03C0.07100
T04C0.07300
%
T01
X87600Y117600
X157600Y127600
X167600Y127600
X177600Y127600
X162600Y152600
X197600Y72600
X308571Y212600
X322600Y257600
X382600Y257600
X87600Y257600
X27600Y257600
T02
X33000Y197400
X33000Y177800
X82200Y177800
X82200Y197400
X82200Y97400
X82200Y77800
X33000Y77800
X33000Y97400
X333000Y102400
X333000Y82800
X382200Y82800
X382200Y102400
X382200Y177800
X382200Y197400
X333000Y197400
X333000Y177800
T03
X57600Y69900
X57600Y105300
X57600Y169900
X57600Y205300
X357600Y205300
X357600Y169900
X357600Y110300
X357600Y74900
T04
X277600Y66600
X277600Y38600
X207600Y38600
X207600Y66600
X137600Y66600
X137600Y38600
X137600Y208600
X137600Y236600
X207600Y236600
X207600Y208600
X277600Y208600
X277600Y236600
M30
