G75*
%MOIN*%
%OFA0B0*%
%FSLAX25Y25*%
%IPPOS*%
%LPD*%
%AMOC8*
5,1,8,0,0,1.08239X$1,22.5*
%
%ADD10C,0.01000*%
%ADD11C,0.01600*%
%ADD12C,0.00600*%
%ADD13C,0.00000*%
%ADD14C,0.00200*%
%ADD15C,0.00500*%
%ADD16R,0.08500X0.02000*%
D10*
X0118600Y0031100D02*
X0118600Y0068600D01*
X0156600Y0068600D02*
X0156600Y0031100D01*
X0118600Y0031100D01*
X0188600Y0031100D02*
X0226600Y0031100D01*
X0226600Y0068600D01*
X0258600Y0068600D02*
X0258600Y0031100D01*
X0296600Y0031100D01*
X0296600Y0068600D01*
X0188600Y0068600D02*
X0188600Y0031100D01*
X0188600Y0206600D02*
X0188600Y0244100D01*
X0226600Y0244100D01*
X0226600Y0206600D01*
X0258600Y0206600D02*
X0258600Y0244100D01*
X0296600Y0244100D01*
X0296600Y0206600D01*
X0156600Y0206600D02*
X0156600Y0244100D01*
X0118600Y0244100D01*
X0118600Y0206600D01*
D11*
X0127600Y0192600D02*
X0147600Y0192600D01*
X0147600Y0087600D01*
X0140300Y0087600D01*
X0140300Y0082600D01*
X0135300Y0082600D01*
X0135300Y0087600D01*
X0140300Y0087600D01*
X0135300Y0087600D02*
X0127600Y0087600D01*
X0127600Y0192600D01*
X0137600Y0185100D02*
X0137600Y0180100D01*
X0197600Y0187600D02*
X0197600Y0082600D01*
X0217600Y0082600D01*
X0217600Y0187600D01*
X0209900Y0187600D01*
X0209900Y0192600D01*
X0204900Y0192600D01*
X0204900Y0187600D01*
X0197600Y0187600D01*
X0204900Y0187600D02*
X0209900Y0187600D01*
X0207600Y0180100D02*
X0207600Y0175100D01*
X0210100Y0177600D02*
X0205100Y0177600D01*
X0267600Y0192600D02*
X0287600Y0192600D01*
X0287600Y0087600D01*
X0280300Y0087600D01*
X0280300Y0082600D01*
X0275300Y0082600D01*
X0275300Y0087600D01*
X0280300Y0087600D01*
X0275300Y0087600D02*
X0267600Y0087600D01*
X0267600Y0192600D01*
X0277600Y0185100D02*
X0277600Y0180100D01*
X0277600Y0100100D02*
X0277600Y0095100D01*
X0275100Y0097600D02*
X0280100Y0097600D01*
X0207600Y0095100D02*
X0207600Y0090100D01*
X0140100Y0097600D02*
X0135100Y0097600D01*
X0137600Y0100100D02*
X0137600Y0095100D01*
D12*
X0038600Y0067600D02*
X0037600Y0068600D01*
X0050600Y0068600D01*
X0053600Y0068600D01*
X0061600Y0068600D01*
X0064600Y0068600D01*
X0077600Y0068600D01*
X0076600Y0067600D01*
X0064600Y0067600D01*
X0064600Y0068600D01*
X0061600Y0068600D02*
X0061600Y0067100D01*
X0053600Y0067100D01*
X0053600Y0068600D01*
X0050600Y0068600D02*
X0050600Y0067600D01*
X0038600Y0067600D01*
X0037600Y0068600D02*
X0033600Y0072600D01*
X0033600Y0077600D01*
X0033600Y0088100D02*
X0033600Y0097100D01*
X0033600Y0107600D02*
X0033600Y0112600D01*
X0037600Y0116600D01*
X0038600Y0117600D01*
X0050600Y0117600D01*
X0050600Y0116600D01*
X0053600Y0116600D01*
X0061600Y0116600D01*
X0064600Y0116600D01*
X0064600Y0117600D01*
X0076600Y0117600D01*
X0077600Y0116600D01*
X0064600Y0116600D01*
X0061600Y0116600D02*
X0061600Y0118100D01*
X0053600Y0118100D01*
X0053600Y0116600D01*
X0050600Y0116600D02*
X0037600Y0116600D01*
X0050100Y0100100D02*
X0050100Y0085100D01*
X0065100Y0085100D01*
X0065100Y0100100D01*
X0050100Y0100100D01*
X0043600Y0092600D02*
X0043604Y0092944D01*
X0043617Y0093287D01*
X0043638Y0093630D01*
X0043667Y0093972D01*
X0043705Y0094314D01*
X0043752Y0094654D01*
X0043806Y0094993D01*
X0043869Y0095331D01*
X0043940Y0095667D01*
X0044020Y0096002D01*
X0044107Y0096334D01*
X0044203Y0096664D01*
X0044307Y0096992D01*
X0044418Y0097316D01*
X0044538Y0097639D01*
X0044666Y0097958D01*
X0044801Y0098273D01*
X0044944Y0098586D01*
X0045095Y0098895D01*
X0045253Y0099200D01*
X0045419Y0099501D01*
X0045592Y0099797D01*
X0045772Y0100090D01*
X0045959Y0100378D01*
X0046154Y0100661D01*
X0046355Y0100940D01*
X0046563Y0101213D01*
X0046778Y0101482D01*
X0046999Y0101744D01*
X0047227Y0102002D01*
X0047461Y0102254D01*
X0047701Y0102499D01*
X0047946Y0102739D01*
X0048198Y0102973D01*
X0048456Y0103201D01*
X0048718Y0103422D01*
X0048987Y0103637D01*
X0049260Y0103845D01*
X0049539Y0104046D01*
X0049822Y0104241D01*
X0050110Y0104428D01*
X0050403Y0104608D01*
X0050699Y0104781D01*
X0051000Y0104947D01*
X0051305Y0105105D01*
X0051614Y0105256D01*
X0051927Y0105399D01*
X0052242Y0105534D01*
X0052561Y0105662D01*
X0052884Y0105782D01*
X0053208Y0105893D01*
X0053536Y0105997D01*
X0053866Y0106093D01*
X0054198Y0106180D01*
X0054533Y0106260D01*
X0054869Y0106331D01*
X0055207Y0106394D01*
X0055546Y0106448D01*
X0055886Y0106495D01*
X0056228Y0106533D01*
X0056570Y0106562D01*
X0056913Y0106583D01*
X0057256Y0106596D01*
X0057600Y0106600D01*
X0057944Y0106596D01*
X0058287Y0106583D01*
X0058630Y0106562D01*
X0058972Y0106533D01*
X0059314Y0106495D01*
X0059654Y0106448D01*
X0059993Y0106394D01*
X0060331Y0106331D01*
X0060667Y0106260D01*
X0061002Y0106180D01*
X0061334Y0106093D01*
X0061664Y0105997D01*
X0061992Y0105893D01*
X0062316Y0105782D01*
X0062639Y0105662D01*
X0062958Y0105534D01*
X0063273Y0105399D01*
X0063586Y0105256D01*
X0063895Y0105105D01*
X0064200Y0104947D01*
X0064501Y0104781D01*
X0064797Y0104608D01*
X0065090Y0104428D01*
X0065378Y0104241D01*
X0065661Y0104046D01*
X0065940Y0103845D01*
X0066213Y0103637D01*
X0066482Y0103422D01*
X0066744Y0103201D01*
X0067002Y0102973D01*
X0067254Y0102739D01*
X0067499Y0102499D01*
X0067739Y0102254D01*
X0067973Y0102002D01*
X0068201Y0101744D01*
X0068422Y0101482D01*
X0068637Y0101213D01*
X0068845Y0100940D01*
X0069046Y0100661D01*
X0069241Y0100378D01*
X0069428Y0100090D01*
X0069608Y0099797D01*
X0069781Y0099501D01*
X0069947Y0099200D01*
X0070105Y0098895D01*
X0070256Y0098586D01*
X0070399Y0098273D01*
X0070534Y0097958D01*
X0070662Y0097639D01*
X0070782Y0097316D01*
X0070893Y0096992D01*
X0070997Y0096664D01*
X0071093Y0096334D01*
X0071180Y0096002D01*
X0071260Y0095667D01*
X0071331Y0095331D01*
X0071394Y0094993D01*
X0071448Y0094654D01*
X0071495Y0094314D01*
X0071533Y0093972D01*
X0071562Y0093630D01*
X0071583Y0093287D01*
X0071596Y0092944D01*
X0071600Y0092600D01*
X0071596Y0092256D01*
X0071583Y0091913D01*
X0071562Y0091570D01*
X0071533Y0091228D01*
X0071495Y0090886D01*
X0071448Y0090546D01*
X0071394Y0090207D01*
X0071331Y0089869D01*
X0071260Y0089533D01*
X0071180Y0089198D01*
X0071093Y0088866D01*
X0070997Y0088536D01*
X0070893Y0088208D01*
X0070782Y0087884D01*
X0070662Y0087561D01*
X0070534Y0087242D01*
X0070399Y0086927D01*
X0070256Y0086614D01*
X0070105Y0086305D01*
X0069947Y0086000D01*
X0069781Y0085699D01*
X0069608Y0085403D01*
X0069428Y0085110D01*
X0069241Y0084822D01*
X0069046Y0084539D01*
X0068845Y0084260D01*
X0068637Y0083987D01*
X0068422Y0083718D01*
X0068201Y0083456D01*
X0067973Y0083198D01*
X0067739Y0082946D01*
X0067499Y0082701D01*
X0067254Y0082461D01*
X0067002Y0082227D01*
X0066744Y0081999D01*
X0066482Y0081778D01*
X0066213Y0081563D01*
X0065940Y0081355D01*
X0065661Y0081154D01*
X0065378Y0080959D01*
X0065090Y0080772D01*
X0064797Y0080592D01*
X0064501Y0080419D01*
X0064200Y0080253D01*
X0063895Y0080095D01*
X0063586Y0079944D01*
X0063273Y0079801D01*
X0062958Y0079666D01*
X0062639Y0079538D01*
X0062316Y0079418D01*
X0061992Y0079307D01*
X0061664Y0079203D01*
X0061334Y0079107D01*
X0061002Y0079020D01*
X0060667Y0078940D01*
X0060331Y0078869D01*
X0059993Y0078806D01*
X0059654Y0078752D01*
X0059314Y0078705D01*
X0058972Y0078667D01*
X0058630Y0078638D01*
X0058287Y0078617D01*
X0057944Y0078604D01*
X0057600Y0078600D01*
X0057256Y0078604D01*
X0056913Y0078617D01*
X0056570Y0078638D01*
X0056228Y0078667D01*
X0055886Y0078705D01*
X0055546Y0078752D01*
X0055207Y0078806D01*
X0054869Y0078869D01*
X0054533Y0078940D01*
X0054198Y0079020D01*
X0053866Y0079107D01*
X0053536Y0079203D01*
X0053208Y0079307D01*
X0052884Y0079418D01*
X0052561Y0079538D01*
X0052242Y0079666D01*
X0051927Y0079801D01*
X0051614Y0079944D01*
X0051305Y0080095D01*
X0051000Y0080253D01*
X0050699Y0080419D01*
X0050403Y0080592D01*
X0050110Y0080772D01*
X0049822Y0080959D01*
X0049539Y0081154D01*
X0049260Y0081355D01*
X0048987Y0081563D01*
X0048718Y0081778D01*
X0048456Y0081999D01*
X0048198Y0082227D01*
X0047946Y0082461D01*
X0047701Y0082701D01*
X0047461Y0082946D01*
X0047227Y0083198D01*
X0046999Y0083456D01*
X0046778Y0083718D01*
X0046563Y0083987D01*
X0046355Y0084260D01*
X0046154Y0084539D01*
X0045959Y0084822D01*
X0045772Y0085110D01*
X0045592Y0085403D01*
X0045419Y0085699D01*
X0045253Y0086000D01*
X0045095Y0086305D01*
X0044944Y0086614D01*
X0044801Y0086927D01*
X0044666Y0087242D01*
X0044538Y0087561D01*
X0044418Y0087884D01*
X0044307Y0088208D01*
X0044203Y0088536D01*
X0044107Y0088866D01*
X0044020Y0089198D01*
X0043940Y0089533D01*
X0043869Y0089869D01*
X0043806Y0090207D01*
X0043752Y0090546D01*
X0043705Y0090886D01*
X0043667Y0091228D01*
X0043638Y0091570D01*
X0043617Y0091913D01*
X0043604Y0092256D01*
X0043600Y0092600D01*
X0081600Y0097100D02*
X0081600Y0088100D01*
X0081600Y0077600D02*
X0081600Y0072600D01*
X0077600Y0068600D01*
X0081600Y0107600D02*
X0081600Y0112600D01*
X0077600Y0116600D01*
X0061600Y0162100D02*
X0053600Y0162100D01*
X0053600Y0163600D01*
X0050600Y0163600D01*
X0050600Y0162600D01*
X0038600Y0162600D01*
X0037600Y0163600D01*
X0050600Y0163600D01*
X0053600Y0163600D02*
X0061600Y0163600D01*
X0064600Y0163600D01*
X0077600Y0163600D01*
X0076600Y0162600D01*
X0064600Y0162600D01*
X0064600Y0163600D01*
X0061600Y0163600D02*
X0061600Y0162100D01*
X0077600Y0163600D02*
X0081600Y0167600D01*
X0081600Y0172600D01*
X0081600Y0183100D02*
X0081600Y0192100D01*
X0081600Y0202600D02*
X0081600Y0207600D01*
X0077600Y0211600D01*
X0076600Y0212600D01*
X0064600Y0212600D01*
X0064600Y0211600D01*
X0061600Y0211600D01*
X0061600Y0213100D01*
X0053600Y0213100D01*
X0053600Y0211600D01*
X0050600Y0211600D01*
X0050600Y0212600D01*
X0038600Y0212600D01*
X0037600Y0211600D01*
X0033600Y0207600D01*
X0033600Y0202600D01*
X0037600Y0211600D02*
X0050600Y0211600D01*
X0053600Y0211600D02*
X0061600Y0211600D01*
X0064600Y0211600D02*
X0077600Y0211600D01*
X0065100Y0195100D02*
X0050100Y0195100D01*
X0050100Y0180100D01*
X0065100Y0180100D01*
X0065100Y0195100D01*
X0043600Y0187600D02*
X0043604Y0187944D01*
X0043617Y0188287D01*
X0043638Y0188630D01*
X0043667Y0188972D01*
X0043705Y0189314D01*
X0043752Y0189654D01*
X0043806Y0189993D01*
X0043869Y0190331D01*
X0043940Y0190667D01*
X0044020Y0191002D01*
X0044107Y0191334D01*
X0044203Y0191664D01*
X0044307Y0191992D01*
X0044418Y0192316D01*
X0044538Y0192639D01*
X0044666Y0192958D01*
X0044801Y0193273D01*
X0044944Y0193586D01*
X0045095Y0193895D01*
X0045253Y0194200D01*
X0045419Y0194501D01*
X0045592Y0194797D01*
X0045772Y0195090D01*
X0045959Y0195378D01*
X0046154Y0195661D01*
X0046355Y0195940D01*
X0046563Y0196213D01*
X0046778Y0196482D01*
X0046999Y0196744D01*
X0047227Y0197002D01*
X0047461Y0197254D01*
X0047701Y0197499D01*
X0047946Y0197739D01*
X0048198Y0197973D01*
X0048456Y0198201D01*
X0048718Y0198422D01*
X0048987Y0198637D01*
X0049260Y0198845D01*
X0049539Y0199046D01*
X0049822Y0199241D01*
X0050110Y0199428D01*
X0050403Y0199608D01*
X0050699Y0199781D01*
X0051000Y0199947D01*
X0051305Y0200105D01*
X0051614Y0200256D01*
X0051927Y0200399D01*
X0052242Y0200534D01*
X0052561Y0200662D01*
X0052884Y0200782D01*
X0053208Y0200893D01*
X0053536Y0200997D01*
X0053866Y0201093D01*
X0054198Y0201180D01*
X0054533Y0201260D01*
X0054869Y0201331D01*
X0055207Y0201394D01*
X0055546Y0201448D01*
X0055886Y0201495D01*
X0056228Y0201533D01*
X0056570Y0201562D01*
X0056913Y0201583D01*
X0057256Y0201596D01*
X0057600Y0201600D01*
X0057944Y0201596D01*
X0058287Y0201583D01*
X0058630Y0201562D01*
X0058972Y0201533D01*
X0059314Y0201495D01*
X0059654Y0201448D01*
X0059993Y0201394D01*
X0060331Y0201331D01*
X0060667Y0201260D01*
X0061002Y0201180D01*
X0061334Y0201093D01*
X0061664Y0200997D01*
X0061992Y0200893D01*
X0062316Y0200782D01*
X0062639Y0200662D01*
X0062958Y0200534D01*
X0063273Y0200399D01*
X0063586Y0200256D01*
X0063895Y0200105D01*
X0064200Y0199947D01*
X0064501Y0199781D01*
X0064797Y0199608D01*
X0065090Y0199428D01*
X0065378Y0199241D01*
X0065661Y0199046D01*
X0065940Y0198845D01*
X0066213Y0198637D01*
X0066482Y0198422D01*
X0066744Y0198201D01*
X0067002Y0197973D01*
X0067254Y0197739D01*
X0067499Y0197499D01*
X0067739Y0197254D01*
X0067973Y0197002D01*
X0068201Y0196744D01*
X0068422Y0196482D01*
X0068637Y0196213D01*
X0068845Y0195940D01*
X0069046Y0195661D01*
X0069241Y0195378D01*
X0069428Y0195090D01*
X0069608Y0194797D01*
X0069781Y0194501D01*
X0069947Y0194200D01*
X0070105Y0193895D01*
X0070256Y0193586D01*
X0070399Y0193273D01*
X0070534Y0192958D01*
X0070662Y0192639D01*
X0070782Y0192316D01*
X0070893Y0191992D01*
X0070997Y0191664D01*
X0071093Y0191334D01*
X0071180Y0191002D01*
X0071260Y0190667D01*
X0071331Y0190331D01*
X0071394Y0189993D01*
X0071448Y0189654D01*
X0071495Y0189314D01*
X0071533Y0188972D01*
X0071562Y0188630D01*
X0071583Y0188287D01*
X0071596Y0187944D01*
X0071600Y0187600D01*
X0071596Y0187256D01*
X0071583Y0186913D01*
X0071562Y0186570D01*
X0071533Y0186228D01*
X0071495Y0185886D01*
X0071448Y0185546D01*
X0071394Y0185207D01*
X0071331Y0184869D01*
X0071260Y0184533D01*
X0071180Y0184198D01*
X0071093Y0183866D01*
X0070997Y0183536D01*
X0070893Y0183208D01*
X0070782Y0182884D01*
X0070662Y0182561D01*
X0070534Y0182242D01*
X0070399Y0181927D01*
X0070256Y0181614D01*
X0070105Y0181305D01*
X0069947Y0181000D01*
X0069781Y0180699D01*
X0069608Y0180403D01*
X0069428Y0180110D01*
X0069241Y0179822D01*
X0069046Y0179539D01*
X0068845Y0179260D01*
X0068637Y0178987D01*
X0068422Y0178718D01*
X0068201Y0178456D01*
X0067973Y0178198D01*
X0067739Y0177946D01*
X0067499Y0177701D01*
X0067254Y0177461D01*
X0067002Y0177227D01*
X0066744Y0176999D01*
X0066482Y0176778D01*
X0066213Y0176563D01*
X0065940Y0176355D01*
X0065661Y0176154D01*
X0065378Y0175959D01*
X0065090Y0175772D01*
X0064797Y0175592D01*
X0064501Y0175419D01*
X0064200Y0175253D01*
X0063895Y0175095D01*
X0063586Y0174944D01*
X0063273Y0174801D01*
X0062958Y0174666D01*
X0062639Y0174538D01*
X0062316Y0174418D01*
X0061992Y0174307D01*
X0061664Y0174203D01*
X0061334Y0174107D01*
X0061002Y0174020D01*
X0060667Y0173940D01*
X0060331Y0173869D01*
X0059993Y0173806D01*
X0059654Y0173752D01*
X0059314Y0173705D01*
X0058972Y0173667D01*
X0058630Y0173638D01*
X0058287Y0173617D01*
X0057944Y0173604D01*
X0057600Y0173600D01*
X0057256Y0173604D01*
X0056913Y0173617D01*
X0056570Y0173638D01*
X0056228Y0173667D01*
X0055886Y0173705D01*
X0055546Y0173752D01*
X0055207Y0173806D01*
X0054869Y0173869D01*
X0054533Y0173940D01*
X0054198Y0174020D01*
X0053866Y0174107D01*
X0053536Y0174203D01*
X0053208Y0174307D01*
X0052884Y0174418D01*
X0052561Y0174538D01*
X0052242Y0174666D01*
X0051927Y0174801D01*
X0051614Y0174944D01*
X0051305Y0175095D01*
X0051000Y0175253D01*
X0050699Y0175419D01*
X0050403Y0175592D01*
X0050110Y0175772D01*
X0049822Y0175959D01*
X0049539Y0176154D01*
X0049260Y0176355D01*
X0048987Y0176563D01*
X0048718Y0176778D01*
X0048456Y0176999D01*
X0048198Y0177227D01*
X0047946Y0177461D01*
X0047701Y0177701D01*
X0047461Y0177946D01*
X0047227Y0178198D01*
X0046999Y0178456D01*
X0046778Y0178718D01*
X0046563Y0178987D01*
X0046355Y0179260D01*
X0046154Y0179539D01*
X0045959Y0179822D01*
X0045772Y0180110D01*
X0045592Y0180403D01*
X0045419Y0180699D01*
X0045253Y0181000D01*
X0045095Y0181305D01*
X0044944Y0181614D01*
X0044801Y0181927D01*
X0044666Y0182242D01*
X0044538Y0182561D01*
X0044418Y0182884D01*
X0044307Y0183208D01*
X0044203Y0183536D01*
X0044107Y0183866D01*
X0044020Y0184198D01*
X0043940Y0184533D01*
X0043869Y0184869D01*
X0043806Y0185207D01*
X0043752Y0185546D01*
X0043705Y0185886D01*
X0043667Y0186228D01*
X0043638Y0186570D01*
X0043617Y0186913D01*
X0043604Y0187256D01*
X0043600Y0187600D01*
X0033600Y0192100D02*
X0033600Y0183100D01*
X0033600Y0172600D02*
X0033600Y0167600D01*
X0037600Y0163600D01*
X0043600Y0236600D02*
X0021600Y0236600D01*
X0021600Y0268600D01*
X0043600Y0268600D01*
X0043600Y0236600D01*
X0076600Y0236600D02*
X0098600Y0236600D01*
X0098600Y0268600D01*
X0076600Y0268600D01*
X0076600Y0236600D01*
X0316600Y0236600D02*
X0338600Y0236600D01*
X0338600Y0268600D01*
X0316600Y0268600D01*
X0316600Y0236600D01*
X0333600Y0212600D02*
X0332600Y0211600D01*
X0328600Y0207600D01*
X0328600Y0202600D01*
X0332600Y0211600D02*
X0345600Y0211600D01*
X0348600Y0211600D01*
X0356600Y0211600D01*
X0359600Y0211600D01*
X0359600Y0212600D01*
X0371600Y0212600D01*
X0372600Y0211600D01*
X0359600Y0211600D01*
X0356600Y0211600D02*
X0356600Y0213100D01*
X0348600Y0213100D01*
X0348600Y0211600D01*
X0345600Y0211600D02*
X0345600Y0212600D01*
X0333600Y0212600D01*
X0345100Y0195100D02*
X0345100Y0180100D01*
X0360100Y0180100D01*
X0360100Y0195100D01*
X0345100Y0195100D01*
X0338600Y0187600D02*
X0338604Y0187944D01*
X0338617Y0188287D01*
X0338638Y0188630D01*
X0338667Y0188972D01*
X0338705Y0189314D01*
X0338752Y0189654D01*
X0338806Y0189993D01*
X0338869Y0190331D01*
X0338940Y0190667D01*
X0339020Y0191002D01*
X0339107Y0191334D01*
X0339203Y0191664D01*
X0339307Y0191992D01*
X0339418Y0192316D01*
X0339538Y0192639D01*
X0339666Y0192958D01*
X0339801Y0193273D01*
X0339944Y0193586D01*
X0340095Y0193895D01*
X0340253Y0194200D01*
X0340419Y0194501D01*
X0340592Y0194797D01*
X0340772Y0195090D01*
X0340959Y0195378D01*
X0341154Y0195661D01*
X0341355Y0195940D01*
X0341563Y0196213D01*
X0341778Y0196482D01*
X0341999Y0196744D01*
X0342227Y0197002D01*
X0342461Y0197254D01*
X0342701Y0197499D01*
X0342946Y0197739D01*
X0343198Y0197973D01*
X0343456Y0198201D01*
X0343718Y0198422D01*
X0343987Y0198637D01*
X0344260Y0198845D01*
X0344539Y0199046D01*
X0344822Y0199241D01*
X0345110Y0199428D01*
X0345403Y0199608D01*
X0345699Y0199781D01*
X0346000Y0199947D01*
X0346305Y0200105D01*
X0346614Y0200256D01*
X0346927Y0200399D01*
X0347242Y0200534D01*
X0347561Y0200662D01*
X0347884Y0200782D01*
X0348208Y0200893D01*
X0348536Y0200997D01*
X0348866Y0201093D01*
X0349198Y0201180D01*
X0349533Y0201260D01*
X0349869Y0201331D01*
X0350207Y0201394D01*
X0350546Y0201448D01*
X0350886Y0201495D01*
X0351228Y0201533D01*
X0351570Y0201562D01*
X0351913Y0201583D01*
X0352256Y0201596D01*
X0352600Y0201600D01*
X0352944Y0201596D01*
X0353287Y0201583D01*
X0353630Y0201562D01*
X0353972Y0201533D01*
X0354314Y0201495D01*
X0354654Y0201448D01*
X0354993Y0201394D01*
X0355331Y0201331D01*
X0355667Y0201260D01*
X0356002Y0201180D01*
X0356334Y0201093D01*
X0356664Y0200997D01*
X0356992Y0200893D01*
X0357316Y0200782D01*
X0357639Y0200662D01*
X0357958Y0200534D01*
X0358273Y0200399D01*
X0358586Y0200256D01*
X0358895Y0200105D01*
X0359200Y0199947D01*
X0359501Y0199781D01*
X0359797Y0199608D01*
X0360090Y0199428D01*
X0360378Y0199241D01*
X0360661Y0199046D01*
X0360940Y0198845D01*
X0361213Y0198637D01*
X0361482Y0198422D01*
X0361744Y0198201D01*
X0362002Y0197973D01*
X0362254Y0197739D01*
X0362499Y0197499D01*
X0362739Y0197254D01*
X0362973Y0197002D01*
X0363201Y0196744D01*
X0363422Y0196482D01*
X0363637Y0196213D01*
X0363845Y0195940D01*
X0364046Y0195661D01*
X0364241Y0195378D01*
X0364428Y0195090D01*
X0364608Y0194797D01*
X0364781Y0194501D01*
X0364947Y0194200D01*
X0365105Y0193895D01*
X0365256Y0193586D01*
X0365399Y0193273D01*
X0365534Y0192958D01*
X0365662Y0192639D01*
X0365782Y0192316D01*
X0365893Y0191992D01*
X0365997Y0191664D01*
X0366093Y0191334D01*
X0366180Y0191002D01*
X0366260Y0190667D01*
X0366331Y0190331D01*
X0366394Y0189993D01*
X0366448Y0189654D01*
X0366495Y0189314D01*
X0366533Y0188972D01*
X0366562Y0188630D01*
X0366583Y0188287D01*
X0366596Y0187944D01*
X0366600Y0187600D01*
X0366596Y0187256D01*
X0366583Y0186913D01*
X0366562Y0186570D01*
X0366533Y0186228D01*
X0366495Y0185886D01*
X0366448Y0185546D01*
X0366394Y0185207D01*
X0366331Y0184869D01*
X0366260Y0184533D01*
X0366180Y0184198D01*
X0366093Y0183866D01*
X0365997Y0183536D01*
X0365893Y0183208D01*
X0365782Y0182884D01*
X0365662Y0182561D01*
X0365534Y0182242D01*
X0365399Y0181927D01*
X0365256Y0181614D01*
X0365105Y0181305D01*
X0364947Y0181000D01*
X0364781Y0180699D01*
X0364608Y0180403D01*
X0364428Y0180110D01*
X0364241Y0179822D01*
X0364046Y0179539D01*
X0363845Y0179260D01*
X0363637Y0178987D01*
X0363422Y0178718D01*
X0363201Y0178456D01*
X0362973Y0178198D01*
X0362739Y0177946D01*
X0362499Y0177701D01*
X0362254Y0177461D01*
X0362002Y0177227D01*
X0361744Y0176999D01*
X0361482Y0176778D01*
X0361213Y0176563D01*
X0360940Y0176355D01*
X0360661Y0176154D01*
X0360378Y0175959D01*
X0360090Y0175772D01*
X0359797Y0175592D01*
X0359501Y0175419D01*
X0359200Y0175253D01*
X0358895Y0175095D01*
X0358586Y0174944D01*
X0358273Y0174801D01*
X0357958Y0174666D01*
X0357639Y0174538D01*
X0357316Y0174418D01*
X0356992Y0174307D01*
X0356664Y0174203D01*
X0356334Y0174107D01*
X0356002Y0174020D01*
X0355667Y0173940D01*
X0355331Y0173869D01*
X0354993Y0173806D01*
X0354654Y0173752D01*
X0354314Y0173705D01*
X0353972Y0173667D01*
X0353630Y0173638D01*
X0353287Y0173617D01*
X0352944Y0173604D01*
X0352600Y0173600D01*
X0352256Y0173604D01*
X0351913Y0173617D01*
X0351570Y0173638D01*
X0351228Y0173667D01*
X0350886Y0173705D01*
X0350546Y0173752D01*
X0350207Y0173806D01*
X0349869Y0173869D01*
X0349533Y0173940D01*
X0349198Y0174020D01*
X0348866Y0174107D01*
X0348536Y0174203D01*
X0348208Y0174307D01*
X0347884Y0174418D01*
X0347561Y0174538D01*
X0347242Y0174666D01*
X0346927Y0174801D01*
X0346614Y0174944D01*
X0346305Y0175095D01*
X0346000Y0175253D01*
X0345699Y0175419D01*
X0345403Y0175592D01*
X0345110Y0175772D01*
X0344822Y0175959D01*
X0344539Y0176154D01*
X0344260Y0176355D01*
X0343987Y0176563D01*
X0343718Y0176778D01*
X0343456Y0176999D01*
X0343198Y0177227D01*
X0342946Y0177461D01*
X0342701Y0177701D01*
X0342461Y0177946D01*
X0342227Y0178198D01*
X0341999Y0178456D01*
X0341778Y0178718D01*
X0341563Y0178987D01*
X0341355Y0179260D01*
X0341154Y0179539D01*
X0340959Y0179822D01*
X0340772Y0180110D01*
X0340592Y0180403D01*
X0340419Y0180699D01*
X0340253Y0181000D01*
X0340095Y0181305D01*
X0339944Y0181614D01*
X0339801Y0181927D01*
X0339666Y0182242D01*
X0339538Y0182561D01*
X0339418Y0182884D01*
X0339307Y0183208D01*
X0339203Y0183536D01*
X0339107Y0183866D01*
X0339020Y0184198D01*
X0338940Y0184533D01*
X0338869Y0184869D01*
X0338806Y0185207D01*
X0338752Y0185546D01*
X0338705Y0185886D01*
X0338667Y0186228D01*
X0338638Y0186570D01*
X0338617Y0186913D01*
X0338604Y0187256D01*
X0338600Y0187600D01*
X0328600Y0192100D02*
X0328600Y0183100D01*
X0328600Y0172600D02*
X0328600Y0167600D01*
X0332600Y0163600D01*
X0333600Y0162600D01*
X0345600Y0162600D01*
X0345600Y0163600D01*
X0348600Y0163600D01*
X0356600Y0163600D01*
X0359600Y0163600D01*
X0372600Y0163600D01*
X0371600Y0162600D01*
X0359600Y0162600D01*
X0359600Y0163600D01*
X0356600Y0163600D02*
X0356600Y0162100D01*
X0348600Y0162100D01*
X0348600Y0163600D01*
X0345600Y0163600D02*
X0332600Y0163600D01*
X0372600Y0163600D02*
X0376600Y0167600D01*
X0376600Y0172600D01*
X0376600Y0183100D02*
X0376600Y0192100D01*
X0376600Y0202600D02*
X0376600Y0207600D01*
X0372600Y0211600D01*
X0366600Y0236600D02*
X0388600Y0236600D01*
X0388600Y0268600D01*
X0366600Y0268600D01*
X0366600Y0236600D01*
X0356600Y0118100D02*
X0348600Y0118100D01*
X0348600Y0116600D01*
X0345600Y0116600D01*
X0345600Y0117600D01*
X0333600Y0117600D01*
X0332600Y0116600D01*
X0328600Y0112600D01*
X0328600Y0107600D01*
X0332600Y0116600D02*
X0345600Y0116600D01*
X0348600Y0116600D02*
X0356600Y0116600D01*
X0359600Y0116600D01*
X0359600Y0117600D01*
X0371600Y0117600D01*
X0372600Y0116600D01*
X0359600Y0116600D01*
X0356600Y0116600D02*
X0356600Y0118100D01*
X0372600Y0116600D02*
X0376600Y0112600D01*
X0376600Y0107600D01*
X0376600Y0097100D02*
X0376600Y0088100D01*
X0376600Y0077600D02*
X0376600Y0072600D01*
X0372600Y0068600D01*
X0371600Y0067600D01*
X0359600Y0067600D01*
X0359600Y0068600D01*
X0372600Y0068600D01*
X0359600Y0068600D02*
X0356600Y0068600D01*
X0348600Y0068600D01*
X0345600Y0068600D01*
X0345600Y0067600D01*
X0333600Y0067600D01*
X0332600Y0068600D01*
X0345600Y0068600D01*
X0348600Y0068600D02*
X0348600Y0067100D01*
X0356600Y0067100D01*
X0356600Y0068600D01*
X0332600Y0068600D02*
X0328600Y0072600D01*
X0328600Y0077600D01*
X0328600Y0088100D02*
X0328600Y0097100D01*
X0345100Y0100100D02*
X0345100Y0085100D01*
X0360100Y0085100D01*
X0360100Y0100100D01*
X0345100Y0100100D01*
X0338600Y0092600D02*
X0338604Y0092944D01*
X0338617Y0093287D01*
X0338638Y0093630D01*
X0338667Y0093972D01*
X0338705Y0094314D01*
X0338752Y0094654D01*
X0338806Y0094993D01*
X0338869Y0095331D01*
X0338940Y0095667D01*
X0339020Y0096002D01*
X0339107Y0096334D01*
X0339203Y0096664D01*
X0339307Y0096992D01*
X0339418Y0097316D01*
X0339538Y0097639D01*
X0339666Y0097958D01*
X0339801Y0098273D01*
X0339944Y0098586D01*
X0340095Y0098895D01*
X0340253Y0099200D01*
X0340419Y0099501D01*
X0340592Y0099797D01*
X0340772Y0100090D01*
X0340959Y0100378D01*
X0341154Y0100661D01*
X0341355Y0100940D01*
X0341563Y0101213D01*
X0341778Y0101482D01*
X0341999Y0101744D01*
X0342227Y0102002D01*
X0342461Y0102254D01*
X0342701Y0102499D01*
X0342946Y0102739D01*
X0343198Y0102973D01*
X0343456Y0103201D01*
X0343718Y0103422D01*
X0343987Y0103637D01*
X0344260Y0103845D01*
X0344539Y0104046D01*
X0344822Y0104241D01*
X0345110Y0104428D01*
X0345403Y0104608D01*
X0345699Y0104781D01*
X0346000Y0104947D01*
X0346305Y0105105D01*
X0346614Y0105256D01*
X0346927Y0105399D01*
X0347242Y0105534D01*
X0347561Y0105662D01*
X0347884Y0105782D01*
X0348208Y0105893D01*
X0348536Y0105997D01*
X0348866Y0106093D01*
X0349198Y0106180D01*
X0349533Y0106260D01*
X0349869Y0106331D01*
X0350207Y0106394D01*
X0350546Y0106448D01*
X0350886Y0106495D01*
X0351228Y0106533D01*
X0351570Y0106562D01*
X0351913Y0106583D01*
X0352256Y0106596D01*
X0352600Y0106600D01*
X0352944Y0106596D01*
X0353287Y0106583D01*
X0353630Y0106562D01*
X0353972Y0106533D01*
X0354314Y0106495D01*
X0354654Y0106448D01*
X0354993Y0106394D01*
X0355331Y0106331D01*
X0355667Y0106260D01*
X0356002Y0106180D01*
X0356334Y0106093D01*
X0356664Y0105997D01*
X0356992Y0105893D01*
X0357316Y0105782D01*
X0357639Y0105662D01*
X0357958Y0105534D01*
X0358273Y0105399D01*
X0358586Y0105256D01*
X0358895Y0105105D01*
X0359200Y0104947D01*
X0359501Y0104781D01*
X0359797Y0104608D01*
X0360090Y0104428D01*
X0360378Y0104241D01*
X0360661Y0104046D01*
X0360940Y0103845D01*
X0361213Y0103637D01*
X0361482Y0103422D01*
X0361744Y0103201D01*
X0362002Y0102973D01*
X0362254Y0102739D01*
X0362499Y0102499D01*
X0362739Y0102254D01*
X0362973Y0102002D01*
X0363201Y0101744D01*
X0363422Y0101482D01*
X0363637Y0101213D01*
X0363845Y0100940D01*
X0364046Y0100661D01*
X0364241Y0100378D01*
X0364428Y0100090D01*
X0364608Y0099797D01*
X0364781Y0099501D01*
X0364947Y0099200D01*
X0365105Y0098895D01*
X0365256Y0098586D01*
X0365399Y0098273D01*
X0365534Y0097958D01*
X0365662Y0097639D01*
X0365782Y0097316D01*
X0365893Y0096992D01*
X0365997Y0096664D01*
X0366093Y0096334D01*
X0366180Y0096002D01*
X0366260Y0095667D01*
X0366331Y0095331D01*
X0366394Y0094993D01*
X0366448Y0094654D01*
X0366495Y0094314D01*
X0366533Y0093972D01*
X0366562Y0093630D01*
X0366583Y0093287D01*
X0366596Y0092944D01*
X0366600Y0092600D01*
X0366596Y0092256D01*
X0366583Y0091913D01*
X0366562Y0091570D01*
X0366533Y0091228D01*
X0366495Y0090886D01*
X0366448Y0090546D01*
X0366394Y0090207D01*
X0366331Y0089869D01*
X0366260Y0089533D01*
X0366180Y0089198D01*
X0366093Y0088866D01*
X0365997Y0088536D01*
X0365893Y0088208D01*
X0365782Y0087884D01*
X0365662Y0087561D01*
X0365534Y0087242D01*
X0365399Y0086927D01*
X0365256Y0086614D01*
X0365105Y0086305D01*
X0364947Y0086000D01*
X0364781Y0085699D01*
X0364608Y0085403D01*
X0364428Y0085110D01*
X0364241Y0084822D01*
X0364046Y0084539D01*
X0363845Y0084260D01*
X0363637Y0083987D01*
X0363422Y0083718D01*
X0363201Y0083456D01*
X0362973Y0083198D01*
X0362739Y0082946D01*
X0362499Y0082701D01*
X0362254Y0082461D01*
X0362002Y0082227D01*
X0361744Y0081999D01*
X0361482Y0081778D01*
X0361213Y0081563D01*
X0360940Y0081355D01*
X0360661Y0081154D01*
X0360378Y0080959D01*
X0360090Y0080772D01*
X0359797Y0080592D01*
X0359501Y0080419D01*
X0359200Y0080253D01*
X0358895Y0080095D01*
X0358586Y0079944D01*
X0358273Y0079801D01*
X0357958Y0079666D01*
X0357639Y0079538D01*
X0357316Y0079418D01*
X0356992Y0079307D01*
X0356664Y0079203D01*
X0356334Y0079107D01*
X0356002Y0079020D01*
X0355667Y0078940D01*
X0355331Y0078869D01*
X0354993Y0078806D01*
X0354654Y0078752D01*
X0354314Y0078705D01*
X0353972Y0078667D01*
X0353630Y0078638D01*
X0353287Y0078617D01*
X0352944Y0078604D01*
X0352600Y0078600D01*
X0352256Y0078604D01*
X0351913Y0078617D01*
X0351570Y0078638D01*
X0351228Y0078667D01*
X0350886Y0078705D01*
X0350546Y0078752D01*
X0350207Y0078806D01*
X0349869Y0078869D01*
X0349533Y0078940D01*
X0349198Y0079020D01*
X0348866Y0079107D01*
X0348536Y0079203D01*
X0348208Y0079307D01*
X0347884Y0079418D01*
X0347561Y0079538D01*
X0347242Y0079666D01*
X0346927Y0079801D01*
X0346614Y0079944D01*
X0346305Y0080095D01*
X0346000Y0080253D01*
X0345699Y0080419D01*
X0345403Y0080592D01*
X0345110Y0080772D01*
X0344822Y0080959D01*
X0344539Y0081154D01*
X0344260Y0081355D01*
X0343987Y0081563D01*
X0343718Y0081778D01*
X0343456Y0081999D01*
X0343198Y0082227D01*
X0342946Y0082461D01*
X0342701Y0082701D01*
X0342461Y0082946D01*
X0342227Y0083198D01*
X0341999Y0083456D01*
X0341778Y0083718D01*
X0341563Y0083987D01*
X0341355Y0084260D01*
X0341154Y0084539D01*
X0340959Y0084822D01*
X0340772Y0085110D01*
X0340592Y0085403D01*
X0340419Y0085699D01*
X0340253Y0086000D01*
X0340095Y0086305D01*
X0339944Y0086614D01*
X0339801Y0086927D01*
X0339666Y0087242D01*
X0339538Y0087561D01*
X0339418Y0087884D01*
X0339307Y0088208D01*
X0339203Y0088536D01*
X0339107Y0088866D01*
X0339020Y0089198D01*
X0338940Y0089533D01*
X0338869Y0089869D01*
X0338806Y0090207D01*
X0338752Y0090546D01*
X0338705Y0090886D01*
X0338667Y0091228D01*
X0338638Y0091570D01*
X0338617Y0091913D01*
X0338604Y0092256D01*
X0338600Y0092600D01*
D13*
X0323373Y0268590D02*
X0323406Y0268624D01*
X0323389Y0268624D01*
X0323389Y0268640D01*
X0323406Y0268640D01*
X0323406Y0268624D01*
X0323434Y0268640D02*
X0323451Y0268624D01*
X0323484Y0268624D01*
X0323501Y0268640D01*
X0323501Y0268674D01*
X0323484Y0268690D01*
X0323467Y0268690D01*
X0323434Y0268674D01*
X0323434Y0268724D01*
X0323501Y0268724D01*
X0323347Y0268707D02*
X0323331Y0268724D01*
X0323297Y0268724D01*
X0323281Y0268707D01*
X0323255Y0268674D02*
X0323188Y0268674D01*
X0323163Y0268674D02*
X0323163Y0268640D01*
X0323146Y0268624D01*
X0323113Y0268624D01*
X0323096Y0268640D01*
X0323071Y0268640D02*
X0323071Y0268707D01*
X0323054Y0268724D01*
X0323004Y0268724D01*
X0323004Y0268624D01*
X0323054Y0268624D01*
X0323071Y0268640D01*
X0323096Y0268674D02*
X0323130Y0268690D01*
X0323146Y0268690D01*
X0323163Y0268674D01*
X0323163Y0268724D02*
X0323096Y0268724D01*
X0323096Y0268674D01*
X0322979Y0268724D02*
X0322979Y0268624D01*
X0322912Y0268624D02*
X0322912Y0268724D01*
X0322946Y0268690D01*
X0322979Y0268724D01*
X0322887Y0268707D02*
X0322870Y0268724D01*
X0322837Y0268724D01*
X0322820Y0268707D01*
X0322820Y0268690D01*
X0322837Y0268674D01*
X0322870Y0268674D01*
X0322887Y0268657D01*
X0322887Y0268640D01*
X0322870Y0268624D01*
X0322837Y0268624D01*
X0322820Y0268640D01*
X0322795Y0268640D02*
X0322795Y0268707D01*
X0322778Y0268724D01*
X0322728Y0268724D01*
X0322728Y0268624D01*
X0322778Y0268624D01*
X0322795Y0268640D01*
X0322703Y0268624D02*
X0322703Y0268690D01*
X0322669Y0268724D01*
X0322636Y0268690D01*
X0322636Y0268624D01*
X0322636Y0268674D02*
X0322703Y0268674D01*
X0322611Y0268674D02*
X0322594Y0268657D01*
X0322544Y0268657D01*
X0322544Y0268624D02*
X0322544Y0268724D01*
X0322594Y0268724D01*
X0322611Y0268707D01*
X0322611Y0268674D01*
X0322519Y0268724D02*
X0322452Y0268724D01*
X0322452Y0268624D01*
X0322519Y0268624D01*
X0322485Y0268674D02*
X0322452Y0268674D01*
X0322426Y0268674D02*
X0322410Y0268657D01*
X0322360Y0268657D01*
X0322393Y0268657D02*
X0322426Y0268624D01*
X0322426Y0268674D02*
X0322426Y0268707D01*
X0322410Y0268724D01*
X0322360Y0268724D01*
X0322360Y0268624D01*
X0322332Y0268624D02*
X0322298Y0268624D01*
X0322315Y0268624D02*
X0322315Y0268724D01*
X0322298Y0268724D02*
X0322332Y0268724D01*
X0322273Y0268724D02*
X0322273Y0268624D01*
X0322240Y0268657D01*
X0322206Y0268624D01*
X0322206Y0268724D01*
X0323281Y0268624D02*
X0323347Y0268690D01*
X0323347Y0268707D01*
X0323347Y0268624D02*
X0323281Y0268624D01*
X0372206Y0268624D02*
X0372240Y0268657D01*
X0372273Y0268624D01*
X0372273Y0268724D01*
X0372298Y0268724D02*
X0372332Y0268724D01*
X0372315Y0268724D02*
X0372315Y0268624D01*
X0372298Y0268624D02*
X0372332Y0268624D01*
X0372360Y0268624D02*
X0372360Y0268724D01*
X0372410Y0268724D01*
X0372426Y0268707D01*
X0372426Y0268674D01*
X0372410Y0268657D01*
X0372360Y0268657D01*
X0372393Y0268657D02*
X0372426Y0268624D01*
X0372452Y0268624D02*
X0372519Y0268624D01*
X0372544Y0268624D02*
X0372544Y0268724D01*
X0372594Y0268724D01*
X0372611Y0268707D01*
X0372611Y0268674D01*
X0372594Y0268657D01*
X0372544Y0268657D01*
X0372485Y0268674D02*
X0372452Y0268674D01*
X0372452Y0268724D02*
X0372452Y0268624D01*
X0372452Y0268724D02*
X0372519Y0268724D01*
X0372636Y0268690D02*
X0372669Y0268724D01*
X0372703Y0268690D01*
X0372703Y0268624D01*
X0372728Y0268624D02*
X0372778Y0268624D01*
X0372795Y0268640D01*
X0372795Y0268707D01*
X0372778Y0268724D01*
X0372728Y0268724D01*
X0372728Y0268624D01*
X0372703Y0268674D02*
X0372636Y0268674D01*
X0372636Y0268690D02*
X0372636Y0268624D01*
X0372820Y0268640D02*
X0372837Y0268624D01*
X0372870Y0268624D01*
X0372887Y0268640D01*
X0372887Y0268657D01*
X0372870Y0268674D01*
X0372837Y0268674D01*
X0372820Y0268690D01*
X0372820Y0268707D01*
X0372837Y0268724D01*
X0372870Y0268724D01*
X0372887Y0268707D01*
X0372912Y0268724D02*
X0372946Y0268690D01*
X0372979Y0268724D01*
X0372979Y0268624D01*
X0373004Y0268624D02*
X0373054Y0268624D01*
X0373071Y0268640D01*
X0373071Y0268707D01*
X0373054Y0268724D01*
X0373004Y0268724D01*
X0373004Y0268624D01*
X0372912Y0268624D02*
X0372912Y0268724D01*
X0373096Y0268724D02*
X0373096Y0268674D01*
X0373130Y0268690D01*
X0373146Y0268690D01*
X0373163Y0268674D01*
X0373163Y0268640D01*
X0373146Y0268624D01*
X0373113Y0268624D01*
X0373096Y0268640D01*
X0373096Y0268724D02*
X0373163Y0268724D01*
X0373188Y0268674D02*
X0373255Y0268674D01*
X0373281Y0268707D02*
X0373297Y0268724D01*
X0373331Y0268724D01*
X0373347Y0268707D01*
X0373347Y0268690D01*
X0373281Y0268624D01*
X0373347Y0268624D01*
X0373389Y0268624D02*
X0373406Y0268624D01*
X0373406Y0268640D01*
X0373389Y0268640D01*
X0373389Y0268624D01*
X0373406Y0268624D02*
X0373373Y0268590D01*
X0373434Y0268640D02*
X0373451Y0268624D01*
X0373484Y0268624D01*
X0373501Y0268640D01*
X0373501Y0268674D01*
X0373484Y0268690D01*
X0373467Y0268690D01*
X0373434Y0268674D01*
X0373434Y0268724D01*
X0373501Y0268724D01*
X0372206Y0268724D02*
X0372206Y0268624D01*
X0083501Y0268640D02*
X0083484Y0268624D01*
X0083451Y0268624D01*
X0083434Y0268640D01*
X0083406Y0268640D02*
X0083389Y0268640D01*
X0083389Y0268624D01*
X0083406Y0268624D01*
X0083406Y0268640D01*
X0083406Y0268624D02*
X0083373Y0268590D01*
X0083347Y0268624D02*
X0083281Y0268624D01*
X0083347Y0268690D01*
X0083347Y0268707D01*
X0083331Y0268724D01*
X0083297Y0268724D01*
X0083281Y0268707D01*
X0083255Y0268674D02*
X0083188Y0268674D01*
X0083163Y0268674D02*
X0083163Y0268640D01*
X0083146Y0268624D01*
X0083113Y0268624D01*
X0083096Y0268640D01*
X0083071Y0268640D02*
X0083071Y0268707D01*
X0083054Y0268724D01*
X0083004Y0268724D01*
X0083004Y0268624D01*
X0083054Y0268624D01*
X0083071Y0268640D01*
X0083096Y0268674D02*
X0083130Y0268690D01*
X0083146Y0268690D01*
X0083163Y0268674D01*
X0083163Y0268724D02*
X0083096Y0268724D01*
X0083096Y0268674D01*
X0082979Y0268724D02*
X0082979Y0268624D01*
X0082912Y0268624D02*
X0082912Y0268724D01*
X0082946Y0268690D01*
X0082979Y0268724D01*
X0082887Y0268707D02*
X0082870Y0268724D01*
X0082837Y0268724D01*
X0082820Y0268707D01*
X0082820Y0268690D01*
X0082837Y0268674D01*
X0082870Y0268674D01*
X0082887Y0268657D01*
X0082887Y0268640D01*
X0082870Y0268624D01*
X0082837Y0268624D01*
X0082820Y0268640D01*
X0082795Y0268640D02*
X0082795Y0268707D01*
X0082778Y0268724D01*
X0082728Y0268724D01*
X0082728Y0268624D01*
X0082778Y0268624D01*
X0082795Y0268640D01*
X0082703Y0268624D02*
X0082703Y0268690D01*
X0082669Y0268724D01*
X0082636Y0268690D01*
X0082636Y0268624D01*
X0082636Y0268674D02*
X0082703Y0268674D01*
X0082611Y0268674D02*
X0082594Y0268657D01*
X0082544Y0268657D01*
X0082544Y0268624D02*
X0082544Y0268724D01*
X0082594Y0268724D01*
X0082611Y0268707D01*
X0082611Y0268674D01*
X0082519Y0268724D02*
X0082452Y0268724D01*
X0082452Y0268624D01*
X0082519Y0268624D01*
X0082485Y0268674D02*
X0082452Y0268674D01*
X0082426Y0268674D02*
X0082410Y0268657D01*
X0082360Y0268657D01*
X0082393Y0268657D02*
X0082426Y0268624D01*
X0082426Y0268674D02*
X0082426Y0268707D01*
X0082410Y0268724D01*
X0082360Y0268724D01*
X0082360Y0268624D01*
X0082332Y0268624D02*
X0082298Y0268624D01*
X0082315Y0268624D02*
X0082315Y0268724D01*
X0082298Y0268724D02*
X0082332Y0268724D01*
X0082273Y0268724D02*
X0082273Y0268624D01*
X0082240Y0268657D01*
X0082206Y0268624D01*
X0082206Y0268724D01*
X0083434Y0268724D02*
X0083434Y0268674D01*
X0083467Y0268690D01*
X0083484Y0268690D01*
X0083501Y0268674D01*
X0083501Y0268640D01*
X0083501Y0268724D02*
X0083434Y0268724D01*
X0028501Y0268724D02*
X0028434Y0268724D01*
X0028434Y0268674D01*
X0028467Y0268690D01*
X0028484Y0268690D01*
X0028501Y0268674D01*
X0028501Y0268640D01*
X0028484Y0268624D01*
X0028451Y0268624D01*
X0028434Y0268640D01*
X0028406Y0268640D02*
X0028389Y0268640D01*
X0028389Y0268624D01*
X0028406Y0268624D01*
X0028406Y0268640D01*
X0028406Y0268624D02*
X0028373Y0268590D01*
X0028347Y0268624D02*
X0028281Y0268624D01*
X0028347Y0268690D01*
X0028347Y0268707D01*
X0028331Y0268724D01*
X0028297Y0268724D01*
X0028281Y0268707D01*
X0028255Y0268674D02*
X0028188Y0268674D01*
X0028163Y0268674D02*
X0028163Y0268640D01*
X0028146Y0268624D01*
X0028113Y0268624D01*
X0028096Y0268640D01*
X0028071Y0268640D02*
X0028071Y0268707D01*
X0028054Y0268724D01*
X0028004Y0268724D01*
X0028004Y0268624D01*
X0028054Y0268624D01*
X0028071Y0268640D01*
X0028096Y0268674D02*
X0028130Y0268690D01*
X0028146Y0268690D01*
X0028163Y0268674D01*
X0028163Y0268724D02*
X0028096Y0268724D01*
X0028096Y0268674D01*
X0027979Y0268724D02*
X0027979Y0268624D01*
X0027912Y0268624D02*
X0027912Y0268724D01*
X0027946Y0268690D01*
X0027979Y0268724D01*
X0027887Y0268707D02*
X0027870Y0268724D01*
X0027837Y0268724D01*
X0027820Y0268707D01*
X0027820Y0268690D01*
X0027837Y0268674D01*
X0027870Y0268674D01*
X0027887Y0268657D01*
X0027887Y0268640D01*
X0027870Y0268624D01*
X0027837Y0268624D01*
X0027820Y0268640D01*
X0027795Y0268640D02*
X0027795Y0268707D01*
X0027778Y0268724D01*
X0027728Y0268724D01*
X0027728Y0268624D01*
X0027778Y0268624D01*
X0027795Y0268640D01*
X0027703Y0268624D02*
X0027703Y0268690D01*
X0027669Y0268724D01*
X0027636Y0268690D01*
X0027636Y0268624D01*
X0027636Y0268674D02*
X0027703Y0268674D01*
X0027611Y0268674D02*
X0027594Y0268657D01*
X0027544Y0268657D01*
X0027544Y0268624D02*
X0027544Y0268724D01*
X0027594Y0268724D01*
X0027611Y0268707D01*
X0027611Y0268674D01*
X0027519Y0268724D02*
X0027452Y0268724D01*
X0027452Y0268624D01*
X0027519Y0268624D01*
X0027485Y0268674D02*
X0027452Y0268674D01*
X0027426Y0268674D02*
X0027410Y0268657D01*
X0027360Y0268657D01*
X0027393Y0268657D02*
X0027426Y0268624D01*
X0027426Y0268674D02*
X0027426Y0268707D01*
X0027410Y0268724D01*
X0027360Y0268724D01*
X0027360Y0268624D01*
X0027332Y0268624D02*
X0027298Y0268624D01*
X0027315Y0268624D02*
X0027315Y0268724D01*
X0027298Y0268724D02*
X0027332Y0268724D01*
X0027273Y0268724D02*
X0027273Y0268624D01*
X0027240Y0268657D01*
X0027206Y0268624D01*
X0027206Y0268724D01*
D14*
X0051100Y0194100D02*
X0051100Y0181100D01*
X0064100Y0181100D01*
X0064100Y0194100D01*
X0051100Y0194100D01*
X0054600Y0187600D02*
X0054602Y0187709D01*
X0054608Y0187818D01*
X0054618Y0187926D01*
X0054632Y0188034D01*
X0054649Y0188142D01*
X0054671Y0188249D01*
X0054696Y0188355D01*
X0054726Y0188459D01*
X0054759Y0188563D01*
X0054796Y0188666D01*
X0054836Y0188767D01*
X0054880Y0188866D01*
X0054928Y0188964D01*
X0054980Y0189061D01*
X0055034Y0189155D01*
X0055092Y0189247D01*
X0055154Y0189337D01*
X0055219Y0189424D01*
X0055286Y0189510D01*
X0055357Y0189593D01*
X0055431Y0189673D01*
X0055508Y0189750D01*
X0055587Y0189825D01*
X0055669Y0189896D01*
X0055754Y0189965D01*
X0055841Y0190030D01*
X0055930Y0190093D01*
X0056022Y0190151D01*
X0056116Y0190207D01*
X0056211Y0190259D01*
X0056309Y0190308D01*
X0056408Y0190353D01*
X0056509Y0190395D01*
X0056611Y0190432D01*
X0056714Y0190466D01*
X0056819Y0190497D01*
X0056925Y0190523D01*
X0057031Y0190546D01*
X0057139Y0190564D01*
X0057247Y0190579D01*
X0057355Y0190590D01*
X0057464Y0190597D01*
X0057573Y0190600D01*
X0057682Y0190599D01*
X0057791Y0190594D01*
X0057899Y0190585D01*
X0058007Y0190572D01*
X0058115Y0190555D01*
X0058222Y0190535D01*
X0058328Y0190510D01*
X0058433Y0190482D01*
X0058537Y0190450D01*
X0058640Y0190414D01*
X0058742Y0190374D01*
X0058842Y0190331D01*
X0058940Y0190284D01*
X0059037Y0190234D01*
X0059131Y0190180D01*
X0059224Y0190122D01*
X0059315Y0190062D01*
X0059403Y0189998D01*
X0059489Y0189931D01*
X0059572Y0189861D01*
X0059653Y0189788D01*
X0059731Y0189712D01*
X0059806Y0189633D01*
X0059879Y0189551D01*
X0059948Y0189467D01*
X0060014Y0189381D01*
X0060077Y0189292D01*
X0060137Y0189201D01*
X0060194Y0189108D01*
X0060247Y0189013D01*
X0060296Y0188916D01*
X0060342Y0188817D01*
X0060384Y0188717D01*
X0060423Y0188615D01*
X0060458Y0188511D01*
X0060489Y0188407D01*
X0060517Y0188302D01*
X0060540Y0188195D01*
X0060560Y0188088D01*
X0060576Y0187980D01*
X0060588Y0187872D01*
X0060596Y0187763D01*
X0060600Y0187654D01*
X0060600Y0187546D01*
X0060596Y0187437D01*
X0060588Y0187328D01*
X0060576Y0187220D01*
X0060560Y0187112D01*
X0060540Y0187005D01*
X0060517Y0186898D01*
X0060489Y0186793D01*
X0060458Y0186689D01*
X0060423Y0186585D01*
X0060384Y0186483D01*
X0060342Y0186383D01*
X0060296Y0186284D01*
X0060247Y0186187D01*
X0060194Y0186092D01*
X0060137Y0185999D01*
X0060077Y0185908D01*
X0060014Y0185819D01*
X0059948Y0185733D01*
X0059879Y0185649D01*
X0059806Y0185567D01*
X0059731Y0185488D01*
X0059653Y0185412D01*
X0059572Y0185339D01*
X0059489Y0185269D01*
X0059403Y0185202D01*
X0059315Y0185138D01*
X0059224Y0185078D01*
X0059131Y0185020D01*
X0059037Y0184966D01*
X0058940Y0184916D01*
X0058842Y0184869D01*
X0058742Y0184826D01*
X0058640Y0184786D01*
X0058537Y0184750D01*
X0058433Y0184718D01*
X0058328Y0184690D01*
X0058222Y0184665D01*
X0058115Y0184645D01*
X0058007Y0184628D01*
X0057899Y0184615D01*
X0057791Y0184606D01*
X0057682Y0184601D01*
X0057573Y0184600D01*
X0057464Y0184603D01*
X0057355Y0184610D01*
X0057247Y0184621D01*
X0057139Y0184636D01*
X0057031Y0184654D01*
X0056925Y0184677D01*
X0056819Y0184703D01*
X0056714Y0184734D01*
X0056611Y0184768D01*
X0056509Y0184805D01*
X0056408Y0184847D01*
X0056309Y0184892D01*
X0056211Y0184941D01*
X0056116Y0184993D01*
X0056022Y0185049D01*
X0055930Y0185107D01*
X0055841Y0185170D01*
X0055754Y0185235D01*
X0055669Y0185304D01*
X0055587Y0185375D01*
X0055508Y0185450D01*
X0055431Y0185527D01*
X0055357Y0185607D01*
X0055286Y0185690D01*
X0055219Y0185776D01*
X0055154Y0185863D01*
X0055092Y0185953D01*
X0055034Y0186045D01*
X0054980Y0186139D01*
X0054928Y0186236D01*
X0054880Y0186334D01*
X0054836Y0186433D01*
X0054796Y0186534D01*
X0054759Y0186637D01*
X0054726Y0186741D01*
X0054696Y0186845D01*
X0054671Y0186951D01*
X0054649Y0187058D01*
X0054632Y0187166D01*
X0054618Y0187274D01*
X0054608Y0187382D01*
X0054602Y0187491D01*
X0054600Y0187600D01*
X0053600Y0187600D02*
X0053602Y0187726D01*
X0053608Y0187852D01*
X0053618Y0187978D01*
X0053632Y0188104D01*
X0053650Y0188229D01*
X0053672Y0188353D01*
X0053697Y0188477D01*
X0053727Y0188600D01*
X0053760Y0188721D01*
X0053798Y0188842D01*
X0053839Y0188961D01*
X0053884Y0189080D01*
X0053932Y0189196D01*
X0053984Y0189311D01*
X0054040Y0189424D01*
X0054100Y0189536D01*
X0054163Y0189645D01*
X0054229Y0189753D01*
X0054298Y0189858D01*
X0054371Y0189961D01*
X0054448Y0190062D01*
X0054527Y0190160D01*
X0054609Y0190256D01*
X0054695Y0190349D01*
X0054783Y0190440D01*
X0054874Y0190527D01*
X0054968Y0190612D01*
X0055064Y0190693D01*
X0055163Y0190772D01*
X0055264Y0190847D01*
X0055368Y0190919D01*
X0055474Y0190988D01*
X0055582Y0191054D01*
X0055692Y0191116D01*
X0055804Y0191174D01*
X0055917Y0191229D01*
X0056033Y0191280D01*
X0056150Y0191328D01*
X0056268Y0191372D01*
X0056388Y0191412D01*
X0056509Y0191448D01*
X0056631Y0191481D01*
X0056754Y0191510D01*
X0056878Y0191534D01*
X0057002Y0191555D01*
X0057127Y0191572D01*
X0057253Y0191585D01*
X0057379Y0191594D01*
X0057505Y0191599D01*
X0057632Y0191600D01*
X0057758Y0191597D01*
X0057884Y0191590D01*
X0058010Y0191579D01*
X0058135Y0191564D01*
X0058260Y0191545D01*
X0058384Y0191522D01*
X0058508Y0191496D01*
X0058630Y0191465D01*
X0058752Y0191431D01*
X0058872Y0191392D01*
X0058991Y0191350D01*
X0059109Y0191305D01*
X0059225Y0191255D01*
X0059340Y0191202D01*
X0059452Y0191145D01*
X0059563Y0191085D01*
X0059672Y0191021D01*
X0059779Y0190954D01*
X0059884Y0190884D01*
X0059987Y0190810D01*
X0060087Y0190733D01*
X0060185Y0190653D01*
X0060280Y0190570D01*
X0060372Y0190484D01*
X0060462Y0190395D01*
X0060549Y0190303D01*
X0060632Y0190209D01*
X0060713Y0190112D01*
X0060791Y0190012D01*
X0060866Y0189910D01*
X0060937Y0189806D01*
X0061005Y0189699D01*
X0061069Y0189591D01*
X0061130Y0189480D01*
X0061188Y0189368D01*
X0061242Y0189254D01*
X0061292Y0189138D01*
X0061339Y0189021D01*
X0061382Y0188902D01*
X0061421Y0188782D01*
X0061457Y0188661D01*
X0061488Y0188538D01*
X0061516Y0188415D01*
X0061540Y0188291D01*
X0061560Y0188166D01*
X0061576Y0188041D01*
X0061588Y0187915D01*
X0061596Y0187789D01*
X0061600Y0187663D01*
X0061600Y0187537D01*
X0061596Y0187411D01*
X0061588Y0187285D01*
X0061576Y0187159D01*
X0061560Y0187034D01*
X0061540Y0186909D01*
X0061516Y0186785D01*
X0061488Y0186662D01*
X0061457Y0186539D01*
X0061421Y0186418D01*
X0061382Y0186298D01*
X0061339Y0186179D01*
X0061292Y0186062D01*
X0061242Y0185946D01*
X0061188Y0185832D01*
X0061130Y0185720D01*
X0061069Y0185609D01*
X0061005Y0185501D01*
X0060937Y0185394D01*
X0060866Y0185290D01*
X0060791Y0185188D01*
X0060713Y0185088D01*
X0060632Y0184991D01*
X0060549Y0184897D01*
X0060462Y0184805D01*
X0060372Y0184716D01*
X0060280Y0184630D01*
X0060185Y0184547D01*
X0060087Y0184467D01*
X0059987Y0184390D01*
X0059884Y0184316D01*
X0059779Y0184246D01*
X0059672Y0184179D01*
X0059563Y0184115D01*
X0059452Y0184055D01*
X0059340Y0183998D01*
X0059225Y0183945D01*
X0059109Y0183895D01*
X0058991Y0183850D01*
X0058872Y0183808D01*
X0058752Y0183769D01*
X0058630Y0183735D01*
X0058508Y0183704D01*
X0058384Y0183678D01*
X0058260Y0183655D01*
X0058135Y0183636D01*
X0058010Y0183621D01*
X0057884Y0183610D01*
X0057758Y0183603D01*
X0057632Y0183600D01*
X0057505Y0183601D01*
X0057379Y0183606D01*
X0057253Y0183615D01*
X0057127Y0183628D01*
X0057002Y0183645D01*
X0056878Y0183666D01*
X0056754Y0183690D01*
X0056631Y0183719D01*
X0056509Y0183752D01*
X0056388Y0183788D01*
X0056268Y0183828D01*
X0056150Y0183872D01*
X0056033Y0183920D01*
X0055917Y0183971D01*
X0055804Y0184026D01*
X0055692Y0184084D01*
X0055582Y0184146D01*
X0055474Y0184212D01*
X0055368Y0184281D01*
X0055264Y0184353D01*
X0055163Y0184428D01*
X0055064Y0184507D01*
X0054968Y0184588D01*
X0054874Y0184673D01*
X0054783Y0184760D01*
X0054695Y0184851D01*
X0054609Y0184944D01*
X0054527Y0185040D01*
X0054448Y0185138D01*
X0054371Y0185239D01*
X0054298Y0185342D01*
X0054229Y0185447D01*
X0054163Y0185555D01*
X0054100Y0185664D01*
X0054040Y0185776D01*
X0053984Y0185889D01*
X0053932Y0186004D01*
X0053884Y0186120D01*
X0053839Y0186239D01*
X0053798Y0186358D01*
X0053760Y0186479D01*
X0053727Y0186600D01*
X0053697Y0186723D01*
X0053672Y0186847D01*
X0053650Y0186971D01*
X0053632Y0187096D01*
X0053618Y0187222D01*
X0053608Y0187348D01*
X0053602Y0187474D01*
X0053600Y0187600D01*
X0051100Y0099100D02*
X0051100Y0086100D01*
X0064100Y0086100D01*
X0064100Y0099100D01*
X0051100Y0099100D01*
X0054600Y0092600D02*
X0054602Y0092709D01*
X0054608Y0092818D01*
X0054618Y0092926D01*
X0054632Y0093034D01*
X0054649Y0093142D01*
X0054671Y0093249D01*
X0054696Y0093355D01*
X0054726Y0093459D01*
X0054759Y0093563D01*
X0054796Y0093666D01*
X0054836Y0093767D01*
X0054880Y0093866D01*
X0054928Y0093964D01*
X0054980Y0094061D01*
X0055034Y0094155D01*
X0055092Y0094247D01*
X0055154Y0094337D01*
X0055219Y0094424D01*
X0055286Y0094510D01*
X0055357Y0094593D01*
X0055431Y0094673D01*
X0055508Y0094750D01*
X0055587Y0094825D01*
X0055669Y0094896D01*
X0055754Y0094965D01*
X0055841Y0095030D01*
X0055930Y0095093D01*
X0056022Y0095151D01*
X0056116Y0095207D01*
X0056211Y0095259D01*
X0056309Y0095308D01*
X0056408Y0095353D01*
X0056509Y0095395D01*
X0056611Y0095432D01*
X0056714Y0095466D01*
X0056819Y0095497D01*
X0056925Y0095523D01*
X0057031Y0095546D01*
X0057139Y0095564D01*
X0057247Y0095579D01*
X0057355Y0095590D01*
X0057464Y0095597D01*
X0057573Y0095600D01*
X0057682Y0095599D01*
X0057791Y0095594D01*
X0057899Y0095585D01*
X0058007Y0095572D01*
X0058115Y0095555D01*
X0058222Y0095535D01*
X0058328Y0095510D01*
X0058433Y0095482D01*
X0058537Y0095450D01*
X0058640Y0095414D01*
X0058742Y0095374D01*
X0058842Y0095331D01*
X0058940Y0095284D01*
X0059037Y0095234D01*
X0059131Y0095180D01*
X0059224Y0095122D01*
X0059315Y0095062D01*
X0059403Y0094998D01*
X0059489Y0094931D01*
X0059572Y0094861D01*
X0059653Y0094788D01*
X0059731Y0094712D01*
X0059806Y0094633D01*
X0059879Y0094551D01*
X0059948Y0094467D01*
X0060014Y0094381D01*
X0060077Y0094292D01*
X0060137Y0094201D01*
X0060194Y0094108D01*
X0060247Y0094013D01*
X0060296Y0093916D01*
X0060342Y0093817D01*
X0060384Y0093717D01*
X0060423Y0093615D01*
X0060458Y0093511D01*
X0060489Y0093407D01*
X0060517Y0093302D01*
X0060540Y0093195D01*
X0060560Y0093088D01*
X0060576Y0092980D01*
X0060588Y0092872D01*
X0060596Y0092763D01*
X0060600Y0092654D01*
X0060600Y0092546D01*
X0060596Y0092437D01*
X0060588Y0092328D01*
X0060576Y0092220D01*
X0060560Y0092112D01*
X0060540Y0092005D01*
X0060517Y0091898D01*
X0060489Y0091793D01*
X0060458Y0091689D01*
X0060423Y0091585D01*
X0060384Y0091483D01*
X0060342Y0091383D01*
X0060296Y0091284D01*
X0060247Y0091187D01*
X0060194Y0091092D01*
X0060137Y0090999D01*
X0060077Y0090908D01*
X0060014Y0090819D01*
X0059948Y0090733D01*
X0059879Y0090649D01*
X0059806Y0090567D01*
X0059731Y0090488D01*
X0059653Y0090412D01*
X0059572Y0090339D01*
X0059489Y0090269D01*
X0059403Y0090202D01*
X0059315Y0090138D01*
X0059224Y0090078D01*
X0059131Y0090020D01*
X0059037Y0089966D01*
X0058940Y0089916D01*
X0058842Y0089869D01*
X0058742Y0089826D01*
X0058640Y0089786D01*
X0058537Y0089750D01*
X0058433Y0089718D01*
X0058328Y0089690D01*
X0058222Y0089665D01*
X0058115Y0089645D01*
X0058007Y0089628D01*
X0057899Y0089615D01*
X0057791Y0089606D01*
X0057682Y0089601D01*
X0057573Y0089600D01*
X0057464Y0089603D01*
X0057355Y0089610D01*
X0057247Y0089621D01*
X0057139Y0089636D01*
X0057031Y0089654D01*
X0056925Y0089677D01*
X0056819Y0089703D01*
X0056714Y0089734D01*
X0056611Y0089768D01*
X0056509Y0089805D01*
X0056408Y0089847D01*
X0056309Y0089892D01*
X0056211Y0089941D01*
X0056116Y0089993D01*
X0056022Y0090049D01*
X0055930Y0090107D01*
X0055841Y0090170D01*
X0055754Y0090235D01*
X0055669Y0090304D01*
X0055587Y0090375D01*
X0055508Y0090450D01*
X0055431Y0090527D01*
X0055357Y0090607D01*
X0055286Y0090690D01*
X0055219Y0090776D01*
X0055154Y0090863D01*
X0055092Y0090953D01*
X0055034Y0091045D01*
X0054980Y0091139D01*
X0054928Y0091236D01*
X0054880Y0091334D01*
X0054836Y0091433D01*
X0054796Y0091534D01*
X0054759Y0091637D01*
X0054726Y0091741D01*
X0054696Y0091845D01*
X0054671Y0091951D01*
X0054649Y0092058D01*
X0054632Y0092166D01*
X0054618Y0092274D01*
X0054608Y0092382D01*
X0054602Y0092491D01*
X0054600Y0092600D01*
X0053600Y0092600D02*
X0053602Y0092726D01*
X0053608Y0092852D01*
X0053618Y0092978D01*
X0053632Y0093104D01*
X0053650Y0093229D01*
X0053672Y0093353D01*
X0053697Y0093477D01*
X0053727Y0093600D01*
X0053760Y0093721D01*
X0053798Y0093842D01*
X0053839Y0093961D01*
X0053884Y0094080D01*
X0053932Y0094196D01*
X0053984Y0094311D01*
X0054040Y0094424D01*
X0054100Y0094536D01*
X0054163Y0094645D01*
X0054229Y0094753D01*
X0054298Y0094858D01*
X0054371Y0094961D01*
X0054448Y0095062D01*
X0054527Y0095160D01*
X0054609Y0095256D01*
X0054695Y0095349D01*
X0054783Y0095440D01*
X0054874Y0095527D01*
X0054968Y0095612D01*
X0055064Y0095693D01*
X0055163Y0095772D01*
X0055264Y0095847D01*
X0055368Y0095919D01*
X0055474Y0095988D01*
X0055582Y0096054D01*
X0055692Y0096116D01*
X0055804Y0096174D01*
X0055917Y0096229D01*
X0056033Y0096280D01*
X0056150Y0096328D01*
X0056268Y0096372D01*
X0056388Y0096412D01*
X0056509Y0096448D01*
X0056631Y0096481D01*
X0056754Y0096510D01*
X0056878Y0096534D01*
X0057002Y0096555D01*
X0057127Y0096572D01*
X0057253Y0096585D01*
X0057379Y0096594D01*
X0057505Y0096599D01*
X0057632Y0096600D01*
X0057758Y0096597D01*
X0057884Y0096590D01*
X0058010Y0096579D01*
X0058135Y0096564D01*
X0058260Y0096545D01*
X0058384Y0096522D01*
X0058508Y0096496D01*
X0058630Y0096465D01*
X0058752Y0096431D01*
X0058872Y0096392D01*
X0058991Y0096350D01*
X0059109Y0096305D01*
X0059225Y0096255D01*
X0059340Y0096202D01*
X0059452Y0096145D01*
X0059563Y0096085D01*
X0059672Y0096021D01*
X0059779Y0095954D01*
X0059884Y0095884D01*
X0059987Y0095810D01*
X0060087Y0095733D01*
X0060185Y0095653D01*
X0060280Y0095570D01*
X0060372Y0095484D01*
X0060462Y0095395D01*
X0060549Y0095303D01*
X0060632Y0095209D01*
X0060713Y0095112D01*
X0060791Y0095012D01*
X0060866Y0094910D01*
X0060937Y0094806D01*
X0061005Y0094699D01*
X0061069Y0094591D01*
X0061130Y0094480D01*
X0061188Y0094368D01*
X0061242Y0094254D01*
X0061292Y0094138D01*
X0061339Y0094021D01*
X0061382Y0093902D01*
X0061421Y0093782D01*
X0061457Y0093661D01*
X0061488Y0093538D01*
X0061516Y0093415D01*
X0061540Y0093291D01*
X0061560Y0093166D01*
X0061576Y0093041D01*
X0061588Y0092915D01*
X0061596Y0092789D01*
X0061600Y0092663D01*
X0061600Y0092537D01*
X0061596Y0092411D01*
X0061588Y0092285D01*
X0061576Y0092159D01*
X0061560Y0092034D01*
X0061540Y0091909D01*
X0061516Y0091785D01*
X0061488Y0091662D01*
X0061457Y0091539D01*
X0061421Y0091418D01*
X0061382Y0091298D01*
X0061339Y0091179D01*
X0061292Y0091062D01*
X0061242Y0090946D01*
X0061188Y0090832D01*
X0061130Y0090720D01*
X0061069Y0090609D01*
X0061005Y0090501D01*
X0060937Y0090394D01*
X0060866Y0090290D01*
X0060791Y0090188D01*
X0060713Y0090088D01*
X0060632Y0089991D01*
X0060549Y0089897D01*
X0060462Y0089805D01*
X0060372Y0089716D01*
X0060280Y0089630D01*
X0060185Y0089547D01*
X0060087Y0089467D01*
X0059987Y0089390D01*
X0059884Y0089316D01*
X0059779Y0089246D01*
X0059672Y0089179D01*
X0059563Y0089115D01*
X0059452Y0089055D01*
X0059340Y0088998D01*
X0059225Y0088945D01*
X0059109Y0088895D01*
X0058991Y0088850D01*
X0058872Y0088808D01*
X0058752Y0088769D01*
X0058630Y0088735D01*
X0058508Y0088704D01*
X0058384Y0088678D01*
X0058260Y0088655D01*
X0058135Y0088636D01*
X0058010Y0088621D01*
X0057884Y0088610D01*
X0057758Y0088603D01*
X0057632Y0088600D01*
X0057505Y0088601D01*
X0057379Y0088606D01*
X0057253Y0088615D01*
X0057127Y0088628D01*
X0057002Y0088645D01*
X0056878Y0088666D01*
X0056754Y0088690D01*
X0056631Y0088719D01*
X0056509Y0088752D01*
X0056388Y0088788D01*
X0056268Y0088828D01*
X0056150Y0088872D01*
X0056033Y0088920D01*
X0055917Y0088971D01*
X0055804Y0089026D01*
X0055692Y0089084D01*
X0055582Y0089146D01*
X0055474Y0089212D01*
X0055368Y0089281D01*
X0055264Y0089353D01*
X0055163Y0089428D01*
X0055064Y0089507D01*
X0054968Y0089588D01*
X0054874Y0089673D01*
X0054783Y0089760D01*
X0054695Y0089851D01*
X0054609Y0089944D01*
X0054527Y0090040D01*
X0054448Y0090138D01*
X0054371Y0090239D01*
X0054298Y0090342D01*
X0054229Y0090447D01*
X0054163Y0090555D01*
X0054100Y0090664D01*
X0054040Y0090776D01*
X0053984Y0090889D01*
X0053932Y0091004D01*
X0053884Y0091120D01*
X0053839Y0091239D01*
X0053798Y0091358D01*
X0053760Y0091479D01*
X0053727Y0091600D01*
X0053697Y0091723D01*
X0053672Y0091847D01*
X0053650Y0091971D01*
X0053632Y0092096D01*
X0053618Y0092222D01*
X0053608Y0092348D01*
X0053602Y0092474D01*
X0053600Y0092600D01*
X0346100Y0099100D02*
X0346100Y0086100D01*
X0359100Y0086100D01*
X0359100Y0099100D01*
X0346100Y0099100D01*
X0349600Y0092600D02*
X0349602Y0092709D01*
X0349608Y0092818D01*
X0349618Y0092926D01*
X0349632Y0093034D01*
X0349649Y0093142D01*
X0349671Y0093249D01*
X0349696Y0093355D01*
X0349726Y0093459D01*
X0349759Y0093563D01*
X0349796Y0093666D01*
X0349836Y0093767D01*
X0349880Y0093866D01*
X0349928Y0093964D01*
X0349980Y0094061D01*
X0350034Y0094155D01*
X0350092Y0094247D01*
X0350154Y0094337D01*
X0350219Y0094424D01*
X0350286Y0094510D01*
X0350357Y0094593D01*
X0350431Y0094673D01*
X0350508Y0094750D01*
X0350587Y0094825D01*
X0350669Y0094896D01*
X0350754Y0094965D01*
X0350841Y0095030D01*
X0350930Y0095093D01*
X0351022Y0095151D01*
X0351116Y0095207D01*
X0351211Y0095259D01*
X0351309Y0095308D01*
X0351408Y0095353D01*
X0351509Y0095395D01*
X0351611Y0095432D01*
X0351714Y0095466D01*
X0351819Y0095497D01*
X0351925Y0095523D01*
X0352031Y0095546D01*
X0352139Y0095564D01*
X0352247Y0095579D01*
X0352355Y0095590D01*
X0352464Y0095597D01*
X0352573Y0095600D01*
X0352682Y0095599D01*
X0352791Y0095594D01*
X0352899Y0095585D01*
X0353007Y0095572D01*
X0353115Y0095555D01*
X0353222Y0095535D01*
X0353328Y0095510D01*
X0353433Y0095482D01*
X0353537Y0095450D01*
X0353640Y0095414D01*
X0353742Y0095374D01*
X0353842Y0095331D01*
X0353940Y0095284D01*
X0354037Y0095234D01*
X0354131Y0095180D01*
X0354224Y0095122D01*
X0354315Y0095062D01*
X0354403Y0094998D01*
X0354489Y0094931D01*
X0354572Y0094861D01*
X0354653Y0094788D01*
X0354731Y0094712D01*
X0354806Y0094633D01*
X0354879Y0094551D01*
X0354948Y0094467D01*
X0355014Y0094381D01*
X0355077Y0094292D01*
X0355137Y0094201D01*
X0355194Y0094108D01*
X0355247Y0094013D01*
X0355296Y0093916D01*
X0355342Y0093817D01*
X0355384Y0093717D01*
X0355423Y0093615D01*
X0355458Y0093511D01*
X0355489Y0093407D01*
X0355517Y0093302D01*
X0355540Y0093195D01*
X0355560Y0093088D01*
X0355576Y0092980D01*
X0355588Y0092872D01*
X0355596Y0092763D01*
X0355600Y0092654D01*
X0355600Y0092546D01*
X0355596Y0092437D01*
X0355588Y0092328D01*
X0355576Y0092220D01*
X0355560Y0092112D01*
X0355540Y0092005D01*
X0355517Y0091898D01*
X0355489Y0091793D01*
X0355458Y0091689D01*
X0355423Y0091585D01*
X0355384Y0091483D01*
X0355342Y0091383D01*
X0355296Y0091284D01*
X0355247Y0091187D01*
X0355194Y0091092D01*
X0355137Y0090999D01*
X0355077Y0090908D01*
X0355014Y0090819D01*
X0354948Y0090733D01*
X0354879Y0090649D01*
X0354806Y0090567D01*
X0354731Y0090488D01*
X0354653Y0090412D01*
X0354572Y0090339D01*
X0354489Y0090269D01*
X0354403Y0090202D01*
X0354315Y0090138D01*
X0354224Y0090078D01*
X0354131Y0090020D01*
X0354037Y0089966D01*
X0353940Y0089916D01*
X0353842Y0089869D01*
X0353742Y0089826D01*
X0353640Y0089786D01*
X0353537Y0089750D01*
X0353433Y0089718D01*
X0353328Y0089690D01*
X0353222Y0089665D01*
X0353115Y0089645D01*
X0353007Y0089628D01*
X0352899Y0089615D01*
X0352791Y0089606D01*
X0352682Y0089601D01*
X0352573Y0089600D01*
X0352464Y0089603D01*
X0352355Y0089610D01*
X0352247Y0089621D01*
X0352139Y0089636D01*
X0352031Y0089654D01*
X0351925Y0089677D01*
X0351819Y0089703D01*
X0351714Y0089734D01*
X0351611Y0089768D01*
X0351509Y0089805D01*
X0351408Y0089847D01*
X0351309Y0089892D01*
X0351211Y0089941D01*
X0351116Y0089993D01*
X0351022Y0090049D01*
X0350930Y0090107D01*
X0350841Y0090170D01*
X0350754Y0090235D01*
X0350669Y0090304D01*
X0350587Y0090375D01*
X0350508Y0090450D01*
X0350431Y0090527D01*
X0350357Y0090607D01*
X0350286Y0090690D01*
X0350219Y0090776D01*
X0350154Y0090863D01*
X0350092Y0090953D01*
X0350034Y0091045D01*
X0349980Y0091139D01*
X0349928Y0091236D01*
X0349880Y0091334D01*
X0349836Y0091433D01*
X0349796Y0091534D01*
X0349759Y0091637D01*
X0349726Y0091741D01*
X0349696Y0091845D01*
X0349671Y0091951D01*
X0349649Y0092058D01*
X0349632Y0092166D01*
X0349618Y0092274D01*
X0349608Y0092382D01*
X0349602Y0092491D01*
X0349600Y0092600D01*
X0348600Y0092600D02*
X0348602Y0092726D01*
X0348608Y0092852D01*
X0348618Y0092978D01*
X0348632Y0093104D01*
X0348650Y0093229D01*
X0348672Y0093353D01*
X0348697Y0093477D01*
X0348727Y0093600D01*
X0348760Y0093721D01*
X0348798Y0093842D01*
X0348839Y0093961D01*
X0348884Y0094080D01*
X0348932Y0094196D01*
X0348984Y0094311D01*
X0349040Y0094424D01*
X0349100Y0094536D01*
X0349163Y0094645D01*
X0349229Y0094753D01*
X0349298Y0094858D01*
X0349371Y0094961D01*
X0349448Y0095062D01*
X0349527Y0095160D01*
X0349609Y0095256D01*
X0349695Y0095349D01*
X0349783Y0095440D01*
X0349874Y0095527D01*
X0349968Y0095612D01*
X0350064Y0095693D01*
X0350163Y0095772D01*
X0350264Y0095847D01*
X0350368Y0095919D01*
X0350474Y0095988D01*
X0350582Y0096054D01*
X0350692Y0096116D01*
X0350804Y0096174D01*
X0350917Y0096229D01*
X0351033Y0096280D01*
X0351150Y0096328D01*
X0351268Y0096372D01*
X0351388Y0096412D01*
X0351509Y0096448D01*
X0351631Y0096481D01*
X0351754Y0096510D01*
X0351878Y0096534D01*
X0352002Y0096555D01*
X0352127Y0096572D01*
X0352253Y0096585D01*
X0352379Y0096594D01*
X0352505Y0096599D01*
X0352632Y0096600D01*
X0352758Y0096597D01*
X0352884Y0096590D01*
X0353010Y0096579D01*
X0353135Y0096564D01*
X0353260Y0096545D01*
X0353384Y0096522D01*
X0353508Y0096496D01*
X0353630Y0096465D01*
X0353752Y0096431D01*
X0353872Y0096392D01*
X0353991Y0096350D01*
X0354109Y0096305D01*
X0354225Y0096255D01*
X0354340Y0096202D01*
X0354452Y0096145D01*
X0354563Y0096085D01*
X0354672Y0096021D01*
X0354779Y0095954D01*
X0354884Y0095884D01*
X0354987Y0095810D01*
X0355087Y0095733D01*
X0355185Y0095653D01*
X0355280Y0095570D01*
X0355372Y0095484D01*
X0355462Y0095395D01*
X0355549Y0095303D01*
X0355632Y0095209D01*
X0355713Y0095112D01*
X0355791Y0095012D01*
X0355866Y0094910D01*
X0355937Y0094806D01*
X0356005Y0094699D01*
X0356069Y0094591D01*
X0356130Y0094480D01*
X0356188Y0094368D01*
X0356242Y0094254D01*
X0356292Y0094138D01*
X0356339Y0094021D01*
X0356382Y0093902D01*
X0356421Y0093782D01*
X0356457Y0093661D01*
X0356488Y0093538D01*
X0356516Y0093415D01*
X0356540Y0093291D01*
X0356560Y0093166D01*
X0356576Y0093041D01*
X0356588Y0092915D01*
X0356596Y0092789D01*
X0356600Y0092663D01*
X0356600Y0092537D01*
X0356596Y0092411D01*
X0356588Y0092285D01*
X0356576Y0092159D01*
X0356560Y0092034D01*
X0356540Y0091909D01*
X0356516Y0091785D01*
X0356488Y0091662D01*
X0356457Y0091539D01*
X0356421Y0091418D01*
X0356382Y0091298D01*
X0356339Y0091179D01*
X0356292Y0091062D01*
X0356242Y0090946D01*
X0356188Y0090832D01*
X0356130Y0090720D01*
X0356069Y0090609D01*
X0356005Y0090501D01*
X0355937Y0090394D01*
X0355866Y0090290D01*
X0355791Y0090188D01*
X0355713Y0090088D01*
X0355632Y0089991D01*
X0355549Y0089897D01*
X0355462Y0089805D01*
X0355372Y0089716D01*
X0355280Y0089630D01*
X0355185Y0089547D01*
X0355087Y0089467D01*
X0354987Y0089390D01*
X0354884Y0089316D01*
X0354779Y0089246D01*
X0354672Y0089179D01*
X0354563Y0089115D01*
X0354452Y0089055D01*
X0354340Y0088998D01*
X0354225Y0088945D01*
X0354109Y0088895D01*
X0353991Y0088850D01*
X0353872Y0088808D01*
X0353752Y0088769D01*
X0353630Y0088735D01*
X0353508Y0088704D01*
X0353384Y0088678D01*
X0353260Y0088655D01*
X0353135Y0088636D01*
X0353010Y0088621D01*
X0352884Y0088610D01*
X0352758Y0088603D01*
X0352632Y0088600D01*
X0352505Y0088601D01*
X0352379Y0088606D01*
X0352253Y0088615D01*
X0352127Y0088628D01*
X0352002Y0088645D01*
X0351878Y0088666D01*
X0351754Y0088690D01*
X0351631Y0088719D01*
X0351509Y0088752D01*
X0351388Y0088788D01*
X0351268Y0088828D01*
X0351150Y0088872D01*
X0351033Y0088920D01*
X0350917Y0088971D01*
X0350804Y0089026D01*
X0350692Y0089084D01*
X0350582Y0089146D01*
X0350474Y0089212D01*
X0350368Y0089281D01*
X0350264Y0089353D01*
X0350163Y0089428D01*
X0350064Y0089507D01*
X0349968Y0089588D01*
X0349874Y0089673D01*
X0349783Y0089760D01*
X0349695Y0089851D01*
X0349609Y0089944D01*
X0349527Y0090040D01*
X0349448Y0090138D01*
X0349371Y0090239D01*
X0349298Y0090342D01*
X0349229Y0090447D01*
X0349163Y0090555D01*
X0349100Y0090664D01*
X0349040Y0090776D01*
X0348984Y0090889D01*
X0348932Y0091004D01*
X0348884Y0091120D01*
X0348839Y0091239D01*
X0348798Y0091358D01*
X0348760Y0091479D01*
X0348727Y0091600D01*
X0348697Y0091723D01*
X0348672Y0091847D01*
X0348650Y0091971D01*
X0348632Y0092096D01*
X0348618Y0092222D01*
X0348608Y0092348D01*
X0348602Y0092474D01*
X0348600Y0092600D01*
X0346100Y0181100D02*
X0346100Y0194100D01*
X0359100Y0194100D01*
X0359100Y0181100D01*
X0346100Y0181100D01*
X0349600Y0187600D02*
X0349602Y0187709D01*
X0349608Y0187818D01*
X0349618Y0187926D01*
X0349632Y0188034D01*
X0349649Y0188142D01*
X0349671Y0188249D01*
X0349696Y0188355D01*
X0349726Y0188459D01*
X0349759Y0188563D01*
X0349796Y0188666D01*
X0349836Y0188767D01*
X0349880Y0188866D01*
X0349928Y0188964D01*
X0349980Y0189061D01*
X0350034Y0189155D01*
X0350092Y0189247D01*
X0350154Y0189337D01*
X0350219Y0189424D01*
X0350286Y0189510D01*
X0350357Y0189593D01*
X0350431Y0189673D01*
X0350508Y0189750D01*
X0350587Y0189825D01*
X0350669Y0189896D01*
X0350754Y0189965D01*
X0350841Y0190030D01*
X0350930Y0190093D01*
X0351022Y0190151D01*
X0351116Y0190207D01*
X0351211Y0190259D01*
X0351309Y0190308D01*
X0351408Y0190353D01*
X0351509Y0190395D01*
X0351611Y0190432D01*
X0351714Y0190466D01*
X0351819Y0190497D01*
X0351925Y0190523D01*
X0352031Y0190546D01*
X0352139Y0190564D01*
X0352247Y0190579D01*
X0352355Y0190590D01*
X0352464Y0190597D01*
X0352573Y0190600D01*
X0352682Y0190599D01*
X0352791Y0190594D01*
X0352899Y0190585D01*
X0353007Y0190572D01*
X0353115Y0190555D01*
X0353222Y0190535D01*
X0353328Y0190510D01*
X0353433Y0190482D01*
X0353537Y0190450D01*
X0353640Y0190414D01*
X0353742Y0190374D01*
X0353842Y0190331D01*
X0353940Y0190284D01*
X0354037Y0190234D01*
X0354131Y0190180D01*
X0354224Y0190122D01*
X0354315Y0190062D01*
X0354403Y0189998D01*
X0354489Y0189931D01*
X0354572Y0189861D01*
X0354653Y0189788D01*
X0354731Y0189712D01*
X0354806Y0189633D01*
X0354879Y0189551D01*
X0354948Y0189467D01*
X0355014Y0189381D01*
X0355077Y0189292D01*
X0355137Y0189201D01*
X0355194Y0189108D01*
X0355247Y0189013D01*
X0355296Y0188916D01*
X0355342Y0188817D01*
X0355384Y0188717D01*
X0355423Y0188615D01*
X0355458Y0188511D01*
X0355489Y0188407D01*
X0355517Y0188302D01*
X0355540Y0188195D01*
X0355560Y0188088D01*
X0355576Y0187980D01*
X0355588Y0187872D01*
X0355596Y0187763D01*
X0355600Y0187654D01*
X0355600Y0187546D01*
X0355596Y0187437D01*
X0355588Y0187328D01*
X0355576Y0187220D01*
X0355560Y0187112D01*
X0355540Y0187005D01*
X0355517Y0186898D01*
X0355489Y0186793D01*
X0355458Y0186689D01*
X0355423Y0186585D01*
X0355384Y0186483D01*
X0355342Y0186383D01*
X0355296Y0186284D01*
X0355247Y0186187D01*
X0355194Y0186092D01*
X0355137Y0185999D01*
X0355077Y0185908D01*
X0355014Y0185819D01*
X0354948Y0185733D01*
X0354879Y0185649D01*
X0354806Y0185567D01*
X0354731Y0185488D01*
X0354653Y0185412D01*
X0354572Y0185339D01*
X0354489Y0185269D01*
X0354403Y0185202D01*
X0354315Y0185138D01*
X0354224Y0185078D01*
X0354131Y0185020D01*
X0354037Y0184966D01*
X0353940Y0184916D01*
X0353842Y0184869D01*
X0353742Y0184826D01*
X0353640Y0184786D01*
X0353537Y0184750D01*
X0353433Y0184718D01*
X0353328Y0184690D01*
X0353222Y0184665D01*
X0353115Y0184645D01*
X0353007Y0184628D01*
X0352899Y0184615D01*
X0352791Y0184606D01*
X0352682Y0184601D01*
X0352573Y0184600D01*
X0352464Y0184603D01*
X0352355Y0184610D01*
X0352247Y0184621D01*
X0352139Y0184636D01*
X0352031Y0184654D01*
X0351925Y0184677D01*
X0351819Y0184703D01*
X0351714Y0184734D01*
X0351611Y0184768D01*
X0351509Y0184805D01*
X0351408Y0184847D01*
X0351309Y0184892D01*
X0351211Y0184941D01*
X0351116Y0184993D01*
X0351022Y0185049D01*
X0350930Y0185107D01*
X0350841Y0185170D01*
X0350754Y0185235D01*
X0350669Y0185304D01*
X0350587Y0185375D01*
X0350508Y0185450D01*
X0350431Y0185527D01*
X0350357Y0185607D01*
X0350286Y0185690D01*
X0350219Y0185776D01*
X0350154Y0185863D01*
X0350092Y0185953D01*
X0350034Y0186045D01*
X0349980Y0186139D01*
X0349928Y0186236D01*
X0349880Y0186334D01*
X0349836Y0186433D01*
X0349796Y0186534D01*
X0349759Y0186637D01*
X0349726Y0186741D01*
X0349696Y0186845D01*
X0349671Y0186951D01*
X0349649Y0187058D01*
X0349632Y0187166D01*
X0349618Y0187274D01*
X0349608Y0187382D01*
X0349602Y0187491D01*
X0349600Y0187600D01*
X0348600Y0187600D02*
X0348602Y0187726D01*
X0348608Y0187852D01*
X0348618Y0187978D01*
X0348632Y0188104D01*
X0348650Y0188229D01*
X0348672Y0188353D01*
X0348697Y0188477D01*
X0348727Y0188600D01*
X0348760Y0188721D01*
X0348798Y0188842D01*
X0348839Y0188961D01*
X0348884Y0189080D01*
X0348932Y0189196D01*
X0348984Y0189311D01*
X0349040Y0189424D01*
X0349100Y0189536D01*
X0349163Y0189645D01*
X0349229Y0189753D01*
X0349298Y0189858D01*
X0349371Y0189961D01*
X0349448Y0190062D01*
X0349527Y0190160D01*
X0349609Y0190256D01*
X0349695Y0190349D01*
X0349783Y0190440D01*
X0349874Y0190527D01*
X0349968Y0190612D01*
X0350064Y0190693D01*
X0350163Y0190772D01*
X0350264Y0190847D01*
X0350368Y0190919D01*
X0350474Y0190988D01*
X0350582Y0191054D01*
X0350692Y0191116D01*
X0350804Y0191174D01*
X0350917Y0191229D01*
X0351033Y0191280D01*
X0351150Y0191328D01*
X0351268Y0191372D01*
X0351388Y0191412D01*
X0351509Y0191448D01*
X0351631Y0191481D01*
X0351754Y0191510D01*
X0351878Y0191534D01*
X0352002Y0191555D01*
X0352127Y0191572D01*
X0352253Y0191585D01*
X0352379Y0191594D01*
X0352505Y0191599D01*
X0352632Y0191600D01*
X0352758Y0191597D01*
X0352884Y0191590D01*
X0353010Y0191579D01*
X0353135Y0191564D01*
X0353260Y0191545D01*
X0353384Y0191522D01*
X0353508Y0191496D01*
X0353630Y0191465D01*
X0353752Y0191431D01*
X0353872Y0191392D01*
X0353991Y0191350D01*
X0354109Y0191305D01*
X0354225Y0191255D01*
X0354340Y0191202D01*
X0354452Y0191145D01*
X0354563Y0191085D01*
X0354672Y0191021D01*
X0354779Y0190954D01*
X0354884Y0190884D01*
X0354987Y0190810D01*
X0355087Y0190733D01*
X0355185Y0190653D01*
X0355280Y0190570D01*
X0355372Y0190484D01*
X0355462Y0190395D01*
X0355549Y0190303D01*
X0355632Y0190209D01*
X0355713Y0190112D01*
X0355791Y0190012D01*
X0355866Y0189910D01*
X0355937Y0189806D01*
X0356005Y0189699D01*
X0356069Y0189591D01*
X0356130Y0189480D01*
X0356188Y0189368D01*
X0356242Y0189254D01*
X0356292Y0189138D01*
X0356339Y0189021D01*
X0356382Y0188902D01*
X0356421Y0188782D01*
X0356457Y0188661D01*
X0356488Y0188538D01*
X0356516Y0188415D01*
X0356540Y0188291D01*
X0356560Y0188166D01*
X0356576Y0188041D01*
X0356588Y0187915D01*
X0356596Y0187789D01*
X0356600Y0187663D01*
X0356600Y0187537D01*
X0356596Y0187411D01*
X0356588Y0187285D01*
X0356576Y0187159D01*
X0356560Y0187034D01*
X0356540Y0186909D01*
X0356516Y0186785D01*
X0356488Y0186662D01*
X0356457Y0186539D01*
X0356421Y0186418D01*
X0356382Y0186298D01*
X0356339Y0186179D01*
X0356292Y0186062D01*
X0356242Y0185946D01*
X0356188Y0185832D01*
X0356130Y0185720D01*
X0356069Y0185609D01*
X0356005Y0185501D01*
X0355937Y0185394D01*
X0355866Y0185290D01*
X0355791Y0185188D01*
X0355713Y0185088D01*
X0355632Y0184991D01*
X0355549Y0184897D01*
X0355462Y0184805D01*
X0355372Y0184716D01*
X0355280Y0184630D01*
X0355185Y0184547D01*
X0355087Y0184467D01*
X0354987Y0184390D01*
X0354884Y0184316D01*
X0354779Y0184246D01*
X0354672Y0184179D01*
X0354563Y0184115D01*
X0354452Y0184055D01*
X0354340Y0183998D01*
X0354225Y0183945D01*
X0354109Y0183895D01*
X0353991Y0183850D01*
X0353872Y0183808D01*
X0353752Y0183769D01*
X0353630Y0183735D01*
X0353508Y0183704D01*
X0353384Y0183678D01*
X0353260Y0183655D01*
X0353135Y0183636D01*
X0353010Y0183621D01*
X0352884Y0183610D01*
X0352758Y0183603D01*
X0352632Y0183600D01*
X0352505Y0183601D01*
X0352379Y0183606D01*
X0352253Y0183615D01*
X0352127Y0183628D01*
X0352002Y0183645D01*
X0351878Y0183666D01*
X0351754Y0183690D01*
X0351631Y0183719D01*
X0351509Y0183752D01*
X0351388Y0183788D01*
X0351268Y0183828D01*
X0351150Y0183872D01*
X0351033Y0183920D01*
X0350917Y0183971D01*
X0350804Y0184026D01*
X0350692Y0184084D01*
X0350582Y0184146D01*
X0350474Y0184212D01*
X0350368Y0184281D01*
X0350264Y0184353D01*
X0350163Y0184428D01*
X0350064Y0184507D01*
X0349968Y0184588D01*
X0349874Y0184673D01*
X0349783Y0184760D01*
X0349695Y0184851D01*
X0349609Y0184944D01*
X0349527Y0185040D01*
X0349448Y0185138D01*
X0349371Y0185239D01*
X0349298Y0185342D01*
X0349229Y0185447D01*
X0349163Y0185555D01*
X0349100Y0185664D01*
X0349040Y0185776D01*
X0348984Y0185889D01*
X0348932Y0186004D01*
X0348884Y0186120D01*
X0348839Y0186239D01*
X0348798Y0186358D01*
X0348760Y0186479D01*
X0348727Y0186600D01*
X0348697Y0186723D01*
X0348672Y0186847D01*
X0348650Y0186971D01*
X0348632Y0187096D01*
X0348618Y0187222D01*
X0348608Y0187348D01*
X0348602Y0187474D01*
X0348600Y0187600D01*
D15*
X0335353Y0200850D02*
X0332350Y0200850D01*
X0333851Y0200850D02*
X0333851Y0205354D01*
X0332350Y0203853D01*
X0368350Y0204603D02*
X0369101Y0205354D01*
X0370602Y0205354D01*
X0371353Y0204603D01*
X0371353Y0203853D01*
X0368350Y0200850D01*
X0371353Y0200850D01*
X0371102Y0173854D02*
X0368850Y0171602D01*
X0371853Y0171602D01*
X0371102Y0169350D02*
X0371102Y0173854D01*
X0335353Y0173103D02*
X0335353Y0172353D01*
X0334602Y0171602D01*
X0335353Y0170851D01*
X0335353Y0170101D01*
X0334602Y0169350D01*
X0333101Y0169350D01*
X0332350Y0170101D01*
X0333851Y0171602D02*
X0334602Y0171602D01*
X0335353Y0173103D02*
X0334602Y0173854D01*
X0333101Y0173854D01*
X0332350Y0173103D01*
X0333851Y0110354D02*
X0333851Y0105850D01*
X0332350Y0105850D02*
X0335353Y0105850D01*
X0332350Y0108853D02*
X0333851Y0110354D01*
X0368350Y0109603D02*
X0369101Y0110354D01*
X0370602Y0110354D01*
X0371353Y0109603D01*
X0371353Y0108853D01*
X0368350Y0105850D01*
X0371353Y0105850D01*
X0371102Y0078854D02*
X0368850Y0076602D01*
X0371853Y0076602D01*
X0371102Y0074350D02*
X0371102Y0078854D01*
X0335353Y0078103D02*
X0335353Y0077353D01*
X0334602Y0076602D01*
X0335353Y0075851D01*
X0335353Y0075101D01*
X0334602Y0074350D01*
X0333101Y0074350D01*
X0332350Y0075101D01*
X0333851Y0076602D02*
X0334602Y0076602D01*
X0335353Y0078103D02*
X0334602Y0078854D01*
X0333101Y0078854D01*
X0332350Y0078103D01*
X0076853Y0076602D02*
X0073850Y0076602D01*
X0076102Y0078854D01*
X0076102Y0074350D01*
X0040353Y0075101D02*
X0039602Y0074350D01*
X0038101Y0074350D01*
X0037350Y0075101D01*
X0038851Y0076602D02*
X0039602Y0076602D01*
X0040353Y0075851D01*
X0040353Y0075101D01*
X0039602Y0076602D02*
X0040353Y0077353D01*
X0040353Y0078103D01*
X0039602Y0078854D01*
X0038101Y0078854D01*
X0037350Y0078103D01*
X0037350Y0105850D02*
X0040353Y0105850D01*
X0038851Y0105850D02*
X0038851Y0110354D01*
X0037350Y0108853D01*
X0073350Y0109603D02*
X0074101Y0110354D01*
X0075602Y0110354D01*
X0076353Y0109603D01*
X0076353Y0108853D01*
X0073350Y0105850D01*
X0076353Y0105850D01*
X0076102Y0169350D02*
X0076102Y0173854D01*
X0073850Y0171602D01*
X0076853Y0171602D01*
X0040353Y0170851D02*
X0040353Y0170101D01*
X0039602Y0169350D01*
X0038101Y0169350D01*
X0037350Y0170101D01*
X0038851Y0171602D02*
X0039602Y0171602D01*
X0040353Y0170851D01*
X0039602Y0171602D02*
X0040353Y0172353D01*
X0040353Y0173103D01*
X0039602Y0173854D01*
X0038101Y0173854D01*
X0037350Y0173103D01*
X0037350Y0200850D02*
X0040353Y0200850D01*
X0038851Y0200850D02*
X0038851Y0205354D01*
X0037350Y0203853D01*
X0073350Y0204603D02*
X0074101Y0205354D01*
X0075602Y0205354D01*
X0076353Y0204603D01*
X0076353Y0203853D01*
X0073350Y0200850D01*
X0076353Y0200850D01*
D16*
X0070850Y0211600D03*
X0044350Y0211600D03*
X0044350Y0163600D03*
X0070850Y0163600D03*
X0070850Y0116600D03*
X0044350Y0116600D03*
X0044350Y0068600D03*
X0070850Y0068600D03*
X0339350Y0068600D03*
X0365850Y0068600D03*
X0365850Y0116600D03*
X0339350Y0116600D03*
X0339350Y0163600D03*
X0365850Y0163600D03*
X0365850Y0211600D03*
X0339350Y0211600D03*
M02*
