%
M48
M72
T01C0.02362
T02C0.04700
T03C0.07100
T04C0.07300
%
T01
X87600Y117600
X157600Y127600
X167600Y127600
X177600Y127600
X162600Y152600
X197600Y72600
X308571Y212600
X327600Y252600
X377600Y252600
X87600Y252600
X32600Y252600
T02
X33000Y197400
X33000Y177800
X82200Y177800
X82200Y197400
X82200Y102400
X82200Y82800
X33000Y82800
X33000Y102400
X328000Y102400
X328000Y82800
X377200Y82800
X377200Y102400
X377200Y177800
X377200Y197400
X328000Y197400
X328000Y177800
T03
X57600Y74900
X57600Y110300
X57600Y169900
X57600Y205300
X352600Y205300
X352600Y169900
X352600Y110300
X352600Y74900
T04
X277600Y66600
X277600Y38600
X207600Y38600
X207600Y66600
X137600Y66600
X137600Y38600
X137600Y208600
X137600Y236600
X207600Y236600
X207600Y208600
X277600Y208600
X277600Y236600
M30
