G75*
%MOIN*%
%OFA0B0*%
%FSLAX25Y25*%
%IPPOS*%
%LPD*%
%AMOC8*
5,1,8,0,0,1.08239X$1,22.5*
%
%ADD10C,0.00600*%
%ADD11C,0.00400*%
%ADD12C,0.00800*%
%ADD13C,0.03482*%
%ADD14C,0.00000*%
%ADD15R,0.00200X0.00025*%
%ADD16R,0.00250X0.00025*%
%ADD17R,0.00300X0.00025*%
%ADD18R,0.00350X0.00025*%
%ADD19R,0.00425X0.00025*%
%ADD20R,0.00500X0.00025*%
%ADD21R,0.00600X0.00025*%
%ADD22R,0.00650X0.00025*%
%ADD23R,0.00675X0.00025*%
%ADD24R,0.00700X0.00025*%
%ADD25R,0.00725X0.00025*%
%ADD26R,0.00725X0.00025*%
%ADD27R,0.00750X0.00025*%
%ADD28R,0.00750X0.00025*%
%ADD29R,0.00125X0.00025*%
%ADD30R,0.00025X0.00025*%
%ADD31R,0.00100X0.00025*%
%ADD32R,0.00075X0.00025*%
%ADD33R,0.00025X0.00025*%
%ADD34R,0.00050X0.00025*%
%ADD35R,0.00075X0.00025*%
%ADD36R,0.00075X0.00025*%
%ADD37R,0.00825X0.00025*%
%ADD38R,0.00675X0.00025*%
%ADD39R,0.00775X0.00025*%
%ADD40R,0.00100X0.00025*%
%ADD41R,0.00050X0.00025*%
%ADD42R,0.00800X0.00025*%
%ADD43R,0.00375X0.00025*%
%ADD44R,0.00325X0.00025*%
%ADD45R,0.00425X0.00025*%
%ADD46R,0.00150X0.00025*%
%ADD47R,0.00925X0.00025*%
%ADD48R,0.00800X0.00025*%
%ADD49R,0.00900X0.00025*%
%ADD50R,0.00525X0.00025*%
%ADD51R,0.00775X0.00025*%
%ADD52R,0.00525X0.00025*%
%ADD53R,0.00175X0.00025*%
%ADD54R,0.00200X0.00025*%
%ADD55R,0.00975X0.00025*%
%ADD56R,0.01000X0.00025*%
%ADD57R,0.00850X0.00025*%
%ADD58R,0.00975X0.00025*%
%ADD59R,0.00225X0.00025*%
%ADD60R,0.00675X0.00025*%
%ADD61R,0.00775X0.00025*%
%ADD62R,0.00625X0.00025*%
%ADD63R,0.00225X0.00025*%
%ADD64R,0.00225X0.00025*%
%ADD65R,0.01050X0.00025*%
%ADD66R,0.00275X0.00025*%
%ADD67R,0.00250X0.00025*%
%ADD68R,0.01100X0.00025*%
%ADD69R,0.00925X0.00025*%
%ADD70R,0.00825X0.00025*%
%ADD71R,0.00175X0.00025*%
%ADD72R,0.00300X0.00025*%
%ADD73R,0.00275X0.00025*%
%ADD74R,0.01075X0.00025*%
%ADD75R,0.00325X0.00025*%
%ADD76R,0.01175X0.00025*%
%ADD77R,0.01125X0.00025*%
%ADD78R,0.00275X0.00025*%
%ADD79R,0.01025X0.00025*%
%ADD80R,0.00850X0.00025*%
%ADD81R,0.01025X0.00025*%
%ADD82R,0.01000X0.00025*%
%ADD83R,0.00375X0.00025*%
%ADD84R,0.00350X0.00025*%
%ADD85R,0.01175X0.00025*%
%ADD86R,0.01325X0.00025*%
%ADD87R,0.01075X0.00025*%
%ADD88R,0.01175X0.00025*%
%ADD89R,0.01275X0.00025*%
%ADD90R,0.01225X0.00025*%
%ADD91R,0.02050X0.00025*%
%ADD92R,0.01200X0.00025*%
%ADD93R,0.00400X0.00025*%
%ADD94R,0.00425X0.00025*%
%ADD95R,0.00425X0.00025*%
%ADD96R,0.01250X0.00025*%
%ADD97R,0.01425X0.00025*%
%ADD98R,0.01225X0.00025*%
%ADD99R,0.01275X0.00025*%
%ADD100R,0.00450X0.00025*%
%ADD101R,0.01350X0.00025*%
%ADD102R,0.02100X0.00025*%
%ADD103R,0.00475X0.00025*%
%ADD104R,0.00475X0.00025*%
%ADD105R,0.00450X0.00025*%
%ADD106R,0.01325X0.00025*%
%ADD107R,0.00550X0.00025*%
%ADD108R,0.01500X0.00025*%
%ADD109R,0.02625X0.00025*%
%ADD110R,0.01300X0.00025*%
%ADD111R,0.00500X0.00025*%
%ADD112R,0.01525X0.00025*%
%ADD113R,0.02150X0.00025*%
%ADD114R,0.01425X0.00025*%
%ADD115R,0.00550X0.00025*%
%ADD116R,0.00475X0.00025*%
%ADD117R,0.01350X0.00025*%
%ADD118R,0.00575X0.00025*%
%ADD119R,0.01575X0.00025*%
%ADD120R,0.02675X0.00025*%
%ADD121R,0.01325X0.00025*%
%ADD122R,0.01475X0.00025*%
%ADD123R,0.02175X0.00025*%
%ADD124R,0.01475X0.00025*%
%ADD125R,0.00575X0.00025*%
%ADD126R,0.00525X0.00025*%
%ADD127R,0.01375X0.00025*%
%ADD128R,0.00525X0.00025*%
%ADD129R,0.01625X0.00025*%
%ADD130R,0.02725X0.00025*%
%ADD131R,0.01525X0.00025*%
%ADD132R,0.02200X0.00025*%
%ADD133R,0.01525X0.00025*%
%ADD134R,0.00625X0.00025*%
%ADD135R,0.00625X0.00025*%
%ADD136R,0.01400X0.00025*%
%ADD137R,0.00600X0.00025*%
%ADD138R,0.01675X0.00025*%
%ADD139R,0.02775X0.00025*%
%ADD140R,0.01375X0.00025*%
%ADD141R,0.01650X0.00025*%
%ADD142R,0.01600X0.00025*%
%ADD143R,0.02225X0.00025*%
%ADD144R,0.01400X0.00025*%
%ADD145R,0.01725X0.00025*%
%ADD146R,0.02825X0.00025*%
%ADD147R,0.01700X0.00025*%
%ADD148R,0.02275X0.00025*%
%ADD149R,0.01675X0.00025*%
%ADD150R,0.00725X0.00025*%
%ADD151R,0.01800X0.00025*%
%ADD152R,0.02875X0.00025*%
%ADD153R,0.01775X0.00025*%
%ADD154R,0.01800X0.00025*%
%ADD155R,0.02350X0.00025*%
%ADD156R,0.01775X0.00025*%
%ADD157R,0.00775X0.00025*%
%ADD158R,0.01450X0.00025*%
%ADD159R,0.00575X0.00025*%
%ADD160R,0.01850X0.00025*%
%ADD161R,0.02925X0.00025*%
%ADD162R,0.01825X0.00025*%
%ADD163R,0.01875X0.00025*%
%ADD164R,0.02375X0.00025*%
%ADD165R,0.01825X0.00025*%
%ADD166R,0.01475X0.00025*%
%ADD167R,0.00575X0.00025*%
%ADD168R,0.01900X0.00025*%
%ADD169R,0.02950X0.00025*%
%ADD170R,0.01925X0.00025*%
%ADD171R,0.02400X0.00025*%
%ADD172R,0.01875X0.00025*%
%ADD173R,0.01950X0.00025*%
%ADD174R,0.02975X0.00025*%
%ADD175R,0.01975X0.00025*%
%ADD176R,0.02425X0.00025*%
%ADD177R,0.01925X0.00025*%
%ADD178R,0.01475X0.00025*%
%ADD179R,0.02000X0.00025*%
%ADD180R,0.03000X0.00025*%
%ADD181R,0.01500X0.00025*%
%ADD182R,0.02025X0.00025*%
%ADD183R,0.02425X0.00025*%
%ADD184R,0.01975X0.00025*%
%ADD185R,0.02050X0.00025*%
%ADD186R,0.03025X0.00025*%
%ADD187R,0.02000X0.00025*%
%ADD188R,0.02075X0.00025*%
%ADD189R,0.02450X0.00025*%
%ADD190R,0.02025X0.00025*%
%ADD191R,0.02100X0.00025*%
%ADD192R,0.03025X0.00025*%
%ADD193R,0.02025X0.00025*%
%ADD194R,0.02475X0.00025*%
%ADD195R,0.02075X0.00025*%
%ADD196R,0.01550X0.00025*%
%ADD197R,0.02150X0.00025*%
%ADD198R,0.03075X0.00025*%
%ADD199R,0.02525X0.00025*%
%ADD200R,0.02125X0.00025*%
%ADD201R,0.01550X0.00025*%
%ADD202R,0.03125X0.00025*%
%ADD203R,0.02200X0.00025*%
%ADD204R,0.02550X0.00025*%
%ADD205R,0.01575X0.00025*%
%ADD206R,0.03150X0.00025*%
%ADD207R,0.01525X0.00025*%
%ADD208R,0.02225X0.00025*%
%ADD209R,0.02575X0.00025*%
%ADD210R,0.00950X0.00025*%
%ADD211R,0.01025X0.00025*%
%ADD212R,0.03175X0.00025*%
%ADD213R,0.01075X0.00025*%
%ADD214R,0.02275X0.00025*%
%ADD215R,0.02575X0.00025*%
%ADD216R,0.02225X0.00025*%
%ADD217R,0.00950X0.00025*%
%ADD218R,0.01225X0.00025*%
%ADD219R,0.00825X0.00025*%
%ADD220R,0.00875X0.00025*%
%ADD221R,0.00975X0.00025*%
%ADD222R,0.02325X0.00025*%
%ADD223R,0.02600X0.00025*%
%ADD224R,0.00875X0.00025*%
%ADD225R,0.02375X0.00025*%
%ADD226R,0.02600X0.00025*%
%ADD227R,0.02325X0.00025*%
%ADD228R,0.00825X0.00025*%
%ADD229R,0.00725X0.00025*%
%ADD230R,0.02400X0.00025*%
%ADD231R,0.02625X0.00025*%
%ADD232R,0.00875X0.00025*%
%ADD233R,0.02450X0.00025*%
%ADD234R,0.02650X0.00025*%
%ADD235R,0.02425X0.00025*%
%ADD236R,0.00700X0.00025*%
%ADD237R,0.00650X0.00025*%
%ADD238R,0.02475X0.00025*%
%ADD239R,0.02650X0.00025*%
%ADD240R,0.02425X0.00025*%
%ADD241R,0.02500X0.00025*%
%ADD242R,0.02675X0.00025*%
%ADD243R,0.02500X0.00025*%
%ADD244R,0.02700X0.00025*%
%ADD245R,0.00675X0.00025*%
%ADD246R,0.02525X0.00025*%
%ADD247R,0.00625X0.00025*%
%ADD248R,0.01150X0.00025*%
%ADD249R,0.01300X0.00025*%
%ADD250R,0.01075X0.00025*%
%ADD251R,0.01050X0.00025*%
%ADD252R,0.01175X0.00025*%
%ADD253R,0.01150X0.00025*%
%ADD254R,0.00975X0.00025*%
%ADD255R,0.01025X0.00025*%
%ADD256R,0.01125X0.00025*%
%ADD257R,0.00900X0.00025*%
%ADD258R,0.00925X0.00025*%
%ADD259R,0.00925X0.00025*%
%ADD260R,0.00875X0.00025*%
%ADD261R,0.00125X0.00025*%
%ADD262R,0.01200X0.00025*%
%ADD263R,0.01250X0.00025*%
%ADD264R,0.01275X0.00025*%
%ADD265R,0.01275X0.00025*%
%ADD266R,0.01600X0.00025*%
%ADD267R,0.01625X0.00025*%
%ADD268R,0.01700X0.00025*%
%ADD269R,0.01450X0.00025*%
%ADD270R,0.01750X0.00025*%
%ADD271R,0.01875X0.00025*%
%ADD272R,0.01850X0.00025*%
%ADD273R,0.02075X0.00025*%
%ADD274R,0.01950X0.00025*%
%ADD275R,0.02075X0.00025*%
%ADD276R,0.01900X0.00025*%
%ADD277R,0.01875X0.00025*%
%ADD278R,0.01750X0.00025*%
%ADD279R,0.01725X0.00025*%
%ADD280R,0.01650X0.00025*%
%ADD281R,0.02350X0.00025*%
%ADD282R,0.02475X0.00025*%
%ADD283R,0.01425X0.00025*%
%ADD284R,0.02550X0.00025*%
%ADD285R,0.02750X0.00025*%
%ADD286R,0.01125X0.00025*%
%ADD287R,0.01100X0.00025*%
%ADD288R,0.00125X0.00025*%
%ADD289R,0.01775X0.00025*%
%ADD290R,0.00150X0.00025*%
%ADD291R,0.00400X0.00025*%
%ADD292R,0.00275X0.00025*%
%ADD293R,0.00475X0.00025*%
%ADD294R,0.00325X0.00025*%
%ADD295R,0.00375X0.00025*%
%ADD296R,0.01375X0.00025*%
%ADD297R,0.01225X0.00025*%
%ADD298R,0.02125X0.00025*%
%ADD299R,0.02375X0.00025*%
%ADD300R,0.02525X0.00025*%
%ADD301R,0.02575X0.00025*%
%ADD302R,0.02025X0.00025*%
%ADD303R,0.01975X0.00025*%
%ADD304R,0.01975X0.00025*%
%ADD305R,0.02300X0.00025*%
%ADD306R,0.02325X0.00025*%
%ADD307R,0.01925X0.00025*%
%ADD308R,0.02300X0.00025*%
%ADD309R,0.02225X0.00025*%
%ADD310R,0.02275X0.00025*%
%ADD311R,0.01825X0.00025*%
%ADD312R,0.02175X0.00025*%
%ADD313R,0.01725X0.00025*%
%ADD314R,0.02275X0.00025*%
%ADD315R,0.01675X0.00025*%
%ADD316R,0.02175X0.00025*%
%ADD317R,0.01675X0.00025*%
%ADD318R,0.02250X0.00025*%
%ADD319R,0.01625X0.00025*%
%ADD320R,0.01625X0.00025*%
%ADD321R,0.01575X0.00025*%
%ADD322R,0.02125X0.00025*%
%ADD323R,0.01375X0.00025*%
%ADD324R,0.01125X0.00025*%
%ADD325R,0.01925X0.00025*%
%ADD326R,0.00175X0.00025*%
%ADD327R,0.00125X0.00025*%
%ADD328R,0.00225X0.00025*%
%ADD329R,0.00375X0.00025*%
%ADD330R,0.00325X0.00025*%
%ADD331R,0.01575X0.00025*%
%ADD332R,0.02175X0.00025*%
%ADD333R,0.01775X0.00025*%
%ADD334R,0.01825X0.00025*%
%ADD335R,0.02725X0.00025*%
%ADD336R,0.02800X0.00025*%
%ADD337R,0.02850X0.00025*%
%ADD338R,0.02875X0.00025*%
%ADD339R,0.02925X0.00025*%
%ADD340R,0.02125X0.00025*%
%ADD341R,0.03000X0.00025*%
%ADD342R,0.03100X0.00025*%
%ADD343R,0.03175X0.00025*%
%ADD344R,0.03225X0.00025*%
%ADD345R,0.03275X0.00025*%
%ADD346R,0.03325X0.00025*%
%ADD347R,0.02525X0.00025*%
%ADD348R,0.03400X0.00025*%
%ADD349R,0.03450X0.00025*%
%ADD350R,0.02625X0.00025*%
%ADD351R,0.03525X0.00025*%
%ADD352R,0.02700X0.00025*%
%ADD353R,0.03600X0.00025*%
%ADD354R,0.03650X0.00025*%
%ADD355R,0.03700X0.00025*%
%ADD356R,0.03725X0.00025*%
%ADD357R,0.03800X0.00025*%
%ADD358R,0.02975X0.00025*%
%ADD359R,0.03900X0.00025*%
%ADD360R,0.03050X0.00025*%
%ADD361R,0.03975X0.00025*%
%ADD362R,0.00075X0.00025*%
%ADD363R,0.03150X0.00025*%
%ADD364R,0.04025X0.00025*%
%ADD365R,0.03200X0.00025*%
%ADD366R,0.04050X0.00025*%
%ADD367R,0.03225X0.00025*%
%ADD368R,0.04100X0.00025*%
%ADD369R,0.03275X0.00025*%
%ADD370R,0.04175X0.00025*%
%ADD371R,0.03350X0.00025*%
%ADD372R,0.04225X0.00025*%
%ADD373R,0.04300X0.00025*%
%ADD374R,0.03475X0.00025*%
%ADD375R,0.04375X0.00025*%
%ADD376R,0.03550X0.00025*%
%ADD377R,0.04450X0.00025*%
%ADD378R,0.04500X0.00025*%
%ADD379R,0.04525X0.00025*%
%ADD380R,0.03675X0.00025*%
%ADD381R,0.04575X0.00025*%
%ADD382R,0.03725X0.00025*%
%ADD383R,0.04625X0.00025*%
%ADD384R,0.04700X0.00025*%
%ADD385R,0.03850X0.00025*%
%ADD386R,0.04800X0.00025*%
%ADD387R,0.03925X0.00025*%
%ADD388R,0.04825X0.00025*%
%ADD389R,0.03975X0.00025*%
%ADD390R,0.04875X0.00025*%
%ADD391R,0.04025X0.00025*%
%ADD392R,0.04950X0.00025*%
%ADD393R,0.04050X0.00025*%
%ADD394R,0.05000X0.00025*%
%ADD395R,0.04100X0.00025*%
%ADD396R,0.05075X0.00025*%
%ADD397R,0.04175X0.00025*%
%ADD398R,0.05150X0.00025*%
%ADD399R,0.04250X0.00025*%
%ADD400R,0.05225X0.00025*%
%ADD401R,0.04300X0.00025*%
%ADD402R,0.05275X0.00025*%
%ADD403R,0.04375X0.00025*%
%ADD404R,0.05325X0.00025*%
%ADD405R,0.04425X0.00025*%
%ADD406R,0.05350X0.00025*%
%ADD407R,0.05400X0.00025*%
%ADD408R,0.05475X0.00025*%
%ADD409R,0.04575X0.00025*%
%ADD410R,0.05550X0.00025*%
%ADD411R,0.04650X0.00025*%
%ADD412R,0.05600X0.00025*%
%ADD413R,0.04725X0.00025*%
%ADD414R,0.05650X0.00025*%
%ADD415R,0.04775X0.00025*%
%ADD416R,0.05700X0.00025*%
%ADD417R,0.08175X0.00025*%
%ADD418R,0.04825X0.00025*%
%ADD419R,0.08200X0.00025*%
%ADD420R,0.04900X0.00025*%
%ADD421R,0.08250X0.00025*%
%ADD422R,0.04975X0.00025*%
%ADD423R,0.08275X0.00025*%
%ADD424R,0.05025X0.00025*%
%ADD425R,0.08300X0.00025*%
%ADD426R,0.08350X0.00025*%
%ADD427R,0.05125X0.00025*%
%ADD428R,0.08350X0.00025*%
%ADD429R,0.02250X0.00025*%
%ADD430R,0.05175X0.00025*%
%ADD431R,0.08400X0.00025*%
%ADD432R,0.05225X0.00025*%
%ADD433R,0.08400X0.00025*%
%ADD434R,0.05300X0.00025*%
%ADD435R,0.08450X0.00025*%
%ADD436R,0.05375X0.00025*%
%ADD437R,0.08450X0.00025*%
%ADD438R,0.05425X0.00025*%
%ADD439R,0.08475X0.00025*%
%ADD440R,0.05500X0.00025*%
%ADD441R,0.08500X0.00025*%
%ADD442R,0.08500X0.00025*%
%ADD443R,0.08225X0.00025*%
%ADD444R,0.08525X0.00025*%
%ADD445R,0.08525X0.00025*%
%ADD446R,0.08325X0.00025*%
%ADD447R,0.08550X0.00025*%
%ADD448R,0.08550X0.00025*%
%ADD449R,0.08375X0.00025*%
%ADD450R,0.08425X0.00025*%
%ADD451R,0.08475X0.00025*%
%ADD452R,0.08575X0.00025*%
%ADD453R,0.08600X0.00025*%
%ADD454R,0.08575X0.00025*%
%ADD455R,0.08600X0.00025*%
%ADD456R,0.08650X0.00025*%
%ADD457R,0.08650X0.00025*%
%ADD458R,0.08525X0.00025*%
%ADD459R,0.08675X0.00025*%
%ADD460R,0.08675X0.00025*%
%ADD461R,0.08700X0.00025*%
%ADD462R,0.08700X0.00025*%
%ADD463R,0.08475X0.00025*%
%ADD464R,0.08675X0.00025*%
%ADD465R,0.08425X0.00025*%
%ADD466R,0.08375X0.00025*%
%ADD467R,0.08675X0.00025*%
%ADD468R,0.08375X0.00025*%
%ADD469R,0.08375X0.00025*%
%ADD470R,0.08325X0.00025*%
%ADD471R,0.08325X0.00025*%
%ADD472R,0.08625X0.00025*%
%ADD473R,0.08300X0.00025*%
%ADD474R,0.08625X0.00025*%
%ADD475R,0.08625X0.00025*%
%ADD476R,0.08275X0.00025*%
%ADD477R,0.08575X0.00025*%
%ADD478R,0.08275X0.00025*%
%ADD479R,0.08575X0.00025*%
%ADD480R,0.08250X0.00025*%
%ADD481R,0.08225X0.00025*%
%ADD482R,0.08225X0.00025*%
%ADD483R,0.08525X0.00025*%
%ADD484R,0.08200X0.00025*%
%ADD485R,0.08175X0.00025*%
%ADD486R,0.08175X0.00025*%
%ADD487R,0.08150X0.00025*%
%ADD488R,0.08475X0.00025*%
%ADD489R,0.08150X0.00025*%
%ADD490R,0.08125X0.00025*%
%ADD491R,0.08125X0.00025*%
%ADD492R,0.08075X0.00025*%
%ADD493R,0.08050X0.00025*%
%ADD494R,0.08050X0.00025*%
%ADD495R,0.08425X0.00025*%
%ADD496R,0.08025X0.00025*%
%ADD497R,0.08025X0.00025*%
%ADD498R,0.08025X0.00025*%
%ADD499R,0.08000X0.00025*%
%ADD500R,0.08000X0.00025*%
%ADD501R,0.07975X0.00025*%
%ADD502R,0.07975X0.00025*%
%ADD503R,0.08325X0.00025*%
%ADD504R,0.07975X0.00025*%
%ADD505R,0.07950X0.00025*%
%ADD506R,0.07950X0.00025*%
%ADD507R,0.07925X0.00025*%
%ADD508R,0.07900X0.00025*%
%ADD509R,0.07875X0.00025*%
%ADD510R,0.07875X0.00025*%
%ADD511R,0.07875X0.00025*%
%ADD512R,0.07850X0.00025*%
%ADD513R,0.07850X0.00025*%
%ADD514R,0.07825X0.00025*%
%ADD515R,0.07825X0.00025*%
%ADD516R,0.08225X0.00025*%
%ADD517R,0.07800X0.00025*%
%ADD518R,0.07825X0.00025*%
%ADD519R,0.07800X0.00025*%
%ADD520R,0.07775X0.00025*%
%ADD521R,0.07775X0.00025*%
%ADD522R,0.07750X0.00025*%
%ADD523R,0.08175X0.00025*%
%ADD524R,0.07725X0.00025*%
%ADD525R,0.07725X0.00025*%
%ADD526R,0.07700X0.00025*%
%ADD527R,0.07700X0.00025*%
%ADD528R,0.07675X0.00025*%
%ADD529R,0.08125X0.00025*%
%ADD530R,0.07675X0.00025*%
%ADD531R,0.08075X0.00025*%
%ADD532R,0.07650X0.00025*%
%ADD533R,0.07650X0.00025*%
%ADD534R,0.07625X0.00025*%
%ADD535R,0.07625X0.00025*%
%ADD536R,0.07600X0.00025*%
%ADD537R,0.07600X0.00025*%
%ADD538R,0.07575X0.00025*%
%ADD539R,0.07550X0.00025*%
%ADD540R,0.08025X0.00025*%
%ADD541R,0.07550X0.00025*%
%ADD542R,0.07525X0.00025*%
%ADD543R,0.07525X0.00025*%
%ADD544R,0.07500X0.00025*%
%ADD545R,0.07500X0.00025*%
%ADD546R,0.07475X0.00025*%
%ADD547R,0.07475X0.00025*%
%ADD548R,0.07925X0.00025*%
%ADD549R,0.07450X0.00025*%
%ADD550R,0.07475X0.00025*%
%ADD551R,0.07925X0.00025*%
%ADD552R,0.07900X0.00025*%
%ADD553R,0.07450X0.00025*%
%ADD554R,0.07475X0.00025*%
%ADD555R,0.07525X0.00025*%
%ADD556R,0.07575X0.00025*%
%ADD557R,0.07825X0.00025*%
%ADD558R,0.07775X0.00025*%
%ADD559R,0.07750X0.00025*%
%ADD560R,0.07775X0.00025*%
%ADD561R,0.07875X0.00025*%
%ADD562R,0.08075X0.00025*%
%ADD563R,0.08100X0.00025*%
%ADD564R,0.07975X0.00025*%
%ADD565R,0.08275X0.00025*%
%ADD566R,0.08725X0.00025*%
%ADD567R,0.08725X0.00025*%
%ADD568R,0.08750X0.00025*%
%ADD569R,0.08800X0.00025*%
%ADD570R,0.08800X0.00025*%
%ADD571R,0.08825X0.00025*%
%ADD572R,0.08875X0.00025*%
%ADD573R,0.08875X0.00025*%
%ADD574R,0.08900X0.00025*%
%ADD575R,0.08725X0.00025*%
%ADD576R,0.08925X0.00025*%
%ADD577R,0.08750X0.00025*%
%ADD578R,0.08950X0.00025*%
%ADD579R,0.08775X0.00025*%
%ADD580R,0.08950X0.00025*%
%ADD581R,0.08975X0.00025*%
%ADD582R,0.08975X0.00025*%
%ADD583R,0.09000X0.00025*%
%ADD584R,0.08825X0.00025*%
%ADD585R,0.09025X0.00025*%
%ADD586R,0.08850X0.00025*%
%ADD587R,0.09025X0.00025*%
%ADD588R,0.08850X0.00025*%
%ADD589R,0.09050X0.00025*%
%ADD590R,0.09050X0.00025*%
%ADD591R,0.09075X0.00025*%
%ADD592R,0.08900X0.00025*%
%ADD593R,0.09100X0.00025*%
%ADD594R,0.08925X0.00025*%
%ADD595R,0.09125X0.00025*%
%ADD596R,0.09125X0.00025*%
%ADD597R,0.08975X0.00025*%
%ADD598R,0.09175X0.00025*%
%ADD599R,0.09000X0.00025*%
%ADD600R,0.09175X0.00025*%
%ADD601R,0.09025X0.00025*%
%ADD602R,0.09200X0.00025*%
%ADD603R,0.09200X0.00025*%
%ADD604R,0.09075X0.00025*%
%ADD605R,0.09225X0.00025*%
%ADD606R,0.09225X0.00025*%
%ADD607R,0.09250X0.00025*%
%ADD608R,0.09250X0.00025*%
%ADD609R,0.09225X0.00025*%
%ADD610R,0.09150X0.00025*%
%ADD611R,0.09125X0.00025*%
%ADD612R,0.08925X0.00025*%
%ADD613R,0.08775X0.00025*%
%ADD614R,0.08775X0.00025*%
%ADD615R,0.08425X0.00025*%
%ADD616R,0.08100X0.00025*%
%ADD617R,0.07925X0.00025*%
%ADD618R,0.07725X0.00025*%
%ADD619R,0.09350X0.00025*%
%ADD620R,0.09500X0.00025*%
%ADD621R,0.09600X0.00025*%
%ADD622R,0.09675X0.00025*%
%ADD623R,0.09750X0.00025*%
%ADD624R,0.09825X0.00025*%
%ADD625R,0.10000X0.00025*%
%ADD626R,0.10225X0.00025*%
%ADD627R,0.10375X0.00025*%
%ADD628R,0.10500X0.00025*%
%ADD629R,0.08775X0.00025*%
%ADD630R,0.10550X0.00025*%
%ADD631R,0.10625X0.00025*%
%ADD632R,0.08925X0.00025*%
%ADD633R,0.10750X0.00025*%
%ADD634R,0.10950X0.00025*%
%ADD635R,0.09275X0.00025*%
%ADD636R,0.11150X0.00025*%
%ADD637R,0.09500X0.00025*%
%ADD638R,0.11225X0.00025*%
%ADD639R,0.09650X0.00025*%
%ADD640R,0.11275X0.00025*%
%ADD641R,0.11300X0.00025*%
%ADD642R,0.09825X0.00025*%
%ADD643R,0.11325X0.00025*%
%ADD644R,0.09925X0.00025*%
%ADD645R,0.11350X0.00025*%
%ADD646R,0.10100X0.00025*%
%ADD647R,0.11350X0.00025*%
%ADD648R,0.10325X0.00025*%
%ADD649R,0.11375X0.00025*%
%ADD650R,0.10550X0.00025*%
%ADD651R,0.11400X0.00025*%
%ADD652R,0.10650X0.00025*%
%ADD653R,0.11400X0.00025*%
%ADD654R,0.10750X0.00025*%
%ADD655R,0.10825X0.00025*%
%ADD656R,0.10925X0.00025*%
%ADD657R,0.11375X0.00025*%
%ADD658R,0.11075X0.00025*%
%ADD659R,0.11375X0.00025*%
%ADD660R,0.11175X0.00025*%
%ADD661R,0.11375X0.00025*%
%ADD662R,0.11175X0.00025*%
%ADD663R,0.11200X0.00025*%
%ADD664R,0.11225X0.00025*%
%ADD665R,0.11225X0.00025*%
%ADD666R,0.11325X0.00025*%
%ADD667R,0.11250X0.00025*%
%ADD668R,0.11325X0.00025*%
%ADD669R,0.11275X0.00025*%
%ADD670R,0.11300X0.00025*%
%ADD671R,0.11250X0.00025*%
%ADD672R,0.11225X0.00025*%
%ADD673R,0.11275X0.00025*%
%ADD674R,0.11200X0.00025*%
%ADD675R,0.11175X0.00025*%
%ADD676R,0.11175X0.00025*%
%ADD677R,0.11150X0.00025*%
%ADD678R,0.11125X0.00025*%
%ADD679R,0.11125X0.00025*%
%ADD680R,0.11100X0.00025*%
%ADD681R,0.11100X0.00025*%
%ADD682R,0.11075X0.00025*%
%ADD683R,0.11075X0.00025*%
%ADD684R,0.11050X0.00025*%
%ADD685R,0.11050X0.00025*%
%ADD686R,0.11075X0.00025*%
%ADD687R,0.11125X0.00025*%
%ADD688R,0.11125X0.00025*%
%ADD689R,0.11275X0.00025*%
%ADD690R,0.11325X0.00025*%
%ADD691R,0.11425X0.00025*%
%ADD692R,0.11425X0.00025*%
%ADD693R,0.11450X0.00025*%
%ADD694R,0.11475X0.00025*%
%ADD695R,0.10875X0.00025*%
%ADD696R,0.10675X0.00025*%
%ADD697R,0.11475X0.00025*%
%ADD698R,0.10425X0.00025*%
%ADD699R,0.11475X0.00025*%
%ADD700R,0.10275X0.00025*%
%ADD701R,0.11450X0.00025*%
%ADD702R,0.10200X0.00025*%
%ADD703R,0.11475X0.00025*%
%ADD704R,0.10100X0.00025*%
%ADD705R,0.10025X0.00025*%
%ADD706R,0.09850X0.00025*%
%ADD707R,0.09600X0.00025*%
%ADD708R,0.11425X0.00025*%
%ADD709R,0.09450X0.00025*%
%ADD710R,0.09325X0.00025*%
%ADD711R,0.09175X0.00025*%
%ADD712R,0.10975X0.00025*%
%ADD713R,0.10650X0.00025*%
%ADD714R,0.10425X0.00025*%
%ADD715R,0.10325X0.00025*%
%ADD716R,0.10125X0.00025*%
%ADD717R,0.09925X0.00025*%
%ADD718R,0.09825X0.00025*%
%ADD719R,0.09750X0.00025*%
%ADD720R,0.09700X0.00025*%
%ADD721R,0.09625X0.00025*%
%ADD722R,0.09475X0.00025*%
%ADD723R,0.09275X0.00025*%
%ADD724R,0.09025X0.00025*%
%ADD725R,0.08625X0.00025*%
%ADD726R,0.08825X0.00025*%
%ADD727R,0.08875X0.00025*%
%ADD728R,0.08975X0.00025*%
%ADD729R,0.09125X0.00025*%
%ADD730R,0.09325X0.00025*%
%ADD731R,0.09400X0.00025*%
%ADD732R,0.09450X0.00025*%
%ADD733R,0.09475X0.00025*%
%ADD734R,0.09525X0.00025*%
%ADD735R,0.09525X0.00025*%
%ADD736R,0.09550X0.00025*%
%ADD737R,0.09575X0.00025*%
%ADD738R,0.09700X0.00025*%
%ADD739R,0.10175X0.00025*%
%ADD740R,0.10300X0.00025*%
%ADD741R,0.10350X0.00025*%
%ADD742R,0.10500X0.00025*%
%ADD743R,0.21150X0.00025*%
%ADD744R,0.21125X0.00025*%
%ADD745R,0.21100X0.00025*%
%ADD746R,0.21100X0.00025*%
%ADD747R,0.21075X0.00025*%
%ADD748R,0.21025X0.00025*%
%ADD749R,0.21000X0.00025*%
%ADD750R,0.20975X0.00025*%
%ADD751R,0.20925X0.00025*%
%ADD752R,0.20925X0.00025*%
%ADD753R,0.20900X0.00025*%
%ADD754R,0.20875X0.00025*%
%ADD755R,0.20850X0.00025*%
%ADD756R,0.20850X0.00025*%
%ADD757R,0.20800X0.00025*%
%ADD758R,0.20800X0.00025*%
%ADD759R,0.20750X0.00025*%
%ADD760R,0.20725X0.00025*%
%ADD761R,0.20700X0.00025*%
%ADD762R,0.20650X0.00025*%
%ADD763R,0.20625X0.00025*%
%ADD764R,0.20600X0.00025*%
%ADD765R,0.20550X0.00025*%
%ADD766R,0.20550X0.00025*%
%ADD767R,0.20500X0.00025*%
%ADD768R,0.20500X0.00025*%
%ADD769R,0.20475X0.00025*%
%ADD770R,0.20450X0.00025*%
%ADD771R,0.20425X0.00025*%
%ADD772R,0.20400X0.00025*%
%ADD773R,0.20375X0.00025*%
%ADD774R,0.20325X0.00025*%
%ADD775R,0.20325X0.00025*%
%ADD776R,0.20275X0.00025*%
%ADD777R,0.20250X0.00025*%
%ADD778R,0.20225X0.00025*%
%ADD779R,0.20200X0.00025*%
%ADD780R,0.20200X0.00025*%
%ADD781R,0.20150X0.00025*%
%ADD782R,0.20150X0.00025*%
%ADD783R,0.20125X0.00025*%
%ADD784R,0.20100X0.00025*%
%ADD785R,0.20075X0.00025*%
%ADD786R,0.20025X0.00025*%
%ADD787R,0.20000X0.00025*%
%ADD788R,0.19975X0.00025*%
%ADD789R,0.19925X0.00025*%
%ADD790R,0.19900X0.00025*%
%ADD791R,0.19875X0.00025*%
%ADD792R,0.19850X0.00025*%
%ADD793R,0.19850X0.00025*%
%ADD794R,0.19800X0.00025*%
%ADD795R,0.19800X0.00025*%
%ADD796R,0.19750X0.00025*%
%ADD797R,0.19725X0.00025*%
%ADD798R,0.19675X0.00025*%
%ADD799R,0.19625X0.00025*%
%ADD800R,0.19600X0.00025*%
%ADD801R,0.19575X0.00025*%
%ADD802R,0.19550X0.00025*%
%ADD803R,0.19500X0.00025*%
%ADD804R,0.19500X0.00025*%
%ADD805R,0.19475X0.00025*%
%ADD806R,0.19475X0.00025*%
%ADD807R,0.19425X0.00025*%
%ADD808R,0.19425X0.00025*%
%ADD809R,0.19400X0.00025*%
%ADD810R,0.19400X0.00025*%
%ADD811R,0.19375X0.00025*%
%ADD812R,0.19375X0.00025*%
%ADD813R,0.19450X0.00025*%
%ADD814R,0.19525X0.00025*%
%ADD815R,0.19575X0.00025*%
%ADD816R,0.19600X0.00025*%
%ADD817R,0.19650X0.00025*%
%ADD818R,0.19650X0.00025*%
%ADD819R,0.19700X0.00025*%
%ADD820R,0.19700X0.00025*%
%ADD821R,0.19825X0.00025*%
%ADD822R,0.19925X0.00025*%
%ADD823R,0.19950X0.00025*%
%ADD824R,0.20075X0.00025*%
%ADD825R,0.20175X0.00025*%
%ADD826R,0.20225X0.00025*%
%ADD827R,0.20300X0.00025*%
%ADD828R,0.20350X0.00025*%
%ADD829R,0.20375X0.00025*%
%ADD830R,0.20475X0.00025*%
%ADD831R,0.20675X0.00025*%
%ADD832R,0.20950X0.00025*%
%ADD833R,0.20975X0.00025*%
%ADD834R,0.21000X0.00025*%
%ADD835R,0.21025X0.00025*%
%ADD836R,0.21050X0.00025*%
%ADD837R,0.21125X0.00025*%
%ADD838R,0.21175X0.00025*%
%ADD839R,0.21225X0.00025*%
%ADD840R,0.21250X0.00025*%
%ADD841R,0.21300X0.00025*%
%ADD842R,0.21325X0.00025*%
%ADD843R,0.21350X0.00025*%
%ADD844R,0.21400X0.00025*%
%ADD845R,0.21425X0.00025*%
%ADD846R,0.21475X0.00025*%
%ADD847R,0.21500X0.00025*%
%ADD848R,0.21525X0.00025*%
%ADD849R,0.21575X0.00025*%
%ADD850R,0.21600X0.00025*%
%ADD851R,0.21650X0.00025*%
%ADD852R,0.21675X0.00025*%
%ADD853R,0.21700X0.00025*%
%ADD854R,0.21725X0.00025*%
%ADD855R,0.21775X0.00025*%
%ADD856R,0.21800X0.00025*%
%ADD857R,0.21850X0.00025*%
%ADD858R,0.21875X0.00025*%
%ADD859R,0.21925X0.00025*%
%ADD860R,0.21950X0.00025*%
%ADD861R,0.22000X0.00025*%
%ADD862R,0.22000X0.00025*%
%ADD863R,0.22050X0.00025*%
%ADD864R,0.22100X0.00025*%
%ADD865R,0.22150X0.00025*%
%ADD866R,0.22150X0.00025*%
%ADD867R,0.22200X0.00025*%
%ADD868R,0.22250X0.00025*%
%ADD869R,0.22275X0.00025*%
%ADD870R,0.22325X0.00025*%
%ADD871R,0.22325X0.00025*%
%ADD872R,0.22375X0.00025*%
%ADD873R,0.22425X0.00025*%
%ADD874R,0.22450X0.00025*%
%ADD875R,0.22500X0.00025*%
%ADD876R,0.22500X0.00025*%
%ADD877R,0.22550X0.00025*%
%ADD878R,0.22600X0.00025*%
%ADD879R,0.22625X0.00025*%
%ADD880R,0.22675X0.00025*%
%ADD881R,0.22675X0.00025*%
%ADD882R,0.22725X0.00025*%
%ADD883R,0.22750X0.00025*%
%ADD884R,0.22800X0.00025*%
%ADD885R,0.22825X0.00025*%
%ADD886R,0.22875X0.00025*%
%ADD887R,0.22900X0.00025*%
%ADD888R,0.22950X0.00025*%
%ADD889R,0.22975X0.00025*%
%ADD890R,0.23000X0.00025*%
%ADD891R,0.23050X0.00025*%
%ADD892R,0.23100X0.00025*%
%ADD893R,0.23125X0.00025*%
%ADD894R,0.23175X0.00025*%
%ADD895R,0.23175X0.00025*%
%ADD896R,0.23225X0.00025*%
%ADD897R,0.23250X0.00025*%
%ADD898R,0.23300X0.00025*%
%ADD899R,0.23350X0.00025*%
%ADD900R,0.23375X0.00025*%
%ADD901R,0.23425X0.00025*%
%ADD902R,0.23450X0.00025*%
%ADD903R,0.23475X0.00025*%
%ADD904R,0.23525X0.00025*%
%ADD905R,0.23525X0.00025*%
%ADD906R,0.23575X0.00025*%
%ADD907R,0.23600X0.00025*%
%ADD908R,0.23650X0.00025*%
%ADD909R,0.23675X0.00025*%
%ADD910R,0.23700X0.00025*%
%ADD911R,0.23725X0.00025*%
%ADD912R,0.23775X0.00025*%
%ADD913R,0.23800X0.00025*%
%ADD914R,0.23800X0.00025*%
%ADD915R,0.23825X0.00025*%
%ADD916R,0.23825X0.00025*%
%ADD917R,0.23775X0.00025*%
%ADD918R,0.23750X0.00025*%
%ADD919R,0.23675X0.00025*%
%ADD920R,0.23625X0.00025*%
%ADD921R,0.23550X0.00025*%
%ADD922R,0.23500X0.00025*%
%ADD923R,0.23475X0.00025*%
%ADD924R,0.23425X0.00025*%
%ADD925R,0.23400X0.00025*%
%ADD926R,0.05775X0.00025*%
%ADD927R,0.17400X0.00025*%
%ADD928R,0.05700X0.00025*%
%ADD929R,0.17325X0.00025*%
%ADD930R,0.05625X0.00025*%
%ADD931R,0.17225X0.00025*%
%ADD932R,0.05950X0.00025*%
%ADD933R,0.11000X0.00025*%
%ADD934R,0.05875X0.00025*%
%ADD935R,0.05450X0.00025*%
%ADD936R,0.10950X0.00025*%
%ADD937R,0.05825X0.00025*%
%ADD938R,0.05425X0.00025*%
%ADD939R,0.10875X0.00025*%
%ADD940R,0.05350X0.00025*%
%ADD941R,0.10800X0.00025*%
%ADD942R,0.05725X0.00025*%
%ADD943R,0.10675X0.00025*%
%ADD944R,0.05650X0.00025*%
%ADD945R,0.05200X0.00025*%
%ADD946R,0.10525X0.00025*%
%ADD947R,0.05575X0.00025*%
%ADD948R,0.10425X0.00025*%
%ADD949R,0.05125X0.00025*%
%ADD950R,0.05075X0.00025*%
%ADD951R,0.05450X0.00025*%
%ADD952R,0.05025X0.00025*%
%ADD953R,0.10225X0.00025*%
%ADD954R,0.05375X0.00025*%
%ADD955R,0.04950X0.00025*%
%ADD956R,0.10125X0.00025*%
%ADD957R,0.05325X0.00025*%
%ADD958R,0.04875X0.00025*%
%ADD959R,0.09975X0.00025*%
%ADD960R,0.04750X0.00025*%
%ADD961R,0.09725X0.00025*%
%ADD962R,0.04700X0.00025*%
%ADD963R,0.05050X0.00025*%
%ADD964R,0.04675X0.00025*%
%ADD965R,0.05000X0.00025*%
%ADD966R,0.09525X0.00025*%
%ADD967R,0.04550X0.00025*%
%ADD968R,0.09375X0.00025*%
%ADD969R,0.04400X0.00025*%
%ADD970R,0.04725X0.00025*%
%ADD971R,0.04375X0.00025*%
%ADD972R,0.04675X0.00025*%
%ADD973R,0.04325X0.00025*%
%ADD974R,0.04625X0.00025*%
%ADD975R,0.04275X0.00025*%
%ADD976R,0.04600X0.00025*%
%ADD977R,0.04200X0.00025*%
%ADD978R,0.04125X0.00025*%
%ADD979R,0.04475X0.00025*%
%ADD980R,0.04075X0.00025*%
%ADD981R,0.04000X0.00025*%
%ADD982R,0.03950X0.00025*%
%ADD983R,0.08125X0.00025*%
%ADD984R,0.04275X0.00025*%
%ADD985R,0.03900X0.00025*%
%ADD986R,0.04225X0.00025*%
%ADD987R,0.03875X0.00025*%
%ADD988R,0.04175X0.00025*%
%ADD989R,0.03650X0.00025*%
%ADD990R,0.07400X0.00025*%
%ADD991R,0.03950X0.00025*%
%ADD992R,0.03575X0.00025*%
%ADD993R,0.07275X0.00025*%
%ADD994R,0.03550X0.00025*%
%ADD995R,0.07200X0.00025*%
%ADD996R,0.03850X0.00025*%
%ADD997R,0.03500X0.00025*%
%ADD998R,0.07100X0.00025*%
%ADD999R,0.03800X0.00025*%
%ADD1000R,0.07000X0.00025*%
%ADD1001R,0.03775X0.00025*%
%ADD1002R,0.06825X0.00025*%
%ADD1003R,0.03700X0.00025*%
%ADD1004R,0.03325X0.00025*%
%ADD1005R,0.06525X0.00025*%
%ADD1006R,0.03625X0.00025*%
%ADD1007R,0.03225X0.00025*%
%ADD1008R,0.06275X0.00025*%
%ADD1009R,0.03175X0.00025*%
%ADD1010R,0.06125X0.00025*%
%ADD1011R,0.03475X0.00025*%
%ADD1012R,0.06025X0.00025*%
%ADD1013R,0.03425X0.00025*%
%ADD1014R,0.05925X0.00025*%
%ADD1015R,0.03400X0.00025*%
%ADD1016R,0.05750X0.00025*%
%ADD1017R,0.03350X0.00025*%
%ADD1018R,0.03275X0.00025*%
%ADD1019R,0.02875X0.00025*%
%ADD1020R,0.05525X0.00025*%
%ADD1021R,0.02800X0.00025*%
%ADD1022R,0.05475X0.00025*%
%ADD1023R,0.02950X0.00025*%
%ADD1024R,0.05400X0.00025*%
%ADD1025R,0.02900X0.00025*%
%ADD1026R,0.02775X0.00025*%
%ADD1027R,0.02725X0.00025*%
%ADD1028R,0.05375X0.00025*%
%ADD1029R,0.05375X0.00025*%
%ADD1030R,0.05325X0.00025*%
%ADD1031R,0.05325X0.00025*%
%ADD1032R,0.05275X0.00025*%
%ADD1033R,0.05275X0.00025*%
%ADD1034R,0.05250X0.00025*%
%ADD1035R,0.05250X0.00025*%
%ADD1036R,0.01325X0.00025*%
%ADD1037R,0.05225X0.00025*%
%ADD1038R,0.05175X0.00025*%
%ADD1039R,0.05175X0.00025*%
%ADD1040R,0.05150X0.00025*%
%ADD1041R,0.05125X0.00025*%
%ADD1042R,0.05125X0.00025*%
%ADD1043R,0.05100X0.00025*%
%ADD1044R,0.05075X0.00025*%
%ADD1045R,0.05075X0.00025*%
%ADD1046R,0.05050X0.00025*%
%ADD1047R,0.04975X0.00025*%
%ADD1048R,0.04925X0.00025*%
%ADD1049R,0.04925X0.00025*%
%ADD1050R,0.04900X0.00025*%
%ADD1051R,0.04850X0.00025*%
%ADD1052R,0.04850X0.00025*%
%ADD1053R,0.04800X0.00025*%
%ADD1054R,0.04775X0.00025*%
%ADD1055R,0.04775X0.00025*%
%ADD1056R,0.04750X0.00025*%
%ADD1057R,0.04725X0.00025*%
%ADD1058R,0.04725X0.00025*%
%ADD1059R,0.04675X0.00025*%
%ADD1060R,0.04675X0.00025*%
%ADD1061R,0.04650X0.00025*%
%ADD1062R,0.04625X0.00025*%
%ADD1063R,0.04600X0.00025*%
%ADD1064R,0.04550X0.00025*%
%ADD1065R,0.04525X0.00025*%
%ADD1066R,0.04500X0.00025*%
%ADD1067R,0.04475X0.00025*%
%ADD1068R,0.04475X0.00025*%
%ADD1069R,0.04450X0.00025*%
%ADD1070R,0.04425X0.00025*%
%ADD1071R,0.04375X0.00025*%
%ADD1072R,0.04350X0.00025*%
%ADD1073R,0.04325X0.00025*%
%ADD1074R,0.04325X0.00025*%
%ADD1075R,0.04275X0.00025*%
%ADD1076R,0.04250X0.00025*%
%ADD1077R,0.04125X0.00025*%
%ADD1078R,0.03875X0.00025*%
%ADD1079R,0.03725X0.00025*%
%ADD1080R,0.03625X0.00025*%
%ADD1081R,0.03500X0.00025*%
%ADD1082R,0.03225X0.00025*%
D10*
X0294323Y0032900D02*
X0298994Y0032900D01*
X0294323Y0037571D01*
X0294323Y0038738D01*
X0295491Y0039906D01*
X0297826Y0039906D01*
X0298994Y0038738D01*
X0301325Y0034068D02*
X0301325Y0032900D01*
X0302493Y0032900D01*
X0302493Y0034068D01*
X0301325Y0034068D01*
X0304820Y0034068D02*
X0305988Y0032900D01*
X0308323Y0032900D01*
X0309491Y0034068D01*
X0304820Y0038738D01*
X0304820Y0034068D01*
X0309491Y0034068D02*
X0309491Y0038738D01*
X0308323Y0039906D01*
X0305988Y0039906D01*
X0304820Y0038738D01*
X0311818Y0037571D02*
X0314153Y0032900D01*
X0316489Y0037571D01*
X0325814Y0037571D02*
X0329317Y0037571D01*
X0330485Y0036403D01*
X0329317Y0035235D01*
X0326982Y0035235D01*
X0325814Y0034068D01*
X0326982Y0032900D01*
X0330485Y0032900D01*
X0332815Y0032900D02*
X0333982Y0034068D01*
X0333982Y0038738D01*
X0332815Y0037571D02*
X0335150Y0037571D01*
X0337480Y0036403D02*
X0339815Y0036403D01*
X0342143Y0036403D02*
X0342143Y0032900D01*
X0345646Y0032900D01*
X0346813Y0034068D01*
X0345646Y0035235D01*
X0342143Y0035235D01*
X0342143Y0036403D02*
X0343310Y0037571D01*
X0345646Y0037571D01*
X0349142Y0037571D02*
X0350310Y0037571D01*
X0352645Y0035235D01*
X0352645Y0032900D02*
X0352645Y0037571D01*
X0354972Y0037571D02*
X0358475Y0037571D01*
X0359643Y0036403D01*
X0359643Y0034068D01*
X0358475Y0032900D01*
X0354972Y0032900D01*
X0361973Y0032900D02*
X0363140Y0034068D01*
X0363140Y0038738D01*
X0361973Y0037571D02*
X0364308Y0037571D01*
X0366635Y0036403D02*
X0366635Y0034068D01*
X0367803Y0032900D01*
X0370138Y0032900D01*
X0371306Y0034068D01*
X0371306Y0036403D01*
X0370138Y0037571D01*
X0367803Y0037571D01*
X0366635Y0036403D01*
X0373633Y0036403D02*
X0373633Y0034068D01*
X0374801Y0032900D01*
X0378304Y0032900D01*
X0378304Y0039906D01*
X0378304Y0037571D02*
X0374801Y0037571D01*
X0373633Y0036403D01*
X0380631Y0036403D02*
X0380631Y0034068D01*
X0381799Y0032900D01*
X0384134Y0032900D01*
X0385302Y0034068D01*
X0385302Y0036403D01*
X0384134Y0037571D01*
X0381799Y0037571D01*
X0380631Y0036403D01*
X0387629Y0036403D02*
X0388797Y0035235D01*
X0392300Y0035235D01*
X0392300Y0032900D02*
X0392300Y0039906D01*
X0388797Y0039906D01*
X0387629Y0038738D01*
X0387629Y0036403D01*
X0389965Y0035235D02*
X0387629Y0032900D01*
X0338648Y0032900D02*
X0338648Y0038738D01*
X0337480Y0039906D01*
X0328600Y0246600D02*
X0316600Y0246600D01*
X0316600Y0268600D01*
X0328600Y0268600D01*
X0328600Y0246600D01*
X0376600Y0246600D02*
X0376600Y0268600D01*
X0388600Y0268600D01*
X0388600Y0246600D01*
X0376600Y0246600D01*
X0093600Y0246600D02*
X0081600Y0246600D01*
X0081600Y0268600D01*
X0093600Y0268600D01*
X0093600Y0246600D01*
X0033600Y0246600D02*
X0021600Y0246600D01*
X0021600Y0268600D01*
X0033600Y0268600D01*
X0033600Y0246600D01*
D11*
X0311064Y0030671D02*
X0311064Y0029904D01*
X0311064Y0028369D02*
X0311064Y0025300D01*
X0311831Y0025300D02*
X0310297Y0025300D01*
X0308762Y0025300D02*
X0308762Y0028369D01*
X0306460Y0028369D01*
X0305693Y0027602D01*
X0305693Y0025300D01*
X0311064Y0028369D02*
X0311831Y0028369D01*
X0313366Y0027602D02*
X0313366Y0026835D01*
X0316435Y0026835D01*
X0316435Y0027602D02*
X0316435Y0026067D01*
X0315668Y0025300D01*
X0314133Y0025300D01*
X0313366Y0027602D02*
X0314133Y0028369D01*
X0315668Y0028369D01*
X0316435Y0027602D01*
X0317970Y0028369D02*
X0319505Y0028369D01*
X0318737Y0029137D02*
X0318737Y0026067D01*
X0317970Y0025300D01*
X0321039Y0026067D02*
X0321806Y0026835D01*
X0323341Y0026835D01*
X0324108Y0027602D01*
X0323341Y0028369D01*
X0321039Y0028369D01*
X0321039Y0026067D02*
X0321806Y0025300D01*
X0324108Y0025300D01*
X0325643Y0025300D02*
X0325643Y0027602D01*
X0326410Y0028369D01*
X0328712Y0028369D01*
X0328712Y0025300D01*
X0330247Y0026835D02*
X0333316Y0026835D01*
X0333316Y0027602D02*
X0333316Y0026067D01*
X0332549Y0025300D01*
X0331014Y0025300D01*
X0330247Y0026835D02*
X0330247Y0027602D01*
X0331014Y0028369D01*
X0332549Y0028369D01*
X0333316Y0027602D01*
X0334851Y0028369D02*
X0334851Y0025300D01*
X0337153Y0025300D01*
X0337920Y0026067D01*
X0337920Y0028369D01*
X0339455Y0028369D02*
X0340222Y0028369D01*
X0341757Y0026835D01*
X0341757Y0028369D02*
X0341757Y0025300D01*
X0343291Y0026067D02*
X0343291Y0027602D01*
X0344826Y0027602D01*
X0343291Y0029137D02*
X0344059Y0029904D01*
X0345593Y0029904D01*
X0346361Y0029137D01*
X0346361Y0026067D01*
X0345593Y0025300D01*
X0344059Y0025300D01*
X0343291Y0026067D01*
X0344059Y0022404D02*
X0345593Y0022404D01*
X0346361Y0021637D01*
X0346361Y0018567D01*
X0345593Y0017800D01*
X0344059Y0017800D01*
X0343291Y0018567D01*
X0343291Y0020102D01*
X0344826Y0020102D01*
X0343291Y0021637D02*
X0344059Y0022404D01*
X0341757Y0020869D02*
X0341757Y0017800D01*
X0341757Y0019335D02*
X0340222Y0020869D01*
X0339455Y0020869D01*
X0337920Y0020869D02*
X0337153Y0020869D01*
X0337153Y0017800D01*
X0337920Y0017800D02*
X0336386Y0017800D01*
X0334851Y0018567D02*
X0334851Y0020102D01*
X0334084Y0020869D01*
X0332549Y0020869D01*
X0331782Y0020102D01*
X0331782Y0019335D01*
X0334851Y0019335D01*
X0334851Y0018567D02*
X0334084Y0017800D01*
X0332549Y0017800D01*
X0329480Y0017800D02*
X0329480Y0021637D01*
X0328712Y0022404D01*
X0328712Y0020102D02*
X0330247Y0020102D01*
X0337153Y0022404D02*
X0337153Y0023171D01*
X0352499Y0022404D02*
X0352499Y0017800D01*
X0354801Y0017800D01*
X0355569Y0018567D01*
X0355569Y0020102D01*
X0354801Y0020869D01*
X0352499Y0020869D01*
X0352499Y0025300D02*
X0354801Y0025300D01*
X0355569Y0026067D01*
X0354801Y0026835D01*
X0352499Y0026835D01*
X0352499Y0027602D02*
X0352499Y0025300D01*
X0352499Y0027602D02*
X0353267Y0028369D01*
X0354801Y0028369D01*
X0357103Y0028369D02*
X0357103Y0025300D01*
X0359405Y0025300D01*
X0360173Y0026067D01*
X0360173Y0028369D01*
X0361707Y0027602D02*
X0361707Y0025300D01*
X0361707Y0027602D02*
X0362474Y0028369D01*
X0364009Y0028369D01*
X0364776Y0027602D01*
X0366311Y0028369D02*
X0368613Y0028369D01*
X0369380Y0027602D01*
X0368613Y0026835D01*
X0367078Y0026835D01*
X0366311Y0026067D01*
X0367078Y0025300D01*
X0369380Y0025300D01*
X0370915Y0026067D02*
X0370915Y0027602D01*
X0371682Y0028369D01*
X0373217Y0028369D01*
X0373984Y0027602D01*
X0373984Y0026067D01*
X0373217Y0025300D01*
X0371682Y0025300D01*
X0370915Y0026067D01*
X0368613Y0022404D02*
X0369380Y0021637D01*
X0369380Y0018567D01*
X0368613Y0017800D01*
X0367078Y0017800D01*
X0366311Y0018567D01*
X0366311Y0020102D01*
X0367846Y0020102D01*
X0366311Y0021637D02*
X0367078Y0022404D01*
X0368613Y0022404D01*
X0364776Y0020102D02*
X0364776Y0018567D01*
X0364009Y0017800D01*
X0362474Y0017800D01*
X0361707Y0018567D01*
X0361707Y0020102D01*
X0362474Y0020869D01*
X0364009Y0020869D01*
X0364776Y0020102D01*
X0360173Y0020102D02*
X0360173Y0018567D01*
X0359405Y0017800D01*
X0357871Y0017800D01*
X0357103Y0018567D01*
X0357103Y0020102D01*
X0357871Y0020869D01*
X0359405Y0020869D01*
X0360173Y0020102D01*
X0364776Y0025300D02*
X0364776Y0029904D01*
X0375519Y0029904D02*
X0377054Y0029904D01*
X0376286Y0029904D02*
X0376286Y0026067D01*
X0377054Y0025300D01*
X0377821Y0025300D01*
X0378588Y0026067D01*
X0384727Y0025300D02*
X0387029Y0025300D01*
X0387796Y0026067D01*
X0387796Y0028369D01*
X0389331Y0027602D02*
X0390098Y0028369D01*
X0392400Y0028369D01*
X0392400Y0029904D02*
X0392400Y0025300D01*
X0390098Y0025300D01*
X0389331Y0026067D01*
X0389331Y0027602D01*
X0384727Y0028369D02*
X0384727Y0024533D01*
X0385494Y0023765D01*
X0386261Y0023765D01*
X0385494Y0020869D02*
X0384727Y0020102D01*
X0384727Y0017800D01*
X0387029Y0017800D01*
X0387796Y0018567D01*
X0387029Y0019335D01*
X0384727Y0019335D01*
X0385494Y0020869D02*
X0387029Y0020869D01*
X0389331Y0021637D02*
X0390098Y0022404D01*
X0391633Y0022404D01*
X0392400Y0021637D01*
X0392400Y0018567D01*
X0391633Y0017800D01*
X0390098Y0017800D01*
X0389331Y0018567D01*
X0383192Y0017800D02*
X0383192Y0020869D01*
X0382425Y0020869D01*
X0381658Y0020102D01*
X0380890Y0020869D01*
X0380123Y0020102D01*
X0380123Y0017800D01*
X0381658Y0017800D02*
X0381658Y0020102D01*
X0378588Y0020869D02*
X0376286Y0020869D01*
X0375519Y0020102D01*
X0375519Y0018567D01*
X0376286Y0017800D01*
X0378588Y0017800D01*
X0378588Y0016265D02*
X0378588Y0020869D01*
D12*
X0217836Y0120080D02*
X0197364Y0120080D01*
X0197364Y0155120D01*
X0217836Y0155120D01*
X0217836Y0120080D01*
D13*
X0213998Y0151576D03*
D14*
X0321716Y0268624D02*
X0321749Y0268624D01*
X0321766Y0268640D01*
X0321794Y0268640D02*
X0321811Y0268640D01*
X0321811Y0268624D01*
X0321794Y0268624D01*
X0321794Y0268640D01*
X0321794Y0268624D02*
X0321827Y0268590D01*
X0321853Y0268624D02*
X0321919Y0268624D01*
X0321853Y0268690D01*
X0321853Y0268707D01*
X0321869Y0268724D01*
X0321903Y0268724D01*
X0321919Y0268707D01*
X0321945Y0268674D02*
X0322012Y0268674D01*
X0322037Y0268674D02*
X0322037Y0268640D01*
X0322054Y0268624D01*
X0322087Y0268624D01*
X0322104Y0268640D01*
X0322129Y0268640D02*
X0322129Y0268707D01*
X0322146Y0268724D01*
X0322196Y0268724D01*
X0322196Y0268624D01*
X0322146Y0268624D01*
X0322129Y0268640D01*
X0322104Y0268674D02*
X0322070Y0268690D01*
X0322054Y0268690D01*
X0322037Y0268674D01*
X0322037Y0268724D02*
X0322104Y0268724D01*
X0322104Y0268674D01*
X0322221Y0268724D02*
X0322221Y0268624D01*
X0322288Y0268624D02*
X0322288Y0268724D01*
X0322254Y0268690D01*
X0322221Y0268724D01*
X0322313Y0268707D02*
X0322330Y0268724D01*
X0322363Y0268724D01*
X0322380Y0268707D01*
X0322380Y0268690D01*
X0322363Y0268674D01*
X0322330Y0268674D01*
X0322313Y0268657D01*
X0322313Y0268640D01*
X0322330Y0268624D01*
X0322363Y0268624D01*
X0322380Y0268640D01*
X0322405Y0268640D02*
X0322405Y0268707D01*
X0322422Y0268724D01*
X0322472Y0268724D01*
X0322472Y0268624D01*
X0322422Y0268624D01*
X0322405Y0268640D01*
X0322497Y0268624D02*
X0322497Y0268690D01*
X0322531Y0268724D01*
X0322564Y0268690D01*
X0322564Y0268624D01*
X0322564Y0268674D02*
X0322497Y0268674D01*
X0322589Y0268674D02*
X0322606Y0268657D01*
X0322656Y0268657D01*
X0322656Y0268624D02*
X0322656Y0268724D01*
X0322606Y0268724D01*
X0322589Y0268707D01*
X0322589Y0268674D01*
X0322681Y0268724D02*
X0322748Y0268724D01*
X0322748Y0268624D01*
X0322681Y0268624D01*
X0322715Y0268674D02*
X0322748Y0268674D01*
X0322774Y0268674D02*
X0322790Y0268657D01*
X0322840Y0268657D01*
X0322807Y0268657D02*
X0322774Y0268624D01*
X0322774Y0268674D02*
X0322774Y0268707D01*
X0322790Y0268724D01*
X0322840Y0268724D01*
X0322840Y0268624D01*
X0322868Y0268624D02*
X0322902Y0268624D01*
X0322885Y0268624D02*
X0322885Y0268724D01*
X0322902Y0268724D02*
X0322868Y0268724D01*
X0322927Y0268724D02*
X0322927Y0268624D01*
X0322960Y0268657D01*
X0322994Y0268624D01*
X0322994Y0268724D01*
X0321766Y0268724D02*
X0321766Y0268674D01*
X0321733Y0268690D01*
X0321716Y0268690D01*
X0321699Y0268674D01*
X0321699Y0268640D01*
X0321716Y0268624D01*
X0321699Y0268724D02*
X0321766Y0268724D01*
X0381699Y0268724D02*
X0381766Y0268724D01*
X0381766Y0268674D01*
X0381733Y0268690D01*
X0381716Y0268690D01*
X0381699Y0268674D01*
X0381699Y0268640D01*
X0381716Y0268624D01*
X0381749Y0268624D01*
X0381766Y0268640D01*
X0381794Y0268640D02*
X0381811Y0268640D01*
X0381811Y0268624D01*
X0381794Y0268624D01*
X0381794Y0268640D01*
X0381794Y0268624D02*
X0381827Y0268590D01*
X0381853Y0268624D02*
X0381919Y0268624D01*
X0381853Y0268690D01*
X0381853Y0268707D01*
X0381869Y0268724D01*
X0381903Y0268724D01*
X0381919Y0268707D01*
X0381945Y0268674D02*
X0382012Y0268674D01*
X0382037Y0268674D02*
X0382037Y0268640D01*
X0382054Y0268624D01*
X0382087Y0268624D01*
X0382104Y0268640D01*
X0382129Y0268640D02*
X0382129Y0268707D01*
X0382146Y0268724D01*
X0382196Y0268724D01*
X0382196Y0268624D01*
X0382146Y0268624D01*
X0382129Y0268640D01*
X0382104Y0268674D02*
X0382070Y0268690D01*
X0382054Y0268690D01*
X0382037Y0268674D01*
X0382037Y0268724D02*
X0382104Y0268724D01*
X0382104Y0268674D01*
X0382221Y0268724D02*
X0382221Y0268624D01*
X0382288Y0268624D02*
X0382288Y0268724D01*
X0382254Y0268690D01*
X0382221Y0268724D01*
X0382313Y0268707D02*
X0382330Y0268724D01*
X0382363Y0268724D01*
X0382380Y0268707D01*
X0382380Y0268690D01*
X0382363Y0268674D01*
X0382330Y0268674D01*
X0382313Y0268657D01*
X0382313Y0268640D01*
X0382330Y0268624D01*
X0382363Y0268624D01*
X0382380Y0268640D01*
X0382405Y0268640D02*
X0382405Y0268707D01*
X0382422Y0268724D01*
X0382472Y0268724D01*
X0382472Y0268624D01*
X0382422Y0268624D01*
X0382405Y0268640D01*
X0382497Y0268624D02*
X0382497Y0268690D01*
X0382531Y0268724D01*
X0382564Y0268690D01*
X0382564Y0268624D01*
X0382564Y0268674D02*
X0382497Y0268674D01*
X0382589Y0268674D02*
X0382606Y0268657D01*
X0382656Y0268657D01*
X0382656Y0268624D02*
X0382656Y0268724D01*
X0382606Y0268724D01*
X0382589Y0268707D01*
X0382589Y0268674D01*
X0382681Y0268724D02*
X0382748Y0268724D01*
X0382748Y0268624D01*
X0382681Y0268624D01*
X0382715Y0268674D02*
X0382748Y0268674D01*
X0382774Y0268674D02*
X0382790Y0268657D01*
X0382840Y0268657D01*
X0382807Y0268657D02*
X0382774Y0268624D01*
X0382774Y0268674D02*
X0382774Y0268707D01*
X0382790Y0268724D01*
X0382840Y0268724D01*
X0382840Y0268624D01*
X0382868Y0268624D02*
X0382902Y0268624D01*
X0382885Y0268624D02*
X0382885Y0268724D01*
X0382902Y0268724D02*
X0382868Y0268724D01*
X0382927Y0268724D02*
X0382927Y0268624D01*
X0382960Y0268657D01*
X0382994Y0268624D01*
X0382994Y0268724D01*
X0087994Y0268724D02*
X0087994Y0268624D01*
X0087960Y0268657D01*
X0087927Y0268624D01*
X0087927Y0268724D01*
X0087902Y0268724D02*
X0087868Y0268724D01*
X0087885Y0268724D02*
X0087885Y0268624D01*
X0087902Y0268624D02*
X0087868Y0268624D01*
X0087840Y0268624D02*
X0087840Y0268724D01*
X0087790Y0268724D01*
X0087774Y0268707D01*
X0087774Y0268674D01*
X0087790Y0268657D01*
X0087840Y0268657D01*
X0087807Y0268657D02*
X0087774Y0268624D01*
X0087748Y0268624D02*
X0087681Y0268624D01*
X0087656Y0268624D02*
X0087656Y0268724D01*
X0087606Y0268724D01*
X0087589Y0268707D01*
X0087589Y0268674D01*
X0087606Y0268657D01*
X0087656Y0268657D01*
X0087715Y0268674D02*
X0087748Y0268674D01*
X0087748Y0268724D02*
X0087748Y0268624D01*
X0087748Y0268724D02*
X0087681Y0268724D01*
X0087564Y0268690D02*
X0087531Y0268724D01*
X0087497Y0268690D01*
X0087497Y0268624D01*
X0087472Y0268624D02*
X0087422Y0268624D01*
X0087405Y0268640D01*
X0087405Y0268707D01*
X0087422Y0268724D01*
X0087472Y0268724D01*
X0087472Y0268624D01*
X0087497Y0268674D02*
X0087564Y0268674D01*
X0087564Y0268690D02*
X0087564Y0268624D01*
X0087380Y0268640D02*
X0087363Y0268624D01*
X0087330Y0268624D01*
X0087313Y0268640D01*
X0087313Y0268657D01*
X0087330Y0268674D01*
X0087363Y0268674D01*
X0087380Y0268690D01*
X0087380Y0268707D01*
X0087363Y0268724D01*
X0087330Y0268724D01*
X0087313Y0268707D01*
X0087288Y0268724D02*
X0087254Y0268690D01*
X0087221Y0268724D01*
X0087221Y0268624D01*
X0087196Y0268624D02*
X0087146Y0268624D01*
X0087129Y0268640D01*
X0087129Y0268707D01*
X0087146Y0268724D01*
X0087196Y0268724D01*
X0087196Y0268624D01*
X0087288Y0268624D02*
X0087288Y0268724D01*
X0087104Y0268724D02*
X0087104Y0268674D01*
X0087070Y0268690D01*
X0087054Y0268690D01*
X0087037Y0268674D01*
X0087037Y0268640D01*
X0087054Y0268624D01*
X0087087Y0268624D01*
X0087104Y0268640D01*
X0087104Y0268724D02*
X0087037Y0268724D01*
X0087012Y0268674D02*
X0086945Y0268674D01*
X0086919Y0268707D02*
X0086903Y0268724D01*
X0086869Y0268724D01*
X0086853Y0268707D01*
X0086853Y0268690D01*
X0086919Y0268624D01*
X0086853Y0268624D01*
X0086811Y0268624D02*
X0086794Y0268624D01*
X0086794Y0268640D01*
X0086811Y0268640D01*
X0086811Y0268624D01*
X0086794Y0268624D02*
X0086827Y0268590D01*
X0086766Y0268640D02*
X0086749Y0268624D01*
X0086716Y0268624D01*
X0086699Y0268640D01*
X0086699Y0268674D01*
X0086716Y0268690D01*
X0086733Y0268690D01*
X0086766Y0268674D01*
X0086766Y0268724D01*
X0086699Y0268724D01*
X0027994Y0268724D02*
X0027994Y0268624D01*
X0027960Y0268657D01*
X0027927Y0268624D01*
X0027927Y0268724D01*
X0027902Y0268724D02*
X0027868Y0268724D01*
X0027885Y0268724D02*
X0027885Y0268624D01*
X0027902Y0268624D02*
X0027868Y0268624D01*
X0027840Y0268624D02*
X0027840Y0268724D01*
X0027790Y0268724D01*
X0027774Y0268707D01*
X0027774Y0268674D01*
X0027790Y0268657D01*
X0027840Y0268657D01*
X0027807Y0268657D02*
X0027774Y0268624D01*
X0027748Y0268624D02*
X0027681Y0268624D01*
X0027656Y0268624D02*
X0027656Y0268724D01*
X0027606Y0268724D01*
X0027589Y0268707D01*
X0027589Y0268674D01*
X0027606Y0268657D01*
X0027656Y0268657D01*
X0027715Y0268674D02*
X0027748Y0268674D01*
X0027748Y0268724D02*
X0027748Y0268624D01*
X0027748Y0268724D02*
X0027681Y0268724D01*
X0027564Y0268690D02*
X0027531Y0268724D01*
X0027497Y0268690D01*
X0027497Y0268624D01*
X0027472Y0268624D02*
X0027422Y0268624D01*
X0027405Y0268640D01*
X0027405Y0268707D01*
X0027422Y0268724D01*
X0027472Y0268724D01*
X0027472Y0268624D01*
X0027497Y0268674D02*
X0027564Y0268674D01*
X0027564Y0268690D02*
X0027564Y0268624D01*
X0027380Y0268640D02*
X0027363Y0268624D01*
X0027330Y0268624D01*
X0027313Y0268640D01*
X0027313Y0268657D01*
X0027330Y0268674D01*
X0027363Y0268674D01*
X0027380Y0268690D01*
X0027380Y0268707D01*
X0027363Y0268724D01*
X0027330Y0268724D01*
X0027313Y0268707D01*
X0027288Y0268724D02*
X0027254Y0268690D01*
X0027221Y0268724D01*
X0027221Y0268624D01*
X0027196Y0268624D02*
X0027146Y0268624D01*
X0027129Y0268640D01*
X0027129Y0268707D01*
X0027146Y0268724D01*
X0027196Y0268724D01*
X0027196Y0268624D01*
X0027288Y0268624D02*
X0027288Y0268724D01*
X0027104Y0268724D02*
X0027104Y0268674D01*
X0027070Y0268690D01*
X0027054Y0268690D01*
X0027037Y0268674D01*
X0027037Y0268640D01*
X0027054Y0268624D01*
X0027087Y0268624D01*
X0027104Y0268640D01*
X0027104Y0268724D02*
X0027037Y0268724D01*
X0027012Y0268674D02*
X0026945Y0268674D01*
X0026919Y0268707D02*
X0026903Y0268724D01*
X0026869Y0268724D01*
X0026853Y0268707D01*
X0026853Y0268690D01*
X0026919Y0268624D01*
X0026853Y0268624D01*
X0026811Y0268624D02*
X0026794Y0268624D01*
X0026794Y0268640D01*
X0026811Y0268640D01*
X0026811Y0268624D01*
X0026794Y0268624D02*
X0026827Y0268590D01*
X0026766Y0268640D02*
X0026749Y0268624D01*
X0026716Y0268624D01*
X0026699Y0268640D01*
X0026699Y0268674D01*
X0026716Y0268690D01*
X0026733Y0268690D01*
X0026766Y0268674D01*
X0026766Y0268724D01*
X0026699Y0268724D01*
X0064789Y0012508D02*
X0064781Y0012500D01*
X0064781Y0012483D01*
X0064789Y0012475D01*
X0064814Y0012475D01*
X0064827Y0012475D02*
X0064827Y0012500D01*
X0064835Y0012508D01*
X0064843Y0012500D01*
X0064843Y0012475D01*
X0064860Y0012475D02*
X0064860Y0012508D01*
X0064852Y0012508D01*
X0064843Y0012500D01*
X0064872Y0012500D02*
X0064881Y0012508D01*
X0064905Y0012508D01*
X0064905Y0012524D02*
X0064905Y0012475D01*
X0064881Y0012475D01*
X0064872Y0012483D01*
X0064872Y0012500D01*
X0064920Y0012483D02*
X0064920Y0012475D01*
X0064928Y0012475D01*
X0064928Y0012483D01*
X0064920Y0012483D01*
X0064941Y0012483D02*
X0064941Y0012500D01*
X0064949Y0012508D01*
X0064966Y0012508D01*
X0064974Y0012500D01*
X0064974Y0012483D01*
X0064966Y0012475D01*
X0064949Y0012475D01*
X0064941Y0012483D01*
X0064987Y0012475D02*
X0065011Y0012475D01*
X0065020Y0012483D01*
X0065020Y0012500D01*
X0065011Y0012508D01*
X0064987Y0012508D01*
X0064987Y0012467D01*
X0064995Y0012458D01*
X0065003Y0012458D01*
X0065032Y0012483D02*
X0065032Y0012500D01*
X0065041Y0012508D01*
X0065057Y0012508D01*
X0065065Y0012500D01*
X0065065Y0012483D01*
X0065057Y0012475D01*
X0065041Y0012475D01*
X0065032Y0012483D01*
X0065078Y0012475D02*
X0065111Y0012475D01*
X0065111Y0012524D01*
X0065124Y0012524D02*
X0065124Y0012475D01*
X0065140Y0012491D01*
X0065157Y0012475D01*
X0065157Y0012524D01*
X0065169Y0012524D02*
X0065169Y0012475D01*
X0065169Y0012500D02*
X0065202Y0012500D01*
X0065215Y0012491D02*
X0065215Y0012483D01*
X0065223Y0012475D01*
X0065240Y0012475D01*
X0065248Y0012483D01*
X0065261Y0012483D02*
X0065261Y0012516D01*
X0065269Y0012524D01*
X0065285Y0012524D01*
X0065294Y0012516D01*
X0065294Y0012483D01*
X0065285Y0012475D01*
X0065269Y0012475D01*
X0065261Y0012483D01*
X0065240Y0012500D02*
X0065223Y0012500D01*
X0065215Y0012491D01*
X0065202Y0012475D02*
X0065202Y0012524D01*
X0065215Y0012516D02*
X0065223Y0012524D01*
X0065240Y0012524D01*
X0065248Y0012516D01*
X0065248Y0012508D01*
X0065240Y0012500D01*
X0065306Y0012524D02*
X0065339Y0012475D01*
X0065352Y0012491D02*
X0065385Y0012491D01*
X0065385Y0012483D02*
X0065385Y0012500D01*
X0065377Y0012508D01*
X0065360Y0012508D01*
X0065352Y0012500D01*
X0065352Y0012491D01*
X0065360Y0012475D02*
X0065377Y0012475D01*
X0065385Y0012483D01*
X0065399Y0012475D02*
X0065415Y0012475D01*
X0065407Y0012475D02*
X0065407Y0012524D01*
X0065415Y0012524D01*
X0065428Y0012508D02*
X0065453Y0012508D01*
X0065461Y0012500D01*
X0065461Y0012483D01*
X0065453Y0012475D01*
X0065428Y0012475D01*
X0065428Y0012467D02*
X0065428Y0012508D01*
X0065428Y0012467D02*
X0065436Y0012458D01*
X0065445Y0012458D01*
X0065474Y0012475D02*
X0065499Y0012475D01*
X0065507Y0012483D01*
X0065499Y0012491D01*
X0065474Y0012491D01*
X0065474Y0012500D02*
X0065474Y0012475D01*
X0065474Y0012500D02*
X0065482Y0012508D01*
X0065499Y0012508D01*
X0065519Y0012524D02*
X0065552Y0012524D01*
X0065552Y0012475D01*
X0065519Y0012475D01*
X0065536Y0012500D02*
X0065552Y0012500D01*
X0065565Y0012524D02*
X0065598Y0012475D01*
X0065611Y0012475D02*
X0065636Y0012475D01*
X0065644Y0012483D01*
X0065636Y0012491D01*
X0065611Y0012491D01*
X0065611Y0012500D02*
X0065611Y0012475D01*
X0065611Y0012500D02*
X0065619Y0012508D01*
X0065636Y0012508D01*
X0065666Y0012508D02*
X0065666Y0012475D01*
X0065674Y0012475D02*
X0065658Y0012475D01*
X0065687Y0012475D02*
X0065712Y0012475D01*
X0065720Y0012483D01*
X0065720Y0012500D01*
X0065712Y0012508D01*
X0065687Y0012508D01*
X0065674Y0012508D02*
X0065666Y0012508D01*
X0065666Y0012524D02*
X0065666Y0012533D01*
X0065687Y0012524D02*
X0065687Y0012475D01*
X0065733Y0012491D02*
X0065766Y0012491D01*
X0065766Y0012483D02*
X0065766Y0012500D01*
X0065757Y0012508D01*
X0065741Y0012508D01*
X0065733Y0012500D01*
X0065733Y0012491D01*
X0065741Y0012475D02*
X0065757Y0012475D01*
X0065766Y0012483D01*
X0065778Y0012475D02*
X0065778Y0012524D01*
X0065795Y0012508D01*
X0065811Y0012524D01*
X0065811Y0012475D01*
X0065857Y0012475D02*
X0065824Y0012524D01*
X0065870Y0012508D02*
X0065878Y0012508D01*
X0065895Y0012491D01*
X0065908Y0012491D02*
X0065941Y0012491D01*
X0065941Y0012483D02*
X0065941Y0012500D01*
X0065932Y0012508D01*
X0065916Y0012508D01*
X0065908Y0012500D01*
X0065908Y0012491D01*
X0065916Y0012475D02*
X0065932Y0012475D01*
X0065941Y0012483D01*
X0065953Y0012475D02*
X0065978Y0012475D01*
X0065986Y0012483D01*
X0065986Y0012500D01*
X0065978Y0012508D01*
X0065953Y0012508D01*
X0065953Y0012524D02*
X0065953Y0012475D01*
X0065999Y0012475D02*
X0065999Y0012500D01*
X0066007Y0012508D01*
X0066032Y0012508D01*
X0066032Y0012475D01*
X0066045Y0012483D02*
X0066045Y0012500D01*
X0066053Y0012508D01*
X0066069Y0012508D01*
X0066078Y0012500D01*
X0066078Y0012483D01*
X0066069Y0012475D01*
X0066053Y0012475D01*
X0066045Y0012483D01*
X0066090Y0012475D02*
X0066090Y0012524D01*
X0066123Y0012524D02*
X0066123Y0012475D01*
X0066107Y0012491D01*
X0066090Y0012475D01*
X0066137Y0012475D02*
X0066146Y0012483D01*
X0066146Y0012516D01*
X0066154Y0012508D02*
X0066137Y0012508D01*
X0066176Y0012508D02*
X0066176Y0012475D01*
X0066184Y0012475D02*
X0066168Y0012475D01*
X0066197Y0012483D02*
X0066205Y0012475D01*
X0066230Y0012475D01*
X0066230Y0012524D01*
X0066205Y0012524D01*
X0066197Y0012516D01*
X0066197Y0012508D01*
X0066205Y0012500D01*
X0066230Y0012500D01*
X0066205Y0012500D02*
X0066197Y0012491D01*
X0066197Y0012483D01*
X0066184Y0012508D02*
X0066176Y0012508D01*
X0066176Y0012524D02*
X0066176Y0012533D01*
X0066242Y0012524D02*
X0066242Y0012475D01*
X0066276Y0012524D01*
X0066276Y0012475D01*
X0066321Y0012475D02*
X0066288Y0012524D01*
X0066334Y0012508D02*
X0066359Y0012508D01*
X0066367Y0012500D01*
X0066359Y0012491D01*
X0066342Y0012491D01*
X0066334Y0012483D01*
X0066342Y0012475D01*
X0066367Y0012475D01*
X0066381Y0012475D02*
X0066389Y0012483D01*
X0066389Y0012516D01*
X0066397Y0012508D02*
X0066381Y0012508D01*
X0066410Y0012500D02*
X0066410Y0012475D01*
X0066410Y0012500D02*
X0066418Y0012508D01*
X0066443Y0012508D01*
X0066443Y0012475D01*
X0066456Y0012491D02*
X0066489Y0012491D01*
X0066489Y0012483D02*
X0066489Y0012500D01*
X0066480Y0012508D01*
X0066464Y0012508D01*
X0066456Y0012500D01*
X0066456Y0012491D01*
X0066464Y0012475D02*
X0066480Y0012475D01*
X0066489Y0012483D01*
X0066501Y0012475D02*
X0066501Y0012500D01*
X0066510Y0012508D01*
X0066518Y0012500D01*
X0066518Y0012475D01*
X0066534Y0012475D02*
X0066534Y0012508D01*
X0066526Y0012508D01*
X0066518Y0012500D01*
X0066547Y0012508D02*
X0066547Y0012475D01*
X0066572Y0012475D01*
X0066580Y0012483D01*
X0066580Y0012508D01*
X0066593Y0012508D02*
X0066617Y0012508D01*
X0066626Y0012500D01*
X0066626Y0012483D01*
X0066617Y0012475D01*
X0066593Y0012475D01*
X0066638Y0012483D02*
X0066638Y0012500D01*
X0066647Y0012508D01*
X0066663Y0012508D01*
X0066671Y0012500D01*
X0066671Y0012483D01*
X0066663Y0012475D01*
X0066647Y0012475D01*
X0066638Y0012483D01*
X0066684Y0012483D02*
X0066684Y0012516D01*
X0066692Y0012524D01*
X0066717Y0012524D01*
X0066717Y0012475D01*
X0066692Y0012475D01*
X0066684Y0012483D01*
X0066730Y0012524D02*
X0066763Y0012475D01*
X0066775Y0012475D02*
X0066800Y0012475D01*
X0066808Y0012483D01*
X0066808Y0012508D01*
X0066821Y0012500D02*
X0066821Y0012491D01*
X0066854Y0012491D01*
X0066854Y0012483D02*
X0066854Y0012500D01*
X0066846Y0012508D01*
X0066829Y0012508D01*
X0066821Y0012500D01*
X0066829Y0012475D02*
X0066846Y0012475D01*
X0066854Y0012483D01*
X0066868Y0012475D02*
X0066885Y0012475D01*
X0066876Y0012475D02*
X0066876Y0012524D01*
X0066885Y0012524D01*
X0066897Y0012524D02*
X0066897Y0012475D01*
X0066922Y0012475D01*
X0066930Y0012483D01*
X0066930Y0012500D01*
X0066922Y0012508D01*
X0066897Y0012508D01*
X0066943Y0012500D02*
X0066943Y0012475D01*
X0066968Y0012475D01*
X0066976Y0012483D01*
X0066968Y0012491D01*
X0066943Y0012491D01*
X0066943Y0012500D02*
X0066951Y0012508D01*
X0066968Y0012508D01*
X0066988Y0012500D02*
X0066988Y0012475D01*
X0066988Y0012500D02*
X0066997Y0012508D01*
X0067013Y0012508D01*
X0067022Y0012500D01*
X0067034Y0012500D02*
X0067034Y0012491D01*
X0067067Y0012491D01*
X0067067Y0012483D02*
X0067067Y0012500D01*
X0067059Y0012508D01*
X0067042Y0012508D01*
X0067034Y0012500D01*
X0067042Y0012475D02*
X0067059Y0012475D01*
X0067067Y0012483D01*
X0067080Y0012475D02*
X0067105Y0012475D01*
X0067113Y0012483D01*
X0067113Y0012500D01*
X0067105Y0012508D01*
X0067080Y0012508D01*
X0067080Y0012467D01*
X0067088Y0012458D01*
X0067096Y0012458D01*
X0067151Y0012475D02*
X0067151Y0012508D01*
X0067163Y0012500D02*
X0067172Y0012508D01*
X0067188Y0012508D01*
X0067197Y0012500D01*
X0067197Y0012483D01*
X0067188Y0012475D01*
X0067172Y0012475D01*
X0067163Y0012483D01*
X0067163Y0012500D01*
X0067151Y0012491D02*
X0067134Y0012508D01*
X0067126Y0012508D01*
X0067209Y0012500D02*
X0067209Y0012491D01*
X0067242Y0012491D01*
X0067242Y0012483D02*
X0067242Y0012500D01*
X0067234Y0012508D01*
X0067217Y0012508D01*
X0067209Y0012500D01*
X0067217Y0012475D02*
X0067234Y0012475D01*
X0067242Y0012483D01*
X0067255Y0012475D02*
X0067280Y0012475D01*
X0067288Y0012483D01*
X0067288Y0012500D01*
X0067280Y0012508D01*
X0067255Y0012508D01*
X0067255Y0012467D01*
X0067263Y0012458D01*
X0067271Y0012458D01*
X0067334Y0012475D02*
X0067301Y0012524D01*
X0067346Y0012508D02*
X0067371Y0012508D01*
X0067379Y0012500D01*
X0067371Y0012491D01*
X0067354Y0012491D01*
X0067346Y0012483D01*
X0067354Y0012475D01*
X0067379Y0012475D01*
X0067393Y0012508D02*
X0067401Y0012508D01*
X0067417Y0012491D01*
X0067430Y0012491D02*
X0067463Y0012491D01*
X0067463Y0012483D02*
X0067463Y0012500D01*
X0067455Y0012508D01*
X0067438Y0012508D01*
X0067430Y0012500D01*
X0067430Y0012491D01*
X0067438Y0012475D02*
X0067455Y0012475D01*
X0067463Y0012483D01*
X0067476Y0012483D02*
X0067484Y0012491D01*
X0067500Y0012491D01*
X0067509Y0012500D01*
X0067500Y0012508D01*
X0067476Y0012508D01*
X0067476Y0012483D02*
X0067484Y0012475D01*
X0067509Y0012475D01*
X0067521Y0012483D02*
X0067521Y0012524D01*
X0067554Y0012524D02*
X0067554Y0012483D01*
X0067546Y0012475D01*
X0067530Y0012475D01*
X0067521Y0012483D01*
X0067567Y0012524D02*
X0067600Y0012475D01*
X0067417Y0012475D02*
X0067417Y0012508D01*
X0067022Y0012524D02*
X0067022Y0012475D01*
X0066792Y0012458D02*
X0066784Y0012458D01*
X0066775Y0012467D01*
X0066775Y0012508D01*
X0065895Y0012475D02*
X0065895Y0012508D01*
X0064814Y0012508D02*
X0064789Y0012508D01*
X0064814Y0012508D02*
X0064814Y0012458D01*
D15*
X0061213Y0019375D03*
X0038187Y0030025D03*
X0030587Y0024575D03*
X0020187Y0022225D03*
X0051687Y0052675D03*
D16*
X0038188Y0030050D03*
X0032862Y0028850D03*
X0034488Y0025950D03*
X0031962Y0024550D03*
X0030588Y0024550D03*
X0024962Y0024650D03*
X0021438Y0024650D03*
X0042788Y0024650D03*
X0061212Y0019400D03*
D17*
X0061213Y0019425D03*
X0054963Y0022475D03*
X0028437Y0021275D03*
X0020213Y0022175D03*
X0033463Y0052775D03*
D18*
X0038162Y0030100D03*
X0020238Y0022150D03*
X0061188Y0019450D03*
D19*
X0061175Y0019475D03*
X0047375Y0025875D03*
X0038225Y0023275D03*
X0033475Y0052725D03*
D20*
X0033487Y0052700D03*
X0032863Y0028950D03*
X0030713Y0024400D03*
X0029637Y0023250D03*
X0027513Y0020950D03*
X0027513Y0020900D03*
X0026063Y0020900D03*
X0020313Y0022100D03*
X0040337Y0020900D03*
X0041813Y0020850D03*
X0045337Y0020950D03*
X0045337Y0021000D03*
X0045337Y0021050D03*
X0047463Y0020900D03*
X0047413Y0025800D03*
X0046637Y0030000D03*
X0055037Y0022400D03*
X0061137Y0019500D03*
D21*
X0061087Y0019525D03*
X0055087Y0022325D03*
X0053587Y0020925D03*
X0047413Y0023575D03*
X0047413Y0023625D03*
X0047413Y0024525D03*
X0045413Y0023675D03*
X0045387Y0023625D03*
X0043813Y0023625D03*
X0043863Y0021875D03*
X0043863Y0021625D03*
X0041763Y0021625D03*
X0041763Y0021675D03*
X0041763Y0021725D03*
X0041763Y0021775D03*
X0041763Y0021825D03*
X0041763Y0021875D03*
X0041763Y0021925D03*
X0041763Y0021975D03*
X0041763Y0022025D03*
X0041763Y0022075D03*
X0041763Y0022125D03*
X0041763Y0022175D03*
X0041763Y0022225D03*
X0041763Y0022275D03*
X0041763Y0022325D03*
X0041763Y0022375D03*
X0041763Y0022425D03*
X0041763Y0022475D03*
X0041763Y0023375D03*
X0041763Y0023425D03*
X0041763Y0023475D03*
X0041787Y0023525D03*
X0041787Y0023575D03*
X0040287Y0023525D03*
X0040287Y0023475D03*
X0040287Y0023425D03*
X0038263Y0023625D03*
X0038237Y0023575D03*
X0036763Y0023275D03*
X0036763Y0023225D03*
X0036763Y0023175D03*
X0036763Y0023125D03*
X0036763Y0023075D03*
X0036763Y0023025D03*
X0036763Y0022975D03*
X0036763Y0022925D03*
X0036763Y0022875D03*
X0036763Y0022825D03*
X0036763Y0022775D03*
X0036763Y0022725D03*
X0036763Y0022675D03*
X0036763Y0022625D03*
X0036763Y0022575D03*
X0036763Y0022525D03*
X0036763Y0022475D03*
X0036763Y0022425D03*
X0036763Y0022375D03*
X0036763Y0022325D03*
X0036763Y0022275D03*
X0036763Y0022225D03*
X0036763Y0022175D03*
X0036763Y0022125D03*
X0036763Y0022075D03*
X0036763Y0022025D03*
X0034687Y0021675D03*
X0034663Y0021725D03*
X0034637Y0021775D03*
X0034637Y0021825D03*
X0034637Y0021875D03*
X0034637Y0021925D03*
X0034637Y0022075D03*
X0034637Y0022275D03*
X0034637Y0022625D03*
X0034637Y0022875D03*
X0034637Y0022925D03*
X0034637Y0023375D03*
X0034637Y0023425D03*
X0034637Y0023475D03*
X0034637Y0023525D03*
X0034637Y0023575D03*
X0034637Y0024575D03*
X0034637Y0024625D03*
X0034637Y0024675D03*
X0034637Y0024725D03*
X0034637Y0024875D03*
X0034637Y0025025D03*
X0034637Y0025075D03*
X0034637Y0025175D03*
X0034637Y0025275D03*
X0034637Y0025375D03*
X0034637Y0025425D03*
X0034637Y0025575D03*
X0034637Y0025625D03*
X0034637Y0025675D03*
X0032863Y0028975D03*
X0029587Y0023525D03*
X0029587Y0023475D03*
X0027563Y0023675D03*
X0027537Y0023625D03*
X0027537Y0023275D03*
X0027537Y0022625D03*
X0025963Y0023675D03*
X0023963Y0023625D03*
X0023937Y0023525D03*
X0023937Y0023475D03*
X0023937Y0023425D03*
X0022463Y0023425D03*
X0022463Y0023475D03*
X0022463Y0023375D03*
X0022463Y0023325D03*
X0022463Y0023275D03*
X0022463Y0023225D03*
X0022463Y0023175D03*
X0022463Y0023125D03*
X0022463Y0023075D03*
X0022463Y0023025D03*
X0022463Y0022975D03*
X0022463Y0022925D03*
X0022463Y0022875D03*
X0022437Y0023575D03*
X0022437Y0023625D03*
X0022463Y0021925D03*
X0022463Y0021875D03*
X0022463Y0021825D03*
X0022437Y0021725D03*
X0020363Y0023375D03*
X0020413Y0023625D03*
X0030763Y0021625D03*
X0030763Y0021575D03*
X0032137Y0021725D03*
X0032137Y0021925D03*
X0032137Y0022175D03*
X0032137Y0022225D03*
X0032137Y0022425D03*
X0032137Y0022475D03*
X0032137Y0022525D03*
X0033463Y0021575D03*
X0033463Y0021525D03*
X0041763Y0021525D03*
X0041763Y0021575D03*
X0041763Y0021475D03*
X0041763Y0021425D03*
X0041763Y0021375D03*
X0041763Y0021325D03*
X0041763Y0021275D03*
X0041763Y0021225D03*
X0041763Y0021175D03*
X0041763Y0021125D03*
X0041763Y0021075D03*
X0041763Y0021025D03*
X0041763Y0020975D03*
X0051687Y0052575D03*
D22*
X0051688Y0052550D03*
X0033488Y0052650D03*
X0036612Y0023800D03*
X0038288Y0023750D03*
X0038312Y0023800D03*
X0040212Y0023750D03*
X0041788Y0023300D03*
X0041862Y0023750D03*
X0041788Y0022550D03*
X0043812Y0021500D03*
X0045438Y0023750D03*
X0045462Y0023800D03*
X0047388Y0023700D03*
X0036638Y0021600D03*
X0036612Y0021550D03*
X0034762Y0021550D03*
X0033438Y0021400D03*
X0033412Y0021350D03*
X0032112Y0021550D03*
X0030788Y0021450D03*
X0030788Y0021400D03*
X0029588Y0021550D03*
X0029562Y0021500D03*
X0029588Y0021950D03*
X0029462Y0023800D03*
X0027612Y0023800D03*
X0025938Y0023750D03*
X0024062Y0023800D03*
X0024012Y0023750D03*
X0022338Y0023800D03*
X0020462Y0023750D03*
X0020438Y0023700D03*
X0020462Y0021550D03*
X0020488Y0021500D03*
X0022388Y0021600D03*
X0022412Y0021650D03*
X0034662Y0023650D03*
X0061062Y0019550D03*
D23*
X0061050Y0019575D03*
X0059950Y0020775D03*
X0053550Y0020975D03*
X0056200Y0024875D03*
X0043800Y0021475D03*
X0041800Y0023275D03*
X0040150Y0023825D03*
X0038300Y0023775D03*
X0036600Y0023825D03*
X0034800Y0021475D03*
X0033400Y0021325D03*
X0030800Y0021375D03*
X0029550Y0021475D03*
X0022300Y0021475D03*
D24*
X0022287Y0021450D03*
X0022413Y0022750D03*
X0022263Y0023900D03*
X0024137Y0023900D03*
X0027587Y0023200D03*
X0027663Y0023850D03*
X0029537Y0022000D03*
X0029537Y0021450D03*
X0029513Y0021400D03*
X0029463Y0021350D03*
X0032113Y0021450D03*
X0032813Y0020700D03*
X0034813Y0021450D03*
X0036563Y0021450D03*
X0036563Y0023850D03*
X0038363Y0023850D03*
X0040137Y0023850D03*
X0041813Y0023250D03*
X0041937Y0023850D03*
X0041813Y0022600D03*
X0043763Y0022050D03*
X0043713Y0023850D03*
X0043663Y0023900D03*
X0045487Y0023850D03*
X0047363Y0023750D03*
X0055137Y0022200D03*
X0055137Y0022150D03*
X0055137Y0022100D03*
X0057263Y0023200D03*
X0057263Y0023250D03*
X0057263Y0023300D03*
X0057263Y0023350D03*
X0057263Y0023400D03*
X0061037Y0019600D03*
X0020587Y0021400D03*
D25*
X0027675Y0023875D03*
X0029375Y0023925D03*
X0029525Y0022025D03*
X0032125Y0021425D03*
X0034825Y0021425D03*
X0038375Y0023875D03*
X0038425Y0023925D03*
X0041825Y0023225D03*
X0042825Y0024625D03*
X0043725Y0021325D03*
X0052425Y0024875D03*
X0061025Y0019625D03*
X0063725Y0024875D03*
D26*
X0061025Y0019650D03*
X0053525Y0021000D03*
X0045525Y0023900D03*
X0043625Y0023950D03*
X0041975Y0023900D03*
X0032875Y0029000D03*
X0029475Y0022100D03*
X0025875Y0023850D03*
X0022225Y0023950D03*
X0020425Y0023300D03*
X0020625Y0021350D03*
D27*
X0022388Y0022125D03*
X0020538Y0023875D03*
X0024188Y0023975D03*
X0024988Y0024625D03*
X0025762Y0023975D03*
X0025812Y0023925D03*
X0027712Y0023925D03*
X0027612Y0023175D03*
X0029338Y0023975D03*
X0029488Y0022075D03*
X0029438Y0021325D03*
X0034862Y0021375D03*
X0036538Y0021425D03*
X0036512Y0023925D03*
X0035688Y0024625D03*
X0034712Y0023775D03*
X0038462Y0023975D03*
X0040088Y0023925D03*
X0041988Y0023925D03*
X0045538Y0023925D03*
X0045588Y0023975D03*
X0047338Y0023825D03*
X0053488Y0023625D03*
X0055162Y0022025D03*
X0053512Y0021025D03*
X0057238Y0023525D03*
X0058888Y0023525D03*
X0058888Y0023475D03*
X0058888Y0023425D03*
X0058888Y0023375D03*
X0058888Y0023325D03*
X0058888Y0023275D03*
X0058888Y0023225D03*
X0058888Y0023175D03*
X0058888Y0023125D03*
X0058888Y0023075D03*
X0058888Y0023025D03*
X0058888Y0022975D03*
X0058888Y0022925D03*
X0058888Y0022875D03*
X0058888Y0022825D03*
X0058888Y0022775D03*
X0058888Y0022725D03*
X0058888Y0022675D03*
X0058888Y0022625D03*
X0058888Y0022575D03*
X0058888Y0022525D03*
X0058888Y0022475D03*
X0058888Y0022425D03*
X0058888Y0022375D03*
X0058888Y0022325D03*
X0058888Y0022275D03*
X0058888Y0022225D03*
X0058888Y0022175D03*
X0058888Y0022125D03*
X0061012Y0022125D03*
X0061012Y0022175D03*
X0061012Y0022225D03*
X0061012Y0022275D03*
X0061012Y0022325D03*
X0061012Y0022375D03*
X0061012Y0022425D03*
X0061012Y0022475D03*
X0061012Y0022525D03*
X0061012Y0022575D03*
X0061012Y0022625D03*
X0061012Y0022675D03*
X0061012Y0022725D03*
X0061012Y0022775D03*
X0061012Y0022825D03*
X0061012Y0022875D03*
X0061012Y0022925D03*
X0061012Y0022975D03*
X0061012Y0023025D03*
X0061012Y0023075D03*
X0061012Y0023125D03*
X0061012Y0023175D03*
X0061012Y0023225D03*
X0061012Y0023275D03*
X0061012Y0023325D03*
X0061012Y0023375D03*
X0061012Y0023425D03*
X0061012Y0023475D03*
X0061012Y0023525D03*
X0061012Y0023575D03*
X0061012Y0022075D03*
X0061012Y0020725D03*
X0061012Y0020675D03*
X0061012Y0020625D03*
X0061012Y0020575D03*
X0061012Y0020525D03*
X0061012Y0020475D03*
X0061012Y0020425D03*
X0061012Y0020375D03*
X0061012Y0020325D03*
X0061012Y0020275D03*
X0061012Y0020225D03*
X0061012Y0020175D03*
X0061012Y0020125D03*
X0061012Y0020075D03*
X0061012Y0020025D03*
X0061012Y0019975D03*
X0061012Y0019925D03*
X0061012Y0019875D03*
X0061012Y0019825D03*
X0061012Y0019775D03*
X0061012Y0019725D03*
X0061012Y0019675D03*
X0064762Y0022025D03*
X0064788Y0022075D03*
X0064788Y0022125D03*
X0064788Y0022175D03*
X0064788Y0022225D03*
X0064788Y0022275D03*
X0064788Y0022325D03*
X0064788Y0022375D03*
X0064788Y0022425D03*
X0064788Y0022475D03*
X0064788Y0022525D03*
X0064788Y0022575D03*
X0064788Y0022625D03*
X0064788Y0022675D03*
X0064788Y0022725D03*
X0064788Y0022775D03*
X0064788Y0022825D03*
X0064788Y0022875D03*
X0064788Y0022925D03*
X0064788Y0022975D03*
X0064788Y0023025D03*
X0064788Y0023075D03*
X0064788Y0023125D03*
X0064788Y0023175D03*
X0064788Y0023225D03*
X0064788Y0023275D03*
X0064788Y0023325D03*
X0064788Y0023375D03*
X0064788Y0023425D03*
X0064788Y0023475D03*
X0064788Y0023525D03*
X0064788Y0023575D03*
X0064762Y0023625D03*
X0038038Y0030225D03*
X0033488Y0052625D03*
D28*
X0034712Y0023800D03*
X0036538Y0023900D03*
X0040062Y0023950D03*
X0041838Y0023200D03*
X0042012Y0023950D03*
X0043562Y0024000D03*
X0045562Y0023950D03*
X0053512Y0021050D03*
X0055162Y0022000D03*
X0057238Y0023100D03*
X0057238Y0023550D03*
X0058888Y0023500D03*
X0058888Y0023450D03*
X0058888Y0023400D03*
X0058888Y0023350D03*
X0058888Y0023300D03*
X0058888Y0023250D03*
X0058888Y0023200D03*
X0058888Y0023150D03*
X0058888Y0023100D03*
X0058888Y0023050D03*
X0058888Y0023000D03*
X0058888Y0022950D03*
X0058888Y0022900D03*
X0058888Y0022850D03*
X0058888Y0022800D03*
X0058888Y0022750D03*
X0058888Y0022700D03*
X0058888Y0022650D03*
X0058888Y0022600D03*
X0058888Y0022550D03*
X0058888Y0022500D03*
X0058888Y0022450D03*
X0058888Y0022400D03*
X0058888Y0022350D03*
X0058888Y0022300D03*
X0058888Y0022250D03*
X0058888Y0022200D03*
X0058888Y0022150D03*
X0058888Y0022100D03*
X0061012Y0022100D03*
X0061012Y0022150D03*
X0061012Y0022200D03*
X0061012Y0022250D03*
X0061012Y0022300D03*
X0061012Y0022350D03*
X0061012Y0022400D03*
X0061012Y0022450D03*
X0061012Y0022500D03*
X0061012Y0022550D03*
X0061012Y0022600D03*
X0061012Y0022650D03*
X0061012Y0022700D03*
X0061012Y0022750D03*
X0061012Y0022800D03*
X0061012Y0022850D03*
X0061012Y0022900D03*
X0061012Y0022950D03*
X0061012Y0023000D03*
X0061012Y0023050D03*
X0061012Y0023100D03*
X0061012Y0023150D03*
X0061012Y0023200D03*
X0061012Y0023250D03*
X0061012Y0023300D03*
X0061012Y0023350D03*
X0061012Y0023400D03*
X0061012Y0023450D03*
X0061012Y0023500D03*
X0061012Y0023550D03*
X0061012Y0023600D03*
X0061012Y0022050D03*
X0061012Y0020700D03*
X0061012Y0020650D03*
X0061012Y0020600D03*
X0061012Y0020550D03*
X0061012Y0020500D03*
X0061012Y0020450D03*
X0061012Y0020400D03*
X0061012Y0020350D03*
X0061012Y0020300D03*
X0061012Y0020250D03*
X0061012Y0020200D03*
X0061012Y0020150D03*
X0061012Y0020100D03*
X0061012Y0020050D03*
X0061012Y0020000D03*
X0061012Y0019950D03*
X0061012Y0019900D03*
X0061012Y0019850D03*
X0061012Y0019800D03*
X0061012Y0019750D03*
X0061012Y0019700D03*
X0064762Y0022050D03*
X0064788Y0022100D03*
X0064788Y0022150D03*
X0064788Y0022200D03*
X0064788Y0022250D03*
X0064788Y0022300D03*
X0064788Y0022350D03*
X0064788Y0022400D03*
X0064788Y0022450D03*
X0064788Y0022500D03*
X0064788Y0022550D03*
X0064788Y0022600D03*
X0064788Y0022650D03*
X0064788Y0022700D03*
X0064788Y0022750D03*
X0064788Y0022800D03*
X0064788Y0022850D03*
X0064788Y0022900D03*
X0064788Y0022950D03*
X0064788Y0023000D03*
X0064788Y0023050D03*
X0064788Y0023100D03*
X0064788Y0023150D03*
X0064788Y0023200D03*
X0064788Y0023250D03*
X0064788Y0023300D03*
X0064788Y0023350D03*
X0064788Y0023400D03*
X0064788Y0023450D03*
X0064788Y0023500D03*
X0064788Y0023550D03*
X0064762Y0023600D03*
X0033362Y0021300D03*
X0029362Y0023950D03*
X0027688Y0023900D03*
X0025838Y0023900D03*
X0025788Y0023950D03*
X0024162Y0023950D03*
X0022238Y0021400D03*
X0020512Y0023850D03*
X0020588Y0023950D03*
D29*
X0043125Y0020675D03*
D30*
X0043000Y0020675D03*
X0035800Y0020675D03*
X0035700Y0020675D03*
D31*
X0032937Y0020675D03*
X0031287Y0020675D03*
X0029813Y0023075D03*
X0034463Y0025975D03*
X0042887Y0020675D03*
X0047637Y0020725D03*
X0047287Y0025975D03*
X0053687Y0020775D03*
X0021613Y0020675D03*
D32*
X0021275Y0020675D03*
X0028775Y0020675D03*
X0035575Y0020675D03*
X0042775Y0020675D03*
X0032875Y0028825D03*
D33*
X0032725Y0020675D03*
X0021475Y0020675D03*
D34*
X0028588Y0020675D03*
X0028688Y0020675D03*
D35*
X0021400Y0020675D03*
X0054900Y0022525D03*
D36*
X0051850Y0028550D03*
X0045500Y0020700D03*
X0040500Y0020700D03*
D37*
X0042950Y0020700D03*
X0047300Y0023900D03*
X0055200Y0023800D03*
X0055200Y0023750D03*
X0055200Y0023550D03*
X0056200Y0024850D03*
X0057200Y0023750D03*
X0057200Y0022150D03*
X0058950Y0021850D03*
X0058950Y0023800D03*
X0059950Y0024850D03*
X0060950Y0023800D03*
X0064700Y0023850D03*
X0064700Y0021850D03*
X0035700Y0020700D03*
X0029400Y0021300D03*
X0027650Y0023150D03*
X0027800Y0024000D03*
D38*
X0029425Y0023850D03*
X0030825Y0021350D03*
X0031425Y0020700D03*
X0032125Y0021500D03*
X0034775Y0021500D03*
X0034675Y0023700D03*
X0034675Y0024500D03*
X0040175Y0023800D03*
X0043775Y0021400D03*
X0055125Y0022250D03*
X0025925Y0023800D03*
X0022425Y0022050D03*
X0022325Y0021500D03*
X0020475Y0023800D03*
D39*
X0027725Y0023950D03*
X0029425Y0022150D03*
X0028675Y0020700D03*
X0030875Y0021300D03*
X0032125Y0021400D03*
X0036525Y0021400D03*
X0047325Y0023850D03*
X0051375Y0023650D03*
X0053475Y0023650D03*
X0053475Y0023700D03*
X0055175Y0021950D03*
X0057225Y0022000D03*
X0057225Y0022050D03*
X0057225Y0023600D03*
X0051375Y0021050D03*
X0062675Y0022000D03*
X0062675Y0022050D03*
X0062675Y0022100D03*
X0062675Y0022150D03*
X0062675Y0022200D03*
X0062675Y0022250D03*
X0062675Y0022300D03*
X0062675Y0022350D03*
X0062675Y0022400D03*
X0062675Y0022450D03*
X0062675Y0022500D03*
X0062675Y0022550D03*
X0062675Y0022600D03*
X0062675Y0022650D03*
X0062675Y0022700D03*
X0062675Y0022750D03*
X0062675Y0022800D03*
X0062675Y0022850D03*
X0062675Y0022900D03*
X0062675Y0022950D03*
X0062675Y0023000D03*
X0062675Y0023050D03*
X0062675Y0023100D03*
X0062675Y0023150D03*
X0062675Y0023200D03*
X0062675Y0023250D03*
X0062675Y0023300D03*
X0062675Y0023350D03*
X0062675Y0023400D03*
X0062675Y0023450D03*
X0062675Y0023500D03*
X0062675Y0023550D03*
X0062675Y0023600D03*
X0051675Y0052500D03*
D40*
X0031937Y0024600D03*
X0028387Y0021300D03*
X0027663Y0020700D03*
X0042663Y0021300D03*
D41*
X0026212Y0020700D03*
D42*
X0024213Y0024000D03*
X0022363Y0022150D03*
X0021387Y0020700D03*
X0020687Y0021300D03*
X0020663Y0024000D03*
X0029287Y0024000D03*
X0034737Y0023850D03*
X0036437Y0024000D03*
X0038513Y0024000D03*
X0040013Y0024000D03*
X0043687Y0022150D03*
X0043687Y0021300D03*
X0045637Y0024000D03*
X0051363Y0023600D03*
X0051363Y0023550D03*
X0051363Y0023500D03*
X0051363Y0023450D03*
X0051363Y0023400D03*
X0051363Y0023350D03*
X0051363Y0023300D03*
X0051363Y0023250D03*
X0051363Y0023200D03*
X0051363Y0023150D03*
X0051363Y0023100D03*
X0051363Y0023050D03*
X0051363Y0023000D03*
X0051363Y0022950D03*
X0051363Y0022900D03*
X0051363Y0022850D03*
X0051363Y0022800D03*
X0051363Y0022750D03*
X0051363Y0022700D03*
X0051363Y0022650D03*
X0051363Y0022600D03*
X0051363Y0022550D03*
X0051363Y0022500D03*
X0051363Y0022450D03*
X0051363Y0022400D03*
X0051363Y0022350D03*
X0051363Y0022300D03*
X0051363Y0022250D03*
X0051363Y0022200D03*
X0051363Y0022150D03*
X0051363Y0022100D03*
X0051363Y0022050D03*
X0051363Y0022000D03*
X0051363Y0021950D03*
X0051363Y0021900D03*
X0051363Y0021850D03*
X0051363Y0021800D03*
X0051363Y0021750D03*
X0051363Y0021700D03*
X0051363Y0021650D03*
X0051363Y0021600D03*
X0051363Y0021550D03*
X0051363Y0021500D03*
X0051363Y0021450D03*
X0051363Y0021400D03*
X0051363Y0021350D03*
X0051363Y0021300D03*
X0051363Y0021250D03*
X0051363Y0021200D03*
X0051363Y0021150D03*
X0051363Y0021100D03*
X0051387Y0023700D03*
X0051387Y0023750D03*
X0053413Y0023800D03*
X0053437Y0023750D03*
X0055187Y0023700D03*
X0055187Y0023650D03*
X0055187Y0023600D03*
X0055187Y0021900D03*
X0055187Y0021850D03*
X0056187Y0020800D03*
X0057187Y0021850D03*
X0057213Y0021900D03*
X0057213Y0021950D03*
X0057213Y0022100D03*
X0057213Y0023650D03*
X0057213Y0023700D03*
X0057187Y0023800D03*
X0058913Y0023700D03*
X0058913Y0021950D03*
X0060987Y0021900D03*
X0060987Y0020800D03*
X0062713Y0021850D03*
X0062713Y0021900D03*
X0062687Y0021950D03*
X0062687Y0023650D03*
X0062687Y0023700D03*
X0062713Y0023750D03*
X0062713Y0023800D03*
X0060987Y0023750D03*
X0064713Y0023800D03*
X0064737Y0023750D03*
X0064737Y0021950D03*
X0064713Y0021900D03*
X0038037Y0030250D03*
X0036487Y0021350D03*
X0034887Y0021350D03*
X0033487Y0052600D03*
D43*
X0027575Y0020825D03*
X0041875Y0020825D03*
X0063725Y0020725D03*
D44*
X0059950Y0020725D03*
X0051550Y0020825D03*
X0047350Y0025925D03*
X0042700Y0021275D03*
D45*
X0034550Y0025875D03*
X0024000Y0023225D03*
X0052400Y0024925D03*
X0056200Y0020725D03*
D46*
X0045488Y0020725D03*
X0041962Y0020725D03*
X0040488Y0020725D03*
X0027662Y0020725D03*
X0026212Y0020725D03*
D47*
X0027700Y0023125D03*
X0029150Y0024075D03*
X0035700Y0020725D03*
X0042950Y0020725D03*
X0047250Y0023975D03*
X0057100Y0023975D03*
X0057100Y0021675D03*
X0062800Y0023975D03*
X0021400Y0020725D03*
X0033500Y0052525D03*
D48*
X0046713Y0030125D03*
X0047313Y0023875D03*
X0051363Y0023625D03*
X0051363Y0023575D03*
X0051363Y0023525D03*
X0051363Y0023475D03*
X0051363Y0023425D03*
X0051363Y0023375D03*
X0051363Y0023325D03*
X0051363Y0023275D03*
X0051363Y0023225D03*
X0051363Y0023175D03*
X0051363Y0023125D03*
X0051363Y0023075D03*
X0051363Y0023025D03*
X0051363Y0022975D03*
X0051363Y0022925D03*
X0051363Y0022875D03*
X0051363Y0022825D03*
X0051363Y0022775D03*
X0051363Y0022725D03*
X0051363Y0022675D03*
X0051363Y0022625D03*
X0051363Y0022575D03*
X0051363Y0022525D03*
X0051363Y0022475D03*
X0051363Y0022425D03*
X0051363Y0022375D03*
X0051363Y0022325D03*
X0051363Y0022275D03*
X0051363Y0022225D03*
X0051363Y0022175D03*
X0051363Y0022125D03*
X0051363Y0022075D03*
X0051363Y0022025D03*
X0051363Y0021975D03*
X0051363Y0021925D03*
X0051363Y0021875D03*
X0051363Y0021825D03*
X0051363Y0021775D03*
X0051363Y0021725D03*
X0051363Y0021675D03*
X0051363Y0021625D03*
X0051363Y0021575D03*
X0051363Y0021525D03*
X0051363Y0021475D03*
X0051363Y0021425D03*
X0051363Y0021375D03*
X0051363Y0021325D03*
X0051363Y0021275D03*
X0051363Y0021225D03*
X0051363Y0021175D03*
X0051363Y0021125D03*
X0051363Y0021075D03*
X0051387Y0023725D03*
X0055187Y0023675D03*
X0055187Y0023625D03*
X0055187Y0021875D03*
X0057213Y0021925D03*
X0057213Y0021975D03*
X0057213Y0022125D03*
X0057213Y0023675D03*
X0057213Y0023725D03*
X0058913Y0023725D03*
X0058937Y0023775D03*
X0058913Y0021925D03*
X0058937Y0021875D03*
X0060987Y0021925D03*
X0062687Y0021925D03*
X0062687Y0021975D03*
X0062713Y0021875D03*
X0062687Y0023675D03*
X0062687Y0023725D03*
X0062713Y0023775D03*
X0060987Y0023725D03*
X0064713Y0023775D03*
X0064713Y0023825D03*
X0064737Y0023725D03*
X0064737Y0021975D03*
X0064713Y0021925D03*
X0064713Y0021875D03*
X0041863Y0023175D03*
X0034913Y0021325D03*
X0032813Y0020725D03*
X0032137Y0021375D03*
X0031437Y0020725D03*
D49*
X0028687Y0020725D03*
X0024263Y0024025D03*
X0020713Y0024025D03*
X0020737Y0021275D03*
X0039963Y0024025D03*
X0042113Y0024025D03*
X0043637Y0021275D03*
X0055287Y0021675D03*
X0057137Y0021725D03*
X0057137Y0023925D03*
X0055263Y0023925D03*
X0055237Y0023875D03*
X0060863Y0023975D03*
X0062763Y0023925D03*
X0064637Y0023975D03*
X0064637Y0021725D03*
X0062787Y0021725D03*
X0062763Y0021775D03*
X0060937Y0021775D03*
D50*
X0063725Y0020750D03*
X0045325Y0021100D03*
X0045325Y0021150D03*
X0045325Y0021200D03*
X0045325Y0021250D03*
X0045325Y0021300D03*
X0045325Y0021350D03*
X0045325Y0021400D03*
X0045325Y0021450D03*
X0045325Y0021500D03*
X0045325Y0021550D03*
X0045325Y0021600D03*
X0045325Y0021650D03*
X0045325Y0021700D03*
X0045325Y0021750D03*
X0045325Y0021800D03*
X0045325Y0021850D03*
X0045325Y0021900D03*
X0045325Y0021950D03*
X0045325Y0022000D03*
X0045325Y0022050D03*
X0045325Y0022100D03*
X0045325Y0022150D03*
X0045325Y0022200D03*
X0045325Y0022250D03*
X0045325Y0022300D03*
X0045325Y0022350D03*
X0045325Y0022400D03*
X0045325Y0022450D03*
X0045325Y0022500D03*
X0045325Y0022550D03*
X0045325Y0022600D03*
X0045325Y0022650D03*
X0045325Y0022700D03*
X0045325Y0022750D03*
X0045325Y0022800D03*
X0045325Y0022850D03*
X0045325Y0022900D03*
X0045325Y0022950D03*
X0045325Y0023000D03*
X0045325Y0023050D03*
X0045325Y0023100D03*
X0045325Y0023150D03*
X0045325Y0023200D03*
X0045325Y0023250D03*
X0045325Y0023300D03*
X0043875Y0023450D03*
X0030725Y0023450D03*
X0030725Y0023500D03*
X0030725Y0023550D03*
X0030725Y0023600D03*
X0030725Y0023650D03*
X0030725Y0023700D03*
X0030725Y0023750D03*
X0030725Y0023800D03*
X0030725Y0023850D03*
X0030725Y0023900D03*
X0030725Y0023950D03*
X0030725Y0024000D03*
X0030725Y0024050D03*
X0030725Y0024100D03*
X0030725Y0024150D03*
X0030725Y0024200D03*
X0030725Y0024250D03*
X0030725Y0024300D03*
X0030725Y0024350D03*
X0030725Y0023400D03*
X0030725Y0023350D03*
X0030725Y0023300D03*
X0030725Y0023250D03*
X0030725Y0023200D03*
X0030725Y0023150D03*
X0030725Y0023100D03*
X0030725Y0023050D03*
X0030725Y0023000D03*
X0030725Y0022950D03*
X0030725Y0022900D03*
X0030725Y0022850D03*
X0030725Y0022800D03*
X0030725Y0022750D03*
X0030725Y0022700D03*
X0030725Y0022650D03*
X0030725Y0022600D03*
X0030725Y0022550D03*
X0030725Y0022500D03*
X0030725Y0022450D03*
X0030725Y0022400D03*
X0030725Y0022350D03*
X0030725Y0022300D03*
X0030725Y0022250D03*
X0030725Y0022200D03*
X0030725Y0022150D03*
X0030725Y0022100D03*
X0030725Y0022050D03*
X0030725Y0022000D03*
X0030725Y0021950D03*
X0030725Y0021900D03*
X0030725Y0021850D03*
X0030725Y0021800D03*
X0030725Y0021750D03*
X0029625Y0023300D03*
X0026025Y0023500D03*
X0020325Y0022050D03*
D51*
X0020550Y0023900D03*
X0022200Y0021350D03*
X0034850Y0021400D03*
X0036500Y0023950D03*
X0051850Y0028750D03*
X0053500Y0023600D03*
X0053500Y0023550D03*
X0053500Y0023500D03*
X0053500Y0023450D03*
X0053500Y0023400D03*
X0053500Y0023350D03*
X0053500Y0023300D03*
X0053500Y0023250D03*
X0053500Y0023200D03*
X0053500Y0023150D03*
X0053500Y0023100D03*
X0053500Y0023050D03*
X0053500Y0023000D03*
X0053500Y0022950D03*
X0053500Y0022900D03*
X0053500Y0022850D03*
X0053500Y0022800D03*
X0053500Y0022750D03*
X0053500Y0022700D03*
X0053500Y0022650D03*
X0053500Y0022600D03*
X0053500Y0022550D03*
X0053500Y0022500D03*
X0053500Y0022450D03*
X0053500Y0022400D03*
X0053500Y0022350D03*
X0053500Y0022300D03*
X0053500Y0022250D03*
X0053500Y0022200D03*
X0053500Y0022150D03*
X0053500Y0022100D03*
X0053500Y0022050D03*
X0053500Y0022000D03*
X0053500Y0021950D03*
X0053500Y0021900D03*
X0053500Y0021850D03*
X0053500Y0021800D03*
X0053500Y0021750D03*
X0053500Y0021700D03*
X0053500Y0021650D03*
X0053500Y0021600D03*
X0053500Y0021550D03*
X0053500Y0021500D03*
X0053500Y0021450D03*
X0053500Y0021400D03*
X0053500Y0021350D03*
X0053500Y0021300D03*
X0053500Y0021250D03*
X0053500Y0021200D03*
X0053500Y0021150D03*
X0053500Y0021100D03*
X0058900Y0022000D03*
X0058900Y0022050D03*
X0058900Y0023550D03*
X0058900Y0023600D03*
X0058900Y0023650D03*
X0061000Y0023650D03*
X0061000Y0023700D03*
X0061000Y0022000D03*
X0061000Y0021950D03*
X0061000Y0020750D03*
X0064750Y0022000D03*
X0064750Y0023650D03*
X0064750Y0023700D03*
D52*
X0059950Y0020750D03*
X0056200Y0020750D03*
X0047450Y0020950D03*
X0047450Y0021000D03*
X0043900Y0023250D03*
X0043900Y0023300D03*
X0038200Y0023350D03*
X0038200Y0023400D03*
X0033500Y0024350D03*
X0033500Y0024400D03*
X0032100Y0024400D03*
X0027500Y0023450D03*
X0027500Y0023400D03*
X0027500Y0022500D03*
X0027500Y0022450D03*
X0027500Y0022400D03*
X0027500Y0022350D03*
X0027500Y0022300D03*
X0027500Y0022250D03*
X0027500Y0022200D03*
X0027500Y0022150D03*
X0027500Y0022100D03*
X0027500Y0022050D03*
X0027500Y0022000D03*
X0027500Y0021950D03*
X0027500Y0021900D03*
X0027500Y0021850D03*
X0027500Y0021800D03*
X0027500Y0021750D03*
X0027500Y0021700D03*
X0027500Y0021650D03*
X0027500Y0021600D03*
X0027500Y0021550D03*
X0027500Y0021500D03*
X0027500Y0021450D03*
X0027500Y0021400D03*
X0027500Y0021350D03*
X0027500Y0021300D03*
X0027500Y0021250D03*
X0027500Y0021200D03*
X0027500Y0021150D03*
X0027500Y0021100D03*
X0027500Y0021050D03*
X0027500Y0021000D03*
X0026050Y0021000D03*
X0026050Y0021050D03*
X0026050Y0021100D03*
X0026050Y0021150D03*
X0026050Y0021200D03*
X0026050Y0021250D03*
X0026050Y0021300D03*
X0026050Y0021350D03*
X0026050Y0021400D03*
X0026050Y0021450D03*
X0026050Y0021500D03*
X0026050Y0021550D03*
X0026050Y0021600D03*
X0026050Y0021650D03*
X0026050Y0021700D03*
X0026050Y0021750D03*
X0026050Y0021800D03*
X0026050Y0021850D03*
X0026050Y0021900D03*
X0026050Y0021950D03*
X0026050Y0022000D03*
X0026050Y0022050D03*
X0026050Y0022100D03*
X0026050Y0022150D03*
X0026050Y0022200D03*
X0026050Y0022250D03*
X0026050Y0022300D03*
X0026050Y0022350D03*
X0026050Y0022400D03*
X0026050Y0022450D03*
X0026050Y0022500D03*
X0026050Y0022550D03*
X0026050Y0022600D03*
X0026050Y0022650D03*
X0026050Y0022700D03*
X0026050Y0022750D03*
X0026050Y0022800D03*
X0026050Y0022850D03*
X0026050Y0022900D03*
X0026050Y0022950D03*
X0026050Y0023000D03*
X0026050Y0023050D03*
X0026050Y0023100D03*
X0026050Y0023150D03*
X0026050Y0023200D03*
X0026050Y0023250D03*
X0026050Y0023300D03*
X0026050Y0023350D03*
X0026050Y0023400D03*
X0023950Y0023300D03*
X0026050Y0020950D03*
D53*
X0047625Y0020750D03*
D54*
X0045487Y0020750D03*
X0041937Y0020750D03*
X0040487Y0020750D03*
X0051587Y0020800D03*
X0054913Y0022500D03*
X0024087Y0023150D03*
D55*
X0020800Y0021250D03*
X0042150Y0024050D03*
X0042950Y0020750D03*
X0051600Y0024050D03*
X0055300Y0024000D03*
X0064600Y0021650D03*
D56*
X0064563Y0024050D03*
X0062887Y0024050D03*
X0060787Y0024050D03*
X0059113Y0024050D03*
X0059113Y0021600D03*
X0057113Y0022250D03*
X0053263Y0024050D03*
X0043563Y0022250D03*
X0036263Y0024100D03*
X0034837Y0024000D03*
X0035687Y0020750D03*
X0032813Y0020800D03*
X0031437Y0020800D03*
X0029113Y0024100D03*
X0027737Y0023100D03*
X0022013Y0024100D03*
X0021413Y0020750D03*
D57*
X0022138Y0021300D03*
X0031438Y0020750D03*
X0032812Y0020750D03*
X0034762Y0023900D03*
X0042062Y0024000D03*
X0052438Y0024850D03*
X0053362Y0023900D03*
X0053388Y0023850D03*
X0055212Y0021800D03*
X0055238Y0021750D03*
X0058988Y0021800D03*
X0059012Y0021750D03*
X0059962Y0020800D03*
X0060962Y0021850D03*
X0062738Y0021800D03*
X0064688Y0021800D03*
X0064688Y0023900D03*
X0062738Y0023850D03*
X0059012Y0023900D03*
X0058988Y0023850D03*
D58*
X0055375Y0021600D03*
X0047225Y0024000D03*
X0029275Y0022250D03*
X0028675Y0020750D03*
X0022275Y0022200D03*
D59*
X0020200Y0022200D03*
X0026200Y0020750D03*
X0027650Y0020750D03*
X0033350Y0024550D03*
X0035700Y0024650D03*
D60*
X0032125Y0021475D03*
X0027575Y0023225D03*
X0027625Y0023825D03*
X0024075Y0023825D03*
X0022275Y0023875D03*
X0021425Y0024625D03*
X0022425Y0022075D03*
X0022375Y0021575D03*
X0022325Y0021525D03*
X0020525Y0021475D03*
X0038075Y0030175D03*
X0041925Y0023825D03*
X0043725Y0023825D03*
X0045475Y0023825D03*
X0047375Y0023725D03*
X0043775Y0021425D03*
X0051425Y0020975D03*
X0055125Y0022275D03*
X0063725Y0020775D03*
X0046675Y0030075D03*
D61*
X0040050Y0023975D03*
X0036500Y0021375D03*
X0027750Y0023975D03*
X0022200Y0023975D03*
X0020450Y0023275D03*
X0053450Y0023725D03*
X0053500Y0023575D03*
X0053500Y0023525D03*
X0053500Y0023475D03*
X0053500Y0023425D03*
X0053500Y0023375D03*
X0053500Y0023325D03*
X0053500Y0023275D03*
X0053500Y0023225D03*
X0053500Y0023175D03*
X0053500Y0023125D03*
X0053500Y0023075D03*
X0053500Y0023025D03*
X0053500Y0022975D03*
X0053500Y0022925D03*
X0053500Y0022875D03*
X0053500Y0022825D03*
X0053500Y0022775D03*
X0053500Y0022725D03*
X0053500Y0022675D03*
X0053500Y0022625D03*
X0053500Y0022575D03*
X0053500Y0022525D03*
X0053500Y0022475D03*
X0053500Y0022425D03*
X0053500Y0022375D03*
X0053500Y0022325D03*
X0053500Y0022275D03*
X0053500Y0022225D03*
X0053500Y0022175D03*
X0053500Y0022125D03*
X0053500Y0022075D03*
X0053500Y0022025D03*
X0053500Y0021975D03*
X0053500Y0021925D03*
X0053500Y0021875D03*
X0053500Y0021825D03*
X0053500Y0021775D03*
X0053500Y0021725D03*
X0053500Y0021675D03*
X0053500Y0021625D03*
X0053500Y0021575D03*
X0053500Y0021525D03*
X0053500Y0021475D03*
X0053500Y0021425D03*
X0053500Y0021375D03*
X0053500Y0021325D03*
X0053500Y0021275D03*
X0053500Y0021225D03*
X0053500Y0021175D03*
X0053500Y0021125D03*
X0053500Y0021075D03*
X0058900Y0021975D03*
X0058900Y0022025D03*
X0058900Y0022075D03*
X0058900Y0023575D03*
X0058900Y0023625D03*
X0058900Y0023675D03*
X0061000Y0023675D03*
X0061000Y0023625D03*
X0061000Y0022025D03*
X0061000Y0021975D03*
X0061000Y0020775D03*
X0064750Y0023675D03*
D62*
X0056200Y0020775D03*
X0047400Y0023675D03*
X0045450Y0023775D03*
X0043800Y0023675D03*
X0041850Y0023725D03*
X0041800Y0023625D03*
X0040250Y0023675D03*
X0036650Y0023675D03*
X0034650Y0023625D03*
X0034650Y0024525D03*
X0034700Y0021625D03*
X0033450Y0021475D03*
X0033450Y0021425D03*
X0036650Y0021625D03*
X0029600Y0021625D03*
X0029600Y0021675D03*
X0029600Y0021725D03*
X0029600Y0021775D03*
X0029600Y0021825D03*
X0029600Y0021875D03*
X0029600Y0021575D03*
X0029500Y0023725D03*
X0025950Y0023725D03*
X0024000Y0023725D03*
X0023950Y0023575D03*
X0022450Y0023525D03*
X0022400Y0023725D03*
X0022450Y0022825D03*
X0022450Y0021975D03*
X0022450Y0021775D03*
X0020450Y0021625D03*
X0020450Y0021575D03*
X0043850Y0021575D03*
D63*
X0047600Y0020775D03*
X0038300Y0023175D03*
X0031950Y0024575D03*
X0046550Y0029925D03*
D64*
X0044025Y0023125D03*
X0045475Y0020775D03*
D65*
X0042962Y0020775D03*
X0047188Y0024025D03*
X0051662Y0024125D03*
X0053238Y0024075D03*
X0055388Y0024075D03*
X0057088Y0022275D03*
X0056988Y0021575D03*
X0060738Y0024125D03*
X0062962Y0021525D03*
X0064488Y0024125D03*
X0028688Y0020775D03*
X0027762Y0023075D03*
X0024988Y0024575D03*
D66*
X0031975Y0024525D03*
X0041925Y0020775D03*
X0053675Y0020825D03*
D67*
X0040462Y0020775D03*
X0033362Y0024525D03*
X0029762Y0023125D03*
X0027638Y0020775D03*
X0026188Y0020775D03*
D68*
X0029187Y0022325D03*
X0031437Y0020825D03*
X0035687Y0020775D03*
X0035687Y0024525D03*
X0042013Y0023075D03*
X0043437Y0022325D03*
X0046837Y0030225D03*
X0053187Y0024125D03*
X0055437Y0024125D03*
X0059187Y0024125D03*
X0059187Y0021525D03*
X0064463Y0021525D03*
X0037913Y0030375D03*
X0022213Y0022275D03*
X0021413Y0020775D03*
X0020613Y0023125D03*
X0033513Y0052475D03*
X0051663Y0052375D03*
D69*
X0053325Y0023975D03*
X0060925Y0021725D03*
X0032825Y0020775D03*
X0032125Y0021325D03*
X0031425Y0020775D03*
D70*
X0025725Y0024000D03*
X0022175Y0024000D03*
X0020475Y0023250D03*
X0032875Y0029050D03*
X0051425Y0023800D03*
X0057175Y0023850D03*
X0058925Y0023750D03*
X0058925Y0021900D03*
X0057175Y0021800D03*
X0063725Y0020800D03*
D71*
X0053700Y0020800D03*
X0046400Y0024650D03*
X0044050Y0023100D03*
X0046550Y0029900D03*
X0029800Y0023100D03*
X0028550Y0024650D03*
D72*
X0029737Y0023150D03*
X0027613Y0020800D03*
X0033387Y0024500D03*
X0040437Y0020800D03*
X0044013Y0023150D03*
X0047587Y0020800D03*
X0046587Y0029950D03*
D73*
X0051850Y0028600D03*
X0045450Y0020800D03*
D74*
X0042975Y0020800D03*
X0039825Y0024100D03*
X0046375Y0024550D03*
X0051825Y0028850D03*
X0055325Y0023450D03*
X0055475Y0021500D03*
X0056975Y0021550D03*
X0057075Y0022300D03*
X0037925Y0030350D03*
X0021425Y0024550D03*
X0022225Y0022250D03*
D75*
X0032000Y0024500D03*
X0041900Y0020800D03*
D76*
X0043375Y0022350D03*
X0035675Y0020800D03*
X0034925Y0024050D03*
X0027825Y0023000D03*
X0021425Y0020800D03*
X0051825Y0028900D03*
X0053125Y0024150D03*
D77*
X0056900Y0021500D03*
X0063000Y0021500D03*
X0047150Y0024050D03*
X0046850Y0030250D03*
X0028700Y0020800D03*
D78*
X0026175Y0020800D03*
X0047325Y0025950D03*
D79*
X0043525Y0022275D03*
X0039875Y0024075D03*
X0062925Y0024075D03*
X0063725Y0024825D03*
X0062925Y0021575D03*
X0063725Y0020825D03*
D80*
X0060962Y0020825D03*
X0059012Y0021725D03*
X0058988Y0021775D03*
X0057162Y0021775D03*
X0057162Y0023875D03*
X0059012Y0023925D03*
X0060912Y0023875D03*
X0060938Y0023825D03*
X0064662Y0023925D03*
X0055212Y0023825D03*
X0055212Y0023525D03*
X0053388Y0023875D03*
X0053362Y0023925D03*
X0051462Y0023875D03*
X0051438Y0023825D03*
X0047288Y0023925D03*
X0045688Y0024025D03*
X0043512Y0024025D03*
X0036388Y0024025D03*
X0029238Y0024025D03*
X0029388Y0022175D03*
X0038012Y0030275D03*
D81*
X0039250Y0024575D03*
X0024350Y0024075D03*
X0022250Y0022225D03*
X0055450Y0021525D03*
X0057000Y0024075D03*
X0056200Y0024825D03*
X0059150Y0021575D03*
X0059950Y0020825D03*
X0064550Y0024075D03*
D82*
X0062863Y0021625D03*
X0060763Y0024075D03*
X0059937Y0024825D03*
X0059137Y0024075D03*
X0057063Y0021625D03*
X0056187Y0020825D03*
X0051613Y0024075D03*
X0052437Y0024825D03*
X0043587Y0022225D03*
X0042187Y0024075D03*
X0042813Y0024575D03*
X0035687Y0024575D03*
X0029263Y0022275D03*
X0027937Y0024075D03*
X0028537Y0024575D03*
X0025613Y0024075D03*
X0020787Y0024075D03*
X0032887Y0029125D03*
X0051663Y0052425D03*
D83*
X0051850Y0028625D03*
X0056200Y0024925D03*
X0063700Y0024925D03*
X0047550Y0020825D03*
X0038250Y0023225D03*
X0029700Y0023175D03*
D84*
X0026138Y0020825D03*
X0034512Y0025925D03*
X0040412Y0020825D03*
X0045412Y0020825D03*
D85*
X0043000Y0020825D03*
X0042050Y0023025D03*
X0025000Y0024525D03*
D86*
X0035675Y0020825D03*
X0042125Y0022975D03*
D87*
X0034875Y0024025D03*
X0032825Y0020825D03*
X0062975Y0024125D03*
X0064525Y0021575D03*
D88*
X0055375Y0023375D03*
X0047125Y0024075D03*
X0046875Y0030275D03*
X0037875Y0030425D03*
X0028725Y0020825D03*
D89*
X0028925Y0022475D03*
X0027875Y0022975D03*
X0021425Y0020825D03*
X0043275Y0022425D03*
X0055425Y0023325D03*
D90*
X0063725Y0024800D03*
X0063725Y0020850D03*
X0021425Y0024500D03*
D91*
X0032962Y0029550D03*
X0046688Y0024450D03*
X0052438Y0024500D03*
X0051762Y0029250D03*
X0059962Y0024500D03*
X0060362Y0020850D03*
X0063712Y0024500D03*
X0051612Y0052000D03*
D92*
X0033513Y0052450D03*
X0032913Y0029200D03*
X0029113Y0022350D03*
X0056187Y0020850D03*
X0063037Y0024150D03*
D93*
X0054987Y0022450D03*
X0053637Y0020850D03*
X0038237Y0023250D03*
X0032863Y0028900D03*
D94*
X0029675Y0023200D03*
X0040375Y0020850D03*
X0045375Y0020850D03*
X0051525Y0020850D03*
D95*
X0047500Y0020850D03*
X0027550Y0020850D03*
D96*
X0028762Y0020850D03*
X0029038Y0022400D03*
X0024988Y0024500D03*
X0037862Y0030450D03*
X0042812Y0024500D03*
X0042088Y0023000D03*
X0043312Y0022400D03*
X0043012Y0020850D03*
X0047088Y0024100D03*
X0056988Y0022350D03*
D97*
X0052425Y0024750D03*
X0043025Y0022550D03*
X0035675Y0020850D03*
X0032925Y0029300D03*
X0021275Y0022750D03*
X0021425Y0020850D03*
X0046975Y0030350D03*
X0063725Y0020900D03*
D98*
X0059950Y0024800D03*
X0056200Y0024800D03*
X0055400Y0023350D03*
X0052450Y0024800D03*
X0039250Y0024500D03*
X0035700Y0024500D03*
X0032800Y0020850D03*
X0028550Y0024500D03*
X0020700Y0023050D03*
D99*
X0028975Y0022450D03*
X0031475Y0020850D03*
X0051825Y0028950D03*
D100*
X0047388Y0025850D03*
X0042738Y0021250D03*
X0034562Y0025850D03*
X0032062Y0024450D03*
X0030688Y0024450D03*
X0026088Y0020850D03*
X0023988Y0023250D03*
D101*
X0022088Y0022375D03*
X0020812Y0022975D03*
X0028538Y0024475D03*
X0028788Y0020925D03*
X0032912Y0029275D03*
X0042812Y0024475D03*
X0052438Y0024775D03*
X0051812Y0028975D03*
X0046938Y0030325D03*
X0059962Y0024775D03*
X0063712Y0020875D03*
X0056188Y0020875D03*
X0033512Y0052375D03*
D102*
X0051763Y0029275D03*
X0056187Y0024475D03*
X0059963Y0024475D03*
X0060337Y0020875D03*
X0063713Y0021175D03*
X0063713Y0024475D03*
X0046663Y0024425D03*
X0021413Y0021175D03*
D103*
X0023975Y0023275D03*
X0027525Y0020875D03*
X0047475Y0020875D03*
X0053625Y0020875D03*
D104*
X0051500Y0020875D03*
X0047400Y0025825D03*
X0040350Y0020875D03*
X0030700Y0024425D03*
X0029650Y0023225D03*
X0051700Y0052625D03*
D105*
X0038138Y0030125D03*
X0032862Y0028925D03*
X0045362Y0020875D03*
X0055012Y0022425D03*
X0020288Y0022125D03*
D106*
X0043050Y0020875D03*
X0043200Y0022475D03*
X0056950Y0022375D03*
D107*
X0047438Y0022375D03*
X0047438Y0022425D03*
X0047438Y0022475D03*
X0047438Y0022525D03*
X0047438Y0022575D03*
X0047438Y0022625D03*
X0047438Y0022675D03*
X0047438Y0022725D03*
X0047438Y0022775D03*
X0047438Y0022825D03*
X0047438Y0022875D03*
X0047438Y0022925D03*
X0047438Y0022975D03*
X0047438Y0023025D03*
X0047438Y0023075D03*
X0047438Y0023125D03*
X0047438Y0023175D03*
X0047438Y0023225D03*
X0047438Y0023275D03*
X0047438Y0023325D03*
X0047438Y0023375D03*
X0047438Y0022325D03*
X0047438Y0022275D03*
X0047438Y0022225D03*
X0047438Y0022175D03*
X0047438Y0022125D03*
X0047438Y0022075D03*
X0047438Y0022025D03*
X0047438Y0021975D03*
X0047438Y0021925D03*
X0047438Y0021875D03*
X0047438Y0021825D03*
X0047438Y0021775D03*
X0047438Y0021725D03*
X0047438Y0021675D03*
X0047438Y0021625D03*
X0047438Y0021575D03*
X0047438Y0021525D03*
X0047438Y0021475D03*
X0047438Y0021425D03*
X0047438Y0021375D03*
X0047438Y0021325D03*
X0047438Y0021275D03*
X0047438Y0021225D03*
X0047438Y0021175D03*
X0047438Y0021125D03*
X0047438Y0021075D03*
X0045338Y0023325D03*
X0045338Y0023375D03*
X0045338Y0023425D03*
X0045338Y0023475D03*
X0045362Y0023575D03*
X0043888Y0023375D03*
X0043888Y0023325D03*
X0043862Y0023475D03*
X0043862Y0023525D03*
X0043838Y0023575D03*
X0043888Y0021775D03*
X0043888Y0021725D03*
X0041788Y0020875D03*
X0040312Y0020975D03*
X0038188Y0023425D03*
X0038212Y0023475D03*
X0036738Y0023475D03*
X0036712Y0023575D03*
X0036738Y0021825D03*
X0036712Y0021775D03*
X0033512Y0021775D03*
X0033512Y0021825D03*
X0033512Y0021875D03*
X0033512Y0021925D03*
X0033512Y0021975D03*
X0033512Y0022025D03*
X0033512Y0022075D03*
X0033512Y0022125D03*
X0033512Y0022175D03*
X0033512Y0022225D03*
X0033512Y0022275D03*
X0033512Y0022325D03*
X0033512Y0022375D03*
X0033512Y0022425D03*
X0033512Y0022475D03*
X0033512Y0022525D03*
X0033512Y0022575D03*
X0033512Y0022625D03*
X0033512Y0022675D03*
X0033512Y0022725D03*
X0033512Y0022775D03*
X0033512Y0022825D03*
X0033512Y0022875D03*
X0033512Y0022925D03*
X0033512Y0022975D03*
X0033512Y0023025D03*
X0033512Y0023075D03*
X0033512Y0023125D03*
X0033512Y0023175D03*
X0033512Y0023225D03*
X0033512Y0023275D03*
X0033512Y0023325D03*
X0033512Y0023375D03*
X0033512Y0023425D03*
X0033512Y0023475D03*
X0033512Y0023525D03*
X0033512Y0023575D03*
X0033512Y0023625D03*
X0033512Y0023675D03*
X0033512Y0023725D03*
X0033512Y0023775D03*
X0033512Y0023825D03*
X0033512Y0023875D03*
X0033512Y0023925D03*
X0033512Y0023975D03*
X0033512Y0024025D03*
X0033512Y0024075D03*
X0033512Y0024125D03*
X0033512Y0024175D03*
X0033512Y0024225D03*
X0033512Y0024275D03*
X0033512Y0024325D03*
X0032112Y0024325D03*
X0032112Y0024375D03*
X0032112Y0024275D03*
X0032112Y0024225D03*
X0032112Y0024175D03*
X0032112Y0024125D03*
X0032112Y0024075D03*
X0032112Y0024025D03*
X0032112Y0023975D03*
X0032112Y0023925D03*
X0032112Y0023875D03*
X0032112Y0023825D03*
X0032112Y0023775D03*
X0032112Y0023725D03*
X0032112Y0023675D03*
X0032112Y0023625D03*
X0032112Y0023575D03*
X0032112Y0023525D03*
X0032112Y0023475D03*
X0032112Y0023425D03*
X0032112Y0023375D03*
X0032112Y0023325D03*
X0032112Y0023275D03*
X0032112Y0023225D03*
X0032112Y0023175D03*
X0032112Y0023125D03*
X0032112Y0023075D03*
X0032112Y0023025D03*
X0032112Y0022975D03*
X0032112Y0022925D03*
X0032112Y0022875D03*
X0032112Y0022825D03*
X0033512Y0021725D03*
X0033488Y0021675D03*
X0029612Y0023325D03*
X0027512Y0023325D03*
X0027512Y0023525D03*
X0027512Y0022575D03*
X0027512Y0022525D03*
X0026038Y0023425D03*
X0026038Y0023475D03*
X0026012Y0023525D03*
X0023938Y0023325D03*
X0020388Y0023525D03*
X0020362Y0023425D03*
X0020338Y0022025D03*
X0020338Y0021975D03*
X0020338Y0021925D03*
X0020362Y0021875D03*
X0020362Y0021825D03*
X0020388Y0021775D03*
X0047438Y0024575D03*
X0047438Y0024625D03*
X0047438Y0024675D03*
X0047438Y0024725D03*
X0047438Y0024775D03*
X0047438Y0024825D03*
X0047438Y0024875D03*
X0047438Y0024925D03*
X0047438Y0024975D03*
X0047438Y0025025D03*
X0047438Y0025075D03*
X0047438Y0025125D03*
X0047438Y0025175D03*
X0047438Y0025225D03*
X0047438Y0025275D03*
X0047438Y0025325D03*
X0047438Y0025375D03*
X0047438Y0025425D03*
X0047438Y0025475D03*
X0047438Y0025525D03*
X0047438Y0025575D03*
X0047438Y0025625D03*
X0047438Y0025675D03*
X0047438Y0025725D03*
X0046662Y0030025D03*
D108*
X0056187Y0024725D03*
X0063713Y0024725D03*
X0043213Y0021125D03*
X0035687Y0020875D03*
X0027987Y0022875D03*
X0032937Y0029325D03*
D109*
X0032125Y0020875D03*
X0051725Y0029475D03*
D110*
X0037837Y0030475D03*
X0028763Y0020875D03*
D111*
X0027513Y0020925D03*
X0026063Y0020875D03*
X0029637Y0023275D03*
X0032087Y0024425D03*
X0033487Y0024425D03*
X0034587Y0025825D03*
X0038213Y0023325D03*
X0043913Y0023225D03*
X0045337Y0021025D03*
X0045337Y0020975D03*
X0045337Y0020925D03*
D112*
X0052425Y0024725D03*
X0028975Y0021175D03*
X0028925Y0021125D03*
X0021425Y0020875D03*
D113*
X0021412Y0021200D03*
X0035688Y0021200D03*
X0035412Y0024400D03*
X0056188Y0024450D03*
X0060312Y0020900D03*
X0063712Y0021200D03*
X0063712Y0024450D03*
D114*
X0059950Y0024750D03*
X0056900Y0022450D03*
X0056200Y0020900D03*
X0051800Y0029000D03*
X0043150Y0021000D03*
X0028850Y0021000D03*
D115*
X0030738Y0021700D03*
X0032112Y0022850D03*
X0032112Y0022900D03*
X0032112Y0022950D03*
X0032112Y0023000D03*
X0032112Y0023050D03*
X0032112Y0023100D03*
X0032112Y0023150D03*
X0032112Y0023200D03*
X0032112Y0023250D03*
X0032112Y0023300D03*
X0032112Y0023350D03*
X0032112Y0023400D03*
X0032112Y0023450D03*
X0032112Y0023500D03*
X0032112Y0023550D03*
X0032112Y0023600D03*
X0032112Y0023650D03*
X0032112Y0023700D03*
X0032112Y0023750D03*
X0032112Y0023800D03*
X0032112Y0023850D03*
X0032112Y0023900D03*
X0032112Y0023950D03*
X0032112Y0024000D03*
X0032112Y0024050D03*
X0032112Y0024100D03*
X0032112Y0024150D03*
X0032112Y0024200D03*
X0032112Y0024250D03*
X0032112Y0024300D03*
X0032112Y0024350D03*
X0033512Y0024300D03*
X0033512Y0024250D03*
X0033512Y0024200D03*
X0033512Y0024150D03*
X0033512Y0024100D03*
X0033512Y0024050D03*
X0033512Y0024000D03*
X0033512Y0023950D03*
X0033512Y0023900D03*
X0033512Y0023850D03*
X0033512Y0023800D03*
X0033512Y0023750D03*
X0033512Y0023700D03*
X0033512Y0023650D03*
X0033512Y0023600D03*
X0033512Y0023550D03*
X0033512Y0023500D03*
X0033512Y0023450D03*
X0033512Y0023400D03*
X0033512Y0023350D03*
X0033512Y0023300D03*
X0033512Y0023250D03*
X0033512Y0023200D03*
X0033512Y0023150D03*
X0033512Y0023100D03*
X0033512Y0023050D03*
X0033512Y0023000D03*
X0033512Y0022950D03*
X0033512Y0022900D03*
X0033512Y0022850D03*
X0033512Y0022800D03*
X0033512Y0022750D03*
X0033512Y0022700D03*
X0033512Y0022650D03*
X0033512Y0022600D03*
X0033512Y0022550D03*
X0033512Y0022500D03*
X0033512Y0022450D03*
X0033512Y0022400D03*
X0033512Y0022350D03*
X0033512Y0022300D03*
X0033512Y0022250D03*
X0033512Y0022200D03*
X0033512Y0022150D03*
X0033512Y0022100D03*
X0033512Y0022050D03*
X0033512Y0022000D03*
X0033512Y0021950D03*
X0033512Y0021900D03*
X0033512Y0021850D03*
X0033512Y0021800D03*
X0033512Y0021750D03*
X0033512Y0021700D03*
X0033488Y0021650D03*
X0036712Y0021750D03*
X0036738Y0021850D03*
X0036712Y0023550D03*
X0038188Y0023450D03*
X0038212Y0023500D03*
X0040312Y0021000D03*
X0040312Y0020950D03*
X0043888Y0021700D03*
X0043888Y0021750D03*
X0043888Y0023350D03*
X0043888Y0023400D03*
X0043862Y0023500D03*
X0043838Y0023550D03*
X0045338Y0023500D03*
X0045338Y0023450D03*
X0045338Y0023400D03*
X0045338Y0023350D03*
X0047438Y0023350D03*
X0047438Y0023300D03*
X0047438Y0023250D03*
X0047438Y0023200D03*
X0047438Y0023150D03*
X0047438Y0023100D03*
X0047438Y0023050D03*
X0047438Y0023000D03*
X0047438Y0022950D03*
X0047438Y0022900D03*
X0047438Y0022850D03*
X0047438Y0022800D03*
X0047438Y0022750D03*
X0047438Y0022700D03*
X0047438Y0022650D03*
X0047438Y0022600D03*
X0047438Y0022550D03*
X0047438Y0022500D03*
X0047438Y0022450D03*
X0047438Y0022400D03*
X0047438Y0022350D03*
X0047438Y0022300D03*
X0047438Y0022250D03*
X0047438Y0022200D03*
X0047438Y0022150D03*
X0047438Y0022100D03*
X0047438Y0022050D03*
X0047438Y0022000D03*
X0047438Y0021950D03*
X0047438Y0021900D03*
X0047438Y0021850D03*
X0047438Y0021800D03*
X0047438Y0021750D03*
X0047438Y0021700D03*
X0047438Y0021650D03*
X0047438Y0021600D03*
X0047438Y0021550D03*
X0047438Y0021500D03*
X0047438Y0021450D03*
X0047438Y0021400D03*
X0047438Y0021350D03*
X0047438Y0021300D03*
X0047438Y0021250D03*
X0047438Y0021200D03*
X0047438Y0021150D03*
X0047438Y0021100D03*
X0047438Y0021050D03*
X0047438Y0024600D03*
X0047438Y0024650D03*
X0047438Y0024700D03*
X0047438Y0024750D03*
X0047438Y0024800D03*
X0047438Y0024850D03*
X0047438Y0024900D03*
X0047438Y0024950D03*
X0047438Y0025000D03*
X0047438Y0025050D03*
X0047438Y0025100D03*
X0047438Y0025150D03*
X0047438Y0025200D03*
X0047438Y0025250D03*
X0047438Y0025300D03*
X0047438Y0025350D03*
X0047438Y0025400D03*
X0047438Y0025450D03*
X0047438Y0025500D03*
X0047438Y0025550D03*
X0047438Y0025600D03*
X0047438Y0025700D03*
X0047438Y0025750D03*
X0051488Y0020900D03*
X0053612Y0020900D03*
X0055062Y0022350D03*
X0056188Y0024900D03*
X0034612Y0025800D03*
X0029612Y0023350D03*
X0027512Y0023350D03*
X0027512Y0023500D03*
X0027512Y0023550D03*
X0027512Y0022550D03*
X0026038Y0023450D03*
X0026012Y0023550D03*
X0023938Y0023350D03*
X0020362Y0023450D03*
X0020338Y0022000D03*
X0020338Y0021950D03*
X0020338Y0021900D03*
X0020362Y0021850D03*
X0051688Y0052600D03*
D116*
X0051850Y0028650D03*
X0045350Y0020900D03*
D117*
X0043062Y0020900D03*
X0043138Y0022500D03*
X0056938Y0022400D03*
X0028862Y0022500D03*
X0027912Y0022950D03*
D118*
X0027525Y0023300D03*
X0027525Y0023600D03*
X0027525Y0022600D03*
X0029575Y0023550D03*
X0029575Y0023600D03*
X0032125Y0022800D03*
X0032125Y0022750D03*
X0032125Y0022700D03*
X0032125Y0022650D03*
X0032125Y0022600D03*
X0032125Y0022550D03*
X0032125Y0022450D03*
X0032125Y0022350D03*
X0032125Y0022250D03*
X0032125Y0022200D03*
X0032125Y0022050D03*
X0032125Y0021950D03*
X0032125Y0021850D03*
X0032125Y0021800D03*
X0032125Y0021750D03*
X0033475Y0021600D03*
X0034625Y0021950D03*
X0034625Y0022000D03*
X0034625Y0022050D03*
X0034625Y0022100D03*
X0034625Y0022300D03*
X0034625Y0022350D03*
X0034625Y0022500D03*
X0034625Y0022550D03*
X0034625Y0022600D03*
X0034625Y0022650D03*
X0034625Y0022700D03*
X0034625Y0022850D03*
X0034625Y0022900D03*
X0034625Y0022950D03*
X0034625Y0023000D03*
X0034625Y0023050D03*
X0034625Y0023150D03*
X0034625Y0023200D03*
X0034625Y0023300D03*
X0034625Y0023350D03*
X0034625Y0024800D03*
X0034625Y0024850D03*
X0034625Y0024900D03*
X0034625Y0025000D03*
X0034625Y0025050D03*
X0034625Y0025150D03*
X0034625Y0025200D03*
X0034625Y0025250D03*
X0034625Y0025300D03*
X0034625Y0025350D03*
X0034625Y0025400D03*
X0034625Y0025450D03*
X0034625Y0025500D03*
X0034625Y0025550D03*
X0034625Y0025750D03*
X0036725Y0023500D03*
X0038225Y0023550D03*
X0036725Y0021800D03*
X0041775Y0020900D03*
X0043875Y0021650D03*
X0043875Y0021800D03*
X0043825Y0023600D03*
X0045375Y0023600D03*
X0047425Y0023550D03*
X0047425Y0023500D03*
X0047425Y0023450D03*
X0047425Y0023400D03*
X0047425Y0024550D03*
X0023925Y0023400D03*
X0020375Y0023500D03*
X0020375Y0021800D03*
D119*
X0021425Y0020900D03*
X0035675Y0020900D03*
X0032925Y0029350D03*
X0047025Y0030450D03*
X0055575Y0023200D03*
X0063725Y0024700D03*
X0033525Y0052300D03*
D120*
X0056275Y0023000D03*
X0032125Y0020900D03*
D121*
X0028775Y0020900D03*
D122*
X0028625Y0022625D03*
X0056875Y0022475D03*
X0063725Y0020925D03*
X0033525Y0052325D03*
D123*
X0037550Y0030875D03*
X0039250Y0024125D03*
X0056200Y0021225D03*
X0060300Y0020925D03*
X0021400Y0024125D03*
D124*
X0028900Y0021075D03*
X0042200Y0022925D03*
X0043200Y0021075D03*
X0056200Y0020925D03*
X0059950Y0024725D03*
X0051650Y0052225D03*
D125*
X0033475Y0052675D03*
X0034625Y0025775D03*
X0034625Y0025725D03*
X0034625Y0025525D03*
X0034625Y0025475D03*
X0034625Y0025325D03*
X0034625Y0025225D03*
X0034625Y0025125D03*
X0034625Y0024975D03*
X0034625Y0024925D03*
X0034625Y0024825D03*
X0034625Y0024775D03*
X0034625Y0023325D03*
X0034625Y0023275D03*
X0034625Y0023225D03*
X0034625Y0023175D03*
X0034625Y0023125D03*
X0034625Y0023075D03*
X0034625Y0023025D03*
X0034625Y0022975D03*
X0034625Y0022825D03*
X0034625Y0022775D03*
X0034625Y0022725D03*
X0034625Y0022675D03*
X0034625Y0022575D03*
X0034625Y0022525D03*
X0034625Y0022475D03*
X0034625Y0022425D03*
X0034625Y0022375D03*
X0034625Y0022325D03*
X0034625Y0022225D03*
X0034625Y0022175D03*
X0034625Y0022125D03*
X0034625Y0022025D03*
X0034625Y0021975D03*
X0033475Y0021625D03*
X0032125Y0021775D03*
X0032125Y0021825D03*
X0032125Y0021875D03*
X0032125Y0021975D03*
X0032125Y0022025D03*
X0032125Y0022075D03*
X0032125Y0022125D03*
X0032125Y0022275D03*
X0032125Y0022325D03*
X0032125Y0022375D03*
X0032125Y0022575D03*
X0032125Y0022625D03*
X0032125Y0022675D03*
X0032125Y0022725D03*
X0032125Y0022775D03*
X0029575Y0023575D03*
X0029525Y0023675D03*
X0027525Y0023575D03*
X0025975Y0023625D03*
X0023925Y0023375D03*
X0020375Y0023475D03*
X0036675Y0023625D03*
X0036725Y0023525D03*
X0038225Y0023525D03*
X0036675Y0021675D03*
X0041775Y0020925D03*
X0043875Y0021675D03*
X0043875Y0021825D03*
X0047425Y0023425D03*
X0047425Y0023475D03*
X0047425Y0023525D03*
X0051475Y0020925D03*
D126*
X0055050Y0022375D03*
X0047450Y0021025D03*
X0047450Y0020975D03*
X0047450Y0020925D03*
X0043900Y0023275D03*
X0038200Y0023375D03*
X0033500Y0024375D03*
X0027500Y0023475D03*
X0027500Y0023425D03*
X0027500Y0023375D03*
X0027500Y0022475D03*
X0027500Y0022425D03*
X0027500Y0022375D03*
X0027500Y0022325D03*
X0027500Y0022275D03*
X0027500Y0022225D03*
X0027500Y0022175D03*
X0027500Y0022125D03*
X0027500Y0022075D03*
X0027500Y0022025D03*
X0027500Y0021975D03*
X0027500Y0021925D03*
X0027500Y0021875D03*
X0027500Y0021825D03*
X0027500Y0021775D03*
X0027500Y0021725D03*
X0027500Y0021675D03*
X0027500Y0021625D03*
X0027500Y0021575D03*
X0027500Y0021525D03*
X0027500Y0021475D03*
X0027500Y0021425D03*
X0027500Y0021375D03*
X0027500Y0021325D03*
X0027500Y0021275D03*
X0027500Y0021225D03*
X0027500Y0021175D03*
X0027500Y0021125D03*
X0027500Y0021075D03*
X0027500Y0021025D03*
X0027500Y0020975D03*
X0026050Y0020975D03*
X0026050Y0021025D03*
X0026050Y0021075D03*
X0026050Y0021125D03*
X0026050Y0021175D03*
X0026050Y0021225D03*
X0026050Y0021275D03*
X0026050Y0021325D03*
X0026050Y0021375D03*
X0026050Y0021425D03*
X0026050Y0021475D03*
X0026050Y0021525D03*
X0026050Y0021575D03*
X0026050Y0021625D03*
X0026050Y0021675D03*
X0026050Y0021725D03*
X0026050Y0021775D03*
X0026050Y0021825D03*
X0026050Y0021875D03*
X0026050Y0021925D03*
X0026050Y0021975D03*
X0026050Y0022025D03*
X0026050Y0022075D03*
X0026050Y0022125D03*
X0026050Y0022175D03*
X0026050Y0022225D03*
X0026050Y0022275D03*
X0026050Y0022325D03*
X0026050Y0022375D03*
X0026050Y0022425D03*
X0026050Y0022475D03*
X0026050Y0022525D03*
X0026050Y0022575D03*
X0026050Y0022625D03*
X0026050Y0022675D03*
X0026050Y0022725D03*
X0026050Y0022775D03*
X0026050Y0022825D03*
X0026050Y0022875D03*
X0026050Y0022925D03*
X0026050Y0022975D03*
X0026050Y0023025D03*
X0026050Y0023075D03*
X0026050Y0023125D03*
X0026050Y0023175D03*
X0026050Y0023225D03*
X0026050Y0023275D03*
X0026050Y0023325D03*
X0026050Y0023375D03*
X0026050Y0020925D03*
D127*
X0024975Y0024475D03*
X0021425Y0024475D03*
X0021125Y0022825D03*
X0043075Y0020925D03*
X0056925Y0022425D03*
X0063725Y0024775D03*
D128*
X0047425Y0025775D03*
X0045325Y0023275D03*
X0045325Y0023225D03*
X0045325Y0023175D03*
X0045325Y0023125D03*
X0045325Y0023075D03*
X0045325Y0023025D03*
X0045325Y0022975D03*
X0045325Y0022925D03*
X0045325Y0022875D03*
X0045325Y0022825D03*
X0045325Y0022775D03*
X0045325Y0022725D03*
X0045325Y0022675D03*
X0045325Y0022625D03*
X0045325Y0022575D03*
X0045325Y0022525D03*
X0045325Y0022475D03*
X0045325Y0022425D03*
X0045325Y0022375D03*
X0045325Y0022325D03*
X0045325Y0022275D03*
X0045325Y0022225D03*
X0045325Y0022175D03*
X0045325Y0022125D03*
X0045325Y0022075D03*
X0045325Y0022025D03*
X0045325Y0021975D03*
X0045325Y0021925D03*
X0045325Y0021875D03*
X0045325Y0021825D03*
X0045325Y0021775D03*
X0045325Y0021725D03*
X0045325Y0021675D03*
X0045325Y0021625D03*
X0045325Y0021575D03*
X0045325Y0021525D03*
X0045325Y0021475D03*
X0045325Y0021425D03*
X0045325Y0021375D03*
X0045325Y0021325D03*
X0045325Y0021275D03*
X0045325Y0021225D03*
X0045325Y0021175D03*
X0045325Y0021125D03*
X0045325Y0021075D03*
X0043875Y0023425D03*
X0040325Y0020925D03*
X0030725Y0021725D03*
X0030725Y0021775D03*
X0030725Y0021825D03*
X0030725Y0021875D03*
X0030725Y0021925D03*
X0030725Y0021975D03*
X0030725Y0022025D03*
X0030725Y0022075D03*
X0030725Y0022125D03*
X0030725Y0022175D03*
X0030725Y0022225D03*
X0030725Y0022275D03*
X0030725Y0022325D03*
X0030725Y0022375D03*
X0030725Y0022425D03*
X0030725Y0022475D03*
X0030725Y0022525D03*
X0030725Y0022575D03*
X0030725Y0022625D03*
X0030725Y0022675D03*
X0030725Y0022725D03*
X0030725Y0022775D03*
X0030725Y0022825D03*
X0030725Y0022875D03*
X0030725Y0022925D03*
X0030725Y0022975D03*
X0030725Y0023025D03*
X0030725Y0023075D03*
X0030725Y0023125D03*
X0030725Y0023175D03*
X0030725Y0023225D03*
X0030725Y0023275D03*
X0030725Y0023325D03*
X0030725Y0023375D03*
X0030725Y0023425D03*
X0030725Y0023475D03*
X0030725Y0023525D03*
X0030725Y0023575D03*
X0030725Y0023625D03*
X0030725Y0023675D03*
X0030725Y0023725D03*
X0030725Y0023775D03*
X0030725Y0023825D03*
X0030725Y0023875D03*
X0030725Y0023925D03*
X0030725Y0023975D03*
X0030725Y0024025D03*
X0030725Y0024075D03*
X0030725Y0024125D03*
X0030725Y0024175D03*
X0030725Y0024225D03*
X0030725Y0024275D03*
X0030725Y0024325D03*
X0030725Y0024375D03*
X0020325Y0022075D03*
D129*
X0021425Y0020925D03*
X0035675Y0020925D03*
X0052425Y0024675D03*
X0063725Y0024675D03*
D130*
X0060025Y0021475D03*
X0032125Y0020925D03*
D131*
X0029025Y0021250D03*
X0024975Y0024450D03*
X0037775Y0030550D03*
X0043225Y0021150D03*
X0063725Y0020950D03*
D132*
X0060287Y0020950D03*
X0056213Y0021250D03*
X0056513Y0022800D03*
X0047213Y0030700D03*
X0035437Y0024350D03*
X0033563Y0052050D03*
D133*
X0051650Y0052200D03*
X0056850Y0022500D03*
X0056200Y0020950D03*
X0029000Y0021200D03*
X0028950Y0021150D03*
D134*
X0030775Y0021500D03*
X0030775Y0021550D03*
X0032125Y0021600D03*
X0032125Y0021650D03*
X0034725Y0021600D03*
X0036625Y0023750D03*
X0038275Y0023700D03*
X0040275Y0023600D03*
X0041775Y0023500D03*
X0041825Y0023700D03*
X0041775Y0022500D03*
X0043825Y0021950D03*
X0043825Y0021550D03*
X0043775Y0023750D03*
X0045425Y0023700D03*
X0052425Y0024900D03*
X0046675Y0030050D03*
X0053575Y0020950D03*
X0027575Y0023700D03*
X0023975Y0023700D03*
X0023975Y0023650D03*
X0022425Y0023650D03*
X0022375Y0023750D03*
X0020425Y0023650D03*
X0020375Y0023350D03*
X0022425Y0021700D03*
D135*
X0022450Y0021750D03*
X0022450Y0021800D03*
X0022450Y0022000D03*
X0022450Y0022800D03*
X0022450Y0023550D03*
X0022400Y0023700D03*
X0023950Y0023600D03*
X0023950Y0023550D03*
X0025950Y0023700D03*
X0027600Y0023750D03*
X0027550Y0023250D03*
X0029600Y0021900D03*
X0029600Y0021850D03*
X0029600Y0021800D03*
X0029600Y0021750D03*
X0029600Y0021700D03*
X0029600Y0021650D03*
X0029600Y0021600D03*
X0033450Y0021500D03*
X0033450Y0021450D03*
X0034650Y0024550D03*
X0036650Y0023700D03*
X0040250Y0023700D03*
X0041800Y0023650D03*
X0041800Y0023600D03*
X0043800Y0023700D03*
X0045400Y0023650D03*
X0047400Y0023650D03*
X0043850Y0021900D03*
X0051450Y0020950D03*
X0055100Y0022300D03*
X0020450Y0021600D03*
D136*
X0021037Y0022850D03*
X0021187Y0022800D03*
X0020863Y0022950D03*
X0022063Y0022400D03*
X0042163Y0022950D03*
X0043087Y0020950D03*
X0033513Y0052350D03*
D137*
X0034637Y0025700D03*
X0034637Y0025650D03*
X0034637Y0025600D03*
X0034637Y0025100D03*
X0034637Y0024950D03*
X0034637Y0024750D03*
X0034637Y0024700D03*
X0034637Y0024650D03*
X0034637Y0024600D03*
X0034637Y0023600D03*
X0034637Y0023550D03*
X0034637Y0023500D03*
X0034637Y0023450D03*
X0034637Y0023400D03*
X0034637Y0023250D03*
X0034637Y0023100D03*
X0034637Y0022800D03*
X0034637Y0022750D03*
X0034637Y0022450D03*
X0034637Y0022400D03*
X0034637Y0022250D03*
X0034637Y0022200D03*
X0034637Y0022150D03*
X0034637Y0021900D03*
X0034637Y0021850D03*
X0034637Y0021800D03*
X0034663Y0021700D03*
X0034687Y0021650D03*
X0033463Y0021550D03*
X0032137Y0021700D03*
X0032137Y0021900D03*
X0032137Y0022000D03*
X0032137Y0022100D03*
X0032137Y0022150D03*
X0032137Y0022300D03*
X0032137Y0022400D03*
X0032137Y0022500D03*
X0030763Y0021600D03*
X0029587Y0023500D03*
X0029513Y0023700D03*
X0029487Y0023750D03*
X0027563Y0023650D03*
X0025963Y0023650D03*
X0023937Y0023500D03*
X0023937Y0023450D03*
X0022463Y0023450D03*
X0022463Y0023500D03*
X0022463Y0023400D03*
X0022463Y0023350D03*
X0022463Y0023300D03*
X0022463Y0023250D03*
X0022463Y0023200D03*
X0022463Y0023150D03*
X0022463Y0023100D03*
X0022463Y0023050D03*
X0022463Y0023000D03*
X0022463Y0022950D03*
X0022463Y0022900D03*
X0022463Y0022850D03*
X0022437Y0023600D03*
X0022463Y0021950D03*
X0022463Y0021900D03*
X0022463Y0021850D03*
X0020437Y0021650D03*
X0020413Y0021700D03*
X0020413Y0023600D03*
X0036663Y0023650D03*
X0036763Y0023300D03*
X0036763Y0023250D03*
X0036763Y0023200D03*
X0036763Y0023150D03*
X0036763Y0023100D03*
X0036763Y0023050D03*
X0036763Y0023000D03*
X0036763Y0022950D03*
X0036763Y0022900D03*
X0036763Y0022850D03*
X0036763Y0022800D03*
X0036763Y0022750D03*
X0036763Y0022700D03*
X0036763Y0022650D03*
X0036763Y0022600D03*
X0036763Y0022550D03*
X0036763Y0022500D03*
X0036763Y0022450D03*
X0036763Y0022400D03*
X0036763Y0022350D03*
X0036763Y0022300D03*
X0036763Y0022250D03*
X0036763Y0022200D03*
X0036763Y0022150D03*
X0036763Y0022100D03*
X0036763Y0022050D03*
X0036663Y0021650D03*
X0038237Y0023600D03*
X0038263Y0023650D03*
X0040263Y0023650D03*
X0040287Y0023550D03*
X0040287Y0023500D03*
X0040287Y0023450D03*
X0041763Y0023450D03*
X0041763Y0023400D03*
X0041763Y0023350D03*
X0041787Y0023550D03*
X0041763Y0022450D03*
X0041763Y0022400D03*
X0041763Y0022350D03*
X0041763Y0022300D03*
X0041763Y0022250D03*
X0041763Y0022200D03*
X0041763Y0022150D03*
X0041763Y0022100D03*
X0041763Y0022050D03*
X0041763Y0022000D03*
X0041763Y0021950D03*
X0041763Y0021900D03*
X0041763Y0021850D03*
X0041763Y0021800D03*
X0041763Y0021750D03*
X0041763Y0021700D03*
X0041763Y0021650D03*
X0041763Y0021600D03*
X0041763Y0021550D03*
X0041763Y0021500D03*
X0041763Y0021450D03*
X0041763Y0021400D03*
X0041763Y0021350D03*
X0041763Y0021300D03*
X0041763Y0021250D03*
X0041763Y0021200D03*
X0041763Y0021150D03*
X0041763Y0021100D03*
X0041763Y0021050D03*
X0041763Y0021000D03*
X0041763Y0020950D03*
X0043863Y0021600D03*
X0043863Y0021850D03*
X0043813Y0023650D03*
X0047413Y0023600D03*
X0059963Y0024900D03*
X0063713Y0024900D03*
D138*
X0055625Y0023150D03*
X0035675Y0020950D03*
D139*
X0032125Y0020950D03*
X0033025Y0029850D03*
X0056225Y0023050D03*
D140*
X0037800Y0030500D03*
X0028800Y0020950D03*
D141*
X0021438Y0020950D03*
X0051788Y0029100D03*
D142*
X0051787Y0029075D03*
X0056187Y0024675D03*
X0055587Y0023175D03*
X0056213Y0020975D03*
X0059963Y0024675D03*
X0063713Y0020975D03*
X0028037Y0022825D03*
D143*
X0047225Y0030725D03*
X0052425Y0024425D03*
X0060275Y0020975D03*
X0063725Y0024425D03*
D144*
X0043063Y0022525D03*
X0043113Y0020975D03*
X0028837Y0020975D03*
X0028787Y0022525D03*
X0021237Y0022775D03*
D145*
X0021425Y0020975D03*
X0035675Y0020975D03*
X0051775Y0029125D03*
D146*
X0033025Y0029875D03*
X0032125Y0020975D03*
D147*
X0028537Y0024350D03*
X0021413Y0024350D03*
X0042813Y0024350D03*
X0052437Y0024650D03*
X0056187Y0024650D03*
X0056763Y0022550D03*
X0063713Y0021000D03*
X0063713Y0024650D03*
X0051637Y0052150D03*
X0033537Y0052250D03*
D148*
X0047250Y0030750D03*
X0059950Y0024400D03*
X0060250Y0021000D03*
X0056200Y0021300D03*
D149*
X0056200Y0021000D03*
X0059950Y0024650D03*
X0032950Y0029400D03*
D150*
X0038050Y0030200D03*
X0038450Y0023950D03*
X0038400Y0023900D03*
X0040100Y0023900D03*
X0043750Y0022100D03*
X0043750Y0021350D03*
X0047350Y0023800D03*
X0051400Y0021000D03*
X0055150Y0022050D03*
X0057250Y0023150D03*
X0057250Y0023450D03*
X0057250Y0023500D03*
X0046700Y0030100D03*
X0034700Y0023750D03*
X0029400Y0023900D03*
X0029500Y0022050D03*
X0022400Y0022100D03*
D151*
X0035687Y0021000D03*
X0042813Y0024300D03*
X0051787Y0029150D03*
X0033537Y0052200D03*
D152*
X0033025Y0029900D03*
X0032125Y0021000D03*
D153*
X0021875Y0022550D03*
X0021425Y0021000D03*
X0056725Y0022600D03*
D154*
X0056713Y0022625D03*
X0052437Y0024625D03*
X0063713Y0024625D03*
X0063713Y0021025D03*
X0039263Y0024325D03*
X0037687Y0030675D03*
X0028137Y0022775D03*
X0024987Y0024325D03*
X0021863Y0022575D03*
D155*
X0032988Y0029675D03*
X0037512Y0030975D03*
X0035512Y0024225D03*
X0052438Y0024325D03*
X0060212Y0021025D03*
X0051612Y0051875D03*
D156*
X0059950Y0024625D03*
X0056200Y0021025D03*
D157*
X0055175Y0021925D03*
X0055175Y0021975D03*
X0057225Y0022025D03*
X0057225Y0022075D03*
X0057225Y0023075D03*
X0057225Y0023575D03*
X0057225Y0023625D03*
X0053475Y0023675D03*
X0051375Y0023675D03*
X0051375Y0021025D03*
X0043725Y0022125D03*
X0042025Y0023975D03*
X0036475Y0023975D03*
X0034725Y0023825D03*
X0033325Y0021275D03*
X0032875Y0029025D03*
X0022225Y0021375D03*
X0020575Y0023925D03*
X0020625Y0023975D03*
X0062675Y0023625D03*
X0062675Y0023575D03*
X0062675Y0023525D03*
X0062675Y0023475D03*
X0062675Y0023425D03*
X0062675Y0023375D03*
X0062675Y0023325D03*
X0062675Y0023275D03*
X0062675Y0023225D03*
X0062675Y0023175D03*
X0062675Y0023125D03*
X0062675Y0023075D03*
X0062675Y0023025D03*
X0062675Y0022975D03*
X0062675Y0022925D03*
X0062675Y0022875D03*
X0062675Y0022825D03*
X0062675Y0022775D03*
X0062675Y0022725D03*
X0062675Y0022675D03*
X0062675Y0022625D03*
X0062675Y0022575D03*
X0062675Y0022525D03*
X0062675Y0022475D03*
X0062675Y0022425D03*
X0062675Y0022375D03*
X0062675Y0022325D03*
X0062675Y0022275D03*
X0062675Y0022225D03*
X0062675Y0022175D03*
X0062675Y0022125D03*
X0062675Y0022075D03*
X0062675Y0022025D03*
D158*
X0055512Y0023275D03*
X0046988Y0030375D03*
X0037788Y0030525D03*
X0042988Y0022575D03*
X0043162Y0021025D03*
X0028862Y0021025D03*
X0028712Y0022575D03*
X0022038Y0022425D03*
X0020988Y0022875D03*
X0020912Y0022925D03*
D159*
X0020400Y0023575D03*
X0020400Y0021725D03*
X0026000Y0023575D03*
X0029550Y0023625D03*
X0029600Y0023425D03*
X0029600Y0023375D03*
X0030750Y0021675D03*
X0036700Y0021725D03*
X0036750Y0021875D03*
X0036750Y0021925D03*
X0036750Y0021975D03*
X0036750Y0023325D03*
X0036750Y0023375D03*
X0036750Y0023425D03*
X0040300Y0023375D03*
X0040300Y0023325D03*
X0040300Y0023275D03*
X0040300Y0023225D03*
X0040300Y0023175D03*
X0040300Y0023125D03*
X0040300Y0023075D03*
X0040300Y0023025D03*
X0040300Y0022975D03*
X0040300Y0022925D03*
X0040300Y0022875D03*
X0040300Y0022825D03*
X0040300Y0022775D03*
X0040300Y0022725D03*
X0040300Y0022675D03*
X0040300Y0022625D03*
X0040300Y0022575D03*
X0040300Y0022525D03*
X0040300Y0022475D03*
X0040300Y0022425D03*
X0040300Y0022375D03*
X0040300Y0022325D03*
X0040300Y0022275D03*
X0040300Y0022225D03*
X0040300Y0022175D03*
X0040300Y0022125D03*
X0040300Y0022075D03*
X0040300Y0022025D03*
X0040300Y0021975D03*
X0040300Y0021925D03*
X0040300Y0021875D03*
X0040300Y0021825D03*
X0040300Y0021775D03*
X0040300Y0021725D03*
X0040300Y0021675D03*
X0040300Y0021625D03*
X0040300Y0021575D03*
X0040300Y0021525D03*
X0040300Y0021475D03*
X0040300Y0021425D03*
X0040300Y0021375D03*
X0040300Y0021325D03*
X0040300Y0021275D03*
X0040300Y0021225D03*
X0040300Y0021175D03*
X0040300Y0021125D03*
X0040300Y0021075D03*
X0040300Y0021025D03*
X0045350Y0023525D03*
X0051850Y0028675D03*
D160*
X0035688Y0021025D03*
D161*
X0032125Y0021025D03*
X0033025Y0029925D03*
D162*
X0042375Y0022775D03*
X0021425Y0021025D03*
D163*
X0052425Y0024600D03*
X0063725Y0021050D03*
D164*
X0060200Y0021050D03*
X0059950Y0024300D03*
X0056200Y0021350D03*
D165*
X0056200Y0021050D03*
X0021850Y0022600D03*
X0021400Y0024300D03*
D166*
X0022025Y0022450D03*
X0028875Y0021050D03*
X0043175Y0021050D03*
D167*
X0040300Y0021050D03*
X0040300Y0021100D03*
X0040300Y0021150D03*
X0040300Y0021200D03*
X0040300Y0021250D03*
X0040300Y0021300D03*
X0040300Y0021350D03*
X0040300Y0021400D03*
X0040300Y0021450D03*
X0040300Y0021500D03*
X0040300Y0021550D03*
X0040300Y0021600D03*
X0040300Y0021650D03*
X0040300Y0021700D03*
X0040300Y0021750D03*
X0040300Y0021800D03*
X0040300Y0021850D03*
X0040300Y0021900D03*
X0040300Y0021950D03*
X0040300Y0022000D03*
X0040300Y0022050D03*
X0040300Y0022100D03*
X0040300Y0022150D03*
X0040300Y0022200D03*
X0040300Y0022250D03*
X0040300Y0022300D03*
X0040300Y0022350D03*
X0040300Y0022400D03*
X0040300Y0022450D03*
X0040300Y0022500D03*
X0040300Y0022550D03*
X0040300Y0022600D03*
X0040300Y0022650D03*
X0040300Y0022700D03*
X0040300Y0022750D03*
X0040300Y0022800D03*
X0040300Y0022850D03*
X0040300Y0022900D03*
X0040300Y0022950D03*
X0040300Y0023000D03*
X0040300Y0023050D03*
X0040300Y0023100D03*
X0040300Y0023150D03*
X0040300Y0023200D03*
X0040300Y0023250D03*
X0040300Y0023300D03*
X0040300Y0023350D03*
X0040300Y0023400D03*
X0036750Y0023400D03*
X0036750Y0023450D03*
X0036750Y0023350D03*
X0036700Y0023600D03*
X0036750Y0022000D03*
X0036750Y0021950D03*
X0036750Y0021900D03*
X0036700Y0021700D03*
X0034650Y0021750D03*
X0030750Y0021650D03*
X0029600Y0023400D03*
X0029600Y0023450D03*
X0029550Y0023650D03*
X0026000Y0023600D03*
X0020400Y0023550D03*
X0020350Y0023400D03*
X0020400Y0021750D03*
X0038100Y0030150D03*
X0045350Y0023550D03*
X0047450Y0025650D03*
D168*
X0035687Y0021050D03*
X0028187Y0022700D03*
X0021437Y0021050D03*
D169*
X0032112Y0021050D03*
D170*
X0052425Y0024575D03*
X0063725Y0024575D03*
X0063725Y0021075D03*
D171*
X0060187Y0021075D03*
X0059963Y0024275D03*
X0051737Y0029375D03*
X0046513Y0024125D03*
X0035537Y0024175D03*
D172*
X0042800Y0024275D03*
X0055750Y0023075D03*
X0056200Y0021075D03*
X0033550Y0052175D03*
D173*
X0037638Y0030775D03*
X0028212Y0022675D03*
X0021438Y0021075D03*
X0035688Y0021075D03*
X0056638Y0022675D03*
D174*
X0032125Y0021075D03*
D175*
X0021425Y0021100D03*
X0052425Y0024550D03*
X0063725Y0024550D03*
X0063725Y0021100D03*
D176*
X0060175Y0021100D03*
D177*
X0056200Y0021100D03*
X0042800Y0024250D03*
X0032950Y0029500D03*
X0037650Y0030750D03*
X0021800Y0022650D03*
D178*
X0042950Y0022600D03*
X0043200Y0021100D03*
D179*
X0035687Y0021100D03*
X0037613Y0030800D03*
D180*
X0032113Y0021100D03*
X0033613Y0051750D03*
D181*
X0046987Y0030400D03*
X0042813Y0024450D03*
X0042213Y0022900D03*
X0039263Y0024450D03*
X0028913Y0021100D03*
X0021413Y0024450D03*
X0055537Y0023250D03*
D182*
X0063725Y0024525D03*
X0063725Y0021125D03*
D183*
X0060175Y0021125D03*
X0052425Y0024275D03*
X0033575Y0051975D03*
D184*
X0042800Y0024225D03*
X0056200Y0021125D03*
D185*
X0035688Y0021125D03*
X0024988Y0024175D03*
X0033562Y0052125D03*
D186*
X0051575Y0051625D03*
X0032125Y0021125D03*
D187*
X0028537Y0024225D03*
X0021763Y0022675D03*
X0021437Y0021125D03*
X0021413Y0024225D03*
X0032963Y0029525D03*
X0039263Y0024225D03*
X0042463Y0022675D03*
X0046713Y0024475D03*
X0052437Y0024525D03*
X0051763Y0029225D03*
X0047137Y0030625D03*
X0059963Y0024525D03*
D188*
X0063725Y0021150D03*
X0047175Y0030650D03*
X0035375Y0024450D03*
D189*
X0052412Y0024250D03*
X0056188Y0024250D03*
X0059962Y0024250D03*
X0060162Y0021150D03*
X0063712Y0024250D03*
X0051738Y0029400D03*
D190*
X0056600Y0022700D03*
X0056200Y0021150D03*
X0039250Y0024200D03*
X0028250Y0022650D03*
X0021400Y0024200D03*
D191*
X0021713Y0022700D03*
X0024987Y0024150D03*
X0028537Y0024150D03*
X0035687Y0021150D03*
X0033563Y0052100D03*
D192*
X0032125Y0021150D03*
D193*
X0028525Y0024200D03*
X0024975Y0024200D03*
X0021425Y0021150D03*
X0056175Y0024500D03*
D194*
X0056200Y0021425D03*
X0060150Y0021175D03*
X0033000Y0029725D03*
D195*
X0037600Y0030825D03*
X0039250Y0024175D03*
X0056200Y0021175D03*
X0021400Y0024175D03*
D196*
X0028538Y0024425D03*
X0037762Y0030575D03*
X0042812Y0024425D03*
X0042238Y0022875D03*
X0043238Y0021175D03*
D197*
X0042538Y0022625D03*
X0042812Y0024125D03*
X0046638Y0024375D03*
X0056538Y0022775D03*
X0035688Y0021175D03*
X0024988Y0024125D03*
X0021688Y0022725D03*
X0033562Y0052075D03*
X0051612Y0051975D03*
D198*
X0032125Y0021175D03*
D199*
X0037475Y0031050D03*
X0052425Y0024200D03*
X0060125Y0021200D03*
D200*
X0056550Y0022750D03*
X0056200Y0021200D03*
X0046650Y0024400D03*
X0039250Y0024150D03*
X0021400Y0024150D03*
D201*
X0028012Y0022850D03*
X0043262Y0021200D03*
X0052438Y0024700D03*
X0056188Y0024700D03*
X0059962Y0024700D03*
D202*
X0032125Y0021200D03*
D203*
X0035687Y0021225D03*
X0032987Y0029625D03*
X0021413Y0021225D03*
X0046613Y0024325D03*
X0056187Y0024425D03*
X0063713Y0021225D03*
D204*
X0063712Y0021475D03*
X0060112Y0021225D03*
X0033012Y0029775D03*
X0033588Y0051925D03*
D205*
X0042825Y0055825D03*
X0024975Y0024425D03*
X0021425Y0024425D03*
X0043275Y0021225D03*
D206*
X0032112Y0021225D03*
X0051562Y0051575D03*
D207*
X0047000Y0030425D03*
X0051800Y0029025D03*
X0055550Y0023225D03*
X0029000Y0021225D03*
X0022000Y0022475D03*
D208*
X0056175Y0024400D03*
X0063725Y0021250D03*
D209*
X0060100Y0021250D03*
D210*
X0060912Y0021700D03*
X0062838Y0021650D03*
X0064612Y0024000D03*
X0057088Y0024000D03*
X0057088Y0021650D03*
X0043612Y0022200D03*
X0043588Y0021250D03*
X0042812Y0024600D03*
X0039912Y0024050D03*
X0038588Y0024050D03*
X0027912Y0024050D03*
X0025638Y0024050D03*
X0024988Y0024600D03*
X0024312Y0024050D03*
X0022088Y0024050D03*
X0020762Y0024050D03*
X0051662Y0052450D03*
D211*
X0051625Y0024100D03*
X0055425Y0021550D03*
X0057025Y0021600D03*
X0057025Y0024050D03*
X0056975Y0024100D03*
X0060875Y0021650D03*
X0036275Y0021250D03*
X0035075Y0021250D03*
X0032125Y0021300D03*
X0029225Y0022300D03*
X0027975Y0024100D03*
X0025575Y0024100D03*
X0020825Y0024100D03*
X0020575Y0023150D03*
D212*
X0032125Y0021250D03*
D213*
X0039250Y0024550D03*
X0032900Y0029150D03*
X0024400Y0024100D03*
X0022000Y0021250D03*
X0055400Y0024100D03*
X0064500Y0021550D03*
D214*
X0063725Y0021275D03*
X0056475Y0022825D03*
X0056175Y0024375D03*
X0046575Y0024275D03*
D215*
X0059950Y0024175D03*
X0060100Y0021275D03*
D216*
X0059950Y0024425D03*
X0056200Y0021275D03*
X0035450Y0024325D03*
D217*
X0034812Y0023975D03*
X0035012Y0021275D03*
X0036338Y0021275D03*
X0043438Y0024075D03*
X0045762Y0024075D03*
X0055262Y0023475D03*
X0055288Y0023975D03*
X0055338Y0021625D03*
X0059088Y0024025D03*
X0060812Y0024025D03*
X0062862Y0024025D03*
X0062812Y0021675D03*
X0064612Y0021675D03*
X0020538Y0023175D03*
D218*
X0020725Y0023025D03*
X0032125Y0021275D03*
X0051825Y0028925D03*
X0060775Y0021525D03*
D219*
X0060975Y0021875D03*
X0062725Y0021825D03*
X0062725Y0023825D03*
X0060975Y0023775D03*
X0058975Y0023825D03*
X0057175Y0023825D03*
X0057175Y0021825D03*
X0058975Y0021825D03*
X0055225Y0021775D03*
X0053425Y0023775D03*
X0030925Y0021275D03*
X0022175Y0021325D03*
D220*
X0020500Y0023225D03*
X0027850Y0024025D03*
X0029350Y0021275D03*
X0038550Y0024025D03*
X0043650Y0022175D03*
X0055250Y0021725D03*
X0059050Y0021675D03*
X0060950Y0021825D03*
X0062750Y0023875D03*
X0059050Y0023975D03*
D221*
X0057125Y0022225D03*
X0055325Y0024025D03*
X0053275Y0024025D03*
X0051575Y0024025D03*
X0046375Y0024575D03*
X0051825Y0028825D03*
X0038625Y0024075D03*
X0022075Y0021275D03*
X0021425Y0024575D03*
X0064575Y0021625D03*
D222*
X0063725Y0021300D03*
X0063725Y0024350D03*
X0056175Y0024350D03*
X0052425Y0024350D03*
X0033575Y0052000D03*
D223*
X0033587Y0051900D03*
X0051587Y0051800D03*
X0060087Y0021300D03*
D224*
X0060900Y0023900D03*
X0057150Y0023900D03*
X0057150Y0021750D03*
X0053350Y0023950D03*
X0051500Y0023950D03*
X0051450Y0023850D03*
X0041900Y0023150D03*
X0036400Y0021300D03*
X0034950Y0021300D03*
X0029200Y0024050D03*
X0064650Y0023950D03*
X0033500Y0052550D03*
D225*
X0046525Y0024175D03*
X0056175Y0024325D03*
X0063725Y0024325D03*
X0063725Y0021325D03*
D226*
X0060087Y0021325D03*
X0056313Y0022975D03*
D227*
X0056200Y0021325D03*
X0059950Y0024325D03*
X0046550Y0024225D03*
D228*
X0051400Y0023775D03*
X0053400Y0023825D03*
X0055200Y0023775D03*
X0055200Y0023725D03*
X0055200Y0023575D03*
X0055200Y0021825D03*
X0057200Y0021875D03*
X0057200Y0023775D03*
X0059000Y0023875D03*
X0064700Y0023875D03*
X0064700Y0021825D03*
X0051850Y0028775D03*
X0036450Y0021325D03*
X0034750Y0023875D03*
X0033500Y0052575D03*
D229*
X0051850Y0028725D03*
X0047350Y0023775D03*
X0045500Y0023875D03*
X0043650Y0023925D03*
X0043600Y0023975D03*
X0036550Y0023875D03*
X0030850Y0021325D03*
X0029450Y0022125D03*
X0028550Y0024625D03*
X0025850Y0023875D03*
X0024150Y0023925D03*
X0022250Y0023925D03*
X0022250Y0021425D03*
X0020650Y0021325D03*
X0055150Y0022075D03*
X0057250Y0023125D03*
X0057250Y0023175D03*
X0057250Y0023425D03*
X0057250Y0023475D03*
X0059950Y0024875D03*
D230*
X0056187Y0024300D03*
X0063713Y0024300D03*
X0063713Y0021350D03*
X0035537Y0024150D03*
D231*
X0060075Y0021350D03*
D232*
X0059025Y0021700D03*
X0059025Y0023950D03*
X0060875Y0023950D03*
X0060925Y0023850D03*
X0063725Y0024850D03*
X0055225Y0023850D03*
X0055225Y0023500D03*
X0051475Y0023900D03*
X0046375Y0024600D03*
X0032125Y0021350D03*
D233*
X0037488Y0031025D03*
X0056188Y0024275D03*
X0063712Y0024275D03*
X0063712Y0021375D03*
D234*
X0060062Y0021375D03*
X0051588Y0051775D03*
X0033588Y0051875D03*
D235*
X0035550Y0024125D03*
X0056200Y0021375D03*
X0056400Y0022875D03*
D236*
X0057263Y0023225D03*
X0057263Y0023275D03*
X0057263Y0023325D03*
X0057263Y0023375D03*
X0055137Y0022225D03*
X0055137Y0022175D03*
X0055137Y0022125D03*
X0046387Y0024625D03*
X0043687Y0023875D03*
X0041963Y0023875D03*
X0040113Y0023875D03*
X0039263Y0024625D03*
X0038337Y0023825D03*
X0036587Y0021475D03*
X0034687Y0023725D03*
X0029413Y0023875D03*
X0029513Y0021425D03*
X0029487Y0021375D03*
X0025887Y0023825D03*
X0024113Y0023875D03*
X0020487Y0023825D03*
X0020563Y0021425D03*
X0020613Y0021375D03*
X0043763Y0021375D03*
X0043787Y0022025D03*
X0043763Y0022075D03*
X0051687Y0052525D03*
D237*
X0043762Y0023775D03*
X0043812Y0021975D03*
X0041788Y0022575D03*
X0041888Y0023775D03*
X0040188Y0023775D03*
X0038288Y0023725D03*
X0036638Y0023725D03*
X0036612Y0023775D03*
X0034662Y0023675D03*
X0034738Y0021575D03*
X0034762Y0021525D03*
X0033438Y0021375D03*
X0032112Y0021525D03*
X0032112Y0021575D03*
X0030788Y0021425D03*
X0029588Y0021925D03*
X0029562Y0021975D03*
X0029438Y0023825D03*
X0027612Y0023775D03*
X0027588Y0023725D03*
X0025938Y0023775D03*
X0024038Y0023775D03*
X0022362Y0023775D03*
X0022312Y0023825D03*
X0022438Y0022775D03*
X0022438Y0022025D03*
X0022412Y0021625D03*
X0020388Y0023325D03*
X0020438Y0023725D03*
X0020462Y0023775D03*
X0036612Y0021525D03*
X0036638Y0021575D03*
D238*
X0056200Y0021450D03*
X0063700Y0021400D03*
D239*
X0060062Y0021400D03*
D240*
X0056200Y0021400D03*
X0037500Y0031000D03*
X0033000Y0029700D03*
X0051600Y0051850D03*
D241*
X0051587Y0051825D03*
X0051737Y0029425D03*
X0052413Y0024225D03*
X0056187Y0024225D03*
X0056363Y0022925D03*
X0059963Y0024225D03*
X0063713Y0024225D03*
X0063713Y0021425D03*
D242*
X0060050Y0021425D03*
D243*
X0063713Y0021450D03*
X0063713Y0024200D03*
X0056187Y0024200D03*
X0033587Y0051950D03*
D244*
X0051587Y0051750D03*
X0060037Y0021450D03*
D245*
X0051850Y0028700D03*
X0043750Y0023800D03*
X0043800Y0022000D03*
X0043800Y0021450D03*
X0041900Y0023800D03*
X0036600Y0021500D03*
X0024100Y0023850D03*
X0022300Y0023850D03*
X0022350Y0021550D03*
X0020550Y0021450D03*
D246*
X0056200Y0021475D03*
D247*
X0045425Y0023725D03*
X0043775Y0023725D03*
X0043825Y0021925D03*
X0043825Y0021525D03*
X0041775Y0022525D03*
X0041775Y0023325D03*
X0041825Y0023675D03*
X0040275Y0023625D03*
X0040275Y0023575D03*
X0040225Y0023725D03*
X0038275Y0023675D03*
X0032125Y0021675D03*
X0032125Y0021625D03*
X0030775Y0021525D03*
X0030775Y0021475D03*
X0029575Y0021525D03*
X0029475Y0023775D03*
X0023975Y0023675D03*
X0022425Y0023675D03*
X0022425Y0021675D03*
X0020475Y0021525D03*
X0020425Y0021675D03*
X0020425Y0023675D03*
D248*
X0022188Y0022300D03*
X0037888Y0030400D03*
X0042038Y0023050D03*
X0051712Y0024150D03*
X0055362Y0023400D03*
X0055488Y0024150D03*
X0056888Y0024150D03*
X0059238Y0021500D03*
X0064412Y0021500D03*
X0064438Y0024150D03*
X0051662Y0052350D03*
D249*
X0033513Y0052400D03*
X0032913Y0029250D03*
X0034987Y0024100D03*
X0022113Y0022350D03*
X0060737Y0021500D03*
D250*
X0060850Y0021625D03*
X0056950Y0021525D03*
X0056950Y0024125D03*
D251*
X0059162Y0024100D03*
X0059162Y0021550D03*
X0062938Y0021550D03*
X0062938Y0024100D03*
X0064512Y0024100D03*
X0053212Y0024100D03*
X0046812Y0030200D03*
X0042238Y0024100D03*
X0041988Y0023100D03*
X0043488Y0022300D03*
X0035688Y0024550D03*
X0028538Y0024550D03*
X0051662Y0052400D03*
D252*
X0059250Y0024150D03*
X0060800Y0021550D03*
X0020650Y0023100D03*
D253*
X0039238Y0024525D03*
X0042812Y0024525D03*
X0057038Y0022325D03*
X0060812Y0021575D03*
D254*
X0060900Y0021675D03*
X0059100Y0021625D03*
X0057050Y0024025D03*
X0055400Y0021575D03*
X0064600Y0024025D03*
X0046800Y0030175D03*
X0041950Y0023125D03*
X0036300Y0024075D03*
X0029300Y0022225D03*
X0022050Y0024075D03*
X0037950Y0030325D03*
D255*
X0038650Y0024100D03*
X0043400Y0024100D03*
X0045800Y0024100D03*
X0055350Y0024050D03*
X0060750Y0024100D03*
X0062900Y0021600D03*
X0064550Y0021600D03*
X0033500Y0052500D03*
D256*
X0060675Y0024150D03*
X0060825Y0021600D03*
D257*
X0060937Y0021800D03*
X0062763Y0021750D03*
X0064663Y0021750D03*
X0062763Y0023900D03*
X0062787Y0023950D03*
X0059063Y0024000D03*
X0057113Y0023950D03*
X0055263Y0021700D03*
X0059063Y0021650D03*
X0051837Y0028800D03*
X0046763Y0030150D03*
X0047263Y0023950D03*
X0039263Y0024600D03*
X0036337Y0024050D03*
X0035687Y0024600D03*
X0034787Y0023950D03*
X0028537Y0024600D03*
X0021437Y0024600D03*
X0020513Y0023200D03*
X0037987Y0030300D03*
D258*
X0051550Y0024000D03*
X0053300Y0024000D03*
X0055250Y0023900D03*
X0055300Y0021650D03*
X0057150Y0022200D03*
X0062800Y0021700D03*
D259*
X0064625Y0021700D03*
X0062825Y0024000D03*
X0060825Y0024000D03*
X0060925Y0021750D03*
X0057125Y0021700D03*
X0055275Y0023950D03*
X0045725Y0024050D03*
X0043475Y0024050D03*
X0032875Y0029100D03*
X0029325Y0022200D03*
D260*
X0025675Y0024025D03*
X0022125Y0024025D03*
X0022325Y0022175D03*
X0034775Y0023925D03*
X0032875Y0029075D03*
X0051475Y0023925D03*
X0051525Y0023975D03*
X0057175Y0022175D03*
X0060875Y0023925D03*
X0064675Y0021775D03*
X0051675Y0052475D03*
D261*
X0033425Y0052800D03*
X0020175Y0022250D03*
D262*
X0020687Y0023075D03*
X0022163Y0022325D03*
X0043337Y0022375D03*
D263*
X0032912Y0029225D03*
X0029062Y0022375D03*
X0033512Y0052425D03*
X0051662Y0052325D03*
D264*
X0029000Y0022425D03*
D265*
X0020750Y0023000D03*
X0043250Y0022450D03*
X0046900Y0030300D03*
D266*
X0037763Y0030600D03*
X0042813Y0024400D03*
X0042263Y0022850D03*
X0028537Y0024400D03*
X0021963Y0022500D03*
D267*
X0056800Y0022525D03*
X0051650Y0052175D03*
D268*
X0032937Y0029425D03*
X0021913Y0022525D03*
D269*
X0020938Y0022900D03*
X0027962Y0022900D03*
X0028688Y0022600D03*
X0028738Y0022550D03*
X0028538Y0024450D03*
X0056188Y0024750D03*
X0063712Y0024750D03*
X0051662Y0052250D03*
D270*
X0051638Y0052125D03*
X0033538Y0052225D03*
X0028538Y0024325D03*
X0021412Y0024325D03*
X0042812Y0024325D03*
X0056738Y0022575D03*
D271*
X0056175Y0024575D03*
X0051775Y0029175D03*
X0028525Y0024275D03*
X0028175Y0022725D03*
X0021825Y0022625D03*
X0051625Y0052075D03*
D272*
X0051638Y0052100D03*
X0037662Y0030700D03*
X0028162Y0022750D03*
X0024988Y0024300D03*
X0055712Y0023100D03*
X0056688Y0022650D03*
X0056188Y0024600D03*
X0063712Y0024600D03*
D273*
X0042800Y0024150D03*
X0042500Y0022650D03*
D274*
X0042438Y0022700D03*
X0046738Y0024500D03*
X0051762Y0029200D03*
X0047138Y0030600D03*
X0059962Y0024550D03*
X0028538Y0024250D03*
X0024988Y0024250D03*
X0021412Y0024250D03*
X0033562Y0052150D03*
D275*
X0032975Y0029575D03*
X0028525Y0024175D03*
X0056575Y0022725D03*
D276*
X0047113Y0030575D03*
X0037663Y0030725D03*
X0042413Y0022725D03*
X0024987Y0024275D03*
X0021413Y0024275D03*
D277*
X0039250Y0024300D03*
X0042400Y0022750D03*
X0047100Y0030550D03*
X0059950Y0024600D03*
D278*
X0047088Y0030500D03*
X0037712Y0030650D03*
X0042338Y0022800D03*
D279*
X0039250Y0024350D03*
X0028100Y0022800D03*
D280*
X0028538Y0024375D03*
X0032938Y0029375D03*
X0037738Y0030625D03*
X0042812Y0024375D03*
X0042288Y0022825D03*
X0033538Y0052275D03*
D281*
X0046538Y0024200D03*
X0056438Y0022850D03*
D282*
X0056375Y0022900D03*
D283*
X0027950Y0022925D03*
D284*
X0051738Y0029450D03*
X0056338Y0022950D03*
X0059962Y0024200D03*
D285*
X0056238Y0023025D03*
X0051588Y0051725D03*
D286*
X0032900Y0029175D03*
X0028550Y0024525D03*
X0027800Y0023025D03*
X0055350Y0023425D03*
D287*
X0042813Y0024550D03*
X0027787Y0023050D03*
X0024987Y0024550D03*
D288*
X0044050Y0023075D03*
X0046550Y0029875D03*
D289*
X0056175Y0024625D03*
X0055675Y0023125D03*
D290*
X0038338Y0023150D03*
X0030562Y0024600D03*
D291*
X0030663Y0024475D03*
X0032037Y0024475D03*
X0033437Y0024475D03*
X0043963Y0023175D03*
X0046613Y0029975D03*
X0059987Y0024925D03*
D292*
X0030600Y0024525D03*
X0024050Y0023175D03*
D293*
X0033475Y0024450D03*
X0038225Y0023300D03*
X0043925Y0023200D03*
D294*
X0038275Y0023200D03*
X0030625Y0024500D03*
D295*
X0034525Y0025900D03*
X0024025Y0023200D03*
X0033475Y0052750D03*
D296*
X0055475Y0023300D03*
D297*
X0034950Y0024075D03*
D298*
X0028525Y0024125D03*
X0052425Y0024475D03*
D299*
X0052425Y0024300D03*
X0046525Y0024150D03*
X0035525Y0024200D03*
D300*
X0056175Y0024175D03*
X0063725Y0024175D03*
D301*
X0052425Y0024175D03*
D302*
X0042800Y0024175D03*
X0035350Y0024475D03*
D303*
X0039250Y0024250D03*
X0042800Y0024200D03*
D304*
X0056175Y0024525D03*
X0024975Y0024225D03*
X0051625Y0052025D03*
D305*
X0037537Y0030950D03*
X0046563Y0024250D03*
D306*
X0051750Y0029350D03*
X0059950Y0024350D03*
X0035500Y0024250D03*
X0051600Y0051900D03*
D307*
X0059950Y0024575D03*
X0039250Y0024275D03*
D308*
X0035487Y0024275D03*
X0052437Y0024375D03*
X0063737Y0024375D03*
D309*
X0046600Y0024300D03*
X0037550Y0030900D03*
X0051600Y0051950D03*
D310*
X0032975Y0029650D03*
X0035475Y0024300D03*
X0052425Y0024400D03*
D311*
X0028525Y0024300D03*
D312*
X0046625Y0024350D03*
X0052425Y0024450D03*
X0059975Y0024450D03*
D313*
X0024975Y0024350D03*
D314*
X0051750Y0029325D03*
X0059950Y0024375D03*
X0051600Y0051925D03*
D315*
X0047050Y0030475D03*
X0039250Y0024375D03*
D316*
X0035425Y0024375D03*
D317*
X0024975Y0024375D03*
X0021425Y0024375D03*
D318*
X0063738Y0024400D03*
D319*
X0039250Y0024400D03*
D320*
X0024975Y0024400D03*
X0021425Y0024400D03*
D321*
X0039250Y0024425D03*
D322*
X0035400Y0024425D03*
X0047200Y0030675D03*
D323*
X0056200Y0024775D03*
X0039250Y0024475D03*
X0051650Y0052275D03*
D324*
X0051825Y0028875D03*
X0046375Y0024525D03*
X0021425Y0024525D03*
D325*
X0056175Y0024550D03*
X0051625Y0052050D03*
D326*
X0051850Y0028575D03*
X0033350Y0024575D03*
D327*
X0033350Y0024600D03*
D328*
X0039275Y0024650D03*
D329*
X0047350Y0025900D03*
X0051700Y0052650D03*
D330*
X0038175Y0030075D03*
X0032875Y0028875D03*
D331*
X0051800Y0029050D03*
D332*
X0051750Y0029300D03*
D333*
X0032950Y0029450D03*
D334*
X0032950Y0029475D03*
X0047100Y0030525D03*
D335*
X0051725Y0029500D03*
D336*
X0051713Y0029525D03*
D337*
X0051712Y0029550D03*
D338*
X0051700Y0029575D03*
D339*
X0051700Y0029600D03*
D340*
X0037575Y0030850D03*
X0032975Y0029600D03*
D341*
X0051713Y0029625D03*
D342*
X0051687Y0029650D03*
X0051563Y0051600D03*
X0033613Y0051700D03*
D343*
X0033625Y0051675D03*
X0051675Y0029675D03*
D344*
X0051675Y0029700D03*
D345*
X0051675Y0029725D03*
D346*
X0051675Y0029750D03*
D347*
X0033000Y0029750D03*
D348*
X0033063Y0030125D03*
X0051663Y0029775D03*
X0051537Y0051475D03*
D349*
X0051538Y0051450D03*
X0051662Y0029800D03*
D350*
X0033000Y0029800D03*
X0042650Y0055800D03*
D351*
X0051650Y0029825D03*
D352*
X0033013Y0029825D03*
D353*
X0033087Y0030200D03*
X0051637Y0029850D03*
D354*
X0051638Y0029875D03*
X0033088Y0030225D03*
D355*
X0051637Y0029900D03*
D356*
X0051625Y0029925D03*
X0051525Y0051325D03*
D357*
X0051513Y0051300D03*
X0033113Y0030300D03*
X0051613Y0029950D03*
D358*
X0033025Y0029950D03*
X0051575Y0051650D03*
D359*
X0033687Y0051375D03*
X0051613Y0029975D03*
D360*
X0033038Y0029975D03*
X0033612Y0051725D03*
D361*
X0051600Y0030000D03*
D362*
X0038175Y0030000D03*
D363*
X0033038Y0030000D03*
D364*
X0051600Y0030025D03*
X0033700Y0051325D03*
D365*
X0033037Y0030025D03*
D366*
X0051588Y0030050D03*
D367*
X0033050Y0030050D03*
D368*
X0051587Y0030075D03*
X0042513Y0055525D03*
D369*
X0033050Y0030075D03*
D370*
X0051575Y0030100D03*
X0042525Y0055300D03*
X0042525Y0055350D03*
X0042525Y0055400D03*
X0042525Y0055450D03*
D371*
X0033062Y0030100D03*
D372*
X0051575Y0030125D03*
X0042525Y0055175D03*
X0042525Y0055225D03*
D373*
X0033737Y0051200D03*
X0051563Y0030150D03*
D374*
X0033075Y0030150D03*
D375*
X0051550Y0030175D03*
X0033750Y0051175D03*
D376*
X0033662Y0051525D03*
X0033088Y0030175D03*
D377*
X0033188Y0030600D03*
X0051538Y0030200D03*
X0051438Y0051000D03*
X0042538Y0054700D03*
D378*
X0042537Y0054525D03*
X0042537Y0054475D03*
X0042537Y0054425D03*
X0033187Y0030625D03*
X0051537Y0030225D03*
D379*
X0051525Y0030250D03*
X0042525Y0054300D03*
X0042525Y0054350D03*
X0042525Y0054400D03*
D380*
X0033100Y0030250D03*
D381*
X0051525Y0030275D03*
X0042525Y0054175D03*
D382*
X0033100Y0030275D03*
D383*
X0051525Y0030300D03*
X0051425Y0050950D03*
D384*
X0042537Y0053925D03*
X0051513Y0030325D03*
D385*
X0033112Y0030325D03*
D386*
X0033213Y0030750D03*
X0051513Y0030350D03*
X0051413Y0050850D03*
X0042537Y0053550D03*
X0042537Y0053600D03*
X0042537Y0053650D03*
X0042537Y0053700D03*
X0033787Y0051000D03*
D387*
X0033125Y0030350D03*
D388*
X0051500Y0030375D03*
D389*
X0033125Y0030375D03*
D390*
X0051500Y0030400D03*
X0042550Y0053300D03*
D391*
X0033125Y0030400D03*
D392*
X0051488Y0030425D03*
X0042562Y0053075D03*
X0042562Y0053125D03*
D393*
X0042512Y0055575D03*
X0033138Y0030425D03*
D394*
X0051487Y0030450D03*
X0042563Y0052950D03*
X0042563Y0053000D03*
D395*
X0042513Y0055550D03*
X0033713Y0051300D03*
X0033137Y0030450D03*
D396*
X0033275Y0030875D03*
X0051475Y0030475D03*
X0033825Y0050875D03*
D397*
X0033150Y0030475D03*
D398*
X0051462Y0030500D03*
X0051362Y0050700D03*
X0042538Y0052550D03*
X0042538Y0052600D03*
X0033838Y0050850D03*
D399*
X0033162Y0030500D03*
D400*
X0051450Y0030525D03*
X0042550Y0052275D03*
X0042550Y0052325D03*
X0042550Y0052375D03*
X0033850Y0050825D03*
D401*
X0042513Y0055025D03*
X0033163Y0030525D03*
D402*
X0051450Y0030550D03*
X0051350Y0050650D03*
D403*
X0042525Y0054850D03*
X0042525Y0054900D03*
X0033175Y0030550D03*
D404*
X0051450Y0030575D03*
D405*
X0033175Y0030575D03*
X0042525Y0054725D03*
X0042525Y0054775D03*
D406*
X0051438Y0030600D03*
D407*
X0051437Y0030625D03*
X0042563Y0051825D03*
D408*
X0051425Y0030650D03*
D409*
X0033200Y0030650D03*
D410*
X0051412Y0030675D03*
X0051338Y0050525D03*
D411*
X0042538Y0054025D03*
X0033212Y0030675D03*
D412*
X0051413Y0030700D03*
X0042537Y0051650D03*
D413*
X0033225Y0030700D03*
D414*
X0051412Y0030725D03*
D415*
X0033225Y0030725D03*
D416*
X0051413Y0030750D03*
D417*
X0050200Y0030775D03*
X0049550Y0032525D03*
X0035650Y0033625D03*
X0035550Y0033475D03*
X0034650Y0031075D03*
X0035600Y0043775D03*
D418*
X0033225Y0030775D03*
D419*
X0035537Y0033450D03*
X0035563Y0033500D03*
X0036363Y0035600D03*
X0035637Y0037550D03*
X0035687Y0043850D03*
X0049363Y0043850D03*
X0049463Y0037600D03*
X0049637Y0032400D03*
X0049663Y0032350D03*
X0049687Y0032300D03*
X0050213Y0030800D03*
D420*
X0033237Y0030800D03*
X0042537Y0053250D03*
D421*
X0035738Y0043925D03*
X0035512Y0043725D03*
X0034838Y0038475D03*
X0035488Y0033325D03*
X0034638Y0031125D03*
X0048588Y0035375D03*
X0049412Y0037525D03*
X0049712Y0032225D03*
X0050212Y0030825D03*
D422*
X0033250Y0030825D03*
D423*
X0034625Y0031150D03*
X0035475Y0033300D03*
X0035775Y0043950D03*
X0050225Y0030850D03*
D424*
X0033275Y0030850D03*
D425*
X0035413Y0033175D03*
X0035437Y0033225D03*
X0035787Y0043975D03*
X0049287Y0043975D03*
X0049363Y0037475D03*
X0050237Y0030875D03*
D426*
X0050238Y0030900D03*
X0049838Y0032000D03*
X0048612Y0035550D03*
X0049338Y0037450D03*
X0035762Y0037400D03*
X0034612Y0031200D03*
D427*
X0033275Y0030900D03*
D428*
X0034612Y0031225D03*
X0035262Y0032925D03*
X0035288Y0032975D03*
X0035312Y0033025D03*
X0036362Y0035725D03*
X0048612Y0035525D03*
X0049812Y0032025D03*
X0050238Y0030925D03*
X0049262Y0044025D03*
D429*
X0037538Y0030925D03*
X0033562Y0052025D03*
D430*
X0033275Y0030925D03*
D431*
X0035237Y0032850D03*
X0036363Y0035750D03*
X0035787Y0037350D03*
X0048613Y0035600D03*
X0049913Y0031900D03*
X0049937Y0031850D03*
X0049963Y0031800D03*
X0050237Y0030950D03*
X0049237Y0044050D03*
D432*
X0033275Y0030950D03*
D433*
X0034613Y0031275D03*
X0035213Y0032825D03*
X0036363Y0035775D03*
X0035813Y0037325D03*
X0035863Y0044075D03*
X0049213Y0044075D03*
X0048613Y0035625D03*
X0049887Y0031925D03*
X0049937Y0031825D03*
X0050237Y0030975D03*
D434*
X0033287Y0030975D03*
X0042563Y0052125D03*
D435*
X0050088Y0038150D03*
X0048612Y0035650D03*
X0049988Y0031750D03*
X0050012Y0031700D03*
X0050238Y0031000D03*
X0036362Y0035800D03*
X0036362Y0035850D03*
X0035838Y0037300D03*
X0035112Y0032650D03*
D436*
X0033300Y0031000D03*
D437*
X0035088Y0032625D03*
X0035162Y0032725D03*
X0035188Y0032775D03*
X0036362Y0035825D03*
X0048612Y0035675D03*
X0050238Y0031025D03*
X0049188Y0044125D03*
D438*
X0042575Y0051775D03*
X0033325Y0031025D03*
D439*
X0035075Y0032600D03*
X0049225Y0037300D03*
X0050225Y0031050D03*
X0035925Y0044150D03*
D440*
X0033863Y0050700D03*
X0051337Y0050550D03*
X0033337Y0031050D03*
D441*
X0035037Y0032525D03*
X0036363Y0035875D03*
X0036363Y0035925D03*
X0035963Y0044175D03*
X0049213Y0037275D03*
X0050037Y0031625D03*
X0050063Y0031575D03*
X0050237Y0031075D03*
D442*
X0050237Y0031100D03*
X0050063Y0031600D03*
X0050037Y0031650D03*
X0048613Y0035700D03*
X0036363Y0035900D03*
X0036363Y0035950D03*
X0035863Y0037250D03*
X0035037Y0032500D03*
X0035013Y0032450D03*
D443*
X0035500Y0033350D03*
X0034650Y0031100D03*
X0035550Y0043750D03*
X0042550Y0051200D03*
D444*
X0035875Y0037225D03*
X0035025Y0032475D03*
X0034575Y0031375D03*
X0050225Y0031175D03*
X0050225Y0031125D03*
D445*
X0050225Y0031150D03*
X0050075Y0031550D03*
X0034575Y0031350D03*
D446*
X0034625Y0031175D03*
X0035325Y0033075D03*
X0035375Y0033125D03*
X0049775Y0032125D03*
D447*
X0050112Y0031500D03*
X0050188Y0031350D03*
X0050212Y0031300D03*
X0050212Y0031250D03*
X0050212Y0031200D03*
X0048612Y0035750D03*
X0049162Y0037200D03*
X0036362Y0036000D03*
X0034962Y0032350D03*
X0035988Y0044200D03*
D448*
X0036012Y0044225D03*
X0036362Y0036025D03*
X0034988Y0032375D03*
X0048612Y0035725D03*
X0049188Y0037225D03*
X0050138Y0031475D03*
X0050162Y0031425D03*
X0050188Y0031375D03*
X0050188Y0031325D03*
X0050212Y0031275D03*
X0050212Y0031225D03*
X0049112Y0044175D03*
D449*
X0049300Y0037400D03*
X0035250Y0032900D03*
X0034600Y0031250D03*
X0035850Y0044050D03*
D450*
X0049200Y0044100D03*
X0035200Y0032800D03*
X0035150Y0032700D03*
X0034600Y0031300D03*
D451*
X0034575Y0031325D03*
X0035075Y0032575D03*
X0050025Y0031675D03*
D452*
X0050175Y0031400D03*
X0034925Y0032300D03*
X0034875Y0032200D03*
X0034575Y0031400D03*
X0036025Y0044250D03*
X0049075Y0044200D03*
D453*
X0049063Y0044225D03*
X0050187Y0043175D03*
X0048613Y0035775D03*
X0036363Y0036075D03*
X0034913Y0032275D03*
X0034587Y0031425D03*
D454*
X0034900Y0032250D03*
X0036350Y0036050D03*
X0050150Y0031450D03*
X0042550Y0051150D03*
D455*
X0049037Y0044250D03*
X0048613Y0035800D03*
X0034837Y0032150D03*
X0034587Y0031450D03*
D456*
X0034588Y0031475D03*
X0034588Y0031525D03*
X0034762Y0031975D03*
X0034788Y0032025D03*
X0048612Y0035875D03*
X0050212Y0038175D03*
D457*
X0049112Y0037150D03*
X0048612Y0035850D03*
X0048988Y0044300D03*
X0035238Y0043650D03*
X0034788Y0032050D03*
X0034588Y0031500D03*
D458*
X0035000Y0032425D03*
X0036350Y0035975D03*
X0050100Y0031525D03*
D459*
X0034750Y0031950D03*
X0034600Y0031600D03*
X0034600Y0031550D03*
D460*
X0034600Y0031575D03*
X0034600Y0031625D03*
X0036350Y0036125D03*
X0034600Y0038525D03*
D461*
X0036013Y0037100D03*
X0036363Y0036150D03*
X0034687Y0031850D03*
X0034663Y0031800D03*
X0034637Y0031750D03*
X0034613Y0031700D03*
X0034613Y0031650D03*
X0048613Y0035950D03*
D462*
X0049087Y0037125D03*
X0048963Y0044325D03*
X0036113Y0044325D03*
X0035987Y0037125D03*
X0034737Y0031925D03*
X0034713Y0031875D03*
X0034663Y0031825D03*
X0034637Y0031775D03*
X0034613Y0031675D03*
D463*
X0035850Y0037275D03*
X0050000Y0031725D03*
D464*
X0048625Y0035925D03*
X0034625Y0031725D03*
D465*
X0035125Y0032675D03*
X0035375Y0043675D03*
X0049975Y0031775D03*
D466*
X0049925Y0031875D03*
X0049325Y0037425D03*
X0050025Y0043225D03*
X0035825Y0044025D03*
X0035775Y0037375D03*
D467*
X0034775Y0032000D03*
X0034725Y0031900D03*
X0048625Y0035900D03*
D468*
X0049875Y0031950D03*
X0035275Y0032950D03*
D469*
X0035250Y0032875D03*
X0048600Y0035575D03*
X0049300Y0037375D03*
X0049850Y0031975D03*
X0042550Y0051175D03*
D470*
X0035800Y0044000D03*
X0035450Y0043700D03*
X0035350Y0033100D03*
X0035300Y0033000D03*
X0048600Y0035450D03*
X0048600Y0035500D03*
X0049800Y0032050D03*
D471*
X0049800Y0032075D03*
X0048600Y0035475D03*
X0035750Y0037425D03*
D472*
X0034800Y0032075D03*
D473*
X0035387Y0033150D03*
X0035413Y0033200D03*
X0035437Y0033250D03*
X0036363Y0035700D03*
X0049387Y0037500D03*
X0049763Y0032150D03*
X0049787Y0032100D03*
X0049963Y0043250D03*
D474*
X0035950Y0037150D03*
X0036350Y0036100D03*
X0034800Y0032100D03*
D475*
X0034825Y0032125D03*
X0048625Y0035825D03*
X0049025Y0044275D03*
D476*
X0035700Y0037475D03*
X0035450Y0033275D03*
X0048600Y0035425D03*
X0049750Y0032175D03*
D477*
X0049150Y0037175D03*
X0036050Y0044275D03*
X0034950Y0032325D03*
X0034850Y0032175D03*
D478*
X0048600Y0035400D03*
X0049750Y0032200D03*
X0049300Y0043950D03*
D479*
X0035925Y0037175D03*
X0034875Y0032225D03*
D480*
X0036362Y0035650D03*
X0048588Y0035350D03*
X0049438Y0037550D03*
X0049712Y0032250D03*
X0049338Y0043900D03*
D481*
X0049350Y0043875D03*
X0049450Y0037575D03*
X0049650Y0032375D03*
X0049700Y0032275D03*
X0035650Y0037525D03*
D482*
X0036375Y0035625D03*
X0049675Y0032325D03*
D483*
X0049200Y0037250D03*
X0035900Y0037200D03*
X0035000Y0032400D03*
D484*
X0035513Y0033375D03*
X0035537Y0033425D03*
X0036363Y0035575D03*
X0035613Y0037575D03*
X0035663Y0043825D03*
X0035713Y0043875D03*
X0048587Y0035325D03*
X0049487Y0037625D03*
X0049613Y0032425D03*
X0049913Y0043275D03*
D485*
X0049900Y0038100D03*
X0049500Y0037650D03*
X0049600Y0032450D03*
X0035600Y0033550D03*
X0035600Y0037600D03*
D486*
X0035575Y0037625D03*
X0036375Y0035525D03*
X0035675Y0033675D03*
X0035625Y0033575D03*
X0035575Y0033525D03*
X0049575Y0032475D03*
X0049375Y0043825D03*
D487*
X0049412Y0043800D03*
X0049538Y0032550D03*
X0049562Y0032500D03*
X0036362Y0035500D03*
X0035712Y0033750D03*
X0035688Y0033700D03*
X0035662Y0033650D03*
X0035562Y0037650D03*
D488*
X0034700Y0038500D03*
X0035050Y0032550D03*
X0050100Y0043200D03*
X0049150Y0044150D03*
D489*
X0049512Y0037675D03*
X0049512Y0032625D03*
X0049538Y0032575D03*
X0035688Y0033725D03*
D490*
X0035725Y0033800D03*
X0036375Y0035450D03*
X0048575Y0035250D03*
X0049525Y0037700D03*
X0049525Y0032600D03*
D491*
X0049500Y0032650D03*
D492*
X0049475Y0032675D03*
X0049575Y0037775D03*
X0035825Y0033975D03*
X0035775Y0033875D03*
D493*
X0035788Y0033900D03*
X0035812Y0033950D03*
X0035838Y0034000D03*
X0035762Y0033850D03*
X0036388Y0035400D03*
X0035488Y0037750D03*
X0034938Y0038450D03*
X0048588Y0035150D03*
X0049438Y0032750D03*
X0049462Y0032700D03*
X0049588Y0037800D03*
X0049812Y0038050D03*
X0049512Y0043650D03*
X0042538Y0051250D03*
D494*
X0049488Y0043675D03*
X0048588Y0035175D03*
X0049412Y0032825D03*
X0049438Y0032775D03*
X0049462Y0032725D03*
X0035862Y0034025D03*
D495*
X0035175Y0032750D03*
X0049275Y0037350D03*
X0035875Y0044100D03*
D496*
X0035875Y0034050D03*
X0049425Y0032800D03*
D497*
X0049400Y0032850D03*
X0049350Y0032900D03*
X0036400Y0035350D03*
X0035900Y0034100D03*
D498*
X0035925Y0034125D03*
X0035475Y0037775D03*
X0049375Y0032875D03*
D499*
X0049337Y0032925D03*
X0049313Y0032975D03*
X0049287Y0033025D03*
X0048587Y0035125D03*
X0049763Y0038025D03*
X0049537Y0043625D03*
X0035463Y0037825D03*
X0035963Y0034225D03*
X0035937Y0034175D03*
D500*
X0035937Y0034150D03*
X0035463Y0037800D03*
X0048587Y0035100D03*
X0049313Y0032950D03*
X0049613Y0037850D03*
X0049637Y0037900D03*
X0049563Y0043600D03*
D501*
X0049300Y0033000D03*
X0035950Y0034200D03*
X0035450Y0037850D03*
D502*
X0035425Y0037900D03*
X0035975Y0034250D03*
X0049275Y0033050D03*
X0049725Y0038000D03*
X0049575Y0043550D03*
D503*
X0049275Y0044000D03*
X0035725Y0037450D03*
X0035325Y0033050D03*
D504*
X0035975Y0034275D03*
X0035425Y0037875D03*
X0048575Y0035075D03*
X0049275Y0033075D03*
X0049625Y0037875D03*
X0049575Y0043575D03*
D505*
X0049612Y0043500D03*
X0049662Y0037950D03*
X0048562Y0035050D03*
X0049262Y0033100D03*
X0036388Y0035300D03*
X0035988Y0034300D03*
D506*
X0035412Y0037925D03*
X0049688Y0037975D03*
X0049238Y0033125D03*
X0049612Y0043475D03*
X0042538Y0051275D03*
D507*
X0049625Y0043450D03*
X0049225Y0033150D03*
X0036125Y0034500D03*
X0036025Y0034350D03*
D508*
X0036137Y0034525D03*
X0036387Y0035225D03*
X0035387Y0037975D03*
X0048563Y0035025D03*
X0049213Y0033175D03*
D509*
X0049200Y0033200D03*
X0049150Y0033300D03*
X0049700Y0043350D03*
X0036150Y0034550D03*
D510*
X0036175Y0034575D03*
X0049175Y0033225D03*
X0049675Y0043375D03*
D511*
X0049175Y0033250D03*
X0036175Y0034600D03*
X0035375Y0038000D03*
D512*
X0035362Y0038025D03*
X0035338Y0038075D03*
X0036388Y0035175D03*
X0036188Y0034625D03*
X0049138Y0033325D03*
X0049162Y0033275D03*
D513*
X0049112Y0033350D03*
X0048538Y0034950D03*
X0036388Y0035200D03*
X0036212Y0034700D03*
X0036188Y0034650D03*
X0035338Y0038050D03*
X0035062Y0038400D03*
D514*
X0036250Y0034775D03*
X0036200Y0034675D03*
X0048550Y0034925D03*
X0049100Y0033375D03*
D515*
X0049075Y0033400D03*
X0035325Y0038100D03*
X0042525Y0051300D03*
D516*
X0035725Y0043900D03*
X0035675Y0037500D03*
X0035525Y0033400D03*
D517*
X0036287Y0034825D03*
X0036363Y0034975D03*
X0036387Y0035125D03*
X0035313Y0038125D03*
X0048537Y0034875D03*
X0049013Y0033525D03*
X0049037Y0033475D03*
X0049063Y0033425D03*
D518*
X0049050Y0033450D03*
X0036400Y0035150D03*
D519*
X0036387Y0035100D03*
X0036387Y0035050D03*
X0036337Y0034900D03*
X0036237Y0034750D03*
X0048537Y0034850D03*
X0048537Y0034900D03*
X0049037Y0033500D03*
D520*
X0049000Y0033550D03*
X0036350Y0034950D03*
X0036300Y0034850D03*
X0035300Y0038150D03*
D521*
X0035100Y0038375D03*
X0036400Y0035075D03*
X0036350Y0034925D03*
X0049000Y0033575D03*
D522*
X0048988Y0033600D03*
X0048538Y0034800D03*
X0035262Y0038200D03*
X0035238Y0038250D03*
X0035188Y0038300D03*
X0035138Y0038350D03*
D523*
X0036375Y0035550D03*
X0035625Y0033600D03*
X0035625Y0043800D03*
X0048575Y0035300D03*
D524*
X0048975Y0033625D03*
D525*
X0048950Y0033650D03*
D526*
X0048937Y0033675D03*
X0048913Y0033725D03*
X0048537Y0034775D03*
D527*
X0048913Y0033750D03*
X0048937Y0033700D03*
D528*
X0048900Y0033775D03*
X0048850Y0033825D03*
D529*
X0048575Y0035275D03*
X0049425Y0043775D03*
X0036375Y0035475D03*
X0035725Y0033775D03*
D530*
X0048875Y0033800D03*
D531*
X0035800Y0033925D03*
X0035750Y0033825D03*
X0035500Y0037725D03*
D532*
X0048538Y0034750D03*
X0048788Y0033950D03*
X0048812Y0033900D03*
X0048838Y0033850D03*
D533*
X0048812Y0033875D03*
D534*
X0048800Y0033925D03*
D535*
X0048775Y0033975D03*
X0048525Y0034725D03*
D536*
X0048763Y0034000D03*
D537*
X0048737Y0034025D03*
X0042537Y0051325D03*
D538*
X0048525Y0034700D03*
X0048725Y0034050D03*
D539*
X0048712Y0034075D03*
D540*
X0049600Y0037825D03*
X0036400Y0035375D03*
X0035900Y0034075D03*
D541*
X0048512Y0034650D03*
X0048688Y0034150D03*
X0048712Y0034100D03*
D542*
X0048700Y0034125D03*
X0048650Y0034225D03*
D543*
X0048675Y0034175D03*
X0048525Y0034625D03*
D544*
X0048513Y0034550D03*
X0048637Y0034250D03*
X0048663Y0034200D03*
D545*
X0048613Y0034275D03*
X0048513Y0034575D03*
D546*
X0048550Y0034400D03*
X0048600Y0034300D03*
D547*
X0048575Y0034325D03*
X0048525Y0034475D03*
X0048525Y0034525D03*
D548*
X0049725Y0043325D03*
X0036075Y0034425D03*
X0036025Y0034325D03*
D549*
X0048562Y0034350D03*
D550*
X0048550Y0034375D03*
D551*
X0049650Y0043425D03*
X0035000Y0038425D03*
X0036400Y0035275D03*
X0036100Y0034475D03*
X0036050Y0034375D03*
D552*
X0036063Y0034400D03*
X0036087Y0034450D03*
X0036387Y0035250D03*
X0048563Y0035000D03*
X0049663Y0043400D03*
D553*
X0048538Y0034425D03*
D554*
X0048525Y0034450D03*
X0048525Y0034500D03*
D555*
X0048525Y0034600D03*
D556*
X0048525Y0034675D03*
D557*
X0036225Y0034725D03*
D558*
X0036275Y0034800D03*
X0036375Y0035000D03*
D559*
X0035212Y0038275D03*
X0035162Y0038325D03*
X0048538Y0034825D03*
D560*
X0036375Y0035025D03*
X0036325Y0034875D03*
X0035275Y0038175D03*
D561*
X0048550Y0034975D03*
D562*
X0048575Y0035200D03*
X0049825Y0043300D03*
X0049475Y0043700D03*
D563*
X0049463Y0043725D03*
X0049837Y0038075D03*
X0049537Y0037725D03*
X0048587Y0035225D03*
X0036387Y0035425D03*
X0035537Y0037675D03*
D564*
X0036400Y0035325D03*
X0049650Y0037925D03*
X0049600Y0043525D03*
D565*
X0049325Y0043925D03*
X0049975Y0038125D03*
X0036375Y0035675D03*
D566*
X0048625Y0035975D03*
D567*
X0048625Y0036000D03*
D568*
X0048638Y0036025D03*
X0036038Y0037075D03*
D569*
X0036363Y0036250D03*
X0048637Y0036050D03*
X0049013Y0037050D03*
D570*
X0048637Y0036075D03*
X0048887Y0044375D03*
X0036163Y0044375D03*
X0036363Y0036275D03*
D571*
X0036350Y0036300D03*
X0036100Y0037000D03*
X0036200Y0044400D03*
X0042550Y0051100D03*
X0048650Y0036100D03*
D572*
X0048650Y0036125D03*
X0036350Y0036425D03*
X0036150Y0036975D03*
D573*
X0036350Y0036400D03*
X0035050Y0043600D03*
X0048850Y0044450D03*
X0048650Y0036150D03*
D574*
X0048637Y0036175D03*
X0048813Y0044475D03*
D575*
X0042550Y0051125D03*
X0036350Y0036175D03*
D576*
X0036350Y0036500D03*
X0048650Y0036200D03*
X0050400Y0038250D03*
D577*
X0050288Y0038200D03*
X0049062Y0037100D03*
X0036362Y0036200D03*
D578*
X0036212Y0036925D03*
X0034988Y0043575D03*
X0048638Y0036225D03*
D579*
X0036350Y0036225D03*
D580*
X0036188Y0036950D03*
X0048638Y0036250D03*
X0048888Y0036950D03*
D581*
X0048625Y0036275D03*
D582*
X0048625Y0036300D03*
X0036225Y0036900D03*
D583*
X0036263Y0036875D03*
X0048637Y0036325D03*
X0048813Y0036875D03*
X0048863Y0036925D03*
D584*
X0049000Y0037025D03*
X0050350Y0038225D03*
X0036350Y0036325D03*
D585*
X0036275Y0036850D03*
X0048625Y0036350D03*
D586*
X0048962Y0037000D03*
X0050338Y0043150D03*
X0036362Y0036350D03*
D587*
X0036325Y0044525D03*
X0048625Y0036375D03*
D588*
X0048862Y0044425D03*
X0036212Y0044425D03*
X0034488Y0038575D03*
X0036362Y0036375D03*
D589*
X0048638Y0036400D03*
X0048788Y0036850D03*
D590*
X0048638Y0036425D03*
X0048738Y0044525D03*
D591*
X0048650Y0036450D03*
X0036350Y0036600D03*
X0036350Y0044550D03*
D592*
X0036363Y0036450D03*
D593*
X0034887Y0043525D03*
X0036387Y0044575D03*
X0048637Y0036475D03*
D594*
X0036350Y0036475D03*
X0036250Y0044475D03*
X0042550Y0051075D03*
D595*
X0048700Y0044550D03*
X0048650Y0036500D03*
X0036350Y0036650D03*
X0036350Y0036700D03*
X0036350Y0036750D03*
D596*
X0036350Y0036725D03*
X0036350Y0036675D03*
X0048650Y0036525D03*
X0048750Y0036825D03*
D597*
X0050450Y0038275D03*
X0036350Y0036525D03*
D598*
X0048650Y0036550D03*
X0048700Y0036800D03*
X0048650Y0044600D03*
D599*
X0048763Y0044500D03*
X0048837Y0036900D03*
X0036337Y0036550D03*
D600*
X0048650Y0036575D03*
D601*
X0050450Y0043125D03*
X0036350Y0036575D03*
D602*
X0048663Y0036600D03*
X0042537Y0051000D03*
D603*
X0036463Y0044625D03*
X0048687Y0036775D03*
X0048663Y0036625D03*
D604*
X0036350Y0036625D03*
X0036300Y0036825D03*
X0034350Y0038625D03*
X0042550Y0051025D03*
D605*
X0048650Y0036650D03*
D606*
X0048650Y0036675D03*
X0048600Y0044625D03*
D607*
X0048662Y0036700D03*
D608*
X0048662Y0036725D03*
X0050588Y0043075D03*
D609*
X0048675Y0036750D03*
D610*
X0036338Y0036775D03*
D611*
X0036325Y0036800D03*
X0036425Y0044600D03*
X0050525Y0038300D03*
D612*
X0048925Y0036975D03*
D613*
X0049025Y0037075D03*
X0036075Y0037025D03*
X0035125Y0043625D03*
D614*
X0036150Y0044350D03*
X0036050Y0037050D03*
D615*
X0035900Y0044125D03*
X0049250Y0037325D03*
D616*
X0049563Y0037750D03*
X0049437Y0043750D03*
X0035513Y0037700D03*
D617*
X0035400Y0037950D03*
D618*
X0035250Y0038225D03*
D619*
X0050662Y0038325D03*
D620*
X0050763Y0038350D03*
D621*
X0050837Y0038375D03*
X0036737Y0044775D03*
X0042537Y0050925D03*
D622*
X0042550Y0050900D03*
X0050900Y0038400D03*
D623*
X0050938Y0038425D03*
X0033938Y0038725D03*
D624*
X0042550Y0050850D03*
X0051000Y0038450D03*
D625*
X0051087Y0038475D03*
X0048137Y0044825D03*
X0036937Y0044825D03*
D626*
X0051225Y0038500D03*
D627*
X0051300Y0038525D03*
X0042550Y0050725D03*
D628*
X0033963Y0043250D03*
X0051363Y0038550D03*
D629*
X0048925Y0044350D03*
X0034525Y0038550D03*
D630*
X0033912Y0043225D03*
X0051412Y0038575D03*
D631*
X0051450Y0038600D03*
D632*
X0034425Y0038600D03*
D633*
X0033788Y0043175D03*
X0051538Y0038625D03*
D634*
X0051662Y0038650D03*
D635*
X0036525Y0044650D03*
X0034225Y0038650D03*
D636*
X0032838Y0039825D03*
X0032838Y0039875D03*
X0032838Y0039925D03*
X0032862Y0041575D03*
X0032862Y0041625D03*
X0032862Y0041675D03*
X0042538Y0050525D03*
X0052188Y0041625D03*
X0052188Y0041575D03*
X0052188Y0041525D03*
X0052212Y0041375D03*
X0052212Y0041325D03*
X0052212Y0040075D03*
X0052212Y0040025D03*
X0052212Y0039975D03*
X0052212Y0039925D03*
X0052212Y0039875D03*
X0051762Y0038675D03*
D637*
X0048413Y0044725D03*
X0034087Y0038675D03*
D638*
X0032925Y0041950D03*
X0051825Y0038700D03*
X0052175Y0039550D03*
D639*
X0033988Y0038700D03*
D640*
X0032925Y0039325D03*
X0033025Y0042375D03*
X0052125Y0041975D03*
X0052125Y0039375D03*
X0051875Y0038725D03*
D641*
X0051887Y0038750D03*
X0052113Y0039250D03*
X0052113Y0039300D03*
X0052087Y0042150D03*
X0052087Y0042200D03*
X0052087Y0042250D03*
X0051887Y0042650D03*
X0032963Y0039200D03*
X0032937Y0039250D03*
X0032937Y0039300D03*
D642*
X0033875Y0038750D03*
D643*
X0033075Y0042475D03*
X0052075Y0042275D03*
X0051925Y0038775D03*
D644*
X0033825Y0038775D03*
D645*
X0033088Y0042500D03*
X0033112Y0042600D03*
X0033388Y0043050D03*
X0051938Y0042600D03*
X0052088Y0039100D03*
X0052088Y0039050D03*
X0051938Y0038800D03*
D646*
X0033737Y0038800D03*
D647*
X0033088Y0042525D03*
X0051912Y0042625D03*
X0051962Y0042525D03*
X0052038Y0042375D03*
X0052062Y0042325D03*
X0052088Y0039075D03*
X0051962Y0038825D03*
D648*
X0033600Y0038825D03*
D649*
X0033125Y0042650D03*
X0051975Y0042500D03*
X0052025Y0042400D03*
X0051975Y0038850D03*
D650*
X0033488Y0038850D03*
D651*
X0033137Y0042675D03*
X0033363Y0043025D03*
X0051987Y0038875D03*
X0052013Y0038925D03*
D652*
X0033412Y0038875D03*
D653*
X0052013Y0038900D03*
X0052037Y0038950D03*
D654*
X0033362Y0038900D03*
D655*
X0033300Y0038925D03*
D656*
X0033225Y0038950D03*
D657*
X0033100Y0042575D03*
X0051950Y0042575D03*
X0052000Y0042425D03*
X0052050Y0038975D03*
D658*
X0052275Y0040625D03*
X0033125Y0038975D03*
X0032825Y0041175D03*
X0032825Y0041225D03*
D659*
X0033100Y0042550D03*
X0051950Y0042550D03*
X0052000Y0042450D03*
X0052050Y0039000D03*
D660*
X0052175Y0041700D03*
X0052175Y0041750D03*
X0033075Y0039000D03*
X0032875Y0039550D03*
X0032875Y0039600D03*
X0032875Y0041700D03*
X0032875Y0041750D03*
D661*
X0033125Y0042625D03*
X0051975Y0042475D03*
X0052075Y0039025D03*
D662*
X0052200Y0039725D03*
X0052200Y0039775D03*
X0052200Y0039825D03*
X0033050Y0039025D03*
X0032850Y0039675D03*
X0032850Y0039725D03*
X0032850Y0039775D03*
X0032900Y0041825D03*
X0032900Y0041875D03*
D663*
X0032913Y0041900D03*
X0032863Y0039650D03*
X0032887Y0039500D03*
X0033037Y0039050D03*
X0052187Y0039600D03*
X0052187Y0039650D03*
X0052163Y0041800D03*
D664*
X0052175Y0039575D03*
X0052175Y0039525D03*
X0033025Y0039075D03*
X0032925Y0041975D03*
D665*
X0032900Y0039450D03*
X0033000Y0039100D03*
X0051800Y0042700D03*
X0052150Y0041850D03*
D666*
X0052100Y0039225D03*
X0052100Y0039175D03*
X0052100Y0039125D03*
D667*
X0052138Y0039425D03*
X0052162Y0039475D03*
X0052138Y0041925D03*
X0051838Y0042675D03*
X0033012Y0042325D03*
X0033012Y0042275D03*
X0032988Y0042225D03*
X0032988Y0042175D03*
X0032962Y0042125D03*
X0032962Y0042075D03*
X0032912Y0039375D03*
X0032988Y0039125D03*
D668*
X0052100Y0039150D03*
X0052100Y0039200D03*
X0052050Y0042350D03*
D669*
X0052125Y0041950D03*
X0052125Y0039400D03*
X0052125Y0039350D03*
X0032975Y0039150D03*
X0032925Y0039350D03*
X0033025Y0042350D03*
D670*
X0033063Y0042425D03*
X0033437Y0043075D03*
X0032937Y0039275D03*
X0032937Y0039225D03*
X0032963Y0039175D03*
X0052113Y0039275D03*
X0052113Y0039325D03*
X0052087Y0042175D03*
X0052087Y0042225D03*
D671*
X0052112Y0042000D03*
X0052138Y0041900D03*
X0052162Y0039500D03*
X0033488Y0043100D03*
X0033012Y0042300D03*
X0032988Y0042250D03*
X0032988Y0042200D03*
X0032988Y0042150D03*
X0032962Y0042100D03*
X0032962Y0042050D03*
X0032938Y0042000D03*
X0032912Y0039400D03*
D672*
X0032900Y0039425D03*
X0032950Y0042025D03*
X0052150Y0041875D03*
D673*
X0052100Y0042050D03*
X0052100Y0042100D03*
X0052150Y0039450D03*
X0033050Y0042400D03*
D674*
X0032913Y0041925D03*
X0032863Y0039625D03*
X0032887Y0039525D03*
X0032887Y0039475D03*
X0051763Y0042725D03*
X0052163Y0041825D03*
X0052187Y0039675D03*
X0052187Y0039625D03*
D675*
X0052175Y0041675D03*
X0052175Y0041725D03*
X0052175Y0041775D03*
X0032875Y0041775D03*
X0032875Y0041725D03*
X0032875Y0039575D03*
D676*
X0032850Y0039700D03*
X0032850Y0039750D03*
X0032850Y0039800D03*
X0032900Y0041850D03*
X0052200Y0039800D03*
X0052200Y0039750D03*
X0052200Y0039700D03*
D677*
X0052212Y0039850D03*
X0052212Y0039900D03*
X0052212Y0039950D03*
X0052212Y0040000D03*
X0052212Y0040050D03*
X0052212Y0041350D03*
X0052188Y0041550D03*
X0052188Y0041600D03*
X0052188Y0041650D03*
X0032888Y0041800D03*
X0032862Y0041650D03*
X0032862Y0041600D03*
X0032838Y0039900D03*
X0032838Y0039850D03*
D678*
X0032825Y0039950D03*
X0032825Y0040000D03*
X0032825Y0040050D03*
X0032825Y0040100D03*
X0051725Y0042750D03*
X0052225Y0041300D03*
X0052225Y0041250D03*
X0052225Y0041200D03*
X0052225Y0041150D03*
X0052225Y0040250D03*
X0052225Y0040200D03*
X0052225Y0040150D03*
X0052225Y0040100D03*
D679*
X0052225Y0040125D03*
X0052225Y0040175D03*
X0052225Y0040225D03*
X0052225Y0041125D03*
X0052225Y0041175D03*
X0052225Y0041225D03*
X0052225Y0041275D03*
X0032825Y0040075D03*
X0032825Y0040025D03*
X0032825Y0039975D03*
D680*
X0032813Y0040125D03*
X0032813Y0040175D03*
X0032813Y0040225D03*
X0032813Y0041125D03*
X0032837Y0041275D03*
X0032837Y0041325D03*
X0032837Y0041375D03*
X0052237Y0041075D03*
X0052237Y0041025D03*
X0052237Y0040975D03*
X0052263Y0040575D03*
X0052263Y0040525D03*
X0052263Y0040475D03*
X0052263Y0040425D03*
X0052237Y0040375D03*
X0052237Y0040325D03*
X0052237Y0040275D03*
D681*
X0052237Y0040300D03*
X0052237Y0040350D03*
X0052237Y0040400D03*
X0052263Y0040450D03*
X0052263Y0040500D03*
X0052263Y0040550D03*
X0052237Y0040950D03*
X0052237Y0041000D03*
X0052237Y0041050D03*
X0052237Y0041100D03*
X0032837Y0041250D03*
X0032837Y0041300D03*
X0032837Y0041350D03*
X0032837Y0041400D03*
X0032813Y0041150D03*
X0032813Y0041100D03*
X0032813Y0040250D03*
X0032813Y0040200D03*
X0032813Y0040150D03*
D682*
X0032800Y0040275D03*
X0032800Y0040325D03*
X0032800Y0040375D03*
X0032800Y0040425D03*
X0032800Y0040925D03*
X0032800Y0040975D03*
X0032800Y0041025D03*
X0032800Y0041075D03*
X0052250Y0040925D03*
X0052250Y0040875D03*
X0052250Y0040825D03*
D683*
X0052250Y0040850D03*
X0052250Y0040900D03*
X0052250Y0040800D03*
X0032800Y0040950D03*
X0032800Y0041000D03*
X0032800Y0041050D03*
X0032800Y0040400D03*
X0032800Y0040350D03*
X0032800Y0040300D03*
D684*
X0032788Y0040450D03*
X0032788Y0040500D03*
X0032788Y0040550D03*
X0032788Y0040600D03*
X0032788Y0040650D03*
X0032788Y0040700D03*
X0032788Y0040750D03*
X0032788Y0040800D03*
X0032788Y0040850D03*
X0032788Y0040900D03*
X0052262Y0040750D03*
X0052262Y0040700D03*
D685*
X0052262Y0040725D03*
X0052262Y0040775D03*
X0052262Y0040675D03*
X0051662Y0042775D03*
X0032788Y0040875D03*
X0032788Y0040825D03*
X0032788Y0040775D03*
X0032788Y0040725D03*
X0032788Y0040675D03*
X0032788Y0040625D03*
X0032788Y0040575D03*
X0032788Y0040525D03*
X0032788Y0040475D03*
D686*
X0032825Y0041200D03*
X0052275Y0040650D03*
X0052275Y0040600D03*
D687*
X0052200Y0041400D03*
X0052200Y0041450D03*
X0052200Y0041500D03*
X0032850Y0041500D03*
X0032850Y0041550D03*
X0032850Y0041450D03*
D688*
X0032850Y0041475D03*
X0032850Y0041525D03*
X0032850Y0041425D03*
X0033550Y0043125D03*
X0052200Y0041475D03*
X0052200Y0041425D03*
D689*
X0052100Y0042025D03*
X0052100Y0042075D03*
X0052100Y0042125D03*
D690*
X0052075Y0042300D03*
X0033075Y0042450D03*
D691*
X0033150Y0042700D03*
D692*
X0033150Y0042725D03*
X0033300Y0042975D03*
D693*
X0033262Y0042950D03*
X0033188Y0042800D03*
X0033162Y0042750D03*
D694*
X0033175Y0042775D03*
D695*
X0051575Y0042800D03*
D696*
X0051450Y0042825D03*
D697*
X0033200Y0042825D03*
D698*
X0051325Y0042850D03*
D699*
X0033200Y0042850D03*
D700*
X0051250Y0042875D03*
D701*
X0033238Y0042925D03*
X0033212Y0042875D03*
D702*
X0051187Y0042900D03*
D703*
X0033225Y0042900D03*
D704*
X0051137Y0042925D03*
D705*
X0051075Y0042950D03*
D706*
X0050962Y0042975D03*
D707*
X0050813Y0043000D03*
D708*
X0033325Y0043000D03*
D709*
X0050712Y0043025D03*
D710*
X0050625Y0043050D03*
D711*
X0050525Y0043100D03*
D712*
X0033650Y0043150D03*
D713*
X0033862Y0043200D03*
D714*
X0034025Y0043275D03*
D715*
X0034100Y0043300D03*
D716*
X0034225Y0043325D03*
D717*
X0034325Y0043350D03*
D718*
X0034400Y0043375D03*
D719*
X0034462Y0043400D03*
D720*
X0034513Y0043425D03*
D721*
X0034575Y0043450D03*
D722*
X0034675Y0043475D03*
D723*
X0034800Y0043500D03*
D724*
X0034950Y0043550D03*
D725*
X0036075Y0044300D03*
D726*
X0048875Y0044400D03*
D727*
X0036225Y0044450D03*
D728*
X0036300Y0044500D03*
X0042550Y0051050D03*
D729*
X0048675Y0044575D03*
D730*
X0048550Y0044650D03*
D731*
X0048487Y0044675D03*
X0036613Y0044675D03*
D732*
X0048438Y0044700D03*
D733*
X0036650Y0044700D03*
D734*
X0036675Y0044725D03*
D735*
X0048375Y0044750D03*
D736*
X0036712Y0044750D03*
D737*
X0048350Y0044775D03*
D738*
X0048287Y0044800D03*
X0036787Y0044800D03*
D739*
X0048025Y0044850D03*
D740*
X0042563Y0050750D03*
X0037113Y0044850D03*
D741*
X0047938Y0044875D03*
D742*
X0037213Y0044875D03*
D743*
X0042538Y0044900D03*
D744*
X0042550Y0044925D03*
D745*
X0042537Y0044950D03*
X0042587Y0047950D03*
D746*
X0042537Y0044975D03*
D747*
X0042550Y0045000D03*
D748*
X0042550Y0045025D03*
D749*
X0042563Y0045050D03*
D750*
X0042550Y0045075D03*
D751*
X0042550Y0045100D03*
D752*
X0042550Y0045125D03*
D753*
X0042537Y0045150D03*
X0042587Y0047800D03*
D754*
X0042550Y0045175D03*
D755*
X0042538Y0045200D03*
X0042538Y0045250D03*
D756*
X0042538Y0045225D03*
X0042588Y0047775D03*
D757*
X0042587Y0047725D03*
X0042537Y0045325D03*
X0042537Y0045275D03*
D758*
X0042537Y0045300D03*
X0042587Y0047750D03*
D759*
X0042588Y0047700D03*
X0042538Y0045350D03*
D760*
X0042550Y0045375D03*
X0042600Y0047675D03*
D761*
X0042537Y0045400D03*
D762*
X0042538Y0045425D03*
X0042588Y0047625D03*
D763*
X0042600Y0047600D03*
X0042550Y0045450D03*
D764*
X0042537Y0045475D03*
X0042587Y0047575D03*
D765*
X0042588Y0047550D03*
X0042538Y0045500D03*
D766*
X0042538Y0045525D03*
D767*
X0042537Y0045550D03*
X0042537Y0045600D03*
D768*
X0042537Y0045575D03*
X0042587Y0047525D03*
D769*
X0042550Y0045625D03*
D770*
X0042538Y0045650D03*
D771*
X0042550Y0045675D03*
X0042600Y0047475D03*
D772*
X0042537Y0045700D03*
D773*
X0042550Y0045725D03*
D774*
X0042550Y0045750D03*
X0042600Y0047400D03*
D775*
X0042550Y0045775D03*
D776*
X0042550Y0045800D03*
X0042600Y0047350D03*
D777*
X0042538Y0045825D03*
D778*
X0042550Y0045850D03*
D779*
X0042537Y0045875D03*
D780*
X0042537Y0045900D03*
D781*
X0042538Y0045925D03*
D782*
X0042538Y0045950D03*
D783*
X0042550Y0045975D03*
X0042600Y0047275D03*
D784*
X0042537Y0046000D03*
D785*
X0042550Y0046025D03*
X0042600Y0047225D03*
D786*
X0042600Y0047200D03*
X0042550Y0046050D03*
D787*
X0042563Y0046075D03*
X0042613Y0047175D03*
D788*
X0042600Y0047150D03*
X0042550Y0046100D03*
D789*
X0042550Y0046125D03*
D790*
X0042537Y0046150D03*
D791*
X0042550Y0046175D03*
X0042600Y0047075D03*
D792*
X0042538Y0046200D03*
D793*
X0042538Y0046225D03*
D794*
X0042537Y0046250D03*
D795*
X0042537Y0046275D03*
X0042613Y0047025D03*
D796*
X0042612Y0047000D03*
X0042538Y0046300D03*
D797*
X0042550Y0046325D03*
D798*
X0042550Y0046350D03*
D799*
X0042550Y0046375D03*
D800*
X0042537Y0046400D03*
D801*
X0042550Y0046425D03*
D802*
X0042538Y0046450D03*
D803*
X0042537Y0046475D03*
D804*
X0042537Y0046500D03*
D805*
X0042550Y0046525D03*
D806*
X0042550Y0046550D03*
D807*
X0042550Y0046575D03*
X0042600Y0046775D03*
D808*
X0042550Y0046600D03*
D809*
X0042563Y0046625D03*
X0042587Y0046675D03*
D810*
X0042587Y0046650D03*
X0042613Y0046750D03*
D811*
X0042600Y0046700D03*
D812*
X0042600Y0046725D03*
D813*
X0042612Y0046800D03*
D814*
X0042600Y0046825D03*
D815*
X0042600Y0046850D03*
D816*
X0042613Y0046875D03*
D817*
X0042612Y0046900D03*
D818*
X0042612Y0046925D03*
D819*
X0042613Y0046950D03*
D820*
X0042613Y0046975D03*
D821*
X0042600Y0047050D03*
D822*
X0042600Y0047100D03*
D823*
X0042612Y0047125D03*
D824*
X0042600Y0047250D03*
D825*
X0042600Y0047300D03*
D826*
X0042600Y0047325D03*
D827*
X0042613Y0047375D03*
D828*
X0042612Y0047425D03*
D829*
X0042600Y0047450D03*
D830*
X0042600Y0047500D03*
D831*
X0042600Y0047650D03*
D832*
X0042588Y0047825D03*
D833*
X0042600Y0047850D03*
D834*
X0042587Y0047875D03*
D835*
X0042600Y0047900D03*
D836*
X0042588Y0047925D03*
D837*
X0042575Y0047975D03*
D838*
X0042575Y0048000D03*
D839*
X0042575Y0048025D03*
D840*
X0042588Y0048050D03*
D841*
X0042587Y0048075D03*
D842*
X0042600Y0048100D03*
D843*
X0042588Y0048125D03*
D844*
X0042587Y0048150D03*
D845*
X0042575Y0048175D03*
D846*
X0042575Y0048200D03*
D847*
X0042563Y0048225D03*
D848*
X0042575Y0048250D03*
D849*
X0042575Y0048275D03*
D850*
X0042587Y0048300D03*
D851*
X0042588Y0048325D03*
D852*
X0042575Y0048350D03*
D853*
X0042587Y0048375D03*
D854*
X0042575Y0048400D03*
D855*
X0042575Y0048425D03*
D856*
X0042563Y0048450D03*
D857*
X0042562Y0048475D03*
D858*
X0042575Y0048500D03*
D859*
X0042575Y0048525D03*
D860*
X0042588Y0048550D03*
D861*
X0042587Y0048575D03*
D862*
X0042587Y0048600D03*
D863*
X0042588Y0048625D03*
D864*
X0042563Y0048650D03*
D865*
X0042562Y0048675D03*
D866*
X0042562Y0048700D03*
D867*
X0042563Y0048725D03*
D868*
X0042562Y0048750D03*
D869*
X0042575Y0048775D03*
D870*
X0042575Y0048800D03*
D871*
X0042575Y0048825D03*
D872*
X0042575Y0048850D03*
D873*
X0042575Y0048875D03*
D874*
X0042562Y0048900D03*
D875*
X0042563Y0048925D03*
D876*
X0042563Y0048950D03*
D877*
X0042562Y0048975D03*
D878*
X0042563Y0049000D03*
D879*
X0042575Y0049025D03*
D880*
X0042575Y0049050D03*
D881*
X0042575Y0049075D03*
D882*
X0042575Y0049100D03*
D883*
X0042562Y0049125D03*
D884*
X0042563Y0049150D03*
D885*
X0042550Y0049175D03*
D886*
X0042550Y0049200D03*
D887*
X0042563Y0049225D03*
D888*
X0042562Y0049250D03*
D889*
X0042575Y0049275D03*
D890*
X0042563Y0049300D03*
D891*
X0042562Y0049325D03*
D892*
X0042563Y0049350D03*
D893*
X0042550Y0049375D03*
D894*
X0042550Y0049400D03*
D895*
X0042550Y0049425D03*
D896*
X0042550Y0049450D03*
D897*
X0042562Y0049475D03*
D898*
X0042563Y0049500D03*
D899*
X0042562Y0049525D03*
X0042538Y0050425D03*
D900*
X0042550Y0049550D03*
D901*
X0042550Y0049575D03*
D902*
X0042538Y0049600D03*
D903*
X0042550Y0049625D03*
D904*
X0042550Y0049650D03*
D905*
X0042550Y0049675D03*
D906*
X0042550Y0049700D03*
D907*
X0042563Y0049725D03*
X0042537Y0050275D03*
D908*
X0042562Y0049750D03*
D909*
X0042550Y0049775D03*
D910*
X0042563Y0049800D03*
X0042537Y0050200D03*
D911*
X0042550Y0049825D03*
D912*
X0042550Y0049850D03*
D913*
X0042537Y0049875D03*
X0042537Y0049925D03*
X0042537Y0050125D03*
D914*
X0042537Y0050100D03*
X0042537Y0049950D03*
X0042537Y0049900D03*
D915*
X0042525Y0049975D03*
X0042525Y0050025D03*
X0042525Y0050075D03*
D916*
X0042525Y0050050D03*
X0042525Y0050000D03*
D917*
X0042525Y0050150D03*
D918*
X0042538Y0050175D03*
D919*
X0042525Y0050225D03*
D920*
X0042525Y0050250D03*
D921*
X0042538Y0050300D03*
D922*
X0042537Y0050325D03*
D923*
X0042525Y0050350D03*
D924*
X0042525Y0050375D03*
D925*
X0042537Y0050400D03*
D926*
X0033900Y0050600D03*
X0051300Y0050450D03*
D927*
X0039587Y0050450D03*
D928*
X0051313Y0050475D03*
D929*
X0039575Y0050475D03*
D930*
X0051325Y0050500D03*
D931*
X0039550Y0050500D03*
D932*
X0033938Y0050525D03*
D933*
X0042563Y0050550D03*
D934*
X0033900Y0050550D03*
D935*
X0033862Y0050725D03*
X0042562Y0051725D03*
X0051338Y0050575D03*
D936*
X0042562Y0050575D03*
D937*
X0033900Y0050575D03*
D938*
X0051350Y0050600D03*
D939*
X0042550Y0050600D03*
D940*
X0042588Y0051975D03*
X0051338Y0050625D03*
D941*
X0042563Y0050625D03*
D942*
X0033900Y0050625D03*
D943*
X0042550Y0050650D03*
D944*
X0033888Y0050650D03*
D945*
X0051363Y0050675D03*
D946*
X0042550Y0050675D03*
D947*
X0033875Y0050675D03*
D948*
X0042550Y0050700D03*
D949*
X0051375Y0050725D03*
D950*
X0051375Y0050750D03*
D951*
X0042562Y0051750D03*
X0033862Y0050750D03*
D952*
X0051375Y0050775D03*
D953*
X0042550Y0050775D03*
D954*
X0033850Y0050775D03*
D955*
X0033812Y0050950D03*
X0042562Y0053100D03*
X0051388Y0050800D03*
D956*
X0042550Y0050800D03*
D957*
X0033850Y0050800D03*
D958*
X0033800Y0050975D03*
X0042550Y0053275D03*
X0042550Y0053325D03*
X0051400Y0050825D03*
D959*
X0042550Y0050825D03*
D960*
X0042538Y0053775D03*
X0042538Y0053825D03*
X0051412Y0050875D03*
D961*
X0042550Y0050875D03*
D962*
X0042537Y0053900D03*
X0051413Y0050900D03*
D963*
X0042562Y0052900D03*
X0033812Y0050900D03*
D964*
X0051425Y0050925D03*
D965*
X0042563Y0052975D03*
X0042563Y0053025D03*
X0033813Y0050925D03*
D966*
X0042550Y0050950D03*
D967*
X0042538Y0054225D03*
X0042538Y0054275D03*
X0033762Y0051125D03*
X0051438Y0050975D03*
D968*
X0042550Y0050975D03*
D969*
X0042537Y0054825D03*
X0051437Y0051025D03*
D970*
X0033775Y0051025D03*
D971*
X0051450Y0051050D03*
D972*
X0033775Y0051050D03*
D973*
X0051450Y0051075D03*
D974*
X0033775Y0051075D03*
D975*
X0051450Y0051100D03*
D976*
X0042537Y0054100D03*
X0042537Y0054150D03*
X0033763Y0051100D03*
D977*
X0042513Y0055275D03*
X0051463Y0051125D03*
D978*
X0051475Y0051150D03*
X0042525Y0055500D03*
D979*
X0033750Y0051150D03*
D980*
X0051475Y0051175D03*
D981*
X0051487Y0051200D03*
X0042513Y0055600D03*
D982*
X0042512Y0055625D03*
X0051488Y0051225D03*
D983*
X0042550Y0051225D03*
D984*
X0042525Y0055075D03*
X0033725Y0051225D03*
D985*
X0051487Y0051250D03*
D986*
X0042525Y0055150D03*
X0042525Y0055200D03*
X0042525Y0055250D03*
X0033725Y0051250D03*
D987*
X0051500Y0051275D03*
D988*
X0042525Y0055325D03*
X0042525Y0055375D03*
X0042525Y0055425D03*
X0033725Y0051275D03*
D989*
X0051512Y0051350D03*
D990*
X0042537Y0051350D03*
D991*
X0033688Y0051350D03*
D992*
X0051525Y0051375D03*
D993*
X0042550Y0051375D03*
D994*
X0051538Y0051400D03*
D995*
X0042537Y0051400D03*
D996*
X0033688Y0051400D03*
D997*
X0051537Y0051425D03*
D998*
X0042537Y0051425D03*
D999*
X0042513Y0055675D03*
X0033687Y0051425D03*
D1000*
X0042537Y0051450D03*
D1001*
X0033675Y0051450D03*
D1002*
X0042550Y0051475D03*
D1003*
X0033663Y0051475D03*
D1004*
X0051550Y0051500D03*
D1005*
X0042525Y0051500D03*
D1006*
X0033650Y0051500D03*
D1007*
X0051550Y0051525D03*
D1008*
X0042525Y0051525D03*
D1009*
X0051550Y0051550D03*
D1010*
X0042525Y0051550D03*
D1011*
X0033650Y0051550D03*
D1012*
X0042525Y0051575D03*
D1013*
X0033650Y0051575D03*
D1014*
X0042525Y0051600D03*
D1015*
X0033637Y0051600D03*
D1016*
X0042538Y0051625D03*
D1017*
X0033638Y0051625D03*
D1018*
X0033625Y0051650D03*
D1019*
X0051575Y0051675D03*
D1020*
X0042550Y0051675D03*
D1021*
X0051587Y0051700D03*
D1022*
X0042550Y0051700D03*
D1023*
X0033612Y0051775D03*
D1024*
X0042563Y0051800D03*
X0042563Y0051850D03*
D1025*
X0033613Y0051800D03*
D1026*
X0033600Y0051825D03*
D1027*
X0033600Y0051850D03*
D1028*
X0042575Y0051875D03*
X0042575Y0051925D03*
D1029*
X0042575Y0051950D03*
X0042575Y0051900D03*
D1030*
X0042575Y0052000D03*
X0042575Y0052050D03*
X0042575Y0052100D03*
D1031*
X0042575Y0052075D03*
X0042575Y0052025D03*
D1032*
X0042575Y0052150D03*
D1033*
X0042575Y0052175D03*
D1034*
X0042562Y0052200D03*
X0042562Y0052250D03*
D1035*
X0042562Y0052225D03*
D1036*
X0051650Y0052300D03*
D1037*
X0042550Y0052300D03*
X0042550Y0052350D03*
D1038*
X0042550Y0052400D03*
X0042550Y0052450D03*
X0042550Y0052500D03*
D1039*
X0042550Y0052525D03*
X0042550Y0052475D03*
X0042550Y0052425D03*
D1040*
X0042538Y0052575D03*
D1041*
X0042550Y0052625D03*
X0042550Y0052675D03*
X0042550Y0052725D03*
D1042*
X0042550Y0052750D03*
X0042550Y0052700D03*
X0042550Y0052650D03*
D1043*
X0042563Y0052775D03*
D1044*
X0042550Y0052800D03*
X0042550Y0052850D03*
D1045*
X0042550Y0052825D03*
D1046*
X0042562Y0052875D03*
X0042562Y0052925D03*
D1047*
X0042550Y0053050D03*
D1048*
X0042550Y0053150D03*
X0042550Y0053200D03*
D1049*
X0042550Y0053175D03*
D1050*
X0042537Y0053225D03*
D1051*
X0042538Y0053350D03*
X0042538Y0053400D03*
X0042538Y0053450D03*
X0042538Y0053500D03*
D1052*
X0042538Y0053525D03*
X0042538Y0053475D03*
X0042538Y0053425D03*
X0042538Y0053375D03*
D1053*
X0042537Y0053575D03*
X0042537Y0053625D03*
X0042537Y0053675D03*
D1054*
X0042550Y0053725D03*
D1055*
X0042550Y0053750D03*
D1056*
X0042538Y0053800D03*
D1057*
X0042550Y0053850D03*
D1058*
X0042550Y0053875D03*
D1059*
X0042550Y0053950D03*
D1060*
X0042550Y0053975D03*
D1061*
X0042538Y0054000D03*
D1062*
X0042550Y0054050D03*
D1063*
X0042537Y0054075D03*
X0042537Y0054125D03*
D1064*
X0042538Y0054200D03*
X0042538Y0054250D03*
D1065*
X0042525Y0054325D03*
X0042525Y0054375D03*
D1066*
X0042537Y0054450D03*
X0042537Y0054500D03*
D1067*
X0042525Y0054550D03*
X0042525Y0054600D03*
X0042525Y0054650D03*
D1068*
X0042525Y0054625D03*
X0042525Y0054575D03*
D1069*
X0042538Y0054675D03*
D1070*
X0042525Y0054750D03*
X0042525Y0054800D03*
D1071*
X0042525Y0054875D03*
D1072*
X0042512Y0054925D03*
D1073*
X0042525Y0054950D03*
X0042525Y0055000D03*
D1074*
X0042525Y0054975D03*
D1075*
X0042525Y0055050D03*
X0042525Y0055100D03*
D1076*
X0042512Y0055125D03*
D1077*
X0042525Y0055475D03*
D1078*
X0042525Y0055650D03*
D1079*
X0042500Y0055700D03*
D1080*
X0042500Y0055725D03*
D1081*
X0042487Y0055750D03*
D1082*
X0042525Y0055775D03*
M02*
