G75*
%MOIN*%
%OFA0B0*%
%FSLAX25Y25*%
%IPPOS*%
%LPD*%
%AMOC8*
5,1,8,0,0,1.08239X$1,22.5*
%
%ADD10C,0.00500*%
%ADD11R,0.20800X0.30800*%
%ADD12C,0.07850*%
%ADD13C,0.07900*%
%ADD14R,0.04762X0.04762*%
D10*
X0135317Y0036104D02*
X0134865Y0036609D01*
X0134520Y0037191D01*
X0134296Y0037830D01*
X0134200Y0038500D01*
X0134257Y0039174D01*
X0134444Y0039824D01*
X0134754Y0040425D01*
X0135175Y0040954D01*
X0135692Y0041391D01*
X0136284Y0041718D01*
X0136928Y0041924D01*
X0137600Y0042000D01*
X0138255Y0041945D01*
X0138886Y0041764D01*
X0139470Y0041463D01*
X0139983Y0041054D01*
X0140408Y0040553D01*
X0140726Y0039978D01*
X0140926Y0039353D01*
X0141000Y0038700D01*
X0140965Y0038043D01*
X0140803Y0037406D01*
X0140520Y0036813D01*
X0140126Y0036287D01*
X0139637Y0035847D01*
X0139071Y0035512D01*
X0138451Y0035293D01*
X0137800Y0035200D01*
X0137124Y0035237D01*
X0136468Y0035405D01*
X0135858Y0035698D01*
X0135317Y0036104D01*
X0135436Y0036015D02*
X0139824Y0036015D01*
X0140296Y0036514D02*
X0134950Y0036514D01*
X0134626Y0037012D02*
X0140615Y0037012D01*
X0140830Y0037511D02*
X0134408Y0037511D01*
X0134270Y0038009D02*
X0140957Y0038009D01*
X0140990Y0038508D02*
X0134201Y0038508D01*
X0134243Y0039006D02*
X0140965Y0039006D01*
X0140877Y0039505D02*
X0134352Y0039505D01*
X0134536Y0040003D02*
X0140712Y0040003D01*
X0140436Y0040502D02*
X0134815Y0040502D01*
X0135230Y0041000D02*
X0140029Y0041000D01*
X0139401Y0041499D02*
X0135887Y0041499D01*
X0137576Y0041997D02*
X0137633Y0041997D01*
X0136236Y0035517D02*
X0139079Y0035517D01*
X0137800Y0063200D02*
X0137124Y0063237D01*
X0136468Y0063405D01*
X0135858Y0063698D01*
X0135317Y0064104D01*
X0134865Y0064609D01*
X0134520Y0065191D01*
X0134296Y0065830D01*
X0134200Y0066500D01*
X0134257Y0067174D01*
X0134444Y0067824D01*
X0134754Y0068425D01*
X0135175Y0068954D01*
X0135692Y0069391D01*
X0136284Y0069718D01*
X0136928Y0069924D01*
X0137600Y0070000D01*
X0138255Y0069945D01*
X0138886Y0069764D01*
X0139470Y0069463D01*
X0139983Y0069054D01*
X0140408Y0068553D01*
X0140726Y0067978D01*
X0140926Y0067353D01*
X0141000Y0066700D01*
X0140965Y0066043D01*
X0140803Y0065406D01*
X0140520Y0064813D01*
X0140126Y0064287D01*
X0139637Y0063847D01*
X0139071Y0063512D01*
X0138451Y0063293D01*
X0137800Y0063200D01*
X0138848Y0063433D02*
X0136410Y0063433D01*
X0135547Y0063932D02*
X0139731Y0063932D01*
X0140233Y0064430D02*
X0135025Y0064430D01*
X0134675Y0064929D02*
X0140575Y0064929D01*
X0140809Y0065427D02*
X0134437Y0065427D01*
X0134282Y0065926D02*
X0140935Y0065926D01*
X0140985Y0066424D02*
X0134211Y0066424D01*
X0134236Y0066923D02*
X0140975Y0066923D01*
X0140904Y0067421D02*
X0134328Y0067421D01*
X0134493Y0067920D02*
X0140745Y0067920D01*
X0140482Y0068418D02*
X0134750Y0068418D01*
X0135146Y0068917D02*
X0140100Y0068917D01*
X0139530Y0069415D02*
X0135736Y0069415D01*
X0136897Y0069914D02*
X0138364Y0069914D01*
X0204200Y0066500D02*
X0204274Y0065847D01*
X0204474Y0065222D01*
X0204792Y0064647D01*
X0205217Y0064146D01*
X0205730Y0063737D01*
X0206314Y0063436D01*
X0206945Y0063255D01*
X0207600Y0063200D01*
X0208272Y0063276D01*
X0208916Y0063482D01*
X0209508Y0063809D01*
X0210025Y0064246D01*
X0210446Y0064775D01*
X0210756Y0065376D01*
X0210943Y0066026D01*
X0211000Y0066700D01*
X0210904Y0067370D01*
X0210680Y0068009D01*
X0210335Y0068591D01*
X0209883Y0069096D01*
X0209342Y0069502D01*
X0208732Y0069795D01*
X0208076Y0069963D01*
X0207400Y0070000D01*
X0206749Y0069907D01*
X0206129Y0069688D01*
X0205563Y0069353D01*
X0205074Y0068913D01*
X0204680Y0068387D01*
X0204397Y0067794D01*
X0204235Y0067157D01*
X0204200Y0066500D01*
X0204209Y0066424D02*
X0210977Y0066424D01*
X0210968Y0066923D02*
X0204222Y0066923D01*
X0204302Y0067421D02*
X0210886Y0067421D01*
X0210711Y0067920D02*
X0204457Y0067920D01*
X0204704Y0068418D02*
X0210438Y0068418D01*
X0210044Y0068917D02*
X0205078Y0068917D01*
X0205669Y0069415D02*
X0209457Y0069415D01*
X0208267Y0069914D02*
X0206799Y0069914D01*
X0204265Y0065926D02*
X0210915Y0065926D01*
X0210771Y0065427D02*
X0204408Y0065427D01*
X0204636Y0064929D02*
X0210526Y0064929D01*
X0210172Y0064430D02*
X0204976Y0064430D01*
X0205485Y0063932D02*
X0209653Y0063932D01*
X0208764Y0063433D02*
X0206323Y0063433D01*
X0207400Y0042000D02*
X0208076Y0041963D01*
X0208732Y0041795D01*
X0209342Y0041502D01*
X0209883Y0041096D01*
X0210335Y0040591D01*
X0210680Y0040009D01*
X0210904Y0039370D01*
X0211000Y0038700D01*
X0210943Y0038026D01*
X0210756Y0037376D01*
X0210446Y0036775D01*
X0210025Y0036246D01*
X0209508Y0035809D01*
X0208916Y0035482D01*
X0208272Y0035276D01*
X0207600Y0035200D01*
X0206945Y0035255D01*
X0206314Y0035436D01*
X0205730Y0035737D01*
X0205217Y0036146D01*
X0204792Y0036647D01*
X0204474Y0037222D01*
X0204274Y0037847D01*
X0204200Y0038500D01*
X0204235Y0039157D01*
X0204397Y0039794D01*
X0204680Y0040387D01*
X0205074Y0040913D01*
X0205563Y0041353D01*
X0206129Y0041688D01*
X0206749Y0041907D01*
X0207400Y0042000D01*
X0207381Y0041997D02*
X0207450Y0041997D01*
X0205809Y0041499D02*
X0209346Y0041499D01*
X0209969Y0041000D02*
X0205171Y0041000D01*
X0204766Y0040502D02*
X0210388Y0040502D01*
X0210682Y0040003D02*
X0204497Y0040003D01*
X0204323Y0039505D02*
X0210857Y0039505D01*
X0210956Y0039006D02*
X0204227Y0039006D01*
X0204200Y0038508D02*
X0210984Y0038508D01*
X0210939Y0038009D02*
X0204256Y0038009D01*
X0204382Y0037511D02*
X0210795Y0037511D01*
X0210569Y0037012D02*
X0204590Y0037012D01*
X0204905Y0036514D02*
X0210238Y0036514D01*
X0209752Y0036015D02*
X0205381Y0036015D01*
X0206158Y0035517D02*
X0208979Y0035517D01*
X0274200Y0038500D02*
X0274257Y0039174D01*
X0274444Y0039824D01*
X0274754Y0040425D01*
X0275175Y0040954D01*
X0275692Y0041391D01*
X0276284Y0041718D01*
X0276928Y0041924D01*
X0277600Y0042000D01*
X0278255Y0041945D01*
X0278886Y0041764D01*
X0279470Y0041463D01*
X0279983Y0041054D01*
X0280408Y0040553D01*
X0280726Y0039978D01*
X0280926Y0039353D01*
X0281000Y0038700D01*
X0280965Y0038043D01*
X0280803Y0037406D01*
X0280520Y0036813D01*
X0280126Y0036287D01*
X0279637Y0035847D01*
X0279071Y0035512D01*
X0278451Y0035293D01*
X0277800Y0035200D01*
X0277124Y0035237D01*
X0276468Y0035405D01*
X0275858Y0035698D01*
X0275317Y0036104D01*
X0274865Y0036609D01*
X0274520Y0037191D01*
X0274296Y0037830D01*
X0274200Y0038500D01*
X0274201Y0038508D02*
X0280990Y0038508D01*
X0280965Y0039006D02*
X0274243Y0039006D01*
X0274352Y0039505D02*
X0280877Y0039505D01*
X0280712Y0040003D02*
X0274536Y0040003D01*
X0274815Y0040502D02*
X0280436Y0040502D01*
X0280029Y0041000D02*
X0275230Y0041000D01*
X0275887Y0041499D02*
X0279401Y0041499D01*
X0277633Y0041997D02*
X0277576Y0041997D01*
X0274270Y0038009D02*
X0280957Y0038009D01*
X0280830Y0037511D02*
X0274408Y0037511D01*
X0274626Y0037012D02*
X0280615Y0037012D01*
X0280296Y0036514D02*
X0274950Y0036514D01*
X0275436Y0036015D02*
X0279824Y0036015D01*
X0279079Y0035517D02*
X0276236Y0035517D01*
X0277800Y0063200D02*
X0277124Y0063237D01*
X0276468Y0063405D01*
X0275858Y0063698D01*
X0275317Y0064104D01*
X0274865Y0064609D01*
X0274520Y0065191D01*
X0274296Y0065830D01*
X0274200Y0066500D01*
X0274257Y0067174D01*
X0274444Y0067824D01*
X0274754Y0068425D01*
X0275175Y0068954D01*
X0275692Y0069391D01*
X0276284Y0069718D01*
X0276928Y0069924D01*
X0277600Y0070000D01*
X0278255Y0069945D01*
X0278886Y0069764D01*
X0279470Y0069463D01*
X0279983Y0069054D01*
X0280408Y0068553D01*
X0280726Y0067978D01*
X0280926Y0067353D01*
X0281000Y0066700D01*
X0280965Y0066043D01*
X0280803Y0065406D01*
X0280520Y0064813D01*
X0280126Y0064287D01*
X0279637Y0063847D01*
X0279071Y0063512D01*
X0278451Y0063293D01*
X0277800Y0063200D01*
X0278848Y0063433D02*
X0276410Y0063433D01*
X0275547Y0063932D02*
X0279731Y0063932D01*
X0280233Y0064430D02*
X0275025Y0064430D01*
X0274675Y0064929D02*
X0280575Y0064929D01*
X0280809Y0065427D02*
X0274437Y0065427D01*
X0274282Y0065926D02*
X0280935Y0065926D01*
X0280985Y0066424D02*
X0274211Y0066424D01*
X0274236Y0066923D02*
X0280975Y0066923D01*
X0280904Y0067421D02*
X0274328Y0067421D01*
X0274493Y0067920D02*
X0280745Y0067920D01*
X0280482Y0068418D02*
X0274750Y0068418D01*
X0275146Y0068917D02*
X0280100Y0068917D01*
X0279530Y0069415D02*
X0275736Y0069415D01*
X0276897Y0069914D02*
X0278364Y0069914D01*
X0277800Y0205200D02*
X0277124Y0205237D01*
X0276468Y0205405D01*
X0275858Y0205698D01*
X0275317Y0206104D01*
X0274865Y0206609D01*
X0274520Y0207191D01*
X0274296Y0207830D01*
X0274200Y0208500D01*
X0274257Y0209174D01*
X0274444Y0209824D01*
X0274754Y0210425D01*
X0275175Y0210954D01*
X0275692Y0211391D01*
X0276284Y0211718D01*
X0276928Y0211924D01*
X0277600Y0212000D01*
X0278255Y0211945D01*
X0278886Y0211764D01*
X0279470Y0211463D01*
X0279983Y0211054D01*
X0280408Y0210553D01*
X0280726Y0209978D01*
X0280926Y0209353D01*
X0281000Y0208700D01*
X0280965Y0208043D01*
X0280803Y0207406D01*
X0280520Y0206813D01*
X0280126Y0206287D01*
X0279637Y0205847D01*
X0279071Y0205512D01*
X0278451Y0205293D01*
X0277800Y0205200D01*
X0279063Y0205509D02*
X0276252Y0205509D01*
X0275446Y0206008D02*
X0279815Y0206008D01*
X0280290Y0206506D02*
X0274957Y0206506D01*
X0274630Y0207005D02*
X0280611Y0207005D01*
X0280828Y0207503D02*
X0274410Y0207503D01*
X0274271Y0208002D02*
X0280955Y0208002D01*
X0280989Y0208500D02*
X0274200Y0208500D01*
X0274242Y0208999D02*
X0280966Y0208999D01*
X0280880Y0209497D02*
X0274350Y0209497D01*
X0274532Y0209996D02*
X0280716Y0209996D01*
X0280440Y0210494D02*
X0274809Y0210494D01*
X0275221Y0210993D02*
X0280036Y0210993D01*
X0279415Y0211491D02*
X0275873Y0211491D01*
X0277509Y0211990D02*
X0277724Y0211990D01*
X0277800Y0233200D02*
X0277124Y0233237D01*
X0276468Y0233405D01*
X0275858Y0233698D01*
X0275317Y0234104D01*
X0274865Y0234609D01*
X0274520Y0235191D01*
X0274296Y0235830D01*
X0274200Y0236500D01*
X0274257Y0237174D01*
X0274444Y0237824D01*
X0274754Y0238425D01*
X0275175Y0238954D01*
X0275692Y0239391D01*
X0276284Y0239718D01*
X0276928Y0239924D01*
X0277600Y0240000D01*
X0278255Y0239945D01*
X0278886Y0239764D01*
X0279470Y0239463D01*
X0279983Y0239054D01*
X0280408Y0238553D01*
X0280726Y0237978D01*
X0280926Y0237353D01*
X0281000Y0236700D01*
X0280965Y0236043D01*
X0280803Y0235406D01*
X0280520Y0234813D01*
X0280126Y0234287D01*
X0279637Y0233847D01*
X0279071Y0233512D01*
X0278451Y0233293D01*
X0277800Y0233200D01*
X0278827Y0233426D02*
X0276426Y0233426D01*
X0275557Y0233924D02*
X0279722Y0233924D01*
X0280228Y0234423D02*
X0275031Y0234423D01*
X0274680Y0234921D02*
X0280571Y0234921D01*
X0280807Y0235420D02*
X0274440Y0235420D01*
X0274283Y0235918D02*
X0280933Y0235918D01*
X0280985Y0236417D02*
X0274212Y0236417D01*
X0274235Y0236915D02*
X0280976Y0236915D01*
X0280906Y0237414D02*
X0274326Y0237414D01*
X0274489Y0237912D02*
X0280747Y0237912D01*
X0280486Y0238411D02*
X0274746Y0238411D01*
X0275140Y0238909D02*
X0280106Y0238909D01*
X0279539Y0239408D02*
X0275723Y0239408D01*
X0276873Y0239906D02*
X0278391Y0239906D01*
X0211000Y0236700D02*
X0210943Y0236026D01*
X0210756Y0235376D01*
X0210446Y0234775D01*
X0210025Y0234246D01*
X0209508Y0233809D01*
X0208916Y0233482D01*
X0208272Y0233276D01*
X0207600Y0233200D01*
X0206945Y0233255D01*
X0206314Y0233436D01*
X0205730Y0233737D01*
X0205217Y0234146D01*
X0204792Y0234647D01*
X0204474Y0235222D01*
X0204274Y0235847D01*
X0204200Y0236500D01*
X0204235Y0237157D01*
X0204397Y0237794D01*
X0204680Y0238387D01*
X0205074Y0238913D01*
X0205563Y0239353D01*
X0206129Y0239688D01*
X0206749Y0239907D01*
X0207400Y0240000D01*
X0208076Y0239963D01*
X0208732Y0239795D01*
X0209342Y0239502D01*
X0209883Y0239096D01*
X0210335Y0238591D01*
X0210680Y0238009D01*
X0210904Y0237370D01*
X0211000Y0236700D01*
X0210969Y0236915D02*
X0204222Y0236915D01*
X0204209Y0236417D02*
X0210976Y0236417D01*
X0210912Y0235918D02*
X0204266Y0235918D01*
X0204411Y0235420D02*
X0210769Y0235420D01*
X0210522Y0234921D02*
X0204641Y0234921D01*
X0204982Y0234423D02*
X0210166Y0234423D01*
X0209644Y0233924D02*
X0205495Y0233924D01*
X0206350Y0233426D02*
X0208740Y0233426D01*
X0210889Y0237414D02*
X0204300Y0237414D01*
X0204453Y0237912D02*
X0210714Y0237912D01*
X0210442Y0238411D02*
X0204698Y0238411D01*
X0205071Y0238909D02*
X0210050Y0238909D01*
X0209467Y0239408D02*
X0205656Y0239408D01*
X0206748Y0239906D02*
X0208297Y0239906D01*
X0207400Y0212000D02*
X0208076Y0211963D01*
X0208732Y0211795D01*
X0209342Y0211502D01*
X0209883Y0211096D01*
X0210335Y0210591D01*
X0210680Y0210009D01*
X0210904Y0209370D01*
X0211000Y0208700D01*
X0210943Y0208026D01*
X0210756Y0207376D01*
X0210446Y0206775D01*
X0210025Y0206246D01*
X0209508Y0205809D01*
X0208916Y0205482D01*
X0208272Y0205276D01*
X0207600Y0205200D01*
X0206945Y0205255D01*
X0206314Y0205436D01*
X0205730Y0205737D01*
X0205217Y0206146D01*
X0204792Y0206647D01*
X0204474Y0207222D01*
X0204274Y0207847D01*
X0204200Y0208500D01*
X0204235Y0209157D01*
X0204397Y0209794D01*
X0204680Y0210387D01*
X0205074Y0210913D01*
X0205563Y0211353D01*
X0206129Y0211688D01*
X0206749Y0211907D01*
X0207400Y0212000D01*
X0207328Y0211990D02*
X0207589Y0211990D01*
X0209356Y0211491D02*
X0205797Y0211491D01*
X0205162Y0210993D02*
X0209976Y0210993D01*
X0210393Y0210494D02*
X0204761Y0210494D01*
X0204493Y0209996D02*
X0210685Y0209996D01*
X0210860Y0209497D02*
X0204321Y0209497D01*
X0204226Y0208999D02*
X0210957Y0208999D01*
X0210983Y0208500D02*
X0204200Y0208500D01*
X0204257Y0208002D02*
X0210936Y0208002D01*
X0210793Y0207503D02*
X0204384Y0207503D01*
X0204594Y0207005D02*
X0210565Y0207005D01*
X0210232Y0206506D02*
X0204912Y0206506D01*
X0205390Y0206008D02*
X0209743Y0206008D01*
X0208965Y0205509D02*
X0206172Y0205509D01*
X0141000Y0208700D02*
X0140926Y0209353D01*
X0140726Y0209978D01*
X0140408Y0210553D01*
X0139983Y0211054D01*
X0139470Y0211463D01*
X0138886Y0211764D01*
X0138255Y0211945D01*
X0137600Y0212000D01*
X0136928Y0211924D01*
X0136284Y0211718D01*
X0135692Y0211391D01*
X0135175Y0210954D01*
X0134754Y0210425D01*
X0134444Y0209824D01*
X0134257Y0209174D01*
X0134200Y0208500D01*
X0134296Y0207830D01*
X0134520Y0207191D01*
X0134865Y0206609D01*
X0135317Y0206104D01*
X0135858Y0205698D01*
X0136468Y0205405D01*
X0137124Y0205237D01*
X0137800Y0205200D01*
X0138451Y0205293D01*
X0139071Y0205512D01*
X0139637Y0205847D01*
X0140126Y0206287D01*
X0140520Y0206813D01*
X0140803Y0207406D01*
X0140965Y0208043D01*
X0141000Y0208700D01*
X0140989Y0208500D02*
X0134200Y0208500D01*
X0134242Y0208999D02*
X0140966Y0208999D01*
X0140880Y0209497D02*
X0134350Y0209497D01*
X0134532Y0209996D02*
X0140716Y0209996D01*
X0140440Y0210494D02*
X0134809Y0210494D01*
X0135221Y0210993D02*
X0140036Y0210993D01*
X0139415Y0211491D02*
X0135873Y0211491D01*
X0137509Y0211990D02*
X0137724Y0211990D01*
X0140955Y0208002D02*
X0134271Y0208002D01*
X0134410Y0207503D02*
X0140828Y0207503D01*
X0140611Y0207005D02*
X0134630Y0207005D01*
X0134957Y0206506D02*
X0140290Y0206506D01*
X0139815Y0206008D02*
X0135446Y0206008D01*
X0136252Y0205509D02*
X0139063Y0205509D01*
X0137800Y0233200D02*
X0137124Y0233237D01*
X0136468Y0233405D01*
X0135858Y0233698D01*
X0135317Y0234104D01*
X0134865Y0234609D01*
X0134520Y0235191D01*
X0134296Y0235830D01*
X0134200Y0236500D01*
X0134257Y0237174D01*
X0134444Y0237824D01*
X0134754Y0238425D01*
X0135175Y0238954D01*
X0135692Y0239391D01*
X0136284Y0239718D01*
X0136928Y0239924D01*
X0137600Y0240000D01*
X0138255Y0239945D01*
X0138886Y0239764D01*
X0139470Y0239463D01*
X0139983Y0239054D01*
X0140408Y0238553D01*
X0140726Y0237978D01*
X0140926Y0237353D01*
X0141000Y0236700D01*
X0140965Y0236043D01*
X0140803Y0235406D01*
X0140520Y0234813D01*
X0140126Y0234287D01*
X0139637Y0233847D01*
X0139071Y0233512D01*
X0138451Y0233293D01*
X0137800Y0233200D01*
X0138827Y0233426D02*
X0136426Y0233426D01*
X0135557Y0233924D02*
X0139722Y0233924D01*
X0140228Y0234423D02*
X0135031Y0234423D01*
X0134680Y0234921D02*
X0140571Y0234921D01*
X0140807Y0235420D02*
X0134440Y0235420D01*
X0134283Y0235918D02*
X0140933Y0235918D01*
X0140985Y0236417D02*
X0134212Y0236417D01*
X0134235Y0236915D02*
X0140976Y0236915D01*
X0140906Y0237414D02*
X0134326Y0237414D01*
X0134489Y0237912D02*
X0140747Y0237912D01*
X0140486Y0238411D02*
X0134746Y0238411D01*
X0135140Y0238909D02*
X0140106Y0238909D01*
X0139539Y0239408D02*
X0135723Y0239408D01*
X0136873Y0239906D02*
X0138391Y0239906D01*
D11*
X0087600Y0252600D03*
X0032600Y0252600D03*
X0327600Y0252600D03*
X0377600Y0252600D03*
D12*
X0380725Y0197400D02*
X0373675Y0197400D01*
X0373675Y0177800D02*
X0380725Y0177800D01*
X0331525Y0177800D02*
X0324475Y0177800D01*
X0324475Y0197400D02*
X0331525Y0197400D01*
X0331525Y0102400D02*
X0324475Y0102400D01*
X0324475Y0082800D02*
X0331525Y0082800D01*
X0373675Y0082800D02*
X0380725Y0082800D01*
X0380725Y0102400D02*
X0373675Y0102400D01*
X0085725Y0097400D02*
X0078675Y0097400D01*
X0078675Y0077800D02*
X0085725Y0077800D01*
X0036525Y0077800D02*
X0029475Y0077800D01*
X0029475Y0097400D02*
X0036525Y0097400D01*
X0036525Y0177800D02*
X0029475Y0177800D01*
X0029475Y0197400D02*
X0036525Y0197400D01*
X0078675Y0197400D02*
X0085725Y0197400D01*
X0085725Y0177800D02*
X0078675Y0177800D01*
D13*
X0057600Y0069900D03*
X0057600Y0105300D03*
X0057600Y0169900D03*
X0057600Y0205300D03*
X0352600Y0205300D03*
X0352600Y0169900D03*
X0352600Y0110300D03*
X0352600Y0074900D03*
D14*
X0197600Y0072600D03*
X0177600Y0127600D03*
X0167600Y0127600D03*
X0157600Y0127600D03*
X0162600Y0152600D03*
X0087600Y0117600D03*
X0087600Y0252600D03*
X0032600Y0252600D03*
X0308571Y0212600D03*
X0327600Y0252600D03*
X0377600Y0252600D03*
M02*
