G75*
%MOIN*%
%OFA0B0*%
%FSLAX25Y25*%
%IPPOS*%
%LPD*%
%AMOC8*
5,1,8,0,0,1.08239X$1,22.5*
%
%ADD10C,0.00000*%
%ADD11C,0.10950*%
%ADD12R,0.10000X0.20000*%
%ADD13C,0.07050*%
%ADD14R,0.03962X0.03962*%
%ADD15C,0.01600*%
%ADD16C,0.03200*%
D10*
X0007600Y0007600D02*
X0007600Y0267561D01*
X0401301Y0267561D01*
X0401301Y0007600D01*
X0007600Y0007600D01*
X0054050Y0069900D02*
X0054052Y0070019D01*
X0054058Y0070137D01*
X0054068Y0070255D01*
X0054082Y0070373D01*
X0054099Y0070490D01*
X0054121Y0070607D01*
X0054147Y0070723D01*
X0054176Y0070838D01*
X0054209Y0070952D01*
X0054246Y0071064D01*
X0054287Y0071176D01*
X0054332Y0071286D01*
X0054380Y0071394D01*
X0054432Y0071501D01*
X0054487Y0071606D01*
X0054546Y0071709D01*
X0054608Y0071810D01*
X0054673Y0071909D01*
X0054742Y0072006D01*
X0054814Y0072100D01*
X0054889Y0072192D01*
X0054967Y0072281D01*
X0055048Y0072368D01*
X0055132Y0072452D01*
X0055219Y0072533D01*
X0055308Y0072611D01*
X0055400Y0072686D01*
X0055494Y0072758D01*
X0055591Y0072827D01*
X0055690Y0072892D01*
X0055791Y0072954D01*
X0055894Y0073013D01*
X0055999Y0073068D01*
X0056106Y0073120D01*
X0056214Y0073168D01*
X0056324Y0073213D01*
X0056436Y0073254D01*
X0056548Y0073291D01*
X0056662Y0073324D01*
X0056777Y0073353D01*
X0056893Y0073379D01*
X0057010Y0073401D01*
X0057127Y0073418D01*
X0057245Y0073432D01*
X0057363Y0073442D01*
X0057481Y0073448D01*
X0057600Y0073450D01*
X0057719Y0073448D01*
X0057837Y0073442D01*
X0057955Y0073432D01*
X0058073Y0073418D01*
X0058190Y0073401D01*
X0058307Y0073379D01*
X0058423Y0073353D01*
X0058538Y0073324D01*
X0058652Y0073291D01*
X0058764Y0073254D01*
X0058876Y0073213D01*
X0058986Y0073168D01*
X0059094Y0073120D01*
X0059201Y0073068D01*
X0059306Y0073013D01*
X0059409Y0072954D01*
X0059510Y0072892D01*
X0059609Y0072827D01*
X0059706Y0072758D01*
X0059800Y0072686D01*
X0059892Y0072611D01*
X0059981Y0072533D01*
X0060068Y0072452D01*
X0060152Y0072368D01*
X0060233Y0072281D01*
X0060311Y0072192D01*
X0060386Y0072100D01*
X0060458Y0072006D01*
X0060527Y0071909D01*
X0060592Y0071810D01*
X0060654Y0071709D01*
X0060713Y0071606D01*
X0060768Y0071501D01*
X0060820Y0071394D01*
X0060868Y0071286D01*
X0060913Y0071176D01*
X0060954Y0071064D01*
X0060991Y0070952D01*
X0061024Y0070838D01*
X0061053Y0070723D01*
X0061079Y0070607D01*
X0061101Y0070490D01*
X0061118Y0070373D01*
X0061132Y0070255D01*
X0061142Y0070137D01*
X0061148Y0070019D01*
X0061150Y0069900D01*
X0061148Y0069781D01*
X0061142Y0069663D01*
X0061132Y0069545D01*
X0061118Y0069427D01*
X0061101Y0069310D01*
X0061079Y0069193D01*
X0061053Y0069077D01*
X0061024Y0068962D01*
X0060991Y0068848D01*
X0060954Y0068736D01*
X0060913Y0068624D01*
X0060868Y0068514D01*
X0060820Y0068406D01*
X0060768Y0068299D01*
X0060713Y0068194D01*
X0060654Y0068091D01*
X0060592Y0067990D01*
X0060527Y0067891D01*
X0060458Y0067794D01*
X0060386Y0067700D01*
X0060311Y0067608D01*
X0060233Y0067519D01*
X0060152Y0067432D01*
X0060068Y0067348D01*
X0059981Y0067267D01*
X0059892Y0067189D01*
X0059800Y0067114D01*
X0059706Y0067042D01*
X0059609Y0066973D01*
X0059510Y0066908D01*
X0059409Y0066846D01*
X0059306Y0066787D01*
X0059201Y0066732D01*
X0059094Y0066680D01*
X0058986Y0066632D01*
X0058876Y0066587D01*
X0058764Y0066546D01*
X0058652Y0066509D01*
X0058538Y0066476D01*
X0058423Y0066447D01*
X0058307Y0066421D01*
X0058190Y0066399D01*
X0058073Y0066382D01*
X0057955Y0066368D01*
X0057837Y0066358D01*
X0057719Y0066352D01*
X0057600Y0066350D01*
X0057481Y0066352D01*
X0057363Y0066358D01*
X0057245Y0066368D01*
X0057127Y0066382D01*
X0057010Y0066399D01*
X0056893Y0066421D01*
X0056777Y0066447D01*
X0056662Y0066476D01*
X0056548Y0066509D01*
X0056436Y0066546D01*
X0056324Y0066587D01*
X0056214Y0066632D01*
X0056106Y0066680D01*
X0055999Y0066732D01*
X0055894Y0066787D01*
X0055791Y0066846D01*
X0055690Y0066908D01*
X0055591Y0066973D01*
X0055494Y0067042D01*
X0055400Y0067114D01*
X0055308Y0067189D01*
X0055219Y0067267D01*
X0055132Y0067348D01*
X0055048Y0067432D01*
X0054967Y0067519D01*
X0054889Y0067608D01*
X0054814Y0067700D01*
X0054742Y0067794D01*
X0054673Y0067891D01*
X0054608Y0067990D01*
X0054546Y0068091D01*
X0054487Y0068194D01*
X0054432Y0068299D01*
X0054380Y0068406D01*
X0054332Y0068514D01*
X0054287Y0068624D01*
X0054246Y0068736D01*
X0054209Y0068848D01*
X0054176Y0068962D01*
X0054147Y0069077D01*
X0054121Y0069193D01*
X0054099Y0069310D01*
X0054082Y0069427D01*
X0054068Y0069545D01*
X0054058Y0069663D01*
X0054052Y0069781D01*
X0054050Y0069900D01*
X0054050Y0105300D02*
X0054052Y0105419D01*
X0054058Y0105537D01*
X0054068Y0105655D01*
X0054082Y0105773D01*
X0054099Y0105890D01*
X0054121Y0106007D01*
X0054147Y0106123D01*
X0054176Y0106238D01*
X0054209Y0106352D01*
X0054246Y0106464D01*
X0054287Y0106576D01*
X0054332Y0106686D01*
X0054380Y0106794D01*
X0054432Y0106901D01*
X0054487Y0107006D01*
X0054546Y0107109D01*
X0054608Y0107210D01*
X0054673Y0107309D01*
X0054742Y0107406D01*
X0054814Y0107500D01*
X0054889Y0107592D01*
X0054967Y0107681D01*
X0055048Y0107768D01*
X0055132Y0107852D01*
X0055219Y0107933D01*
X0055308Y0108011D01*
X0055400Y0108086D01*
X0055494Y0108158D01*
X0055591Y0108227D01*
X0055690Y0108292D01*
X0055791Y0108354D01*
X0055894Y0108413D01*
X0055999Y0108468D01*
X0056106Y0108520D01*
X0056214Y0108568D01*
X0056324Y0108613D01*
X0056436Y0108654D01*
X0056548Y0108691D01*
X0056662Y0108724D01*
X0056777Y0108753D01*
X0056893Y0108779D01*
X0057010Y0108801D01*
X0057127Y0108818D01*
X0057245Y0108832D01*
X0057363Y0108842D01*
X0057481Y0108848D01*
X0057600Y0108850D01*
X0057719Y0108848D01*
X0057837Y0108842D01*
X0057955Y0108832D01*
X0058073Y0108818D01*
X0058190Y0108801D01*
X0058307Y0108779D01*
X0058423Y0108753D01*
X0058538Y0108724D01*
X0058652Y0108691D01*
X0058764Y0108654D01*
X0058876Y0108613D01*
X0058986Y0108568D01*
X0059094Y0108520D01*
X0059201Y0108468D01*
X0059306Y0108413D01*
X0059409Y0108354D01*
X0059510Y0108292D01*
X0059609Y0108227D01*
X0059706Y0108158D01*
X0059800Y0108086D01*
X0059892Y0108011D01*
X0059981Y0107933D01*
X0060068Y0107852D01*
X0060152Y0107768D01*
X0060233Y0107681D01*
X0060311Y0107592D01*
X0060386Y0107500D01*
X0060458Y0107406D01*
X0060527Y0107309D01*
X0060592Y0107210D01*
X0060654Y0107109D01*
X0060713Y0107006D01*
X0060768Y0106901D01*
X0060820Y0106794D01*
X0060868Y0106686D01*
X0060913Y0106576D01*
X0060954Y0106464D01*
X0060991Y0106352D01*
X0061024Y0106238D01*
X0061053Y0106123D01*
X0061079Y0106007D01*
X0061101Y0105890D01*
X0061118Y0105773D01*
X0061132Y0105655D01*
X0061142Y0105537D01*
X0061148Y0105419D01*
X0061150Y0105300D01*
X0061148Y0105181D01*
X0061142Y0105063D01*
X0061132Y0104945D01*
X0061118Y0104827D01*
X0061101Y0104710D01*
X0061079Y0104593D01*
X0061053Y0104477D01*
X0061024Y0104362D01*
X0060991Y0104248D01*
X0060954Y0104136D01*
X0060913Y0104024D01*
X0060868Y0103914D01*
X0060820Y0103806D01*
X0060768Y0103699D01*
X0060713Y0103594D01*
X0060654Y0103491D01*
X0060592Y0103390D01*
X0060527Y0103291D01*
X0060458Y0103194D01*
X0060386Y0103100D01*
X0060311Y0103008D01*
X0060233Y0102919D01*
X0060152Y0102832D01*
X0060068Y0102748D01*
X0059981Y0102667D01*
X0059892Y0102589D01*
X0059800Y0102514D01*
X0059706Y0102442D01*
X0059609Y0102373D01*
X0059510Y0102308D01*
X0059409Y0102246D01*
X0059306Y0102187D01*
X0059201Y0102132D01*
X0059094Y0102080D01*
X0058986Y0102032D01*
X0058876Y0101987D01*
X0058764Y0101946D01*
X0058652Y0101909D01*
X0058538Y0101876D01*
X0058423Y0101847D01*
X0058307Y0101821D01*
X0058190Y0101799D01*
X0058073Y0101782D01*
X0057955Y0101768D01*
X0057837Y0101758D01*
X0057719Y0101752D01*
X0057600Y0101750D01*
X0057481Y0101752D01*
X0057363Y0101758D01*
X0057245Y0101768D01*
X0057127Y0101782D01*
X0057010Y0101799D01*
X0056893Y0101821D01*
X0056777Y0101847D01*
X0056662Y0101876D01*
X0056548Y0101909D01*
X0056436Y0101946D01*
X0056324Y0101987D01*
X0056214Y0102032D01*
X0056106Y0102080D01*
X0055999Y0102132D01*
X0055894Y0102187D01*
X0055791Y0102246D01*
X0055690Y0102308D01*
X0055591Y0102373D01*
X0055494Y0102442D01*
X0055400Y0102514D01*
X0055308Y0102589D01*
X0055219Y0102667D01*
X0055132Y0102748D01*
X0055048Y0102832D01*
X0054967Y0102919D01*
X0054889Y0103008D01*
X0054814Y0103100D01*
X0054742Y0103194D01*
X0054673Y0103291D01*
X0054608Y0103390D01*
X0054546Y0103491D01*
X0054487Y0103594D01*
X0054432Y0103699D01*
X0054380Y0103806D01*
X0054332Y0103914D01*
X0054287Y0104024D01*
X0054246Y0104136D01*
X0054209Y0104248D01*
X0054176Y0104362D01*
X0054147Y0104477D01*
X0054121Y0104593D01*
X0054099Y0104710D01*
X0054082Y0104827D01*
X0054068Y0104945D01*
X0054058Y0105063D01*
X0054052Y0105181D01*
X0054050Y0105300D01*
X0054050Y0169900D02*
X0054052Y0170019D01*
X0054058Y0170137D01*
X0054068Y0170255D01*
X0054082Y0170373D01*
X0054099Y0170490D01*
X0054121Y0170607D01*
X0054147Y0170723D01*
X0054176Y0170838D01*
X0054209Y0170952D01*
X0054246Y0171064D01*
X0054287Y0171176D01*
X0054332Y0171286D01*
X0054380Y0171394D01*
X0054432Y0171501D01*
X0054487Y0171606D01*
X0054546Y0171709D01*
X0054608Y0171810D01*
X0054673Y0171909D01*
X0054742Y0172006D01*
X0054814Y0172100D01*
X0054889Y0172192D01*
X0054967Y0172281D01*
X0055048Y0172368D01*
X0055132Y0172452D01*
X0055219Y0172533D01*
X0055308Y0172611D01*
X0055400Y0172686D01*
X0055494Y0172758D01*
X0055591Y0172827D01*
X0055690Y0172892D01*
X0055791Y0172954D01*
X0055894Y0173013D01*
X0055999Y0173068D01*
X0056106Y0173120D01*
X0056214Y0173168D01*
X0056324Y0173213D01*
X0056436Y0173254D01*
X0056548Y0173291D01*
X0056662Y0173324D01*
X0056777Y0173353D01*
X0056893Y0173379D01*
X0057010Y0173401D01*
X0057127Y0173418D01*
X0057245Y0173432D01*
X0057363Y0173442D01*
X0057481Y0173448D01*
X0057600Y0173450D01*
X0057719Y0173448D01*
X0057837Y0173442D01*
X0057955Y0173432D01*
X0058073Y0173418D01*
X0058190Y0173401D01*
X0058307Y0173379D01*
X0058423Y0173353D01*
X0058538Y0173324D01*
X0058652Y0173291D01*
X0058764Y0173254D01*
X0058876Y0173213D01*
X0058986Y0173168D01*
X0059094Y0173120D01*
X0059201Y0173068D01*
X0059306Y0173013D01*
X0059409Y0172954D01*
X0059510Y0172892D01*
X0059609Y0172827D01*
X0059706Y0172758D01*
X0059800Y0172686D01*
X0059892Y0172611D01*
X0059981Y0172533D01*
X0060068Y0172452D01*
X0060152Y0172368D01*
X0060233Y0172281D01*
X0060311Y0172192D01*
X0060386Y0172100D01*
X0060458Y0172006D01*
X0060527Y0171909D01*
X0060592Y0171810D01*
X0060654Y0171709D01*
X0060713Y0171606D01*
X0060768Y0171501D01*
X0060820Y0171394D01*
X0060868Y0171286D01*
X0060913Y0171176D01*
X0060954Y0171064D01*
X0060991Y0170952D01*
X0061024Y0170838D01*
X0061053Y0170723D01*
X0061079Y0170607D01*
X0061101Y0170490D01*
X0061118Y0170373D01*
X0061132Y0170255D01*
X0061142Y0170137D01*
X0061148Y0170019D01*
X0061150Y0169900D01*
X0061148Y0169781D01*
X0061142Y0169663D01*
X0061132Y0169545D01*
X0061118Y0169427D01*
X0061101Y0169310D01*
X0061079Y0169193D01*
X0061053Y0169077D01*
X0061024Y0168962D01*
X0060991Y0168848D01*
X0060954Y0168736D01*
X0060913Y0168624D01*
X0060868Y0168514D01*
X0060820Y0168406D01*
X0060768Y0168299D01*
X0060713Y0168194D01*
X0060654Y0168091D01*
X0060592Y0167990D01*
X0060527Y0167891D01*
X0060458Y0167794D01*
X0060386Y0167700D01*
X0060311Y0167608D01*
X0060233Y0167519D01*
X0060152Y0167432D01*
X0060068Y0167348D01*
X0059981Y0167267D01*
X0059892Y0167189D01*
X0059800Y0167114D01*
X0059706Y0167042D01*
X0059609Y0166973D01*
X0059510Y0166908D01*
X0059409Y0166846D01*
X0059306Y0166787D01*
X0059201Y0166732D01*
X0059094Y0166680D01*
X0058986Y0166632D01*
X0058876Y0166587D01*
X0058764Y0166546D01*
X0058652Y0166509D01*
X0058538Y0166476D01*
X0058423Y0166447D01*
X0058307Y0166421D01*
X0058190Y0166399D01*
X0058073Y0166382D01*
X0057955Y0166368D01*
X0057837Y0166358D01*
X0057719Y0166352D01*
X0057600Y0166350D01*
X0057481Y0166352D01*
X0057363Y0166358D01*
X0057245Y0166368D01*
X0057127Y0166382D01*
X0057010Y0166399D01*
X0056893Y0166421D01*
X0056777Y0166447D01*
X0056662Y0166476D01*
X0056548Y0166509D01*
X0056436Y0166546D01*
X0056324Y0166587D01*
X0056214Y0166632D01*
X0056106Y0166680D01*
X0055999Y0166732D01*
X0055894Y0166787D01*
X0055791Y0166846D01*
X0055690Y0166908D01*
X0055591Y0166973D01*
X0055494Y0167042D01*
X0055400Y0167114D01*
X0055308Y0167189D01*
X0055219Y0167267D01*
X0055132Y0167348D01*
X0055048Y0167432D01*
X0054967Y0167519D01*
X0054889Y0167608D01*
X0054814Y0167700D01*
X0054742Y0167794D01*
X0054673Y0167891D01*
X0054608Y0167990D01*
X0054546Y0168091D01*
X0054487Y0168194D01*
X0054432Y0168299D01*
X0054380Y0168406D01*
X0054332Y0168514D01*
X0054287Y0168624D01*
X0054246Y0168736D01*
X0054209Y0168848D01*
X0054176Y0168962D01*
X0054147Y0169077D01*
X0054121Y0169193D01*
X0054099Y0169310D01*
X0054082Y0169427D01*
X0054068Y0169545D01*
X0054058Y0169663D01*
X0054052Y0169781D01*
X0054050Y0169900D01*
X0054050Y0205300D02*
X0054052Y0205419D01*
X0054058Y0205537D01*
X0054068Y0205655D01*
X0054082Y0205773D01*
X0054099Y0205890D01*
X0054121Y0206007D01*
X0054147Y0206123D01*
X0054176Y0206238D01*
X0054209Y0206352D01*
X0054246Y0206464D01*
X0054287Y0206576D01*
X0054332Y0206686D01*
X0054380Y0206794D01*
X0054432Y0206901D01*
X0054487Y0207006D01*
X0054546Y0207109D01*
X0054608Y0207210D01*
X0054673Y0207309D01*
X0054742Y0207406D01*
X0054814Y0207500D01*
X0054889Y0207592D01*
X0054967Y0207681D01*
X0055048Y0207768D01*
X0055132Y0207852D01*
X0055219Y0207933D01*
X0055308Y0208011D01*
X0055400Y0208086D01*
X0055494Y0208158D01*
X0055591Y0208227D01*
X0055690Y0208292D01*
X0055791Y0208354D01*
X0055894Y0208413D01*
X0055999Y0208468D01*
X0056106Y0208520D01*
X0056214Y0208568D01*
X0056324Y0208613D01*
X0056436Y0208654D01*
X0056548Y0208691D01*
X0056662Y0208724D01*
X0056777Y0208753D01*
X0056893Y0208779D01*
X0057010Y0208801D01*
X0057127Y0208818D01*
X0057245Y0208832D01*
X0057363Y0208842D01*
X0057481Y0208848D01*
X0057600Y0208850D01*
X0057719Y0208848D01*
X0057837Y0208842D01*
X0057955Y0208832D01*
X0058073Y0208818D01*
X0058190Y0208801D01*
X0058307Y0208779D01*
X0058423Y0208753D01*
X0058538Y0208724D01*
X0058652Y0208691D01*
X0058764Y0208654D01*
X0058876Y0208613D01*
X0058986Y0208568D01*
X0059094Y0208520D01*
X0059201Y0208468D01*
X0059306Y0208413D01*
X0059409Y0208354D01*
X0059510Y0208292D01*
X0059609Y0208227D01*
X0059706Y0208158D01*
X0059800Y0208086D01*
X0059892Y0208011D01*
X0059981Y0207933D01*
X0060068Y0207852D01*
X0060152Y0207768D01*
X0060233Y0207681D01*
X0060311Y0207592D01*
X0060386Y0207500D01*
X0060458Y0207406D01*
X0060527Y0207309D01*
X0060592Y0207210D01*
X0060654Y0207109D01*
X0060713Y0207006D01*
X0060768Y0206901D01*
X0060820Y0206794D01*
X0060868Y0206686D01*
X0060913Y0206576D01*
X0060954Y0206464D01*
X0060991Y0206352D01*
X0061024Y0206238D01*
X0061053Y0206123D01*
X0061079Y0206007D01*
X0061101Y0205890D01*
X0061118Y0205773D01*
X0061132Y0205655D01*
X0061142Y0205537D01*
X0061148Y0205419D01*
X0061150Y0205300D01*
X0061148Y0205181D01*
X0061142Y0205063D01*
X0061132Y0204945D01*
X0061118Y0204827D01*
X0061101Y0204710D01*
X0061079Y0204593D01*
X0061053Y0204477D01*
X0061024Y0204362D01*
X0060991Y0204248D01*
X0060954Y0204136D01*
X0060913Y0204024D01*
X0060868Y0203914D01*
X0060820Y0203806D01*
X0060768Y0203699D01*
X0060713Y0203594D01*
X0060654Y0203491D01*
X0060592Y0203390D01*
X0060527Y0203291D01*
X0060458Y0203194D01*
X0060386Y0203100D01*
X0060311Y0203008D01*
X0060233Y0202919D01*
X0060152Y0202832D01*
X0060068Y0202748D01*
X0059981Y0202667D01*
X0059892Y0202589D01*
X0059800Y0202514D01*
X0059706Y0202442D01*
X0059609Y0202373D01*
X0059510Y0202308D01*
X0059409Y0202246D01*
X0059306Y0202187D01*
X0059201Y0202132D01*
X0059094Y0202080D01*
X0058986Y0202032D01*
X0058876Y0201987D01*
X0058764Y0201946D01*
X0058652Y0201909D01*
X0058538Y0201876D01*
X0058423Y0201847D01*
X0058307Y0201821D01*
X0058190Y0201799D01*
X0058073Y0201782D01*
X0057955Y0201768D01*
X0057837Y0201758D01*
X0057719Y0201752D01*
X0057600Y0201750D01*
X0057481Y0201752D01*
X0057363Y0201758D01*
X0057245Y0201768D01*
X0057127Y0201782D01*
X0057010Y0201799D01*
X0056893Y0201821D01*
X0056777Y0201847D01*
X0056662Y0201876D01*
X0056548Y0201909D01*
X0056436Y0201946D01*
X0056324Y0201987D01*
X0056214Y0202032D01*
X0056106Y0202080D01*
X0055999Y0202132D01*
X0055894Y0202187D01*
X0055791Y0202246D01*
X0055690Y0202308D01*
X0055591Y0202373D01*
X0055494Y0202442D01*
X0055400Y0202514D01*
X0055308Y0202589D01*
X0055219Y0202667D01*
X0055132Y0202748D01*
X0055048Y0202832D01*
X0054967Y0202919D01*
X0054889Y0203008D01*
X0054814Y0203100D01*
X0054742Y0203194D01*
X0054673Y0203291D01*
X0054608Y0203390D01*
X0054546Y0203491D01*
X0054487Y0203594D01*
X0054432Y0203699D01*
X0054380Y0203806D01*
X0054332Y0203914D01*
X0054287Y0204024D01*
X0054246Y0204136D01*
X0054209Y0204248D01*
X0054176Y0204362D01*
X0054147Y0204477D01*
X0054121Y0204593D01*
X0054099Y0204710D01*
X0054082Y0204827D01*
X0054068Y0204945D01*
X0054058Y0205063D01*
X0054052Y0205181D01*
X0054050Y0205300D01*
X0354050Y0205300D02*
X0354052Y0205419D01*
X0354058Y0205537D01*
X0354068Y0205655D01*
X0354082Y0205773D01*
X0354099Y0205890D01*
X0354121Y0206007D01*
X0354147Y0206123D01*
X0354176Y0206238D01*
X0354209Y0206352D01*
X0354246Y0206464D01*
X0354287Y0206576D01*
X0354332Y0206686D01*
X0354380Y0206794D01*
X0354432Y0206901D01*
X0354487Y0207006D01*
X0354546Y0207109D01*
X0354608Y0207210D01*
X0354673Y0207309D01*
X0354742Y0207406D01*
X0354814Y0207500D01*
X0354889Y0207592D01*
X0354967Y0207681D01*
X0355048Y0207768D01*
X0355132Y0207852D01*
X0355219Y0207933D01*
X0355308Y0208011D01*
X0355400Y0208086D01*
X0355494Y0208158D01*
X0355591Y0208227D01*
X0355690Y0208292D01*
X0355791Y0208354D01*
X0355894Y0208413D01*
X0355999Y0208468D01*
X0356106Y0208520D01*
X0356214Y0208568D01*
X0356324Y0208613D01*
X0356436Y0208654D01*
X0356548Y0208691D01*
X0356662Y0208724D01*
X0356777Y0208753D01*
X0356893Y0208779D01*
X0357010Y0208801D01*
X0357127Y0208818D01*
X0357245Y0208832D01*
X0357363Y0208842D01*
X0357481Y0208848D01*
X0357600Y0208850D01*
X0357719Y0208848D01*
X0357837Y0208842D01*
X0357955Y0208832D01*
X0358073Y0208818D01*
X0358190Y0208801D01*
X0358307Y0208779D01*
X0358423Y0208753D01*
X0358538Y0208724D01*
X0358652Y0208691D01*
X0358764Y0208654D01*
X0358876Y0208613D01*
X0358986Y0208568D01*
X0359094Y0208520D01*
X0359201Y0208468D01*
X0359306Y0208413D01*
X0359409Y0208354D01*
X0359510Y0208292D01*
X0359609Y0208227D01*
X0359706Y0208158D01*
X0359800Y0208086D01*
X0359892Y0208011D01*
X0359981Y0207933D01*
X0360068Y0207852D01*
X0360152Y0207768D01*
X0360233Y0207681D01*
X0360311Y0207592D01*
X0360386Y0207500D01*
X0360458Y0207406D01*
X0360527Y0207309D01*
X0360592Y0207210D01*
X0360654Y0207109D01*
X0360713Y0207006D01*
X0360768Y0206901D01*
X0360820Y0206794D01*
X0360868Y0206686D01*
X0360913Y0206576D01*
X0360954Y0206464D01*
X0360991Y0206352D01*
X0361024Y0206238D01*
X0361053Y0206123D01*
X0361079Y0206007D01*
X0361101Y0205890D01*
X0361118Y0205773D01*
X0361132Y0205655D01*
X0361142Y0205537D01*
X0361148Y0205419D01*
X0361150Y0205300D01*
X0361148Y0205181D01*
X0361142Y0205063D01*
X0361132Y0204945D01*
X0361118Y0204827D01*
X0361101Y0204710D01*
X0361079Y0204593D01*
X0361053Y0204477D01*
X0361024Y0204362D01*
X0360991Y0204248D01*
X0360954Y0204136D01*
X0360913Y0204024D01*
X0360868Y0203914D01*
X0360820Y0203806D01*
X0360768Y0203699D01*
X0360713Y0203594D01*
X0360654Y0203491D01*
X0360592Y0203390D01*
X0360527Y0203291D01*
X0360458Y0203194D01*
X0360386Y0203100D01*
X0360311Y0203008D01*
X0360233Y0202919D01*
X0360152Y0202832D01*
X0360068Y0202748D01*
X0359981Y0202667D01*
X0359892Y0202589D01*
X0359800Y0202514D01*
X0359706Y0202442D01*
X0359609Y0202373D01*
X0359510Y0202308D01*
X0359409Y0202246D01*
X0359306Y0202187D01*
X0359201Y0202132D01*
X0359094Y0202080D01*
X0358986Y0202032D01*
X0358876Y0201987D01*
X0358764Y0201946D01*
X0358652Y0201909D01*
X0358538Y0201876D01*
X0358423Y0201847D01*
X0358307Y0201821D01*
X0358190Y0201799D01*
X0358073Y0201782D01*
X0357955Y0201768D01*
X0357837Y0201758D01*
X0357719Y0201752D01*
X0357600Y0201750D01*
X0357481Y0201752D01*
X0357363Y0201758D01*
X0357245Y0201768D01*
X0357127Y0201782D01*
X0357010Y0201799D01*
X0356893Y0201821D01*
X0356777Y0201847D01*
X0356662Y0201876D01*
X0356548Y0201909D01*
X0356436Y0201946D01*
X0356324Y0201987D01*
X0356214Y0202032D01*
X0356106Y0202080D01*
X0355999Y0202132D01*
X0355894Y0202187D01*
X0355791Y0202246D01*
X0355690Y0202308D01*
X0355591Y0202373D01*
X0355494Y0202442D01*
X0355400Y0202514D01*
X0355308Y0202589D01*
X0355219Y0202667D01*
X0355132Y0202748D01*
X0355048Y0202832D01*
X0354967Y0202919D01*
X0354889Y0203008D01*
X0354814Y0203100D01*
X0354742Y0203194D01*
X0354673Y0203291D01*
X0354608Y0203390D01*
X0354546Y0203491D01*
X0354487Y0203594D01*
X0354432Y0203699D01*
X0354380Y0203806D01*
X0354332Y0203914D01*
X0354287Y0204024D01*
X0354246Y0204136D01*
X0354209Y0204248D01*
X0354176Y0204362D01*
X0354147Y0204477D01*
X0354121Y0204593D01*
X0354099Y0204710D01*
X0354082Y0204827D01*
X0354068Y0204945D01*
X0354058Y0205063D01*
X0354052Y0205181D01*
X0354050Y0205300D01*
X0354050Y0169900D02*
X0354052Y0170019D01*
X0354058Y0170137D01*
X0354068Y0170255D01*
X0354082Y0170373D01*
X0354099Y0170490D01*
X0354121Y0170607D01*
X0354147Y0170723D01*
X0354176Y0170838D01*
X0354209Y0170952D01*
X0354246Y0171064D01*
X0354287Y0171176D01*
X0354332Y0171286D01*
X0354380Y0171394D01*
X0354432Y0171501D01*
X0354487Y0171606D01*
X0354546Y0171709D01*
X0354608Y0171810D01*
X0354673Y0171909D01*
X0354742Y0172006D01*
X0354814Y0172100D01*
X0354889Y0172192D01*
X0354967Y0172281D01*
X0355048Y0172368D01*
X0355132Y0172452D01*
X0355219Y0172533D01*
X0355308Y0172611D01*
X0355400Y0172686D01*
X0355494Y0172758D01*
X0355591Y0172827D01*
X0355690Y0172892D01*
X0355791Y0172954D01*
X0355894Y0173013D01*
X0355999Y0173068D01*
X0356106Y0173120D01*
X0356214Y0173168D01*
X0356324Y0173213D01*
X0356436Y0173254D01*
X0356548Y0173291D01*
X0356662Y0173324D01*
X0356777Y0173353D01*
X0356893Y0173379D01*
X0357010Y0173401D01*
X0357127Y0173418D01*
X0357245Y0173432D01*
X0357363Y0173442D01*
X0357481Y0173448D01*
X0357600Y0173450D01*
X0357719Y0173448D01*
X0357837Y0173442D01*
X0357955Y0173432D01*
X0358073Y0173418D01*
X0358190Y0173401D01*
X0358307Y0173379D01*
X0358423Y0173353D01*
X0358538Y0173324D01*
X0358652Y0173291D01*
X0358764Y0173254D01*
X0358876Y0173213D01*
X0358986Y0173168D01*
X0359094Y0173120D01*
X0359201Y0173068D01*
X0359306Y0173013D01*
X0359409Y0172954D01*
X0359510Y0172892D01*
X0359609Y0172827D01*
X0359706Y0172758D01*
X0359800Y0172686D01*
X0359892Y0172611D01*
X0359981Y0172533D01*
X0360068Y0172452D01*
X0360152Y0172368D01*
X0360233Y0172281D01*
X0360311Y0172192D01*
X0360386Y0172100D01*
X0360458Y0172006D01*
X0360527Y0171909D01*
X0360592Y0171810D01*
X0360654Y0171709D01*
X0360713Y0171606D01*
X0360768Y0171501D01*
X0360820Y0171394D01*
X0360868Y0171286D01*
X0360913Y0171176D01*
X0360954Y0171064D01*
X0360991Y0170952D01*
X0361024Y0170838D01*
X0361053Y0170723D01*
X0361079Y0170607D01*
X0361101Y0170490D01*
X0361118Y0170373D01*
X0361132Y0170255D01*
X0361142Y0170137D01*
X0361148Y0170019D01*
X0361150Y0169900D01*
X0361148Y0169781D01*
X0361142Y0169663D01*
X0361132Y0169545D01*
X0361118Y0169427D01*
X0361101Y0169310D01*
X0361079Y0169193D01*
X0361053Y0169077D01*
X0361024Y0168962D01*
X0360991Y0168848D01*
X0360954Y0168736D01*
X0360913Y0168624D01*
X0360868Y0168514D01*
X0360820Y0168406D01*
X0360768Y0168299D01*
X0360713Y0168194D01*
X0360654Y0168091D01*
X0360592Y0167990D01*
X0360527Y0167891D01*
X0360458Y0167794D01*
X0360386Y0167700D01*
X0360311Y0167608D01*
X0360233Y0167519D01*
X0360152Y0167432D01*
X0360068Y0167348D01*
X0359981Y0167267D01*
X0359892Y0167189D01*
X0359800Y0167114D01*
X0359706Y0167042D01*
X0359609Y0166973D01*
X0359510Y0166908D01*
X0359409Y0166846D01*
X0359306Y0166787D01*
X0359201Y0166732D01*
X0359094Y0166680D01*
X0358986Y0166632D01*
X0358876Y0166587D01*
X0358764Y0166546D01*
X0358652Y0166509D01*
X0358538Y0166476D01*
X0358423Y0166447D01*
X0358307Y0166421D01*
X0358190Y0166399D01*
X0358073Y0166382D01*
X0357955Y0166368D01*
X0357837Y0166358D01*
X0357719Y0166352D01*
X0357600Y0166350D01*
X0357481Y0166352D01*
X0357363Y0166358D01*
X0357245Y0166368D01*
X0357127Y0166382D01*
X0357010Y0166399D01*
X0356893Y0166421D01*
X0356777Y0166447D01*
X0356662Y0166476D01*
X0356548Y0166509D01*
X0356436Y0166546D01*
X0356324Y0166587D01*
X0356214Y0166632D01*
X0356106Y0166680D01*
X0355999Y0166732D01*
X0355894Y0166787D01*
X0355791Y0166846D01*
X0355690Y0166908D01*
X0355591Y0166973D01*
X0355494Y0167042D01*
X0355400Y0167114D01*
X0355308Y0167189D01*
X0355219Y0167267D01*
X0355132Y0167348D01*
X0355048Y0167432D01*
X0354967Y0167519D01*
X0354889Y0167608D01*
X0354814Y0167700D01*
X0354742Y0167794D01*
X0354673Y0167891D01*
X0354608Y0167990D01*
X0354546Y0168091D01*
X0354487Y0168194D01*
X0354432Y0168299D01*
X0354380Y0168406D01*
X0354332Y0168514D01*
X0354287Y0168624D01*
X0354246Y0168736D01*
X0354209Y0168848D01*
X0354176Y0168962D01*
X0354147Y0169077D01*
X0354121Y0169193D01*
X0354099Y0169310D01*
X0354082Y0169427D01*
X0354068Y0169545D01*
X0354058Y0169663D01*
X0354052Y0169781D01*
X0354050Y0169900D01*
X0354050Y0110300D02*
X0354052Y0110419D01*
X0354058Y0110537D01*
X0354068Y0110655D01*
X0354082Y0110773D01*
X0354099Y0110890D01*
X0354121Y0111007D01*
X0354147Y0111123D01*
X0354176Y0111238D01*
X0354209Y0111352D01*
X0354246Y0111464D01*
X0354287Y0111576D01*
X0354332Y0111686D01*
X0354380Y0111794D01*
X0354432Y0111901D01*
X0354487Y0112006D01*
X0354546Y0112109D01*
X0354608Y0112210D01*
X0354673Y0112309D01*
X0354742Y0112406D01*
X0354814Y0112500D01*
X0354889Y0112592D01*
X0354967Y0112681D01*
X0355048Y0112768D01*
X0355132Y0112852D01*
X0355219Y0112933D01*
X0355308Y0113011D01*
X0355400Y0113086D01*
X0355494Y0113158D01*
X0355591Y0113227D01*
X0355690Y0113292D01*
X0355791Y0113354D01*
X0355894Y0113413D01*
X0355999Y0113468D01*
X0356106Y0113520D01*
X0356214Y0113568D01*
X0356324Y0113613D01*
X0356436Y0113654D01*
X0356548Y0113691D01*
X0356662Y0113724D01*
X0356777Y0113753D01*
X0356893Y0113779D01*
X0357010Y0113801D01*
X0357127Y0113818D01*
X0357245Y0113832D01*
X0357363Y0113842D01*
X0357481Y0113848D01*
X0357600Y0113850D01*
X0357719Y0113848D01*
X0357837Y0113842D01*
X0357955Y0113832D01*
X0358073Y0113818D01*
X0358190Y0113801D01*
X0358307Y0113779D01*
X0358423Y0113753D01*
X0358538Y0113724D01*
X0358652Y0113691D01*
X0358764Y0113654D01*
X0358876Y0113613D01*
X0358986Y0113568D01*
X0359094Y0113520D01*
X0359201Y0113468D01*
X0359306Y0113413D01*
X0359409Y0113354D01*
X0359510Y0113292D01*
X0359609Y0113227D01*
X0359706Y0113158D01*
X0359800Y0113086D01*
X0359892Y0113011D01*
X0359981Y0112933D01*
X0360068Y0112852D01*
X0360152Y0112768D01*
X0360233Y0112681D01*
X0360311Y0112592D01*
X0360386Y0112500D01*
X0360458Y0112406D01*
X0360527Y0112309D01*
X0360592Y0112210D01*
X0360654Y0112109D01*
X0360713Y0112006D01*
X0360768Y0111901D01*
X0360820Y0111794D01*
X0360868Y0111686D01*
X0360913Y0111576D01*
X0360954Y0111464D01*
X0360991Y0111352D01*
X0361024Y0111238D01*
X0361053Y0111123D01*
X0361079Y0111007D01*
X0361101Y0110890D01*
X0361118Y0110773D01*
X0361132Y0110655D01*
X0361142Y0110537D01*
X0361148Y0110419D01*
X0361150Y0110300D01*
X0361148Y0110181D01*
X0361142Y0110063D01*
X0361132Y0109945D01*
X0361118Y0109827D01*
X0361101Y0109710D01*
X0361079Y0109593D01*
X0361053Y0109477D01*
X0361024Y0109362D01*
X0360991Y0109248D01*
X0360954Y0109136D01*
X0360913Y0109024D01*
X0360868Y0108914D01*
X0360820Y0108806D01*
X0360768Y0108699D01*
X0360713Y0108594D01*
X0360654Y0108491D01*
X0360592Y0108390D01*
X0360527Y0108291D01*
X0360458Y0108194D01*
X0360386Y0108100D01*
X0360311Y0108008D01*
X0360233Y0107919D01*
X0360152Y0107832D01*
X0360068Y0107748D01*
X0359981Y0107667D01*
X0359892Y0107589D01*
X0359800Y0107514D01*
X0359706Y0107442D01*
X0359609Y0107373D01*
X0359510Y0107308D01*
X0359409Y0107246D01*
X0359306Y0107187D01*
X0359201Y0107132D01*
X0359094Y0107080D01*
X0358986Y0107032D01*
X0358876Y0106987D01*
X0358764Y0106946D01*
X0358652Y0106909D01*
X0358538Y0106876D01*
X0358423Y0106847D01*
X0358307Y0106821D01*
X0358190Y0106799D01*
X0358073Y0106782D01*
X0357955Y0106768D01*
X0357837Y0106758D01*
X0357719Y0106752D01*
X0357600Y0106750D01*
X0357481Y0106752D01*
X0357363Y0106758D01*
X0357245Y0106768D01*
X0357127Y0106782D01*
X0357010Y0106799D01*
X0356893Y0106821D01*
X0356777Y0106847D01*
X0356662Y0106876D01*
X0356548Y0106909D01*
X0356436Y0106946D01*
X0356324Y0106987D01*
X0356214Y0107032D01*
X0356106Y0107080D01*
X0355999Y0107132D01*
X0355894Y0107187D01*
X0355791Y0107246D01*
X0355690Y0107308D01*
X0355591Y0107373D01*
X0355494Y0107442D01*
X0355400Y0107514D01*
X0355308Y0107589D01*
X0355219Y0107667D01*
X0355132Y0107748D01*
X0355048Y0107832D01*
X0354967Y0107919D01*
X0354889Y0108008D01*
X0354814Y0108100D01*
X0354742Y0108194D01*
X0354673Y0108291D01*
X0354608Y0108390D01*
X0354546Y0108491D01*
X0354487Y0108594D01*
X0354432Y0108699D01*
X0354380Y0108806D01*
X0354332Y0108914D01*
X0354287Y0109024D01*
X0354246Y0109136D01*
X0354209Y0109248D01*
X0354176Y0109362D01*
X0354147Y0109477D01*
X0354121Y0109593D01*
X0354099Y0109710D01*
X0354082Y0109827D01*
X0354068Y0109945D01*
X0354058Y0110063D01*
X0354052Y0110181D01*
X0354050Y0110300D01*
X0354050Y0074900D02*
X0354052Y0075019D01*
X0354058Y0075137D01*
X0354068Y0075255D01*
X0354082Y0075373D01*
X0354099Y0075490D01*
X0354121Y0075607D01*
X0354147Y0075723D01*
X0354176Y0075838D01*
X0354209Y0075952D01*
X0354246Y0076064D01*
X0354287Y0076176D01*
X0354332Y0076286D01*
X0354380Y0076394D01*
X0354432Y0076501D01*
X0354487Y0076606D01*
X0354546Y0076709D01*
X0354608Y0076810D01*
X0354673Y0076909D01*
X0354742Y0077006D01*
X0354814Y0077100D01*
X0354889Y0077192D01*
X0354967Y0077281D01*
X0355048Y0077368D01*
X0355132Y0077452D01*
X0355219Y0077533D01*
X0355308Y0077611D01*
X0355400Y0077686D01*
X0355494Y0077758D01*
X0355591Y0077827D01*
X0355690Y0077892D01*
X0355791Y0077954D01*
X0355894Y0078013D01*
X0355999Y0078068D01*
X0356106Y0078120D01*
X0356214Y0078168D01*
X0356324Y0078213D01*
X0356436Y0078254D01*
X0356548Y0078291D01*
X0356662Y0078324D01*
X0356777Y0078353D01*
X0356893Y0078379D01*
X0357010Y0078401D01*
X0357127Y0078418D01*
X0357245Y0078432D01*
X0357363Y0078442D01*
X0357481Y0078448D01*
X0357600Y0078450D01*
X0357719Y0078448D01*
X0357837Y0078442D01*
X0357955Y0078432D01*
X0358073Y0078418D01*
X0358190Y0078401D01*
X0358307Y0078379D01*
X0358423Y0078353D01*
X0358538Y0078324D01*
X0358652Y0078291D01*
X0358764Y0078254D01*
X0358876Y0078213D01*
X0358986Y0078168D01*
X0359094Y0078120D01*
X0359201Y0078068D01*
X0359306Y0078013D01*
X0359409Y0077954D01*
X0359510Y0077892D01*
X0359609Y0077827D01*
X0359706Y0077758D01*
X0359800Y0077686D01*
X0359892Y0077611D01*
X0359981Y0077533D01*
X0360068Y0077452D01*
X0360152Y0077368D01*
X0360233Y0077281D01*
X0360311Y0077192D01*
X0360386Y0077100D01*
X0360458Y0077006D01*
X0360527Y0076909D01*
X0360592Y0076810D01*
X0360654Y0076709D01*
X0360713Y0076606D01*
X0360768Y0076501D01*
X0360820Y0076394D01*
X0360868Y0076286D01*
X0360913Y0076176D01*
X0360954Y0076064D01*
X0360991Y0075952D01*
X0361024Y0075838D01*
X0361053Y0075723D01*
X0361079Y0075607D01*
X0361101Y0075490D01*
X0361118Y0075373D01*
X0361132Y0075255D01*
X0361142Y0075137D01*
X0361148Y0075019D01*
X0361150Y0074900D01*
X0361148Y0074781D01*
X0361142Y0074663D01*
X0361132Y0074545D01*
X0361118Y0074427D01*
X0361101Y0074310D01*
X0361079Y0074193D01*
X0361053Y0074077D01*
X0361024Y0073962D01*
X0360991Y0073848D01*
X0360954Y0073736D01*
X0360913Y0073624D01*
X0360868Y0073514D01*
X0360820Y0073406D01*
X0360768Y0073299D01*
X0360713Y0073194D01*
X0360654Y0073091D01*
X0360592Y0072990D01*
X0360527Y0072891D01*
X0360458Y0072794D01*
X0360386Y0072700D01*
X0360311Y0072608D01*
X0360233Y0072519D01*
X0360152Y0072432D01*
X0360068Y0072348D01*
X0359981Y0072267D01*
X0359892Y0072189D01*
X0359800Y0072114D01*
X0359706Y0072042D01*
X0359609Y0071973D01*
X0359510Y0071908D01*
X0359409Y0071846D01*
X0359306Y0071787D01*
X0359201Y0071732D01*
X0359094Y0071680D01*
X0358986Y0071632D01*
X0358876Y0071587D01*
X0358764Y0071546D01*
X0358652Y0071509D01*
X0358538Y0071476D01*
X0358423Y0071447D01*
X0358307Y0071421D01*
X0358190Y0071399D01*
X0358073Y0071382D01*
X0357955Y0071368D01*
X0357837Y0071358D01*
X0357719Y0071352D01*
X0357600Y0071350D01*
X0357481Y0071352D01*
X0357363Y0071358D01*
X0357245Y0071368D01*
X0357127Y0071382D01*
X0357010Y0071399D01*
X0356893Y0071421D01*
X0356777Y0071447D01*
X0356662Y0071476D01*
X0356548Y0071509D01*
X0356436Y0071546D01*
X0356324Y0071587D01*
X0356214Y0071632D01*
X0356106Y0071680D01*
X0355999Y0071732D01*
X0355894Y0071787D01*
X0355791Y0071846D01*
X0355690Y0071908D01*
X0355591Y0071973D01*
X0355494Y0072042D01*
X0355400Y0072114D01*
X0355308Y0072189D01*
X0355219Y0072267D01*
X0355132Y0072348D01*
X0355048Y0072432D01*
X0354967Y0072519D01*
X0354889Y0072608D01*
X0354814Y0072700D01*
X0354742Y0072794D01*
X0354673Y0072891D01*
X0354608Y0072990D01*
X0354546Y0073091D01*
X0354487Y0073194D01*
X0354432Y0073299D01*
X0354380Y0073406D01*
X0354332Y0073514D01*
X0354287Y0073624D01*
X0354246Y0073736D01*
X0354209Y0073848D01*
X0354176Y0073962D01*
X0354147Y0074077D01*
X0354121Y0074193D01*
X0354099Y0074310D01*
X0354082Y0074427D01*
X0354068Y0074545D01*
X0354058Y0074663D01*
X0354052Y0074781D01*
X0354050Y0074900D01*
D11*
X0277600Y0066600D03*
X0277600Y0038600D03*
X0207600Y0038600D03*
X0207600Y0066600D03*
X0137600Y0066600D03*
X0137600Y0038600D03*
X0137600Y0208600D03*
X0137600Y0236600D03*
X0207600Y0236600D03*
X0207600Y0208600D03*
X0277600Y0208600D03*
X0277600Y0236600D03*
D12*
X0322600Y0257600D03*
X0382600Y0257600D03*
X0087600Y0257600D03*
X0027600Y0257600D03*
D13*
X0029475Y0197400D02*
X0036525Y0197400D01*
X0036525Y0177800D02*
X0029475Y0177800D01*
X0078675Y0177800D02*
X0085725Y0177800D01*
X0085725Y0197400D02*
X0078675Y0197400D01*
X0078675Y0097400D02*
X0085725Y0097400D01*
X0085725Y0077800D02*
X0078675Y0077800D01*
X0036525Y0077800D02*
X0029475Y0077800D01*
X0029475Y0097400D02*
X0036525Y0097400D01*
X0329475Y0102400D02*
X0336525Y0102400D01*
X0336525Y0082800D02*
X0329475Y0082800D01*
X0378675Y0082800D02*
X0385725Y0082800D01*
X0385725Y0102400D02*
X0378675Y0102400D01*
X0378675Y0177800D02*
X0385725Y0177800D01*
X0385725Y0197400D02*
X0378675Y0197400D01*
X0336525Y0197400D02*
X0329475Y0197400D01*
X0329475Y0177800D02*
X0336525Y0177800D01*
D14*
X0308571Y0212600D03*
X0322600Y0257600D03*
X0382600Y0257600D03*
X0177600Y0127600D03*
X0167600Y0127600D03*
X0157600Y0127600D03*
X0162600Y0152600D03*
X0087600Y0117600D03*
X0197600Y0072600D03*
X0087600Y0257600D03*
X0027600Y0257600D03*
D15*
X0092600Y0152600D02*
X0162600Y0152600D01*
X0157600Y0127600D02*
X0157600Y0082600D01*
X0167600Y0072600D01*
X0197600Y0072600D01*
X0172600Y0082600D02*
X0317600Y0082600D01*
X0327600Y0072600D01*
X0387600Y0072600D01*
X0392600Y0077600D01*
X0392600Y0187000D01*
X0382200Y0197400D01*
X0308571Y0212600D02*
X0301600Y0212600D01*
X0277600Y0236600D01*
X0177600Y0127600D02*
X0177600Y0097600D01*
X0182600Y0092600D01*
X0372400Y0092600D01*
X0382200Y0102400D01*
X0172600Y0082600D02*
X0167600Y0087600D01*
X0167600Y0127600D01*
X0092600Y0152600D02*
X0087600Y0147600D01*
X0087600Y0117600D01*
D16*
X0092381Y0116349D02*
X0164000Y0116349D01*
X0164000Y0113151D02*
X0090940Y0113151D01*
X0091167Y0113245D02*
X0091955Y0114033D01*
X0092381Y0115062D01*
X0092381Y0120138D01*
X0091955Y0121167D01*
X0091200Y0121922D01*
X0091200Y0146109D01*
X0094091Y0149000D01*
X0158278Y0149000D01*
X0159033Y0148245D01*
X0160062Y0147819D01*
X0165138Y0147819D01*
X0166167Y0148245D01*
X0166955Y0149033D01*
X0167381Y0150062D01*
X0167381Y0155138D01*
X0166955Y0156167D01*
X0166167Y0156955D01*
X0165138Y0157381D01*
X0160062Y0157381D01*
X0159033Y0156955D01*
X0158278Y0156200D01*
X0091884Y0156200D01*
X0090561Y0155652D01*
X0089548Y0154639D01*
X0084548Y0149639D01*
X0084000Y0148316D01*
X0084000Y0121922D01*
X0083245Y0121167D01*
X0082819Y0120138D01*
X0082819Y0115062D01*
X0083245Y0114033D01*
X0084033Y0113245D01*
X0085062Y0112819D01*
X0090138Y0112819D01*
X0091167Y0113245D01*
X0092381Y0119548D02*
X0164000Y0119548D01*
X0164000Y0122746D02*
X0091200Y0122746D01*
X0091200Y0125945D02*
X0162819Y0125945D01*
X0162819Y0125062D02*
X0163245Y0124033D01*
X0164000Y0123278D01*
X0164000Y0086884D01*
X0164548Y0085561D01*
X0169548Y0080561D01*
X0170561Y0079548D01*
X0171884Y0079000D01*
X0316109Y0079000D01*
X0324548Y0070561D01*
X0325561Y0069548D01*
X0326884Y0069000D01*
X0350560Y0069000D01*
X0352417Y0067143D01*
X0355780Y0065750D01*
X0359420Y0065750D01*
X0362783Y0067143D01*
X0364640Y0069000D01*
X0388316Y0069000D01*
X0389639Y0069548D01*
X0394639Y0074548D01*
X0395652Y0075561D01*
X0395701Y0075679D01*
X0395701Y0013200D01*
X0013200Y0013200D01*
X0013200Y0261961D01*
X0019800Y0261961D01*
X0019800Y0247043D01*
X0020226Y0246014D01*
X0021014Y0245226D01*
X0022043Y0244800D01*
X0033157Y0244800D01*
X0034186Y0245226D01*
X0034974Y0246014D01*
X0035400Y0247043D01*
X0035400Y0261961D01*
X0079800Y0261961D01*
X0079800Y0247043D01*
X0080226Y0246014D01*
X0081014Y0245226D01*
X0082043Y0244800D01*
X0093157Y0244800D01*
X0094186Y0245226D01*
X0094974Y0246014D01*
X0095400Y0247043D01*
X0095400Y0261961D01*
X0314800Y0261961D01*
X0314800Y0247043D01*
X0315226Y0246014D01*
X0316014Y0245226D01*
X0317043Y0244800D01*
X0328157Y0244800D01*
X0329186Y0245226D01*
X0329974Y0246014D01*
X0330400Y0247043D01*
X0330400Y0261961D01*
X0374800Y0261961D01*
X0374800Y0247043D01*
X0375226Y0246014D01*
X0376014Y0245226D01*
X0377043Y0244800D01*
X0388157Y0244800D01*
X0389186Y0245226D01*
X0389974Y0246014D01*
X0390400Y0247043D01*
X0390400Y0261961D01*
X0395701Y0261961D01*
X0395701Y0188921D01*
X0395652Y0189039D01*
X0390981Y0193711D01*
X0391087Y0193817D01*
X0392050Y0196142D01*
X0392050Y0198658D01*
X0391087Y0200983D01*
X0389308Y0202762D01*
X0386983Y0203725D01*
X0377417Y0203725D01*
X0375092Y0202762D01*
X0373313Y0200983D01*
X0372350Y0198658D01*
X0372350Y0196142D01*
X0373313Y0193817D01*
X0375092Y0192038D01*
X0377417Y0191075D01*
X0383434Y0191075D01*
X0389000Y0185509D01*
X0389000Y0183290D01*
X0386983Y0184125D01*
X0377417Y0184125D01*
X0375092Y0183162D01*
X0373313Y0181383D01*
X0372350Y0179058D01*
X0372350Y0176542D01*
X0373313Y0174217D01*
X0375092Y0172438D01*
X0377417Y0171475D01*
X0386983Y0171475D01*
X0389000Y0172310D01*
X0389000Y0107890D01*
X0386983Y0108725D01*
X0377417Y0108725D01*
X0375092Y0107762D01*
X0373313Y0105983D01*
X0372350Y0103658D01*
X0372350Y0101142D01*
X0373313Y0098817D01*
X0373419Y0098711D01*
X0370909Y0096200D01*
X0338085Y0096200D01*
X0340108Y0097038D01*
X0341887Y0098817D01*
X0342850Y0101142D01*
X0342850Y0103658D01*
X0341887Y0105983D01*
X0340108Y0107762D01*
X0337783Y0108725D01*
X0328217Y0108725D01*
X0325892Y0107762D01*
X0324113Y0105983D01*
X0323150Y0103658D01*
X0323150Y0101142D01*
X0324113Y0098817D01*
X0325892Y0097038D01*
X0327915Y0096200D01*
X0184091Y0096200D01*
X0181200Y0099091D01*
X0181200Y0123278D01*
X0181955Y0124033D01*
X0182381Y0125062D01*
X0182381Y0130138D01*
X0181955Y0131167D01*
X0181167Y0131955D01*
X0180138Y0132381D01*
X0175062Y0132381D01*
X0174033Y0131955D01*
X0173245Y0131167D01*
X0172819Y0130138D01*
X0172819Y0125062D01*
X0173245Y0124033D01*
X0174000Y0123278D01*
X0174000Y0096884D01*
X0174548Y0095561D01*
X0179548Y0090561D01*
X0180561Y0089548D01*
X0181884Y0089000D01*
X0327915Y0089000D01*
X0325892Y0088162D01*
X0324113Y0086383D01*
X0323150Y0084058D01*
X0323150Y0082141D01*
X0319639Y0085652D01*
X0318316Y0086200D01*
X0174091Y0086200D01*
X0171200Y0089091D01*
X0171200Y0123278D01*
X0171955Y0124033D01*
X0172381Y0125062D01*
X0172381Y0130138D01*
X0171955Y0131167D01*
X0171167Y0131955D01*
X0170138Y0132381D01*
X0165062Y0132381D01*
X0164033Y0131955D01*
X0163245Y0131167D01*
X0162819Y0130138D01*
X0162819Y0125062D01*
X0162819Y0129143D02*
X0091200Y0129143D01*
X0091200Y0132342D02*
X0164967Y0132342D01*
X0170233Y0132342D02*
X0174967Y0132342D01*
X0180233Y0132342D02*
X0389000Y0132342D01*
X0389000Y0135540D02*
X0091200Y0135540D01*
X0091200Y0138739D02*
X0389000Y0138739D01*
X0389000Y0141937D02*
X0091200Y0141937D01*
X0091200Y0145136D02*
X0389000Y0145136D01*
X0389000Y0148334D02*
X0166256Y0148334D01*
X0167381Y0151533D02*
X0389000Y0151533D01*
X0389000Y0154732D02*
X0167381Y0154732D01*
X0158943Y0148334D02*
X0093426Y0148334D01*
X0086442Y0151533D02*
X0013200Y0151533D01*
X0013200Y0154732D02*
X0089640Y0154732D01*
X0089548Y0154639D02*
X0089548Y0154639D01*
X0084008Y0148334D02*
X0013200Y0148334D01*
X0013200Y0145136D02*
X0084000Y0145136D01*
X0084000Y0141937D02*
X0013200Y0141937D01*
X0013200Y0138739D02*
X0084000Y0138739D01*
X0084000Y0135540D02*
X0013200Y0135540D01*
X0013200Y0132342D02*
X0084000Y0132342D01*
X0084000Y0129143D02*
X0013200Y0129143D01*
X0013200Y0125945D02*
X0084000Y0125945D01*
X0084000Y0122746D02*
X0013200Y0122746D01*
X0013200Y0119548D02*
X0082819Y0119548D01*
X0082819Y0116349D02*
X0013200Y0116349D01*
X0013200Y0113151D02*
X0052644Y0113151D01*
X0052417Y0113057D02*
X0049843Y0110483D01*
X0048450Y0107120D01*
X0048450Y0103480D01*
X0049843Y0100117D01*
X0052417Y0097543D01*
X0055780Y0096150D01*
X0059420Y0096150D01*
X0062783Y0097543D01*
X0065357Y0100117D01*
X0066750Y0103480D01*
X0066750Y0107120D01*
X0065357Y0110483D01*
X0062783Y0113057D01*
X0059420Y0114450D01*
X0055780Y0114450D01*
X0052417Y0113057D01*
X0049623Y0109952D02*
X0013200Y0109952D01*
X0013200Y0106754D02*
X0048450Y0106754D01*
X0048450Y0103555D02*
X0038193Y0103555D01*
X0037783Y0103725D02*
X0040108Y0102762D01*
X0041887Y0100983D01*
X0042850Y0098658D01*
X0042850Y0096142D01*
X0041887Y0093817D01*
X0040108Y0092038D01*
X0037783Y0091075D01*
X0028217Y0091075D01*
X0025892Y0092038D01*
X0024113Y0093817D01*
X0023150Y0096142D01*
X0023150Y0098658D01*
X0024113Y0100983D01*
X0025892Y0102762D01*
X0028217Y0103725D01*
X0037783Y0103725D01*
X0042146Y0100357D02*
X0049744Y0100357D01*
X0053346Y0097158D02*
X0042850Y0097158D01*
X0041946Y0093960D02*
X0073254Y0093960D01*
X0073313Y0093817D02*
X0075092Y0092038D01*
X0077417Y0091075D01*
X0086983Y0091075D01*
X0089308Y0092038D01*
X0091087Y0093817D01*
X0092050Y0096142D01*
X0092050Y0098658D01*
X0091087Y0100983D01*
X0089308Y0102762D01*
X0086983Y0103725D01*
X0077417Y0103725D01*
X0075092Y0102762D01*
X0073313Y0100983D01*
X0072350Y0098658D01*
X0072350Y0096142D01*
X0073313Y0093817D01*
X0072350Y0097158D02*
X0061854Y0097158D01*
X0065456Y0100357D02*
X0073054Y0100357D01*
X0077007Y0103555D02*
X0066750Y0103555D01*
X0066750Y0106754D02*
X0164000Y0106754D01*
X0164000Y0109952D02*
X0065577Y0109952D01*
X0062556Y0113151D02*
X0084260Y0113151D01*
X0087393Y0103555D02*
X0164000Y0103555D01*
X0164000Y0100357D02*
X0091346Y0100357D01*
X0092050Y0097158D02*
X0164000Y0097158D01*
X0164000Y0093960D02*
X0091146Y0093960D01*
X0086983Y0084125D02*
X0077417Y0084125D01*
X0075092Y0083162D01*
X0073313Y0081383D01*
X0072350Y0079058D01*
X0072350Y0076542D01*
X0073313Y0074217D01*
X0075092Y0072438D01*
X0077417Y0071475D01*
X0086983Y0071475D01*
X0089308Y0072438D01*
X0091087Y0074217D01*
X0092050Y0076542D01*
X0092050Y0079058D01*
X0091087Y0081383D01*
X0089308Y0083162D01*
X0086983Y0084125D01*
X0091177Y0081166D02*
X0168943Y0081166D01*
X0165745Y0084364D02*
X0013200Y0084364D01*
X0013200Y0081166D02*
X0024023Y0081166D01*
X0024113Y0081383D02*
X0023150Y0079058D01*
X0023150Y0076542D01*
X0024113Y0074217D01*
X0025892Y0072438D01*
X0028217Y0071475D01*
X0037783Y0071475D01*
X0040108Y0072438D01*
X0041887Y0074217D01*
X0042850Y0076542D01*
X0042850Y0079058D01*
X0041887Y0081383D01*
X0040108Y0083162D01*
X0037783Y0084125D01*
X0028217Y0084125D01*
X0025892Y0083162D01*
X0024113Y0081383D01*
X0023150Y0077967D02*
X0013200Y0077967D01*
X0013200Y0074769D02*
X0023884Y0074769D01*
X0027987Y0071570D02*
X0013200Y0071570D01*
X0013200Y0068372D02*
X0048450Y0068372D01*
X0048450Y0068080D02*
X0049843Y0064717D01*
X0052417Y0062143D01*
X0055780Y0060750D01*
X0059420Y0060750D01*
X0062783Y0062143D01*
X0065357Y0064717D01*
X0066750Y0068080D01*
X0066750Y0071720D01*
X0065357Y0075083D01*
X0062783Y0077657D01*
X0059420Y0079050D01*
X0055780Y0079050D01*
X0052417Y0077657D01*
X0049843Y0075083D01*
X0048450Y0071720D01*
X0048450Y0068080D01*
X0049654Y0065173D02*
X0013200Y0065173D01*
X0013200Y0061975D02*
X0052823Y0061975D01*
X0062377Y0061975D02*
X0115300Y0061975D01*
X0115300Y0065173D02*
X0065546Y0065173D01*
X0066750Y0068372D02*
X0115300Y0068372D01*
X0115300Y0067944D02*
X0115300Y0030444D01*
X0115802Y0029231D01*
X0116731Y0028302D01*
X0117944Y0027800D01*
X0157256Y0027800D01*
X0158469Y0028302D01*
X0159398Y0029231D01*
X0159900Y0030444D01*
X0159900Y0069256D01*
X0159398Y0070469D01*
X0158469Y0071398D01*
X0157256Y0071900D01*
X0144003Y0071900D01*
X0142287Y0073615D01*
X0139246Y0074875D01*
X0135954Y0074875D01*
X0132913Y0073615D01*
X0131197Y0071900D01*
X0117944Y0071900D01*
X0116731Y0071398D01*
X0115802Y0070469D01*
X0115300Y0069256D01*
X0115300Y0067944D01*
X0117147Y0071570D02*
X0087213Y0071570D01*
X0091316Y0074769D02*
X0135697Y0074769D01*
X0139503Y0074769D02*
X0205697Y0074769D01*
X0205954Y0074875D02*
X0202913Y0073615D01*
X0201197Y0071900D01*
X0187944Y0071900D01*
X0186731Y0071398D01*
X0185802Y0070469D01*
X0185300Y0069256D01*
X0185300Y0067944D01*
X0185300Y0030444D01*
X0185802Y0029231D01*
X0186731Y0028302D01*
X0187944Y0027800D01*
X0227256Y0027800D01*
X0228469Y0028302D01*
X0229398Y0029231D01*
X0229900Y0030444D01*
X0229900Y0069256D01*
X0229398Y0070469D01*
X0228469Y0071398D01*
X0227256Y0071900D01*
X0214003Y0071900D01*
X0212287Y0073615D01*
X0209246Y0074875D01*
X0205954Y0074875D01*
X0209503Y0074769D02*
X0275697Y0074769D01*
X0275954Y0074875D02*
X0272913Y0073615D01*
X0271197Y0071900D01*
X0257944Y0071900D01*
X0256731Y0071398D01*
X0255802Y0070469D01*
X0255300Y0069256D01*
X0255300Y0067944D01*
X0255300Y0030444D01*
X0255802Y0029231D01*
X0256731Y0028302D01*
X0257944Y0027800D01*
X0297256Y0027800D01*
X0298469Y0028302D01*
X0299398Y0029231D01*
X0299900Y0030444D01*
X0299900Y0069256D01*
X0299398Y0070469D01*
X0298469Y0071398D01*
X0297256Y0071900D01*
X0284003Y0071900D01*
X0282287Y0073615D01*
X0279246Y0074875D01*
X0275954Y0074875D01*
X0279503Y0074769D02*
X0320340Y0074769D01*
X0317142Y0077967D02*
X0092050Y0077967D01*
X0077187Y0071570D02*
X0066750Y0071570D01*
X0065487Y0074769D02*
X0073084Y0074769D01*
X0072350Y0077967D02*
X0062034Y0077967D01*
X0073223Y0081166D02*
X0041977Y0081166D01*
X0042850Y0077967D02*
X0053166Y0077967D01*
X0049713Y0074769D02*
X0042116Y0074769D01*
X0038013Y0071570D02*
X0048450Y0071570D01*
X0024054Y0093960D02*
X0013200Y0093960D01*
X0013200Y0097158D02*
X0023150Y0097158D01*
X0023854Y0100357D02*
X0013200Y0100357D01*
X0013200Y0103555D02*
X0027807Y0103555D01*
X0013200Y0090761D02*
X0164000Y0090761D01*
X0164000Y0087563D02*
X0013200Y0087563D01*
X0013200Y0058776D02*
X0115300Y0058776D01*
X0115300Y0055578D02*
X0013200Y0055578D01*
X0013200Y0052379D02*
X0115300Y0052379D01*
X0115300Y0049181D02*
X0013200Y0049181D01*
X0013200Y0045982D02*
X0115300Y0045982D01*
X0115300Y0042784D02*
X0013200Y0042784D01*
X0013200Y0039585D02*
X0115300Y0039585D01*
X0115300Y0036387D02*
X0013200Y0036387D01*
X0013200Y0033188D02*
X0115300Y0033188D01*
X0115488Y0029990D02*
X0013200Y0029990D01*
X0013200Y0026791D02*
X0395701Y0026791D01*
X0395701Y0023593D02*
X0013200Y0023593D01*
X0013200Y0020394D02*
X0395701Y0020394D01*
X0395701Y0017196D02*
X0013200Y0017196D01*
X0013200Y0013997D02*
X0395701Y0013997D01*
X0395701Y0029990D02*
X0299712Y0029990D01*
X0299900Y0033188D02*
X0395701Y0033188D01*
X0395701Y0036387D02*
X0299900Y0036387D01*
X0299900Y0039585D02*
X0395701Y0039585D01*
X0395701Y0042784D02*
X0299900Y0042784D01*
X0299900Y0045982D02*
X0395701Y0045982D01*
X0395701Y0049181D02*
X0299900Y0049181D01*
X0299900Y0052379D02*
X0395701Y0052379D01*
X0395701Y0055578D02*
X0299900Y0055578D01*
X0299900Y0058776D02*
X0395701Y0058776D01*
X0395701Y0061975D02*
X0299900Y0061975D01*
X0299900Y0065173D02*
X0395701Y0065173D01*
X0395701Y0068372D02*
X0364012Y0068372D01*
X0351188Y0068372D02*
X0299900Y0068372D01*
X0298053Y0071570D02*
X0323539Y0071570D01*
X0323277Y0084364D02*
X0320927Y0084364D01*
X0325293Y0087563D02*
X0172728Y0087563D01*
X0171200Y0090761D02*
X0179348Y0090761D01*
X0176149Y0093960D02*
X0171200Y0093960D01*
X0171200Y0097158D02*
X0174000Y0097158D01*
X0174000Y0100357D02*
X0171200Y0100357D01*
X0171200Y0103555D02*
X0174000Y0103555D01*
X0174000Y0106754D02*
X0171200Y0106754D01*
X0171200Y0109952D02*
X0174000Y0109952D01*
X0174000Y0113151D02*
X0171200Y0113151D01*
X0171200Y0116349D02*
X0174000Y0116349D01*
X0174000Y0119548D02*
X0171200Y0119548D01*
X0171200Y0122746D02*
X0174000Y0122746D01*
X0172819Y0125945D02*
X0172381Y0125945D01*
X0172381Y0129143D02*
X0172819Y0129143D01*
X0182381Y0129143D02*
X0389000Y0129143D01*
X0389000Y0125945D02*
X0182381Y0125945D01*
X0181200Y0122746D02*
X0389000Y0122746D01*
X0389000Y0119548D02*
X0181200Y0119548D01*
X0181200Y0116349D02*
X0350709Y0116349D01*
X0349843Y0115483D02*
X0352417Y0118057D01*
X0355780Y0119450D01*
X0359420Y0119450D01*
X0362783Y0118057D01*
X0365357Y0115483D01*
X0366750Y0112120D01*
X0366750Y0108480D01*
X0365357Y0105117D01*
X0362783Y0102543D01*
X0359420Y0101150D01*
X0355780Y0101150D01*
X0352417Y0102543D01*
X0349843Y0105117D01*
X0348450Y0108480D01*
X0348450Y0112120D01*
X0349843Y0115483D01*
X0348877Y0113151D02*
X0181200Y0113151D01*
X0181200Y0109952D02*
X0348450Y0109952D01*
X0349165Y0106754D02*
X0341116Y0106754D01*
X0342850Y0103555D02*
X0351405Y0103555D01*
X0342525Y0100357D02*
X0372675Y0100357D01*
X0372350Y0103555D02*
X0363795Y0103555D01*
X0366035Y0106754D02*
X0374084Y0106754D01*
X0366750Y0109952D02*
X0389000Y0109952D01*
X0389000Y0113151D02*
X0366323Y0113151D01*
X0364491Y0116349D02*
X0389000Y0116349D01*
X0371867Y0097158D02*
X0340228Y0097158D01*
X0325772Y0097158D02*
X0183133Y0097158D01*
X0181200Y0100357D02*
X0323475Y0100357D01*
X0323150Y0103555D02*
X0181200Y0103555D01*
X0181200Y0106754D02*
X0324884Y0106754D01*
X0391661Y0071570D02*
X0395701Y0071570D01*
X0395701Y0074769D02*
X0394860Y0074769D01*
X0389000Y0157930D02*
X0013200Y0157930D01*
X0013200Y0161129D02*
X0054866Y0161129D01*
X0055780Y0160750D02*
X0059420Y0160750D01*
X0062783Y0162143D01*
X0065357Y0164717D01*
X0066750Y0168080D01*
X0066750Y0171720D01*
X0065357Y0175083D01*
X0062783Y0177657D01*
X0059420Y0179050D01*
X0055780Y0179050D01*
X0052417Y0177657D01*
X0049843Y0175083D01*
X0048450Y0171720D01*
X0048450Y0168080D01*
X0049843Y0164717D01*
X0052417Y0162143D01*
X0055780Y0160750D01*
X0060334Y0161129D02*
X0354866Y0161129D01*
X0355780Y0160750D02*
X0359420Y0160750D01*
X0362783Y0162143D01*
X0365357Y0164717D01*
X0366750Y0168080D01*
X0366750Y0171720D01*
X0365357Y0175083D01*
X0362783Y0177657D01*
X0359420Y0179050D01*
X0355780Y0179050D01*
X0352417Y0177657D01*
X0349843Y0175083D01*
X0348450Y0171720D01*
X0348450Y0168080D01*
X0349843Y0164717D01*
X0352417Y0162143D01*
X0355780Y0160750D01*
X0360334Y0161129D02*
X0389000Y0161129D01*
X0389000Y0164327D02*
X0364967Y0164327D01*
X0366520Y0167526D02*
X0389000Y0167526D01*
X0389000Y0170724D02*
X0366750Y0170724D01*
X0365838Y0173923D02*
X0373608Y0173923D01*
X0372350Y0177121D02*
X0363319Y0177121D01*
X0372873Y0180320D02*
X0342327Y0180320D01*
X0341887Y0181383D02*
X0340108Y0183162D01*
X0337783Y0184125D01*
X0328217Y0184125D01*
X0325892Y0183162D01*
X0324113Y0181383D01*
X0323150Y0179058D01*
X0323150Y0176542D01*
X0324113Y0174217D01*
X0325892Y0172438D01*
X0328217Y0171475D01*
X0337783Y0171475D01*
X0340108Y0172438D01*
X0341887Y0174217D01*
X0342850Y0176542D01*
X0342850Y0179058D01*
X0341887Y0181383D01*
X0339248Y0183518D02*
X0375952Y0183518D01*
X0384594Y0189915D02*
X0013200Y0189915D01*
X0013200Y0193114D02*
X0024816Y0193114D01*
X0024113Y0193817D02*
X0023150Y0196142D01*
X0023150Y0198658D01*
X0024113Y0200983D01*
X0025892Y0202762D01*
X0028217Y0203725D01*
X0037783Y0203725D01*
X0040108Y0202762D01*
X0041887Y0200983D01*
X0042850Y0198658D01*
X0042850Y0196142D01*
X0041887Y0193817D01*
X0040108Y0192038D01*
X0037783Y0191075D01*
X0028217Y0191075D01*
X0025892Y0192038D01*
X0024113Y0193817D01*
X0023150Y0196312D02*
X0013200Y0196312D01*
X0013200Y0199511D02*
X0023503Y0199511D01*
X0025839Y0202709D02*
X0013200Y0202709D01*
X0013200Y0205908D02*
X0048450Y0205908D01*
X0048450Y0207120D02*
X0048450Y0203480D01*
X0049843Y0200117D01*
X0052417Y0197543D01*
X0055780Y0196150D01*
X0059420Y0196150D01*
X0062783Y0197543D01*
X0065357Y0200117D01*
X0066750Y0203480D01*
X0066750Y0207120D01*
X0065357Y0210483D01*
X0062783Y0213057D01*
X0059420Y0214450D01*
X0055780Y0214450D01*
X0052417Y0213057D01*
X0049843Y0210483D01*
X0048450Y0207120D01*
X0049273Y0209106D02*
X0013200Y0209106D01*
X0013200Y0212305D02*
X0051665Y0212305D01*
X0063535Y0212305D02*
X0115300Y0212305D01*
X0115300Y0215503D02*
X0013200Y0215503D01*
X0013200Y0218702D02*
X0115300Y0218702D01*
X0115300Y0221900D02*
X0013200Y0221900D01*
X0013200Y0225099D02*
X0115300Y0225099D01*
X0115300Y0228297D02*
X0013200Y0228297D01*
X0013200Y0231496D02*
X0115300Y0231496D01*
X0115300Y0234694D02*
X0013200Y0234694D01*
X0013200Y0237893D02*
X0115300Y0237893D01*
X0115300Y0241091D02*
X0013200Y0241091D01*
X0013200Y0244290D02*
X0115300Y0244290D01*
X0115300Y0244756D02*
X0115300Y0205944D01*
X0115802Y0204731D01*
X0116731Y0203802D01*
X0117944Y0203300D01*
X0131197Y0203300D01*
X0132913Y0201585D01*
X0135954Y0200325D01*
X0139246Y0200325D01*
X0142287Y0201585D01*
X0144003Y0203300D01*
X0157256Y0203300D01*
X0158469Y0203802D01*
X0159398Y0204731D01*
X0159900Y0205944D01*
X0159900Y0207256D01*
X0159900Y0244756D01*
X0159398Y0245969D01*
X0158469Y0246898D01*
X0157256Y0247400D01*
X0117944Y0247400D01*
X0116731Y0246898D01*
X0115802Y0245969D01*
X0115300Y0244756D01*
X0095400Y0247488D02*
X0314800Y0247488D01*
X0314800Y0250687D02*
X0095400Y0250687D01*
X0095400Y0253885D02*
X0314800Y0253885D01*
X0314800Y0257084D02*
X0095400Y0257084D01*
X0095400Y0260282D02*
X0314800Y0260282D01*
X0330400Y0260282D02*
X0374800Y0260282D01*
X0374800Y0257084D02*
X0330400Y0257084D01*
X0330400Y0253885D02*
X0374800Y0253885D01*
X0374800Y0250687D02*
X0330400Y0250687D01*
X0330400Y0247488D02*
X0374800Y0247488D01*
X0390400Y0247488D02*
X0395701Y0247488D01*
X0395701Y0244290D02*
X0299900Y0244290D01*
X0299900Y0244756D02*
X0299900Y0207256D01*
X0299900Y0205944D01*
X0299398Y0204731D01*
X0298469Y0203802D01*
X0297256Y0203300D01*
X0284003Y0203300D01*
X0282287Y0201585D01*
X0279246Y0200325D01*
X0275954Y0200325D01*
X0272913Y0201585D01*
X0271197Y0203300D01*
X0257944Y0203300D01*
X0256731Y0203802D01*
X0255802Y0204731D01*
X0255300Y0205944D01*
X0255300Y0244756D01*
X0255802Y0245969D01*
X0256731Y0246898D01*
X0257944Y0247400D01*
X0297256Y0247400D01*
X0298469Y0246898D01*
X0299398Y0245969D01*
X0299900Y0244756D01*
X0299900Y0241091D02*
X0395701Y0241091D01*
X0395701Y0237893D02*
X0299900Y0237893D01*
X0299900Y0234694D02*
X0395701Y0234694D01*
X0395701Y0231496D02*
X0299900Y0231496D01*
X0299900Y0228297D02*
X0395701Y0228297D01*
X0395701Y0225099D02*
X0299900Y0225099D01*
X0299900Y0221900D02*
X0395701Y0221900D01*
X0395701Y0218702D02*
X0299900Y0218702D01*
X0299900Y0215503D02*
X0395701Y0215503D01*
X0395701Y0212305D02*
X0363535Y0212305D01*
X0362783Y0213057D02*
X0359420Y0214450D01*
X0355780Y0214450D01*
X0352417Y0213057D01*
X0349843Y0210483D01*
X0348450Y0207120D01*
X0348450Y0203480D01*
X0349843Y0200117D01*
X0352417Y0197543D01*
X0355780Y0196150D01*
X0359420Y0196150D01*
X0362783Y0197543D01*
X0365357Y0200117D01*
X0366750Y0203480D01*
X0366750Y0207120D01*
X0365357Y0210483D01*
X0362783Y0213057D01*
X0365927Y0209106D02*
X0395701Y0209106D01*
X0395701Y0205908D02*
X0366750Y0205908D01*
X0366431Y0202709D02*
X0375039Y0202709D01*
X0372703Y0199511D02*
X0364751Y0199511D01*
X0359812Y0196312D02*
X0372350Y0196312D01*
X0374016Y0193114D02*
X0341184Y0193114D01*
X0341887Y0193817D02*
X0342850Y0196142D01*
X0342850Y0198658D01*
X0341887Y0200983D01*
X0340108Y0202762D01*
X0337783Y0203725D01*
X0328217Y0203725D01*
X0325892Y0202762D01*
X0324113Y0200983D01*
X0323150Y0198658D01*
X0323150Y0196142D01*
X0324113Y0193817D01*
X0325892Y0192038D01*
X0328217Y0191075D01*
X0337783Y0191075D01*
X0340108Y0192038D01*
X0341887Y0193817D01*
X0342850Y0196312D02*
X0355388Y0196312D01*
X0350449Y0199511D02*
X0342497Y0199511D01*
X0340161Y0202709D02*
X0348769Y0202709D01*
X0348450Y0205908D02*
X0299885Y0205908D01*
X0299900Y0209106D02*
X0349273Y0209106D01*
X0351665Y0212305D02*
X0299900Y0212305D01*
X0293300Y0212305D02*
X0285022Y0212305D01*
X0284615Y0213287D02*
X0282287Y0215615D01*
X0279246Y0216875D01*
X0275954Y0216875D01*
X0272913Y0215615D01*
X0270585Y0213287D01*
X0269325Y0210246D01*
X0269325Y0209900D01*
X0261900Y0209900D01*
X0261900Y0240800D01*
X0270701Y0240800D01*
X0270342Y0240179D01*
X0269937Y0239201D01*
X0269663Y0238179D01*
X0269525Y0237129D01*
X0269525Y0236825D01*
X0277375Y0236825D01*
X0277375Y0236375D01*
X0269525Y0236375D01*
X0269525Y0236071D01*
X0269663Y0235021D01*
X0269937Y0233999D01*
X0270342Y0233021D01*
X0270871Y0232104D01*
X0271516Y0231264D01*
X0272264Y0230516D01*
X0273104Y0229871D01*
X0274021Y0229342D01*
X0274999Y0228937D01*
X0276021Y0228663D01*
X0277071Y0228525D01*
X0277375Y0228525D01*
X0277375Y0236375D01*
X0277825Y0236375D01*
X0277825Y0236825D01*
X0285675Y0236825D01*
X0285675Y0237129D01*
X0285537Y0238179D01*
X0285263Y0239201D01*
X0284858Y0240179D01*
X0284499Y0240800D01*
X0293300Y0240800D01*
X0293300Y0209900D01*
X0285875Y0209900D01*
X0285875Y0210246D01*
X0284615Y0213287D01*
X0282399Y0215503D02*
X0293300Y0215503D01*
X0293300Y0218702D02*
X0261900Y0218702D01*
X0261900Y0221900D02*
X0293300Y0221900D01*
X0293300Y0225099D02*
X0261900Y0225099D01*
X0261900Y0228297D02*
X0293300Y0228297D01*
X0293300Y0231496D02*
X0283862Y0231496D01*
X0283684Y0231264D02*
X0284329Y0232104D01*
X0284858Y0233021D01*
X0285263Y0233999D01*
X0285537Y0235021D01*
X0285675Y0236071D01*
X0285675Y0236375D01*
X0277825Y0236375D01*
X0277825Y0228525D01*
X0278129Y0228525D01*
X0279179Y0228663D01*
X0280201Y0228937D01*
X0281179Y0229342D01*
X0282096Y0229871D01*
X0282936Y0230516D01*
X0283684Y0231264D01*
X0285449Y0234694D02*
X0293300Y0234694D01*
X0293300Y0237893D02*
X0285574Y0237893D01*
X0277825Y0234694D02*
X0277375Y0234694D01*
X0277375Y0231496D02*
X0277825Y0231496D01*
X0271338Y0231496D02*
X0261900Y0231496D01*
X0261900Y0234694D02*
X0269751Y0234694D01*
X0269626Y0237893D02*
X0261900Y0237893D01*
X0255300Y0237893D02*
X0229900Y0237893D01*
X0229900Y0241091D02*
X0255300Y0241091D01*
X0255300Y0244290D02*
X0229900Y0244290D01*
X0229900Y0244756D02*
X0229900Y0207256D01*
X0229900Y0205944D01*
X0229398Y0204731D01*
X0228469Y0203802D01*
X0227256Y0203300D01*
X0214003Y0203300D01*
X0212287Y0201585D01*
X0209246Y0200325D01*
X0205954Y0200325D01*
X0202913Y0201585D01*
X0201197Y0203300D01*
X0187944Y0203300D01*
X0186731Y0203802D01*
X0185802Y0204731D01*
X0185300Y0205944D01*
X0185300Y0244756D01*
X0185802Y0245969D01*
X0186731Y0246898D01*
X0187944Y0247400D01*
X0227256Y0247400D01*
X0228469Y0246898D01*
X0229398Y0245969D01*
X0229900Y0244756D01*
X0229900Y0234694D02*
X0255300Y0234694D01*
X0255300Y0231496D02*
X0229900Y0231496D01*
X0229900Y0228297D02*
X0255300Y0228297D01*
X0255300Y0225099D02*
X0229900Y0225099D01*
X0229900Y0221900D02*
X0255300Y0221900D01*
X0255300Y0218702D02*
X0229900Y0218702D01*
X0229900Y0215503D02*
X0255300Y0215503D01*
X0255300Y0212305D02*
X0229900Y0212305D01*
X0229900Y0209106D02*
X0255300Y0209106D01*
X0255315Y0205908D02*
X0229885Y0205908D01*
X0213412Y0202709D02*
X0271788Y0202709D01*
X0283412Y0202709D02*
X0325839Y0202709D01*
X0323503Y0199511D02*
X0091697Y0199511D01*
X0092050Y0198658D02*
X0091087Y0200983D01*
X0089308Y0202762D01*
X0086983Y0203725D01*
X0077417Y0203725D01*
X0075092Y0202762D01*
X0073313Y0200983D01*
X0072350Y0198658D01*
X0072350Y0196142D01*
X0073313Y0193817D01*
X0075092Y0192038D01*
X0077417Y0191075D01*
X0086983Y0191075D01*
X0089308Y0192038D01*
X0091087Y0193817D01*
X0092050Y0196142D01*
X0092050Y0198658D01*
X0092050Y0196312D02*
X0323150Y0196312D01*
X0324816Y0193114D02*
X0090384Y0193114D01*
X0089361Y0202709D02*
X0131788Y0202709D01*
X0143412Y0202709D02*
X0201788Y0202709D01*
X0185315Y0205908D02*
X0159885Y0205908D01*
X0159900Y0209106D02*
X0185300Y0209106D01*
X0185300Y0212305D02*
X0159900Y0212305D01*
X0159900Y0215503D02*
X0185300Y0215503D01*
X0185300Y0218702D02*
X0159900Y0218702D01*
X0159900Y0221900D02*
X0185300Y0221900D01*
X0185300Y0225099D02*
X0159900Y0225099D01*
X0159900Y0228297D02*
X0185300Y0228297D01*
X0185300Y0231496D02*
X0159900Y0231496D01*
X0159900Y0234694D02*
X0185300Y0234694D01*
X0185300Y0237893D02*
X0159900Y0237893D01*
X0159900Y0241091D02*
X0185300Y0241091D01*
X0185300Y0244290D02*
X0159900Y0244290D01*
X0115300Y0209106D02*
X0065927Y0209106D01*
X0066750Y0205908D02*
X0115315Y0205908D01*
X0091087Y0181383D02*
X0089308Y0183162D01*
X0086983Y0184125D01*
X0077417Y0184125D01*
X0075092Y0183162D01*
X0073313Y0181383D01*
X0072350Y0179058D01*
X0072350Y0176542D01*
X0073313Y0174217D01*
X0075092Y0172438D01*
X0077417Y0171475D01*
X0086983Y0171475D01*
X0089308Y0172438D01*
X0091087Y0174217D01*
X0092050Y0176542D01*
X0092050Y0179058D01*
X0091087Y0181383D01*
X0091527Y0180320D02*
X0323673Y0180320D01*
X0323150Y0177121D02*
X0092050Y0177121D01*
X0090792Y0173923D02*
X0324408Y0173923D01*
X0326752Y0183518D02*
X0088448Y0183518D01*
X0075952Y0183518D02*
X0039248Y0183518D01*
X0040108Y0183162D02*
X0037783Y0184125D01*
X0028217Y0184125D01*
X0025892Y0183162D01*
X0024113Y0181383D01*
X0023150Y0179058D01*
X0023150Y0176542D01*
X0024113Y0174217D01*
X0025892Y0172438D01*
X0028217Y0171475D01*
X0037783Y0171475D01*
X0040108Y0172438D01*
X0041887Y0174217D01*
X0042850Y0176542D01*
X0042850Y0179058D01*
X0041887Y0181383D01*
X0040108Y0183162D01*
X0042327Y0180320D02*
X0072873Y0180320D01*
X0072350Y0177121D02*
X0063319Y0177121D01*
X0065838Y0173923D02*
X0073608Y0173923D01*
X0066750Y0170724D02*
X0348450Y0170724D01*
X0349362Y0173923D02*
X0341592Y0173923D01*
X0342850Y0177121D02*
X0351881Y0177121D01*
X0348680Y0167526D02*
X0066520Y0167526D01*
X0064967Y0164327D02*
X0350233Y0164327D01*
X0388448Y0183518D02*
X0389000Y0183518D01*
X0387792Y0186717D02*
X0013200Y0186717D01*
X0013200Y0183518D02*
X0026752Y0183518D01*
X0023673Y0180320D02*
X0013200Y0180320D01*
X0013200Y0177121D02*
X0023150Y0177121D01*
X0024408Y0173923D02*
X0013200Y0173923D01*
X0013200Y0170724D02*
X0048450Y0170724D01*
X0049362Y0173923D02*
X0041592Y0173923D01*
X0042850Y0177121D02*
X0051881Y0177121D01*
X0048680Y0167526D02*
X0013200Y0167526D01*
X0013200Y0164327D02*
X0050233Y0164327D01*
X0041184Y0193114D02*
X0074016Y0193114D01*
X0072350Y0196312D02*
X0059812Y0196312D01*
X0055388Y0196312D02*
X0042850Y0196312D01*
X0042497Y0199511D02*
X0050449Y0199511D01*
X0048769Y0202709D02*
X0040161Y0202709D01*
X0064751Y0199511D02*
X0072703Y0199511D01*
X0075039Y0202709D02*
X0066431Y0202709D01*
X0079800Y0247488D02*
X0035400Y0247488D01*
X0035400Y0250687D02*
X0079800Y0250687D01*
X0079800Y0253885D02*
X0035400Y0253885D01*
X0035400Y0257084D02*
X0079800Y0257084D01*
X0079800Y0260282D02*
X0035400Y0260282D01*
X0019800Y0260282D02*
X0013200Y0260282D01*
X0013200Y0257084D02*
X0019800Y0257084D01*
X0019800Y0253885D02*
X0013200Y0253885D01*
X0013200Y0250687D02*
X0019800Y0250687D01*
X0019800Y0247488D02*
X0013200Y0247488D01*
X0261900Y0215503D02*
X0272801Y0215503D01*
X0270178Y0212305D02*
X0261900Y0212305D01*
X0389361Y0202709D02*
X0395701Y0202709D01*
X0395701Y0199511D02*
X0391697Y0199511D01*
X0392050Y0196312D02*
X0395701Y0196312D01*
X0395701Y0193114D02*
X0391577Y0193114D01*
X0394776Y0189915D02*
X0395701Y0189915D01*
X0395701Y0250687D02*
X0390400Y0250687D01*
X0390400Y0253885D02*
X0395701Y0253885D01*
X0395701Y0257084D02*
X0390400Y0257084D01*
X0390400Y0260282D02*
X0395701Y0260282D01*
X0257147Y0071570D02*
X0228053Y0071570D01*
X0229900Y0068372D02*
X0255300Y0068372D01*
X0255300Y0065173D02*
X0229900Y0065173D01*
X0229900Y0061975D02*
X0255300Y0061975D01*
X0255300Y0058776D02*
X0229900Y0058776D01*
X0229900Y0055578D02*
X0255300Y0055578D01*
X0255300Y0052379D02*
X0229900Y0052379D01*
X0229900Y0049181D02*
X0255300Y0049181D01*
X0255300Y0045982D02*
X0229900Y0045982D01*
X0229900Y0042784D02*
X0255300Y0042784D01*
X0255300Y0039585D02*
X0229900Y0039585D01*
X0229900Y0036387D02*
X0255300Y0036387D01*
X0255300Y0033188D02*
X0229900Y0033188D01*
X0229712Y0029990D02*
X0255488Y0029990D01*
X0185488Y0029990D02*
X0159712Y0029990D01*
X0159900Y0033188D02*
X0185300Y0033188D01*
X0185300Y0036387D02*
X0159900Y0036387D01*
X0159900Y0039585D02*
X0185300Y0039585D01*
X0185300Y0042784D02*
X0159900Y0042784D01*
X0159900Y0045982D02*
X0185300Y0045982D01*
X0185300Y0049181D02*
X0159900Y0049181D01*
X0159900Y0052379D02*
X0185300Y0052379D01*
X0185300Y0055578D02*
X0159900Y0055578D01*
X0159900Y0058776D02*
X0185300Y0058776D01*
X0185300Y0061975D02*
X0159900Y0061975D01*
X0159900Y0065173D02*
X0185300Y0065173D01*
X0185300Y0068372D02*
X0159900Y0068372D01*
X0158053Y0071570D02*
X0187147Y0071570D01*
M02*
