G75*
%MOIN*%
%OFA0B0*%
%FSLAX25Y25*%
%IPPOS*%
%LPD*%
%AMOC8*
5,1,8,0,0,1.08239X$1,22.5*
%
%ADD10C,0.00800*%
%ADD11C,0.03482*%
%ADD12C,0.00600*%
%ADD13C,0.00000*%
%ADD14C,0.00400*%
D10*
X0197364Y0120080D02*
X0197364Y0155120D01*
X0217836Y0155120D01*
X0217836Y0120080D01*
X0197364Y0120080D01*
D11*
X0213998Y0151576D03*
D12*
X0316600Y0246600D02*
X0316600Y0268600D01*
X0328600Y0268600D01*
X0328600Y0246600D01*
X0316600Y0246600D01*
X0376600Y0246600D02*
X0376600Y0268600D01*
X0388600Y0268600D01*
X0388600Y0246600D01*
X0376600Y0246600D01*
X0093600Y0246600D02*
X0081600Y0246600D01*
X0081600Y0268600D01*
X0093600Y0268600D01*
X0093600Y0246600D01*
X0033600Y0246600D02*
X0021600Y0246600D01*
X0021600Y0268600D01*
X0033600Y0268600D01*
X0033600Y0246600D01*
D13*
X0027994Y0268624D02*
X0027960Y0268657D01*
X0027927Y0268624D01*
X0027927Y0268724D01*
X0027902Y0268724D02*
X0027868Y0268724D01*
X0027885Y0268724D02*
X0027885Y0268624D01*
X0027902Y0268624D02*
X0027868Y0268624D01*
X0027840Y0268624D02*
X0027840Y0268724D01*
X0027790Y0268724D01*
X0027774Y0268707D01*
X0027774Y0268674D01*
X0027790Y0268657D01*
X0027840Y0268657D01*
X0027807Y0268657D02*
X0027774Y0268624D01*
X0027748Y0268624D02*
X0027681Y0268624D01*
X0027656Y0268624D02*
X0027656Y0268724D01*
X0027606Y0268724D01*
X0027589Y0268707D01*
X0027589Y0268674D01*
X0027606Y0268657D01*
X0027656Y0268657D01*
X0027715Y0268674D02*
X0027748Y0268674D01*
X0027748Y0268724D02*
X0027748Y0268624D01*
X0027748Y0268724D02*
X0027681Y0268724D01*
X0027564Y0268690D02*
X0027531Y0268724D01*
X0027497Y0268690D01*
X0027497Y0268624D01*
X0027472Y0268624D02*
X0027422Y0268624D01*
X0027405Y0268640D01*
X0027405Y0268707D01*
X0027422Y0268724D01*
X0027472Y0268724D01*
X0027472Y0268624D01*
X0027497Y0268674D02*
X0027564Y0268674D01*
X0027564Y0268690D02*
X0027564Y0268624D01*
X0027380Y0268640D02*
X0027363Y0268624D01*
X0027330Y0268624D01*
X0027313Y0268640D01*
X0027313Y0268657D01*
X0027330Y0268674D01*
X0027363Y0268674D01*
X0027380Y0268690D01*
X0027380Y0268707D01*
X0027363Y0268724D01*
X0027330Y0268724D01*
X0027313Y0268707D01*
X0027288Y0268724D02*
X0027254Y0268690D01*
X0027221Y0268724D01*
X0027221Y0268624D01*
X0027196Y0268624D02*
X0027146Y0268624D01*
X0027129Y0268640D01*
X0027129Y0268707D01*
X0027146Y0268724D01*
X0027196Y0268724D01*
X0027196Y0268624D01*
X0027288Y0268624D02*
X0027288Y0268724D01*
X0027104Y0268724D02*
X0027104Y0268674D01*
X0027070Y0268690D01*
X0027054Y0268690D01*
X0027037Y0268674D01*
X0027037Y0268640D01*
X0027054Y0268624D01*
X0027087Y0268624D01*
X0027104Y0268640D01*
X0027104Y0268724D02*
X0027037Y0268724D01*
X0027012Y0268674D02*
X0026945Y0268674D01*
X0026919Y0268707D02*
X0026903Y0268724D01*
X0026869Y0268724D01*
X0026853Y0268707D01*
X0026853Y0268690D01*
X0026919Y0268624D01*
X0026853Y0268624D01*
X0026811Y0268624D02*
X0026794Y0268624D01*
X0026794Y0268640D01*
X0026811Y0268640D01*
X0026811Y0268624D01*
X0026794Y0268624D02*
X0026827Y0268590D01*
X0026766Y0268640D02*
X0026749Y0268624D01*
X0026716Y0268624D01*
X0026699Y0268640D01*
X0026699Y0268674D01*
X0026716Y0268690D01*
X0026733Y0268690D01*
X0026766Y0268674D01*
X0026766Y0268724D01*
X0026699Y0268724D01*
X0027994Y0268724D02*
X0027994Y0268624D01*
X0086699Y0268640D02*
X0086716Y0268624D01*
X0086749Y0268624D01*
X0086766Y0268640D01*
X0086794Y0268640D02*
X0086811Y0268640D01*
X0086811Y0268624D01*
X0086794Y0268624D01*
X0086794Y0268640D01*
X0086794Y0268624D02*
X0086827Y0268590D01*
X0086853Y0268624D02*
X0086919Y0268624D01*
X0086853Y0268690D01*
X0086853Y0268707D01*
X0086869Y0268724D01*
X0086903Y0268724D01*
X0086919Y0268707D01*
X0086945Y0268674D02*
X0087012Y0268674D01*
X0087037Y0268674D02*
X0087037Y0268640D01*
X0087054Y0268624D01*
X0087087Y0268624D01*
X0087104Y0268640D01*
X0087129Y0268640D02*
X0087129Y0268707D01*
X0087146Y0268724D01*
X0087196Y0268724D01*
X0087196Y0268624D01*
X0087146Y0268624D01*
X0087129Y0268640D01*
X0087104Y0268674D02*
X0087070Y0268690D01*
X0087054Y0268690D01*
X0087037Y0268674D01*
X0087037Y0268724D02*
X0087104Y0268724D01*
X0087104Y0268674D01*
X0087221Y0268724D02*
X0087221Y0268624D01*
X0087288Y0268624D02*
X0087288Y0268724D01*
X0087254Y0268690D01*
X0087221Y0268724D01*
X0087313Y0268707D02*
X0087330Y0268724D01*
X0087363Y0268724D01*
X0087380Y0268707D01*
X0087380Y0268690D01*
X0087363Y0268674D01*
X0087330Y0268674D01*
X0087313Y0268657D01*
X0087313Y0268640D01*
X0087330Y0268624D01*
X0087363Y0268624D01*
X0087380Y0268640D01*
X0087405Y0268640D02*
X0087405Y0268707D01*
X0087422Y0268724D01*
X0087472Y0268724D01*
X0087472Y0268624D01*
X0087422Y0268624D01*
X0087405Y0268640D01*
X0087497Y0268624D02*
X0087497Y0268690D01*
X0087531Y0268724D01*
X0087564Y0268690D01*
X0087564Y0268624D01*
X0087564Y0268674D02*
X0087497Y0268674D01*
X0087589Y0268674D02*
X0087606Y0268657D01*
X0087656Y0268657D01*
X0087656Y0268624D02*
X0087656Y0268724D01*
X0087606Y0268724D01*
X0087589Y0268707D01*
X0087589Y0268674D01*
X0087681Y0268724D02*
X0087748Y0268724D01*
X0087748Y0268624D01*
X0087681Y0268624D01*
X0087715Y0268674D02*
X0087748Y0268674D01*
X0087774Y0268674D02*
X0087790Y0268657D01*
X0087840Y0268657D01*
X0087807Y0268657D02*
X0087774Y0268624D01*
X0087774Y0268674D02*
X0087774Y0268707D01*
X0087790Y0268724D01*
X0087840Y0268724D01*
X0087840Y0268624D01*
X0087868Y0268624D02*
X0087902Y0268624D01*
X0087885Y0268624D02*
X0087885Y0268724D01*
X0087902Y0268724D02*
X0087868Y0268724D01*
X0087927Y0268724D02*
X0087927Y0268624D01*
X0087960Y0268657D01*
X0087994Y0268624D01*
X0087994Y0268724D01*
X0086766Y0268724D02*
X0086766Y0268674D01*
X0086733Y0268690D01*
X0086716Y0268690D01*
X0086699Y0268674D01*
X0086699Y0268640D01*
X0086699Y0268724D02*
X0086766Y0268724D01*
X0321699Y0268674D02*
X0321699Y0268640D01*
X0321716Y0268624D01*
X0321749Y0268624D01*
X0321766Y0268640D01*
X0321794Y0268640D02*
X0321811Y0268640D01*
X0321811Y0268624D01*
X0321794Y0268624D01*
X0321794Y0268640D01*
X0321794Y0268624D02*
X0321827Y0268590D01*
X0321853Y0268624D02*
X0321919Y0268624D01*
X0321853Y0268690D01*
X0321853Y0268707D01*
X0321869Y0268724D01*
X0321903Y0268724D01*
X0321919Y0268707D01*
X0321945Y0268674D02*
X0322012Y0268674D01*
X0322037Y0268674D02*
X0322037Y0268640D01*
X0322054Y0268624D01*
X0322087Y0268624D01*
X0322104Y0268640D01*
X0322129Y0268640D02*
X0322129Y0268707D01*
X0322146Y0268724D01*
X0322196Y0268724D01*
X0322196Y0268624D01*
X0322146Y0268624D01*
X0322129Y0268640D01*
X0322104Y0268674D02*
X0322070Y0268690D01*
X0322054Y0268690D01*
X0322037Y0268674D01*
X0322037Y0268724D02*
X0322104Y0268724D01*
X0322104Y0268674D01*
X0322221Y0268724D02*
X0322221Y0268624D01*
X0322288Y0268624D02*
X0322288Y0268724D01*
X0322254Y0268690D01*
X0322221Y0268724D01*
X0322313Y0268707D02*
X0322330Y0268724D01*
X0322363Y0268724D01*
X0322380Y0268707D01*
X0322380Y0268690D01*
X0322363Y0268674D01*
X0322330Y0268674D01*
X0322313Y0268657D01*
X0322313Y0268640D01*
X0322330Y0268624D01*
X0322363Y0268624D01*
X0322380Y0268640D01*
X0322405Y0268640D02*
X0322405Y0268707D01*
X0322422Y0268724D01*
X0322472Y0268724D01*
X0322472Y0268624D01*
X0322422Y0268624D01*
X0322405Y0268640D01*
X0322497Y0268624D02*
X0322497Y0268690D01*
X0322531Y0268724D01*
X0322564Y0268690D01*
X0322564Y0268624D01*
X0322564Y0268674D02*
X0322497Y0268674D01*
X0322589Y0268674D02*
X0322606Y0268657D01*
X0322656Y0268657D01*
X0322656Y0268624D02*
X0322656Y0268724D01*
X0322606Y0268724D01*
X0322589Y0268707D01*
X0322589Y0268674D01*
X0322681Y0268724D02*
X0322748Y0268724D01*
X0322748Y0268624D01*
X0322681Y0268624D01*
X0322715Y0268674D02*
X0322748Y0268674D01*
X0322774Y0268674D02*
X0322790Y0268657D01*
X0322840Y0268657D01*
X0322807Y0268657D02*
X0322774Y0268624D01*
X0322774Y0268674D02*
X0322774Y0268707D01*
X0322790Y0268724D01*
X0322840Y0268724D01*
X0322840Y0268624D01*
X0322868Y0268624D02*
X0322902Y0268624D01*
X0322885Y0268624D02*
X0322885Y0268724D01*
X0322902Y0268724D02*
X0322868Y0268724D01*
X0322927Y0268724D02*
X0322927Y0268624D01*
X0322960Y0268657D01*
X0322994Y0268624D01*
X0322994Y0268724D01*
X0321766Y0268724D02*
X0321766Y0268674D01*
X0321733Y0268690D01*
X0321716Y0268690D01*
X0321699Y0268674D01*
X0321699Y0268724D02*
X0321766Y0268724D01*
X0381699Y0268724D02*
X0381766Y0268724D01*
X0381766Y0268674D01*
X0381733Y0268690D01*
X0381716Y0268690D01*
X0381699Y0268674D01*
X0381699Y0268640D01*
X0381716Y0268624D01*
X0381749Y0268624D01*
X0381766Y0268640D01*
X0381794Y0268640D02*
X0381811Y0268640D01*
X0381811Y0268624D01*
X0381794Y0268624D01*
X0381794Y0268640D01*
X0381794Y0268624D02*
X0381827Y0268590D01*
X0381853Y0268624D02*
X0381919Y0268624D01*
X0381853Y0268690D01*
X0381853Y0268707D01*
X0381869Y0268724D01*
X0381903Y0268724D01*
X0381919Y0268707D01*
X0381945Y0268674D02*
X0382012Y0268674D01*
X0382037Y0268674D02*
X0382037Y0268640D01*
X0382054Y0268624D01*
X0382087Y0268624D01*
X0382104Y0268640D01*
X0382129Y0268640D02*
X0382129Y0268707D01*
X0382146Y0268724D01*
X0382196Y0268724D01*
X0382196Y0268624D01*
X0382146Y0268624D01*
X0382129Y0268640D01*
X0382104Y0268674D02*
X0382070Y0268690D01*
X0382054Y0268690D01*
X0382037Y0268674D01*
X0382037Y0268724D02*
X0382104Y0268724D01*
X0382104Y0268674D01*
X0382221Y0268724D02*
X0382221Y0268624D01*
X0382288Y0268624D02*
X0382288Y0268724D01*
X0382254Y0268690D01*
X0382221Y0268724D01*
X0382313Y0268707D02*
X0382330Y0268724D01*
X0382363Y0268724D01*
X0382380Y0268707D01*
X0382380Y0268690D01*
X0382363Y0268674D01*
X0382330Y0268674D01*
X0382313Y0268657D01*
X0382313Y0268640D01*
X0382330Y0268624D01*
X0382363Y0268624D01*
X0382380Y0268640D01*
X0382405Y0268640D02*
X0382405Y0268707D01*
X0382422Y0268724D01*
X0382472Y0268724D01*
X0382472Y0268624D01*
X0382422Y0268624D01*
X0382405Y0268640D01*
X0382497Y0268624D02*
X0382497Y0268690D01*
X0382531Y0268724D01*
X0382564Y0268690D01*
X0382564Y0268624D01*
X0382564Y0268674D02*
X0382497Y0268674D01*
X0382589Y0268674D02*
X0382606Y0268657D01*
X0382656Y0268657D01*
X0382656Y0268624D02*
X0382656Y0268724D01*
X0382606Y0268724D01*
X0382589Y0268707D01*
X0382589Y0268674D01*
X0382681Y0268724D02*
X0382748Y0268724D01*
X0382748Y0268624D01*
X0382681Y0268624D01*
X0382715Y0268674D02*
X0382748Y0268674D01*
X0382774Y0268674D02*
X0382790Y0268657D01*
X0382840Y0268657D01*
X0382807Y0268657D02*
X0382774Y0268624D01*
X0382774Y0268674D02*
X0382774Y0268707D01*
X0382790Y0268724D01*
X0382840Y0268724D01*
X0382840Y0268624D01*
X0382868Y0268624D02*
X0382902Y0268624D01*
X0382885Y0268624D02*
X0382885Y0268724D01*
X0382902Y0268724D02*
X0382868Y0268724D01*
X0382927Y0268724D02*
X0382927Y0268624D01*
X0382960Y0268657D01*
X0382994Y0268624D01*
X0382994Y0268724D01*
D14*
X0324108Y0182404D02*
X0321806Y0182404D01*
X0321039Y0181637D01*
X0321039Y0180102D01*
X0321806Y0179335D01*
X0324108Y0179335D01*
X0322573Y0179335D02*
X0321039Y0177800D01*
X0319504Y0178567D02*
X0318737Y0177800D01*
X0317202Y0177800D01*
X0316435Y0178567D01*
X0316435Y0179335D01*
X0317202Y0180102D01*
X0317969Y0180102D01*
X0317202Y0180102D02*
X0316435Y0180869D01*
X0316435Y0181637D01*
X0317202Y0182404D01*
X0318737Y0182404D01*
X0319504Y0181637D01*
X0324108Y0182404D02*
X0324108Y0177800D01*
M02*
